<!-- Generated by IcoMoon.io -->
<svg version="1.1" xmlns="http://www.w3.org/2000/svg" width="320" height="320" viewBox="0 0 320 320">
<title></title>
<g id="icomoon-ignore">
</g>
<path d="M188.399 159.875l129.263-129.257c2.782-2.786 2.782-7.299 0-10.085l-18.435-18.446c-1.337-1.334-3.156-2.088-5.046-2.088-1.893 0-3.709 0.754-5.046 2.088l-129.26 129.26-129.26-129.26c-2.678-2.678-7.417-2.674-10.088 0l-18.432 18.446c-2.786 2.786-2.786 7.299 0 10.085l129.26 129.257-129.26 129.257c-2.786 2.786-2.786 7.299 0 10.085l18.435 18.446c1.337 1.334 3.153 2.088 5.046 2.088s3.705-0.754 5.042-2.088l129.26-129.26 129.26 129.26c1.337 1.334 3.156 2.088 5.046 2.088s3.709-0.754 5.046-2.088l18.435-18.446c2.782-2.786 2.782-7.299 0-10.085l-129.267-129.257z"></path>
</svg>
