<svg xmlns="http://www.w3.org/2000/svg" viewBox="0 0 531.98 825.65"><defs><style>.cls-1{fill:#c6c6c6;}.cls-2{fill:#231b1f;}.cls-3{fill:#e0e3e9;}.cls-4{fill:#9d9a9b;}.cls-5{fill:#37252b;}.cls-6{fill:#40444b;}.cls-7{fill:#171919;}.cls-8{fill:#8d949e;}.cls-9{fill:#1f1e20;}.cls-10{fill:#f4b461;}.cls-11{fill:#b4b4bb;}.cls-12{fill:none;stroke:#000;stroke-miterlimit:10;}.cls-13{fill:#2d2124;}.cls-14{fill:#a3a6ac;}.cls-15{fill:#a0a0a0;}.cls-16{fill:#402e0c;}.cls-16,.cls-20,.cls-21,.cls-22{opacity:0.44;}.cls-17{fill:#b2b7c0;}.cls-18{fill:#a3a3a3;}.cls-19{fill:#4f3740;}.cls-20{fill:#c1aaa1;}.cls-21{fill:#d5cfcd;}.cls-22{fill:#d5c6c2;}</style></defs><title>проект (1)</title><g id="Слой_7" data-name="Слой 7"><path class="cls-1" d="M597.28,838" transform="translate(-237.21 -84.9)"/><path class="cls-2" d="M765.61,660.61v17.64l-10.1,6.34v16.66L750,705.48h-8.26l-10.88,7.8-7.26,22,4.36,6L730,773s-6.43,14.92-20,14.92l-2.87.57-11.94,8.26-2.18-1.43-2,1.09s-1.38-1.43-1.38-1.26a10,10,0,0,1-1.55,1.26l-1.55-.57-1,.92-1.32-.63-15.65,10.69-4.74,6.43-17.6-10.41L619.93,827l-19,17.29-5.82,6-15.88,15.61-2.18,4.44c-14.81,19.53-24.31,26.79-47,35.35-15,5.66-57.42,11-83.76-11.94,0,0-12.65,16.53-57.18,3.21l-12.4-5s-34,10.1-65.71,1.84-38.5-22-38.5-22v-23s-22-1.84-23.87-15.15V802.81l9.64,2.75" transform="translate(-237.21 -84.9)"/><path class="cls-3" d="M250.45,800.83l-5.22-79.44s4-11.4,3.33-19.66-8.2-136.16-8.2-136.16l9.68-15.8,49.77-46.58,70.37,16.58,135.63,71.28,59.28-43.64,94.6-44.21,64.85,27.65,22.25,24.79,18.82,21.45v12.7l-2.45,1.68-1.22,65.8,3.67,3.33-9.3,5.91-2-.93-.34,3.28,2.63,2.89-1.14.89-.11,5.39,2.87,2.18L751,684.9l-1.11-.48-1,1-.86-.57-1.38,1-.8-.63-1.43,1.21-.92-.92-12.45,7.86-.34,33.59-3.21,1.22.46,13.16s4.13,8.42-7.8,13.93-13.31,4.59-13.31,4.59v1.68l2.75,3.21v4.13l-3.06.46L705.93,788l-11.36,7.84L693,794.39l-1.57,1.26-1.65-1.49L688,795.54l-1.3-1.26-1.49,1.22-1.34-1-3.18,2.3L671,802.88l-1.07-.27-2.75,2,.08,9-8.49,5.47L653,812.79l-12.43,9.87L618.93,837l2.52-11.25-17.22-20.2-25.1,26.25h0l-7.4,6.91h0l-2.17,2.18c-2.38,5.4-4.43,7.92-8.36,14.45l-.11.12c-2,2.2-4,4.45-6,6.72-4.31,5-18.76,18.45-50.28,20.51-29.49,1.93-58.76-15.63-58.76-15.63s-4.13,9.18-32.13,7.8-33.86-13.31-33.86-13.31-78.46,14.08-99.28-14.38c0,0-6-10.41-5.51-22.34C275.31,824.84,251.71,820.07,250.45,800.83Z" transform="translate(-237.21 -84.9)"/><polygon class="cls-4" points="518.3 587.76 519.44 586.86 511.79 591.1 511.79 591.1 511.72 591.1 518.3 587.76"/></g><g id="Слой_5" data-name="Слой 5"><path class="cls-5" d="M245.93,754h2.75s-.34-13.54-1.38-15.26S245.93,754,245.93,754Z" transform="translate(-237.21 -84.9)"/><path class="cls-6" d="M286.87,784.44s2.07-4.44,2.83,7l.91,30L288.74,819l-.3-7.19Z" transform="translate(-237.21 -84.9)"/><polygon class="cls-2" points="49.66 699.54 50.96 732.41 48.75 733.27 53.45 736.84 53.28 732.45 52.04 731.84 51.63 722.33 53 723.36 52.96 721.89 51.76 720.95 51.42 713.37 52.72 714.12 52.68 712.86 51.23 711.65 50.59 698.7 50.14 698.88 49.66 699.54"/><path class="cls-2" d="M284.43,777.17c2.51.15,7,1.75,7.86,10.72l2.29-.4c.52-.39,0,.46,0,0,.23-5.77-3.69-11.56-8.37-11.94l-1.91,1A.34.34,0,0,0,284.43,777.17Z" transform="translate(-237.21 -84.9)"/><path class="cls-6" d="M259.83,763.09A4.86,4.86,0,0,1,264,760a4.28,4.28,0,0,1,4.85,3.13c.46,1.46,1.17,35.12,1.17,35.12s-6.08,2-6,1.68-2.16-3.06-2.24-3.75-1.82-33.31-1.82-33.31" transform="translate(-237.21 -84.9)"/><path class="cls-2" d="M269.46,767.23s.23-3.61-1.15-4.88l-.11,3.1-8,.28-.25-3.06a20,20,0,0,0-.48,4.68c.06,2.46,2.08,36.14,2.08,36.14h9.94Zm-8.09,2.3h6.08l.35,11.94h-5.91Zm1.43,25.71-.51-11.94h6.08l.35,11.94Z" transform="translate(-237.21 -84.9)"/><path class="cls-6" d="M406,812a4.86,4.86,0,0,1,4.16-3.13A4.28,4.28,0,0,1,415,812c.46,1.46,1.17,35.12,1.17,35.12s-6.08,2-6,1.68-2.16-3.06-2.24-3.75-1.82-33.31-1.82-33.31" transform="translate(-237.21 -84.9)"/><path class="cls-2" d="M415.62,816.12s.23-3.61-1.15-4.88l-.11,3.1-8,.28-.25-3.06a20,20,0,0,0-.48,4.68c.06,2.46,2.08,36.14,2.08,36.14h9.94Zm-8.09,2.3h6.08l.35,11.94H408ZM409,844.12l-.51-11.94h6.08l.35,11.94Z" transform="translate(-237.21 -84.9)"/><path class="cls-6" d="M338,801.89a4.86,4.86,0,0,1,4.16-3.13,4.28,4.28,0,0,1,4.85,3.13c.46,1.46,1.17,35.12,1.17,35.12s-6.08,2-6,1.68-2.16-3.06-2.24-3.75-1.82-33.31-1.82-33.31" transform="translate(-237.21 -84.9)"/><path class="cls-2" d="M347.67,805.88s.23-3.54-1.15-4.81l-.11,3.14-8,.3-.25-3.05a18.21,18.21,0,0,0-.48,4.55c.06,2.46,2.08,36,2.08,36h9.94ZM339.58,808h6.08l.35,12H340.1ZM341,834l-.51-12h6.08l.35,12Z" transform="translate(-237.21 -84.9)"/><path class="cls-6" d="M510.47,680.73a4.42,4.42,0,0,0-7.42,3.4c0,1.38,0,3.39-.11,6.2-.23,6.58,3.18,153.95,3.18,153.95l8.59-3.13-.92-47.84-2-39.15.72-22.36-1.2-21.72v-20.2l-.81-9.15" transform="translate(-237.21 -84.9)"/><path class="cls-2" d="M509.15,679.9a3.25,3.25,0,0,1,2.26,2.52c.31,2,3.3,158.75,3.3,158.75s3.68,3,4,4.24L521,847v1.68l2,.61v3.06s-19.33,2-23,.38l-.41-1.61,1.17-.61-.14-2,2.68-.61-.07-2,2.6-2.07.15-2.37,7.5-.77.15-13.7-7.92.37-.11-1.67s7.12.46,7.57-.84,0-12.7,0-12.7l-7.8.37,0-1.91s7.46-.14,7.54-.91-.23-12.32-.23-12.32l-7.6.14,0-1.38,7.86-.22-.31-12.85-7.84.31-.16-1.49,7.84-.42L512,765.85l-7.68.43,0-1.85,7.8-.58-.46-13.39-7.66.46v-1.38l7-.84V733.95l-7.45.49,0-1.46,7.81-.57L511,719.1l-7.58.29,0-1.09,7.46-.6L510.59,703H503l-.08-1.28,7.65-.53-.31-11.13-7.35.29-.15-1.23,7.5-.85S511.18,680,509.15,679.9Z" transform="translate(-237.21 -84.9)"/><path class="cls-7" d="M675.25,732.58c-1,.89-1.46,6.12-1.46,6.12l-.69,58.7.69,1.26,6-3.79L678.27,792s-.11-6.31-.11-7.8-2.9-51.63-2.9-51.63" transform="translate(-237.21 -84.9)"/><path class="cls-8" d="M674.6,733.6s1.38-3,3.67-2.07,1.26,16.53,1.38,22.38-.46,40.05-.46,40.05l-4.59-2.18S675.52,732.68,674.6,733.6Z" transform="translate(-237.21 -84.9)"/><polyline class="cls-9" points="498.63 581.33 494.79 583.97 494.79 579.1 496.27 579.1 498.65 581.25"/><path class="cls-9" d="M673.58,613.56s-1.51,1.37-1.51,6.3-.46,38.1-.46,38.1.06,2.75.52,2.87a3.06,3.06,0,0,1,.92.46l5.68-3.16a4.63,4.63,0,0,1-.72-2.35c0-1.26-2.05-16.76-2.07-16.64s0-17.73,0-17.73l-2.36-7.85" transform="translate(-237.21 -84.9)"/><path class="cls-9" d="M660.61,612.83s-1.15.88-1.49,5.47-.32,47.92-.32,47.92-.08,2.18,1.1,2,6.1-3.1,6.1-3.1v-1a4.74,4.74,0,0,1-.81-2c-.4-1.61.34-14,.34-14l-1.78-11.63,0-18-3.17-5.66" transform="translate(-237.21 -84.9)"/><path class="cls-9" d="M647.15,627.44a9.72,9.72,0,0,0-1.29,4.94c0,3.06-.05,41.43-.05,41.43s-.16,1.42.34,1.72a1.65,1.65,0,0,0,.71.31l6.15-3.48v-.84l-1.27-1.15-2.64-6.2.18-33.23s-.51-5.16-2.16-3.5" transform="translate(-237.21 -84.9)"/><path class="cls-4" d="M732.67,605.86s.57-2.75,2.75-3.21,2,3.56,1.84,6.89-1.49,56.7-1.49,56.7l-4.13-2.07Z" transform="translate(-237.21 -84.9)"/><path class="cls-4" d="M673.41,613.82s1.22-2.07,2.75-2.22,2.3,1.38,2.3,4.9-.46,39.86-.46,39.86l-4.59-.61S674.25,612.21,673.41,613.82Z" transform="translate(-237.21 -84.9)"/><path class="cls-4" d="M660.48,613.21s1.3-2.37,2.83-2.22,2,1.22,2.07,6,0,46.29,0,46.29l-4.9-1.22S661.86,607.77,660.48,613.21Z" transform="translate(-237.21 -84.9)"/><path class="cls-4" d="M647.09,627.44a3.78,3.78,0,0,1,3-2.68c2.3-.23,2,7,2.14,11.55s0,34.28,0,34.28l.07.92-5.19-2.22S648.47,625.3,647.09,627.44Z" transform="translate(-237.21 -84.9)"/></g><g id="крыша"><path class="cls-5" d="M251.78,705.83s-9.3,4.48-8.84,9.53.23,9.41,10.1,14.92,15.84,3.67,15.84,3.67-.71,8.25,15.23,17.67c15.53,9.18,32.06,10.79,56.39,9.87S375.39,756,375.39,756s-9.18,20,9.18,29.15,47.08,10.33,61.76,6.2l-.06-15.78-23.6-19.11-39.33-6.72L380.1,745,275.92,707.32Z" transform="translate(-237.21 -84.9)"/><path class="cls-5" d="M327.65,806h1.84s-.38-6.57,4.51-10.09a14.57,14.57,0,0,1,15.76-.49c4.13,2.68,5.84,7.21,5.76,7.52s1.48.25,1.48.25V801h0s.93-2.22-2.28-5.51a17.27,17.27,0,0,0-18.51-4.06,14,14,0,0,0-8.95,11.86,1.07,1.07,0,0,0,.61.83Z" transform="translate(-237.21 -84.9)"/><path class="cls-5" d="M658.76,749.21l7.75-5.39s.55.46,2,0,3.26-.8,3.26-.8l2.09,1.61-14,9.3-11.24-3.44,1.38-3.21,0-7.12L633,747v-9.41s3.64-1.26,4.44-3.56,6.3-31.56,26.73-37.3l14.51-1.84,3.7.69s6.32,0,10.34,1.49,13,6.43,13.66,24.56l3.68,2.75-13.66,8.15-6.89-2.07.12-.92,1.15-.57,1.26.46,1.26-1.15,2.07.87,7.35-4.19h1.38l2.07-1.27s-1.26-7.86-2.18-11.08-4.36-12.2-12.4-12.77-6.11,1-8.32-1.74-.46,1-1.89,3-11.59,10.44-17.79,26.39S658.76,749.21,658.76,749.21Z" transform="translate(-237.21 -84.9)"/><path class="cls-5" d="M636.72,632l2.72.69s.77-9.87,5.51-14.08,8.26-4.67,8.26-4.67a45.88,45.88,0,0,1,3.29-7.5c1.91-3.29,5.82-7.27,9.64-6.58s5.36,5,5.36,5,3.29-2.75,5.43-3.29,8,1.38,7.5,8.49l1.07-.46s.46-9-8-11.4a10.39,10.39,0,0,0-6.66,2.52,7.61,7.61,0,0,0-6.12-3.67c-4.21-.15-11.25,5-13.31,14.15C651.38,611.22,637.3,614.35,636.72,632Z" transform="translate(-237.21 -84.9)"/><path class="cls-5" d="M565.09,637.92l2.48,1.11s3.21-11.53,9.14-12.36c8.9-1.23,9.82,7.37,9.82,7.37l1.71-1h.15l.77-.41a13.62,13.62,0,0,0-13.39-9.73s-5.66.53-8.11,5Z" transform="translate(-237.21 -84.9)"/><path class="cls-5" d="M522,680.81s-1.52-10.33-15.86-9.41-13.73,12.51-13.73,12.51l2.89,1.15s.82-9.84,11-10.79,14.49,9.41,14.49,9.41l1.18-.23Z" transform="translate(-237.21 -84.9)"/><path class="cls-5" d="M342.49,595s-1.45-15.38-12.85-16.52c0,0-8.8.52-8.8,10.52h1.3s-1-7.3,5.43-8.26S339.35,590,339.74,595Z" transform="translate(-237.21 -84.9)"/><path class="cls-5" d="M652.84,575s1.45-15.38,12.85-16.52c0,0,8.8.52,8.8,10.52h-1.3s1-7.3-5.43-8.26S656,570,655.59,575Z" transform="translate(-237.21 -84.9)"/><polygon class="cls-5" points="40.76 498.85 57.79 505.35 57.79 506.73 53.46 508.41 35.86 502.44 40.76 498.85"/><path class="cls-5" d="M664.92,481h0Z" transform="translate(-237.21 -84.9)"/><path class="cls-5" d="M755.58,582.91c3,4.06,3.3,9.64,3.76,10.94a5,5,0,0,0,1.45,2.07s-4.59,2.75-6.12,3.59-1.45.39-2.37.16a.86.86,0,0,1-.69-1.07s6.81-3.21,6.89-4-.69-8-4.59-12.93-6.73-2.91-9.87-3.68-3.52-5-3.52-3.75-1.24,3.83-2.46,5.67A46.11,46.11,0,0,1,733,585.2v-8.57l-2.34-.92L732,561.33V547.1c-5,5-19,6.89-19,6.89v-.92l-3.08.16,1,8.72,4.17,4.43-15.29,8.11-6.42-1.84.36-1.84L710,563.17v-4.89c-1-4.48-1.81-8.66-3-12.53a65.83,65.83,0,0,0-3.56-9c-.53-1.12-1.15-2.2-1.74-3.26-.5-.9-1.06-1.77-1.61-2.62-.22-.35-.46-.69-.7-1s-.43-.83-.65-1.13c-.65-.91-1.37-1.69-2.12-2.69h0s0,.16,0,.15a28.91,28.91,0,0,0-3.31-2.29c-.06,0-.11.14-.17.14h0c-1.47-1-3-2-4.58-2h-.13s0-.1,0-.12,0,0,0,0c-.72-.23-1.44-.55-2.17-.72v0s0,0,0,0,0-.05,0-.05h-7.57c-.41,0-.82-.27-1.21-.27a8.55,8.55,0,0,1-3.8-.92l-.32-.18h0a7.22,7.22,0,0,1-2.32-2.14l0-.07a28,28,0,0,1-1.49-2.73l0,0c0-.06-.07,0-.1-.06a.26.26,0,0,0-.11-.07s0,.25,0,.25,0,.23,0,.23h-.32c-.24,0-.46.51-.9,1.91,0,0,0-.08,0-.06-.14.43-.28.82-.47,1.38h0c-.06.17-.13.33-.18.53h0c-.19.61-.63,1.26-.88,2,0,0-.23,0-.23,0h0v2.38h0a3.62,3.62,0,0,1-.33.32c-.88.83-2,1.45-2.87,2.45h0s.21-.27.21-.19h0v0s-.12,0-.13,0l-.07,0s-.06,0-.07.06l0-.06c-.07.13-.15.09-.21.09h0c-.06,0-.13.11-.19.11s0,.12,0,.14,0-.14,0-.14,0-.11,0-.11h0s-.06.17-.09.21c-.74.7-1.56,1.53-2.44,2.29,0,0,0,.06,0,.06v0s0,0,0,0l-2.52,2.2h0c-1.57,1.37-3.26,2.89-5,4.61a73.83,73.83,0,0,0-7.66,8.73c-9.8,13.17-15.31,31.53-18.36,41.63a47.77,47.77,0,0,0-2.14,17.76l6.43-4.29,8.87,4-16.83,8-19.9-6.11s-4-1.53.62-3.07,6.12-19,6.12-19l-14.08,3.06c-14.08,3.06-28.15,14.08-30.3,19.58s1.84,13.17,3.37,15.92-8.1,3.06-8.1,3.06l-8.1-.92v7.34a73.15,73.15,0,0,1-36.1,16.59c-22,3.37-47.33-.25-63.25-9.43s-3.55-24.7-3.55-24.7l31.28-111.3s83.54-41.63,91-54.86,22.33-20.66,28.69-23.18a65,65,0,0,1,14.76-3.37,66.35,66.35,0,0,1,6.66-3.06c1.46-.39,3.6-.62,4.36,2.21s2.15,3.44,2.15,3.44A87.87,87.87,0,0,1,651.8,440.5a49.28,49.28,0,0,1,5.93,7.13l-.15,2.75L661,473.75h0v.09l1.05,5.63a10.35,10.35,0,0,0,3,1.83v.43c1,.12.36.27.58.41h0s0,0,0,0l0,0,0,0,.37.26s0,.18,0,.18.25.05.37.14c.5.28,1,.18,1.6,1.18h0c4.14,3,10,6.35,16.77,10.89.06,0,.12.11.18.11h0v.34c1,.2.63.41.93.62,0,0,0,0,.05.06l.53.33,0,0,.1.06,1,.66c.16.1.32.25.48.36.73.5,1.49.52,2.23,1.52h0c.2,0,.39.23.6.36,1.23.83,2.48,1.63,3.74,2.46l.22.14.9.59h0a1.08,1.08,0,0,0,.2.06c.07,0,0,0,0,.06,5.27,3.49,11,7,16,10.4h0c1,.68,2.1,1.35,3.14,2l.24.09c.53.34,1,.68,1.54,1l.09,0,.06,0,.61.41,0,0,1.27.81h0c.85.53,1.67,1.19,2.5,1.73h0l.13.09a7.28,7.28,0,0,1,2.19,1.51s.06.13.09.13h0c.67,0,1.09.42,2.09.79V522h-.14a.35.35,0,0,1,.25,0s0,0,0,0l0,0,0,0,.22.11c24.49,14.85,33.21,41.77,33.21,41.77s8.34,8.94,9,10.17a2.73,2.73,0,0,1,0,3.21c-.69.76-9.18,5.51-10.71,5.89A2.78,2.78,0,0,1,755.58,582.91Z" transform="translate(-237.21 -84.9)"/><path class="cls-5" d="M496.45,606.61l-30.06,19.8s-36.37-29-52.67-33.16-26.86-6.43-26.86-6.43l5.28,19.05,5.74,9.18-19.05,8.84-19.05-7.15,4.59-2.84,12.17,2.84S374.47,586,350.6,560.24c0,0-6.89-8.35-14.12-12.4s-11.94-10.72-12.85-14.16-3.32,3.18-3.32,3.18a7,7,0,0,1-4.07,2.41,9.19,9.19,0,0,1-2.92.18.9.9,0,0,0,0-.15c-.35,0-.72-.3-1.1-.3h0s-.08.15-.13.14c-2.89-.53-10.72.4-18.2,6.31v.06c-.52.41-1,.86-1.56,1.33a34.6,34.6,0,0,0-3.21,3.31,38,38,0,0,0-2.84,3.79,44.22,44.22,0,0,0-4.15,8.07,68.11,68.11,0,0,0-4.31,20.6s-.92,1.07,0-4.52,1.15-7.35,1.15-7.35l-5.13,1.68a7.6,7.6,0,0,0-4.51-1.15c-3.07,0-2.38,1.84-2.38,2.61s-24.52-.27-28.77-9.91a11.13,11.13,0,0,1,0-8.84c2.07-4.71,8.83-8.72,8.83-8.72l.13,0,.61-.18,4-1.17,3.66-1.07.94-.28,1.61-.47,1-1.84,1.26-2.35,1.07-2,.27-.51.76-1.41.18-.35,1-1.9,13.88-26,.08-.16.75-1.4.46-.86,2-3.67L281,500l3-5.68.59-1.09,1.27-2.38,5.12-9.59.75-1.4.11-.21.61-2.84.53-2.52.88-4.13.18-.84.47-2.2L296.86,456l0-.08,0-.2.19-.91,13.43-11.13c5-4.17,9.75-8.07,10.56-8.72,1.84-1.5,8.57-7.21,8.57-8.59,0-.9,3.12.14,5.3,1a32.17,32.17,0,0,0,4.89,1.42c3.5.73,9.34,2,12,2.7,4,1.07,18.36,7.2,23.56,15.15s3.83,7,5.89,7.73,11.32,5.28,11.32,5.28L449.15,475l43.24,22-8.29,30.73Z" transform="translate(-237.21 -84.9)"/></g><g id="Слой_6" data-name="Слой 6"><path class="cls-10" d="M284.26,679.08l1.15,24.68L273,729.91S255.69,732,248.11,721s3.67-15.15,3.67-15.15a46,46,0,0,1,7.92-11.36C264.75,689.3,275,680.35,284.26,679.08Z" transform="translate(-237.21 -84.9)"/><path class="cls-10" d="M336.31,667.8a15.67,15.67,0,0,1-12.21,5.8c-8.26.15-15-2.8-13.76-5.94,0,0-6.11-2.85-5.65-11.73s7.65-15.31,13.47-18.22l1.69-4.06a2.42,2.42,0,0,1,.68-4.06l-.37-5.43-2.52.53-.46-1.91,2.3-1.22-.31-11.17a2.39,2.39,0,0,1-1.15-2l-4.21-1.45s.77,2.45-.61,1.61a2,2,0,0,1-.34-1.61,10,10,0,0,1-1.72-2c-.5-.88,1.07-.54,1.68-.54,0,0-.5-1,0-1.26a.87.87,0,0,1,1.38.8,6.48,6.48,0,0,1-.23,1.26L318,606.7a4.81,4.81,0,0,1,.57-.8l.27-.27-.15-2.33-.73-.8-.69-.31s.46,1.72-.08,1.45-.88-.38-.77-1.45l-.57-.61s-1.3-1.11-.57-1.3a6.06,6.06,0,0,1,1.38-.19,1.4,1.4,0,0,1,.13-1.07c.31-.65,1.2.38,1.2.38v1.42l.54.15,0-1.19s-1.4-.61-1-1.3a.86.86,0,0,1,1.12-.34,4.29,4.29,0,0,1-.21-1.26c0-.5.53-.92.95-.54a1.8,1.8,0,0,1,.46,1.22,3.21,3.21,0,0,1-.27.69s1,0,1.3.34.06,1.22-.35,1.19l-.68-.08-.15,1.45.34.8,1.53.23a2.26,2.26,0,0,1-.42-1.38.49.49,0,1,1,1,.23,1.61,1.61,0,0,0,.19,1.15s1.26,0,1.22.77-1.22.73-1.22.73a3.08,3.08,0,0,1,.08,1.15c-.11.34-.84.92-1.11,0s-.59-1.38-.73-1.34-.22.23-.22.23l0,2.37.88,1.26,4.09,1.8s-.08-1.45.5-1.72,1.22.46,1.11,1.22l-.11.77s1.38.54,1.72,1.26-.5.73-1.11,1l-.61.31s.34,1.19-.19,1a1.75,1.75,0,0,1-1.07-1.42c0-.5-.27-.65-.61-.8s-3.18-1-3.18-1l-.84.73.5,10.29,2.22-1.34.77,1.8-2.45,2.1-.31.23.38,5.93s2.79,1.3.57,4.09l1.65,4.25s15.38,2.64,16.3,18A20.3,20.3,0,0,1,336.31,667.8Z" transform="translate(-237.21 -84.9)"/><path class="cls-10" d="M380.1,745S330,761,297.86,748.64s-24.36-24.55-24.36-24.55S281.28,695,311.58,672h2.3l-.23,7.79s.92,5.85,7.8,4.7,12.17-5.68,12.85-8.44l-.23-4.22,1.15-1,.11-1.14a58.67,58.67,0,0,1,5.74,2.87c4.48,2.41,17.45,11.71,23.53,24.22S378.61,728.21,380.1,745Z" transform="translate(-237.21 -84.9)"/><path class="cls-10" d="M446.09,786.59s-58.3,8.42-69.32-17.75a64.54,64.54,0,0,1,6.66-16.3C388,745,404.31,733,415.79,731.65l11.48-1.38S448.84,742.82,446.09,786.59Z" transform="translate(-237.21 -84.9)"/><path class="cls-10" d="M673.25,644.91l2.63-1.19.8,1,1.72-3-1.84-2-.66,1.73L673,642.7v-1.49l1.26-1.5.6.3.56-1.66-2-1.55-.81,1.43.49-1.66L672,635.27l-1.21,1.61L671,638l-.86,1.09-.29-1a1.67,1.67,0,0,0-.57,1.66l-1.26,1.49,1.49.11s-.29,1.21.69,1.49l.23-1.21.46-.29.17,2-3.5,1.84-.63-.69s-.69.57-.52,1.21l-1.55,1.89,1.72.34s-.34,1.26.29,1.61l.86-1.72,2.75-1.43s.4.52.52.69-.11,6.48-.11,6.48l-2.07.4.06,1.15,1.78.69.06,7.29a1.52,1.52,0,0,0-.23,2.35L669,668s-10.16,3-10.85,13.49a10.5,10.5,0,0,0,3.27,8.15s-1.55,1.78.92,3.44,5,2.93,11.25,2.81,9.12-4.13,8.72-5.39l-.52-.34s4.3-3.67,4.13-8.84c0,0,.11-10.62-11.88-13.31l-1.15-2.42a1.52,1.52,0,0,0-.11-2.5l0-6.58,1.91.38.46-1.38-2.07-1.22Z" transform="translate(-237.21 -84.9)"/></g><g id="большая_башня" data-name="большая башня"><path class="cls-3" d="M557.85,422.34c-.34,5.17-1.85,6.89-1.85,6.89V436c0,11.13-2.62,17.45-39.12,25.25s-77.86,2.07-93-4.82c-14.84-6.75-11.81-15.91-11.68-16.29H412V433.4s.13,0-1.55-4.44-.31-10.1-.31-10.1c-1.38-3.06.07-9.64.07-9.64L408.71,360l.75-2-.34-10.1-1.71-3c-1.5-8.49,1.72-10.79,1.72-10.79l.35-1.49-.72-1.86c.45.4,16.63,14.49,79.46,12.07,0,0,52.82-2.57,67.78-15.52l-1.46,2.43.46,1.38s2,2.09,1.16,10.68l-1.73,3.32.23,8.82,1.38,2.19.58,49.23s2.68,5.17.28,9.18A18.75,18.75,0,0,1,557.85,422.34Z" transform="translate(-237.21 -84.9)"/><path class="cls-11" d="M410.89,349.54s12.4,13.19,57.08,13.25,79.71-8.14,85.08-16.74c0,0-9.94,11.17-59.21,15.06S421.45,357.5,410.89,349.54Z" transform="translate(-237.21 -84.9)"/><path class="cls-11" d="M412,334.39s14.67,15.61,87.2,10.71c0,0,48-5,53.86-14.35,0,0-11,9.91-58.6,13.28C494.45,344,436.65,349.39,412,334.39Z" transform="translate(-237.21 -84.9)"/><path class="cls-11" d="M414.45,435.7s4.4,6.89,32.56,11.32,64.73,2,83.25-3.67,26.47-14.12,26.47-14.12-17.91,19.17-74.07,19S414.45,435.7,414.45,435.7Z" transform="translate(-237.21 -84.9)"/><path class="cls-11" d="M412.27,421.54s4,11.25,43,14.61,61.63-1.68,76.49-4.74S553,421.54,553,421.54s-6.91,9.78-54.85,14-82.21-6.54-85.92-14" transform="translate(-237.21 -84.9)"/><path class="cls-2" d="M412.27,421.54s-3.06,11.55,26.93,16.6,63.81,5.2,88-1.38,30-12.92,28.62-20.23,1.62-1.08,1.62-1.08,4.66,9.22-7.28,15.49-45,17.29-88.14,12.85-46.06-10.72-48.82-13.25A11.25,11.25,0,0,1,409.9,422a7.37,7.37,0,0,1,1-3.21S410.36,419.4,412.27,421.54Z" transform="translate(-237.21 -84.9)"/><path class="cls-6" d="M532.63,420l-.86-47s.81-4.45,3.56-5.83S539,383.32,539,383.32v29.27s-.29,6.6-.55,7.46-5.67,0-5.67,0" transform="translate(-237.21 -84.9)"/><path class="cls-6" d="M497,376.44s3.84-5.63,8.09-2.3,2.38,12.69,2.38,12.69l.41,15.78-.32,12.91.63,13-10.92,2.07Z" transform="translate(-237.21 -84.9)"/><path class="cls-6" d="M461.24,429l-2.3-53s3.28-3.46,7.18-1,3.44,6.63,3.56,12.82S470.88,429,470.88,429Z" transform="translate(-237.21 -84.9)"/><path class="cls-6" d="M431,370.43l-2.37,19.36v1.68l1.35,24,2.1,10.6,3.9-1.82-1.75-47a10.35,10.35,0,0,0-1.74-5.46,3.09,3.09,0,0,0-1.48-1.35" transform="translate(-237.21 -84.9)"/><path class="cls-2" d="M431.4,371.27v5.51l2.75.52v1.32H431.4l.38,13.16,3.1,1.33.07,1.39-3-.3.63,12.94,2.8,1.31.13,2-2.8-.9.1,12a3.18,3.18,0,0,0,1.18,1.72,14.19,14.19,0,0,0,2,.95v2.12s.08,2,3.14,1.38c0,0,3.9,1.45,16.45,2.75a3.35,3.35,0,0,0,2.3.92l1-.46,1.68-2.22-1.62-15.15-.37-36.29a3,3,0,0,1,2.51-2.81,3.18,3.18,0,0,0-1,1.52l.23,5.19,9.1.37.14,1.72s-9-.23-9-.32-.17.2-.17.2l.43,13.77,9,.37.17,1.78-9.15-.32.57,13.72,8.94.26.1,2.15-9-.23s.14,12.8.52,13.17,8.67.34,8.67.34l.37,4s26.18-.76,26.71-1.9-1-2.6-1-2.6l9.18-.15,1.07-.46-.54-13.7-8.72,1.07,0-1.91,8.91-1.15V397.9l-8.8.23.15-1.45,8.42-.69-.38-14-9,.54.15-2.07,9.18-.77s.54-8-6-6.27c0,0,4.94-1.65,6.58,1.49s1.24,17.18,1.24,17.18l0,13.47.55,13.24L510,429.57s-.5.92,3.71,0,18.52-4.13,18.52-4.13l.53-.26.29-1.21-.32-3.93s2.18.11,2.35-1.15-.34-11.65-.34-11.65l-2.34.74,0-2.35,2-.63-.06-12.34-2.21.89-.06-3.07a17.39,17.39,0,0,0,2.67-.87s0-.75,0-1.19l-.11-12.09-2.8.51,0-2,3.07-1s.57-5.07-.86-5.18a1.88,1.88,0,0,1,1.18-1.42c1-.29,1.81,2.1,1.81,2.1v9.26l2.75,16.11v9.6l.29,10.9,1,6.77s-.06,1,3-.52,10.62-6.85,11.76-10.65.4-5.64.4-5.64,1.3-.29,1.83,5.51-6.65,10.1-15.2,14.06-32.94,10.79-72,9.64S417.59,424,414.45,421.77s-4.94-4-4.94-6.31a14.78,14.78,0,0,1,.35-3.6s-.07,3.91,1.9,3.6a12.9,12.9,0,0,0,2.68-.61l.31,4.59s0-.27.84.38,11.67,5.62,11.67,5.62l3.6-2.37-2.34-20.39.19-13.58-.65-12.28.27-5.93,3.06-.42a2.68,2.68,0,0,1,.73.86C432.24,371.69,431.94,370.81,431.4,371.27Z" transform="translate(-237.21 -84.9)"/><path class="cls-4" d="M554.59,357.31s-1.45.28-1.53,9.61.54,45.14.54,45.14l2.22-1.22S555.76,356.19,554.59,357.31Z" transform="translate(-237.21 -84.9)"/><path class="cls-4" d="M535.38,367.25s.77.33.84,2.1.84,51,.84,51l4.28,2.14-.75-50.13a7.83,7.83,0,0,0-.59-3C539.35,367.89,538,366.18,535.38,367.25Z" transform="translate(-237.21 -84.9)"/><path class="cls-4" d="M510,429.57,508.64,378a4.14,4.14,0,0,0-2.18-3.9,9.51,9.51,0,0,1,.86,3.56c.11,2.12.92,50.1.92,50.1Z" transform="translate(-237.21 -84.9)"/><path class="cls-4" d="M459.1,375.71s-2,.08-1.76,10.18S458.87,431,458.87,431l1.68-1.92S458.51,378.7,459.1,375.71Z" transform="translate(-237.21 -84.9)"/><path class="cls-4" d="M412.28,366.28s-.51-5-1.6-5.16-.34,12.34-.34,12.34l1.95,42,2.17-.46-2.17-48.72" transform="translate(-237.21 -84.9)"/><path class="cls-4" d="M431.4,423.49l-1.49-50.15s-.18-2.78,1.49-2.87c0,0-4-2.58-5.34,1.55s1.21,53.43,1.21,53.43Z" transform="translate(-237.21 -84.9)"/><path class="cls-2" d="M551.07,366s-.46-13.09,2.75-12.86l.77,2.22S552.73,357,552.81,366Z" transform="translate(-237.21 -84.9)"/><path class="cls-2" d="M528.11,374.56s.46-9.33,6.58-11.4,8,5.13,8,8l-.77.23s.84-7.5-6.5-6.43c0,0-4.9,1.84-4.9,9.18Z" transform="translate(-237.21 -84.9)"/><path class="cls-2" d="M492.38,380s.38-9.22,8.72-10.68,10.94,5.64,11,7.78l-1.38.56s-.92-7.52-9.41-6.45a9.49,9.49,0,0,0-6.43,8.78Z" transform="translate(-237.21 -84.9)"/><path class="cls-2" d="M454.12,379.88a7.35,7.35,0,0,1,.38-4.55c1-2.83,4.09-5.89,9.45-5.47a10.81,10.81,0,0,1,9.79,10l-2.22.34s-1.48-7.79-8-8.07-8.49,4.9-8.3,7.69Z" transform="translate(-237.21 -84.9)"/><path class="cls-2" d="M423.25,373.8a9.86,9.86,0,0,1,1.38-5.74c1.72-2.81,3.56-3.1,6.25-2.35s7.29,6,6.89,11.3l-2.18.29s-.57-8-6.31-9.53-5.45,6.2-5.45,6.2Z" transform="translate(-237.21 -84.9)"/><path class="cls-2" d="M412.29,369s.4-8.3-1.84-9.62c0,0-1.49-.94-1.21,3.08,0,0-.86-3,.57-4.34s.92-1.88,1.89-.89,3,4.77,3.27,11.77Z" transform="translate(-237.21 -84.9)"/><path class="cls-2" d="M409.13,334.09s-1,10.56,13.7,14.23,38.26,9.33,79.57,5,54.21-12.74,51.46-21.69c0,0,.1-2.36,1.71.49s3.68,11.11-18.13,17.3-59.68,9.87-89.52,6.66-42.29-10.31-40.72-17.85h0s1.24-4.07,1.93-4.19" transform="translate(-237.21 -84.9)"/><line class="cls-12" x1="243.8" y1="93.84" x2="243.51" y2="93.68"/><path class="cls-10" d="M556.77,319s2.95,4.54-.76,8.34c-15,12.95-67.78,15.52-67.78,15.52-62.83,2.41-79-11.67-79.46-12.07h0c-4-3.53-1.38-8.26-1.38-8.26-2.6-4.43,2.15-7.94,2.15-7.94s-13.16-14.07-4-41.31,28.79-41.74,43.79-52.45A58.05,58.05,0,0,0,469.43,195l2.95-18a9.56,9.56,0,0,0,8.35,1.63,9.4,9.4,0,0,0,3.54-1.84l3.94,17.33s3,14.06,18.71,23.64S544.26,243,555,269.7c9.55,23.75-2.39,40.74-2.39,40.74S559,314.34,556.77,319Z" transform="translate(-237.21 -84.9)"/><path class="cls-5" d="M489.24,529.76C368,538,373.56,493.39,373.56,493.39s12.17-24.1,18.71-33.86,17-16.64,17-16.64l3.31-2.75c-.13.38-3.35,9.54,11.49,16.29,15.15,6.89,56.7,12.62,93.19,4.82s39.24-14.12,39.48-25.25l4,3.57s10.77,7.3,18.46,16.18c8.15,9.41,23.62,31.23,23.62,31.23S611.36,529.12,489.24,529.76Z" transform="translate(-237.21 -84.9)"/><path class="cls-10" d="M487.76,169.36a9.54,9.54,0,0,1-3.49,7.38,9.4,9.4,0,0,1-3.54,1.84,9.55,9.55,0,0,1-5.14-18.4,9.43,9.43,0,0,1,2.62-.37,7.64,7.64,0,0,1,.8,0A9.54,9.54,0,0,1,487.76,169.36Z" transform="translate(-237.21 -84.9)"/><path class="cls-10" d="M477.12,84.9s-1.51,1.52-.44,3.05l.13.91-1.55.3-.87-.73-1.56,1.87,1.3,2,.94-.27a.69.69,0,0,1,.44.65c0,.54,0,3.5,0,3.5a11.58,11.58,0,0,1-.73,1.78h-2.07s-2.26-3-4.36,0c0,0-.8-.2,0,.6s1.75,2.73,4.34.74l2.15-.14s.43-.33.43.62.11,6.89.11,6.89L473.75,103l1.05,3.93-3-2.91,2.58,3.65-3.94-2,3.27,2.85-.23.28-8.84-1.15a1.64,1.64,0,0,0,.29-1.55,10.51,10.51,0,0,0-1.64-2.7s-1.81,1.92-1.23,3.47a4,4,0,0,0-1.26.69,2.6,2.6,0,0,0-2.93,1s.61,2.58,2.83,2.58a2.85,2.85,0,0,0,1.8,1.49,3.18,3.18,0,0,0,.92,3.25,3.46,3.46,0,0,0,.88-3.29s.5-.57.5-.73l8.34,1,.34,0,.08,1-1.84,1.72,2.07-1,.38.42s-1.49,3-1.45,3.21l2.1-2.52.34.08L474,119l1-1.72v22.61s-1.2,1.09-.68,3.73l-1.11.48s-2.7-.54-2.39,1.91,2.28,2.52,3.12.84l1.06-.61v13.85l2.31.38,1.69-.92v-16s2.65,0,3.06-1.32l2.39-1.21a1.3,1.3,0,0,0,1.41-1.15c.19-1.26-.09-2.91-1.73-2.37,0,0-.73.38-.81.65l-1.82,1s-1.06-.23-1.37.15l-.19-22,.65,2.22-.73-3.29,2.18,2.75-1.45-3.4,3.21,1.49L481,114.38l.27-.27,7.84.57a4,4,0,0,0,1.45,1.34,3.62,3.62,0,0,0,1.38,3.75s1.57-1,1.19-3.9c0,0,1.72-.08,3.1-2.37a6,6,0,0,0-3.29-3s.5-1.8-1.57-3.44c0,0-1.87,1.61-1.19,3.25l-.61.73-8.19-1,0-.65,1.91-1.72-2.33.84-.46-.42,1.76-2.6L480,107.34l.8-3.29-1.26,1.65,0-5.16s0-.66.61-.2a2.65,2.65,0,0,0,1.45.68h.34l0,1s-1.19,0-1.11.5,1.3,1.46,1.53,2.34,0-.84,1.26-1.53-1.54-1.61-1.54-1.61v-1.26s1.67.23,2.13-.23c0,0,.18,1.09,1,.86s.65-.63,1.31-1.26.17-1.09-.41-1.89-1.29-1.18-1.55-.6-.7-.32-1-.63-.94-.11-.94-.11l.09-.8s1.44.34,1.32-.86-1.35-1.66-1.61-2.47,0,.55-.54,1-1.46,2-.52,2.24l.57.14-.2.86-1.72,0-.77-1.18.14-2.75s.29-.55,1.15,0l1.35-1.41-1.64-2.21-.83.23-1.75-.43.17-.92S478.79,86.66,477.12,84.9Z" transform="translate(-237.21 -84.9)"/><path class="cls-13" d="M322.89,532.5l14.19-4.33s1.91-.67,5.42,6.08,25.51,13.12,39.51,44c0,0,4.6,7.58,4.87,8.54s32-24.18,64.14-4.2S442.67,574,442.67,562s-11.94-32.11-11.94-32.11-18.69-16-57.21-18.29-50.63,20.9-50.63,20.9" transform="translate(-237.21 -84.9)"/></g><g id="_3_башни" data-name="3 башни"><path class="cls-3" d="M318.36,532.18h0l.4-2.75v-.06l.48-1.84L318,523V523h-.28s.06,0,.06,0l.22-2.64v-1.63l-.26-.47-.13-.17.2-.06.19-.17h0l-.3-.42-.14-.07.26-.95.19-1.72h0l-1-5.48V509l-.17-.77-1.83-21,0-1.93,0-.54h0l-.14-.38-.86-9.08h0l-.11-.41-.51-4a14.15,14.15,0,0,0,1.56-5.2c0-.44.06-.86.06-1.26v0h0V461h0s-.18,0-.19,0c-.06-.25-.58-1.87-.82-3.14a18.07,18.07,0,0,1,.29-4.51s0,0,0-.06,0-.09,0-.11a.41.41,0,0,0,0-.1h0l-17.35,2.87,0,.13h0l-13.3,2.23-43.13,2.14s-.43,0-.43.05h0s.37.1.36.17H240v0c0,.82.36,2.89,1.26,3.54,0,0,.2.06.25.09h.07a2.08,2.08,0,0,1,.51.31h.08l.07.12a1.34,1.34,0,0,1-.13,1.35L242,470.6h0l-.08.2s.06,0,.06.06a6.41,6.41,0,0,0,2,4.88l.15,5.22,0,.18.55,11.33,0,.36,1.24,26v.25L244.57,521h0l-1.2,2.15v0h0c0,.11.35,1,.71,2.06a2.38,2.38,0,0,1,.13.27c0,.06,0,.14.07.2.39,1.08.9,2.22,1.14,2.76.14.31.59.75.59,1.25h0c0,.09,0,.18,0,.28a17.5,17.5,0,0,0,.41,2.87l.28,1.19,0,.06.88,2.32L246,537.73v0l.47,6.39s-.47.29.53.77h0a5.22,5.22,0,0,0,.31,1.43,7.59,7.59,0,0,1,.34,3.53l-.44,2.19s3.09,9.09,22.62,10.46a60.42,60.42,0,0,0,12.25-.54,44.19,44.19,0,0,1,4.14-8.07,37.94,37.94,0,0,1,2.83-3.78,34.46,34.46,0,0,1,3.21-3.31c.52-.47,1-.9,1.56-1.31v0c7.47-5.9,15.31-6.91,18.2-6.38,0,0,.08-.14.13-.14h0c.39,0,.75.28,1.1.3a.26.26,0,0,1,0,.07,9.27,9.27,0,0,0,2.92-.15,7,7,0,0,0,4.07-2.4Z" transform="translate(-237.21 -84.9)"/><path class="cls-14" d="M244.27,466.16s6.76,7.63,36.67,5.65c0,0,24.53-1,30.51-10.53,0,0-5.48,9.06-36,10C275.46,471.24,255,473.54,244.27,466.16Z" transform="translate(-237.21 -84.9)"/><path class="cls-14" d="M244.74,476.29s4.73,6.89,32.22,6.35a81.89,81.89,0,0,0,18.57-2.42c6.79-1.73,14.55-4.65,17-9.28,0,0-5.75,9.93-40.39,10.57C272.1,481.51,257.7,482.87,244.74,476.29Z" transform="translate(-237.21 -84.9)"/><path class="cls-14" d="M281.83,546.86a112.05,112.05,0,0,0,12-1.32c-.52.41-1,.84-1.56,1.31a97.75,97.75,0,0,1-10.05.89c-14,.55-22.16-1.51-26.89-3.79-5.08-2.45-6.19-5.15-6.19-5.15s1.77,2.6,7.12,4.87C261.22,545.78,269.26,547.61,281.83,546.86Z" transform="translate(-237.21 -84.9)"/><path class="cls-14" d="M317.4,535.42a14.86,14.86,0,0,1-4.09,4h0c-.35,0-.72-.15-1.1-.16A48.55,48.55,0,0,0,317.4,535.42Z" transform="translate(-237.21 -84.9)"/><path class="cls-14" d="M246.69,529.49s9.49,10.73,34.14,9.19,34.07-9.07,35.05-11.83c0,0-5.73,8.41-34.95,11.15C280.93,538,257.71,539.8,246.69,529.49Z" transform="translate(-237.21 -84.9)"/><polygon class="cls-4" points="9.06 407.89 10.87 438.36 8.94 437.83 7.14 407.98 8.61 407.83 9.06 407.89 9.06 407.89"/><path class="cls-4" d="M315.38,487.1l1.94,30.1.78,3.19-2.06-.57s-2.14-36.31-2.22-37.69Z" transform="translate(-237.21 -84.9)"/><path class="cls-4" d="M305.2,489l1,35.44,5.6,2.07.23-1.51-2.62-35.36s-.25-2.94-2.84-2.1A5.28,5.28,0,0,0,305.2,489Z" transform="translate(-237.21 -84.9)"/><path class="cls-4" d="M257.33,493.57s-2-2.21-3.89-.75a3.06,3.06,0,0,0-1.08,2.63l2.45,34.43,4.12-1.92-1.58-34Z" transform="translate(-237.21 -84.9)"/><path class="cls-6" d="M257.86,493.86s1.76,1.34,2.07,5.13,2.41,29.79,2.41,29.79l-2.38.66s-3.07-34.15-2.26-35.68Z" transform="translate(-237.21 -84.9)"/><path class="cls-6" d="M305.2,489s-2.09,1.57-1.76,7.24,1.78,27.32,1.78,27.32l2.44-.43L305.2,489Z" transform="translate(-237.21 -84.9)"/><path class="cls-6" d="M277.53,497s.54-2.29,4.45-2.85,5.94,3.63,5.55,5.68,2.58,32.68,2.58,32.68L280,532l-2.51-35Z" transform="translate(-237.21 -84.9)"/><path class="cls-2" d="M289.06,550.16a38,38,0,0,0-2.84,3.78,92.67,92.67,0,0,1-12.27.27c-11.74-.5-21.71-3.66-26.26-8a10.13,10.13,0,0,1-1.13-1.25h0a6.15,6.15,0,0,1-.63-7.16h0v0s.06.28,1.18,1.15,1.21,1.29,1.21,1.29-.12.86,1.59,3a13.76,13.76,0,0,0,1.74,1.86c2.59,2.27,8.07,5,22.82,5.7A87.39,87.39,0,0,0,289.06,550.16Z" transform="translate(-237.21 -84.9)"/><path class="cls-2" d="M320.3,536.85a7,7,0,0,1-4.07,2.41,6.56,6.56,0,0,0,.73-1.42,9.77,9.77,0,0,0,.44-2.43l1-3.23A9,9,0,0,1,320.3,536.85Z" transform="translate(-237.21 -84.9)"/><path class="cls-2" d="M317.55,522.94s4.46,5.38-1.55,9.81-13.57,11.09-45.4,10.49c0,0-26.06-1.28-25-13.76,0,0,4.07,9.65,22.87,10.75s29.37-1.05,36.78-4.29,12.79-7.74,11.52-10.58l.75-2.41Z" transform="translate(-237.21 -84.9)"/><path class="cls-2" d="M305.43,488.9h-.19a.57.57,0,0,1,.07.17l.09-.11.21,0h0Zm12.17,26.76.21.72.2.8h0l-.31.14-.15.07-.1.07,0,0v.08l.07.4V518l0,.17.33,1.76-.24,0H316v-.11l0-.08h0l-2.27,3,.08,1.49-1.75.7h0l-3.8-1.84s-1.84-25.39-2.22-29.59a18.9,18.9,0,0,0-.71-4.45l-.09.1h0l-.55.7.4,3.29-1.59,1,0,2,1.76-1.16.79,10.64v1.53l-.09.63-.09,0-.06,0-1.1,1.18H305l-.45.06-.12,1.34,0-.07,1.39-.87.24-.17.68,13-.58.4-1,.69,0,0,.29,4.54s-.08.47-1.35,1.09a2,2,0,0,1-2.11,0l-9.26,2.7-.48.85-2.18-.16,0-.3c-.22-2.92-2-26.12-2.55-32.37-.07-.78-.12-1.29-.15-1.48a4.56,4.56,0,0,0-1.58-2.83l.34,3.92L281,500l-2.71.28-.4-3.94s-.2,0-.23.06.08.09.08.18,0,.11-.09.18h-.08c-.09.06-.53.15-.53.24h0a1.17,1.17,0,0,1-.05.67c-.21.43,0,4.14.29,9,0,.06,0,.1,0,.16.57,10.68,1.85,26.83,1.85,26.83a4,4,0,0,1-2.4.21,12.19,12.19,0,0,1-2.49-.6l-8.57-.64-.9.56-1-.12-.37-.25-1.25-.71-.16-3.35v-.85l.09,0h.06l-1.88-.39-1.14-12.74,2.08.16h.34l.45-1.15h0l-.42-.45-.26,0-.17,0-2.13-.73-.88-12.11,1.9.56h0l.14-.14-.22-.6v0l-.07-.86,0-.59-2-.84,0-4-.16-.13-.46-.29,0,0,0-.23,0-.22h0v.18l-.66-.34,2.45,35.09-1.92,1-2.19,1s.32,1.24-5.23-2.45-5-6.39-5-6.39h-.18A2.6,2.6,0,0,0,243,523.2v0a4.45,4.45,0,0,0,.87,2.06c.06.08.15.17.22.27l.17.2c1.17,1.55,3.57,3.51,8,5.93,2.93,1.6,6.37,3.32,9.91,3.32h0c.06,0,.12-.12.18-.11,12.75,2.7,27.11.25,27.11.25,21.14-3.84,26.34-8.93,28-12.15h0s0,0,0,0h0a22.59,22.59,0,0,0,.83-2.24C319.24,518.44,317.59,515.65,317.59,515.65Zm-30.06.45,1,12.95-8.09.73-.91-13Zm-7-15.34,5.69-.27.89,13.77-7.73.54-.82-10.38-.28-3.57Z" transform="translate(-237.21 -84.9)"/><path class="cls-2" d="M246.25,492.42s-1.45-11.17-2.14-11.44a2.05,2.05,0,0,0-1.4,0l1.62,11.52Z" transform="translate(-237.21 -84.9)"/><path class="cls-2" d="M264.06,499.54s-2-10.46-9.29-10.85c0,0-4.79-.51-4.7,8,0,0,.9.44,1-.34s-.66-4.1,2-5.15,6.81.57,8.06,8.46Z" transform="translate(-237.21 -84.9)"/><path class="cls-2" d="M314.09,487.29l1.78-.08S315,475.43,314,474.85s.14,12.2.14,12.2Z" transform="translate(-237.21 -84.9)"/><path class="cls-2" d="M299.82,495.28l1.68.6,1.11-.72s0-8.34,4.32-9.63,4.06,4.86,4.06,4.86l.48.26.55-.38s-.5-6.41-3.95-7a5.82,5.82,0,0,0-5.44,3.2A27.89,27.89,0,0,0,299.82,495.28Z" transform="translate(-237.21 -84.9)"/><path class="cls-2" d="M273,499.84s.07-9,8.88-9.53,9.63,8.13,9.63,8.13l-.85.26.06.59-1.58.07s-.24-6.76-7.07-6.44-6.58,7.38-6.58,7.38l-1.56.17-.1-.6Z" transform="translate(-237.21 -84.9)"/><path class="cls-2" d="M241.61,464.28s-1.71,1.87-.31,5.26,7.16,8.51,26.24,9,38.12-2.89,45.36-10.54c0,0,4.32-5.09.64-8.58l-.77,1.28a3.49,3.49,0,0,1-.48,3.13c-1.09,1.78-4.45,11.18-37.24,12.19s-32.3-10.93-32.3-10.93Z" transform="translate(-237.21 -84.9)"/><path class="cls-10" d="M274.38,356.94" transform="translate(-237.21 -84.9)"/><path class="cls-10" d="M275.13,356.54l-.5-.91s-.78.12-.73-.93.17-1.17.17-1.17,1.8.86,1.47,1.41l-.33.54.25.72s.38.22.61-.42.5-.72,1.39-.06l.89.66a7.22,7.22,0,0,1-.8,1.38c-.26.23-.68-.2-.68-.2l-.06.81a1,1,0,0,1,.55.29c.27.26-.47,1.69-.47,1.69l-1.06-.63a1.53,1.53,0,0,1-.11-1.16,3.77,3.77,0,0,0-.59-2Z" transform="translate(-237.21 -84.9)"/><path class="cls-10" d="M267.85,360.7l-.36-1s.6-.51-.23-1.16-1-.64-1-.64-.53,1.92.09,2l.63.11.38.67s-.08.43-.72.18-.87-.1-1,1l-.09,1.11a7.22,7.22,0,0,0,1.57.31c.34-.05.3-.64.3-.64l.65.49a1,1,0,0,0-.14.6c0,.38,1.59.75,1.59.75l.22-1.22s-.1-.44-.8-.84a3.77,3.77,0,0,1-1.14-1.77Z" transform="translate(-237.21 -84.9)"/><path class="cls-10" d="M269.52,322.52a1.6,1.6,0,0,0-.19,2l.11.58-1,.24-.58-.44-.95,1.25.9,1.26.59-.2a.44.44,0,0,1,.3.4c0,.34.12,2.5.12,2.5a10.4,10.4,0,0,1-.4,1.42l-1.33.06s-1.55-2.14-2.81-.14c0,0-.53-.23,0,.26s1.2,1.64,2.8.28l1.37-.19s.27-.24.29.37.28,4.41.28,4.41l-1.16-2.36.79,2.49-2-1.78,1.77,2.27L265.88,336l2.18,1.73-.14.18-5.71-.47a1.05,1.05,0,0,0,.14-1,6.75,6.75,0,0,0-1.13-1.68s-1.1,1.29-.69,2.26a2.58,2.58,0,0,0-.79.48,1.67,1.67,0,0,0-1.85.71s.47,1.64,1.89,1.57a1.83,1.83,0,0,0,1.2.9,2,2,0,0,0,.69,2.06,2.23,2.23,0,0,0,.47-2.14s.3-.38.3-.48l5.38.39H268l.08.61L267,342.34l1.3-.72.26.26s-.87,2-.84,2.11l1.28-1.68.22,0-.92,2.18.4-1.13.67,14.51a3.07,3.07,0,0,0-.11,2.4l-.59.33s-1.69-.27-1.42,1.3,1.35,1.56,1.84.46l.47-.42.41,8.89,1.69.17,1.26-.65-.45-9.67,0-.59s1.72-.08,1.94-.94l1.51-.84a.84.84,0,0,0,.88-.78c.09-.82-.14-1.86-1.18-1.47,0,0-.46.27-.5.44l-1.14.67s-.69-.12-.87.14l-.77-14.11.48,1.4-.56-2.09,1.48,1.7-1-2.14,2.11.86-1.87-1.64.16-.18,5,.14a2.57,2.57,0,0,0,1,.82,2.32,2.32,0,0,0,1,2.36,2.46,2.46,0,0,0,.65-2.54,2.74,2.74,0,0,0,1.92-1.61,3.86,3.86,0,0,0-2.2-1.84,2.22,2.22,0,0,0-1.11-2.16s-1.16,1.09-.66,2.12l-.37.48-5.28-.39,0-.42,1.18-1.16-1.47.61-.31-.26,1.05-1.72L272,336.84l.42-2.14-.76,1.09-.18-3.31s0-.14.4.14.7.69,1,.68h.22v.34s-.77-.08-.7.21.87.82,1,1.38-.51-.55.28-1-1.52-1-1.52-1l0-.81s1.56.08,1.84-.23c0,0,.39.68.93.51s.52-.43.92-.85.13-.71-.26-1.21-.84-.72-1-.34-.45-.18-.64-.38-.6,0-.6,0l0-.52s.93.18.82-.59-.91-1-1.1-1.54,0,.35-.32.64-.88,1.31-.26,1.45l.37.07-.1.56-1.1.07-.53-.73v-1.77s.17-.36.74-.05l.82-.94-1.12-1.37-.53.17-1.14-.22.08-.59S270.65,323.6,269.52,322.52Z" transform="translate(-237.21 -84.9)"/><path class="cls-10" d="M313.72,454.7a17.36,17.36,0,0,1-8.14,8.44c-10.25,5.22-24.93,6.24-24.93,6.24-19.83,1.78-30.42-1.39-35.47-3.88a8.7,8.7,0,0,1-4.66-6h0c-2.13-8.85,4.13-10.25,4.39-10.3h0a26.49,26.49,0,0,1-5.72-25c3.19-11.75,13.11-18.27,20.27-24.55S268,387.33,268,387.32h0l1-10.05h0a4.41,4.41,0,0,0,2.92.95,4.28,4.28,0,0,0,1.24-.25,4.51,4.51,0,0,0,1.7-1.09h0l2.39,9.51h0s2,6.37,12.19,11.46c8.46,4.23,17.33,10.58,22.12,21.48,5.68,12.93-1.44,24-1.51,24.1h0a9.78,9.78,0,0,1,4.36,5.25C315,450.18,314.8,452.21,313.72,454.7Z" transform="translate(-237.21 -84.9)"/><path class="cls-10" d="M276.31,373.79a4.38,4.38,0,0,1-1.45,3.47,4.32,4.32,0,0,1-1.59.92,4.39,4.39,0,0,1-2.75-8.34,4.34,4.34,0,0,1,1.19-.22h.37A4.39,4.39,0,0,1,276.31,373.79Z" transform="translate(-237.21 -84.9)"/><path class="cls-2" d="M247.12,538.89a19.76,19.76,0,0,0,1.73,1.27Z" transform="translate(-237.21 -84.9)"/><path class="cls-3" d="M727,450.31a13.83,13.83,0,0,1-2.05,5.17l.1,13.86V494.5l0,7.68,0,.67v3.08l-.08.25h0l-.17.06-.8,2.71h0l.35,0,.16.3,1.19,4.42-.33,1.75s0,0,0,0v.11l-.05.06h-.12l-.18.17h0l-.26,2.16h0l.15.22.11.58V519h0l.22.32h0l.8,2.47v.55l.25.62.12.3v.06l.62,7.8c-1.68,7.59-9.9,12.23-20.17,14.61a65.67,65.67,0,0,0-3.46-9c-.53-1.12-1.11-2.2-1.7-3.26-.5-.9-1-1.77-1.59-2.62-.22-.35-.45-.69-.69-1s-.42-.83-.64-1.13c-.65-.91-1.36-1.69-2.11-2.69h0s0,.16,0,.15a28.91,28.91,0,0,0-3.31-2.29c-.06,0-.11.14-.17.14h0c-1.47-1-3-2-4.58-2h-.13s0-.1,0-.12,0,0,0,0c-.72-.23-1.44-.55-2.17-.72v0s0,0,0,0,0-.05,0-.05h-7.57c-.41,0-.82-.27-1.21-.27a8.55,8.55,0,0,1-3.8-.92l-.32-.18h0a7.22,7.22,0,0,1-2.32-2.14l0-.07a28,28,0,0,1-1.49-2.73l0,0c0-.06-.07,0-.1-.06a.26.26,0,0,0-.11-.07s0,.25,0,.25,0,.23,0,.23h-.32c-.24,0-.46.51-.9,1.91,0,0,0-.08,0-.06-.14.43-.28.82-.47,1.38h0c-.06.17-.13.33-.18.53h0c-.19.61-.63,1.26-.88,2,0,0-.23,0-.23,0h0v2.38h0a3.62,3.62,0,0,1-.33.32c-.88.83-2,1.45-2.87,2.45h0s.21-.27.21-.19h0v0s-.12,0-.13,0l-.07,0s-.06,0-.07.06l0-.06c-.07.13-.15.09-.21.09h0c-.06,0-.13.11-.19.11s0,.12,0,.14,0-.14,0-.14,0-.11,0-.11h0s-.06.17-.09.21c-.74.7-1.56,1.53-2.44,2.29,0,0,0,.06,0,.06v0s0,0,0,0l-2.52,2.2h0c-1.57,1.37-3.26,2.89-5,4.61a11.64,11.64,0,0,1-1.52-2.92,12.94,12.94,0,0,0,.69-2.2,9.61,9.61,0,0,0-.17-4.27c-.21-1-.44-1.67-.44-1.67l.23-6,0-.59,1.61-1.14-.49-1.8h0l-.08,0,0-.1,0-.11h0l-.65-1.71a16.54,16.54,0,0,1-.35-3v-.06c0-.06-.09-.1-.1-.16l0,0,0,0h0a3.71,3.71,0,0,0-.39-1.29c-.22-.65-.65-2.1-1-3.35l0,0c-.28-1.07-.52-2-.56-2.17s0,0,0,0l1.4-2.08,0,0,1.56-1.85,1-26.88.44-12,.32-5.51a7,7,0,0,1-1.74-5.23l.61-4.8a1.36,1.36,0,0,0-.23-2,2.63,2.63,0,0,1-.64-1.92,10.34,10.34,0,0,1,.17-2.1l43.74,1.54,31.74-2.48a20.28,20.28,0,0,0-.76,4.73c.15,1.41.46,3.28.46,3.28A22.48,22.48,0,0,1,727,450.31Z" transform="translate(-237.21 -84.9)"/><path class="cls-14" d="M654.93,444.66s6.23,8.37,36.9,8.94c0,0,25.11,1.07,32-8.09,0,0-6.38,8.76-37.57,7C686.29,452.54,665.22,453.11,654.93,444.66Z" transform="translate(-237.21 -84.9)"/><path class="cls-14" d="M654.54,455s4.23,7.43,32.31,9.26a83.8,83.8,0,0,0,19.14-.86c7.07-1.17,15.24-3.48,18.09-8,0,0-6.73,9.63-42.1,7.28C682,462.72,667.18,462.86,654.54,455Z" transform="translate(-237.21 -84.9)"/><path class="cls-14" d="M662.79,525.84c-.17.18-.36.35-.54.52-7.21-3.27-8.57-7-8.64-7.22C653.73,519.37,655.86,522.85,662.79,525.84Z" transform="translate(-237.21 -84.9)"/><path class="cls-14" d="M723.5,521.61c-.17.26-5.33,7.46-23.43,9.24-.22-.35-.45-.69-.69-1C715.62,528.3,721,523.18,723.5,521.61Z" transform="translate(-237.21 -84.9)"/><path class="cls-14" d="M652,509.53c3.89,4.26,9.65,7,15.32,8.64v0c-.06.17-.13.35-.18.54C656.95,515.37,652.58,510.27,652,509.53Z" transform="translate(-237.21 -84.9)"/><path class="cls-14" d="M683.07,520.89c.5,0,.93.11,1.31.11h-5.86c-.41,0-.82-.27-1.21-.27a8.55,8.55,0,0,1-3.8-.92l-.32-.17A77.5,77.5,0,0,0,683.07,520.89Z" transform="translate(-237.21 -84.9)"/><path class="cls-14" d="M722.68,512.77c-.45,1-2,2.45-5,3.93-5.15,2.57-14.47,5.15-29.34,5.1h0c-.72-.23-1.44-.53-2.17-.7v0s0,0,0,0,0,0,0,0h.06c16.27,0,25.64-2.55,30.81-4.75l.06,0C721,514.48,722.49,513,722.68,512.77Z" transform="translate(-237.21 -84.9)"/><polygon class="cls-4" points="417.45 387.08 416.66 418.31 414.74 417.6 415.49 387.01 417 386.99 417.45 387.08 417.45 387.08"/><path class="cls-4" d="M725.62,472.17,725,503l.52,3.32-2.05-.76s1-37.21,1-38.62Z" transform="translate(-237.21 -84.9)"/><path class="cls-4" d="M715.09,473.18l-2,36.23,5.53,2.6.37-1.51.4-36.28s0-3-2.72-2.38a5.4,5.4,0,0,0-1.56,1.36Z" transform="translate(-237.21 -84.9)"/><path class="cls-4" d="M665.88,473.73s-1.89-2.43-3.9-1.1a3.13,3.13,0,0,0-1.33,2.59l-.49,35.32,4.36-1.6,1.34-34.84Z" transform="translate(-237.21 -84.9)"/><path class="cls-6" d="M666.39,474.08s1.68,1.52,1.67,5.41-.13,30.59-.13,30.59l-2.48.47s-.17-35.09.79-36.58Z" transform="translate(-237.21 -84.9)"/><path class="cls-6" d="M715.09,473.18s-2.27,1.42-2.42,7.23-.55,28-.55,28l2.52-.23.45-35Z" transform="translate(-237.21 -84.9)"/><path class="cls-6" d="M686.17,479s.75-2.28,4.78-2.52,5.75,4.21,5.17,6.27-.2,33.55-.2,33.55l-10.23-1.35.48-36Z" transform="translate(-237.21 -84.9)"/><path class="cls-2" d="M659.69,528.63l-2.58,2.22a20,20,0,0,1-6-4.8c-2.1-2.64-2.51-5.5-.63-8.26,0,0,0,.17.42.6.16.17.38.39.68.68l.22.2c1,1,.91,1.21.91,1.21s-.19.87,1.37,3.19A13.5,13.5,0,0,0,659.69,528.63Z" transform="translate(-237.21 -84.9)"/><path class="cls-2" d="M726.33,523.26c0,2.39-1.08,5.25-5.3,7.64a54.33,54.33,0,0,1-17.68,5.82c-.53-1.12-1.1-2.2-1.69-3.26,10.62-1.45,19.07-4.86,21.19-9.41a9.86,9.86,0,0,0,.66-2.45l.39-1,.85-2.22h0l0,0a9.45,9.45,0,0,1,1.43,3.62A7.67,7.67,0,0,1,726.33,523.26Z" transform="translate(-237.21 -84.9)"/><path class="cls-2" d="M666.68,520.84c0,.82-.68,1.6-.68,2.38h0s-.3.06-.33.08c-5.26-1.63-11.29-4.32-13.72-8.45,0,0,0,0,0,0a9.91,9.91,0,0,1-1-5.21h0a1.46,1.46,0,0,1,.06-.28S653.57,517,666.68,520.84Z" transform="translate(-237.21 -84.9)"/><path class="cls-2" d="M725.39,515.47h0c0,.06-.15.11-.18.17s-.2.12-.2.17h0c-1,1-1.35,2-2.83,2.93-.27.17-.46.33-.74.5l0-.19c-4.6,2.86-10.44,6.93-24.82,6.93h0s0,.16,0,.14a31.3,31.3,0,0,0-3.31-2.44A56.5,56.5,0,0,0,711.1,521,40.12,40.12,0,0,0,719,517.5c3.46-2.09,5.44-4.36,4.8-6.21l.81-2,.12-.39S726.88,512.16,725.39,515.47Z" transform="translate(-237.21 -84.9)"/><path class="cls-2" d="M725.41,501.48l-.08.7-.09.67-.11.07L725,503h0l-.08.26.24,1.7,0,.08,0,.28.06.56h-.09l-1.62-.28h-.06l-.4-.06-3,2.86L720.1,510l-1.13.44-.39.16L715,508.33s.42-26.07.39-30.38c0-3.76-.28-4.6-.35-4.75v0h0v0h0l-.72.91.18,3.4-1.67.86-.18,2,1.62-1-.28,9.12v.88l.05,3.13-.1.1h0l-1.54,1.09,0,1.38,1.51-.79.36-.19-.45,13.32-.53.39-.14.09-.95.5-.2,0V508h.1v.38L712,512.9v.19h0c0,.1-.29.51-1.47,1a2.07,2.07,0,0,1-2.17-.24l-9.68,2-.46.83-2.22-.35h0V482.75c0-.82.05-1.36,0-1.55a4.73,4.73,0,0,0-1.34-3l0,4-7.89.15.16-4v0a.91.91,0,0,0-.22,0s-.13,0-.16.06-.19.25-.38.57l0,0,0,0c-.1.17-.25.39-.41.65-.35.58-.77,7.67-.77,15.46v.24c0,10-.33,21.18-.33,21.18a4.14,4.14,0,0,1-2.47,0,13.37,13.37,0,0,1-2.52-.84L671,514.3l-1,.66-.69,0H669s0-.25,0-.23,0-.13,0-.12.07,0,.11,0,.06,0,.1,0h0a28.08,28.08,0,0,0,1.49,2.72h0A95.73,95.73,0,0,0,695.07,519c9.37-.89,15.58-2.29,20-3.83.08,0,0-.06.11-.09,5.78-2.06,7.82-4.38,8.82-6.16h0s.38,0,.38,0a23.23,23.23,0,0,0,1.22-2.19C726.67,504.42,725.41,501.48,725.41,501.48ZM695,502l-.27,10.55h-8.4l.14-13.36,3.88-.13h4.37l.28,2.59Zm-8-5.56v0l-.15-13.2,8,.31-.33,13.82-6.39-.29h0l-.48.08-1.06.13.23-.77Zm-18,18.08-.25-.17v0l-1-.84.33-3.42h0l0-.85-.09,0-.06,0L666,508.6l-.1-13.09,2.09.34h-.09l.1-1v-.06l.05-.6-.06,0,0,0-1.91-.94.13-10.31-.2-.41h0l.06-2,1.88.37.12,0-.05-.95V480h0l-2-1.4.29-4.32-.15-.22,0,0-.42-.37,0,0-.06,0,0,0-.59-.49L665,481.3v.43l-.44,27.21-1.7.64-.12,0-.07,0h0l-.23.09-1.1.39-.34.12-.8.28h0s.25,1.29-5.11-2.95c-5-4-4.62-6.64-4.55-6.93v0a2.66,2.66,0,0,0-1.42,2.11s0,0,0,0a4,4,0,0,0,.54,2.17l0,0c.93,1.75,3.16,4.12,7.86,7.24a36,36,0,0,0,10.31,4.44s0,.25,0,.26c.44-1.4.66-1.91.9-1.91H669l0-.28Zm-.82-33.6h0Z" transform="translate(-237.21 -84.9)"/><path class="cls-2" d="M654.67,471.82s-.51-11.62-1.18-12a1.94,1.94,0,0,0-1.43-.06l.65,11.94Z" transform="translate(-237.21 -84.9)"/><path class="cls-2" d="M672.25,479.85s-1.17-10.56-8.54-11.59c0,0-4.84-.79-5.5,7.91,0,0,.88.6,1.07-.19s-.3-4.48,2.48-5.33,6.87,1.71,7.49,9.08Z" transform="translate(-237.21 -84.9)"/><path class="cls-2" d="M724.32,471.75l1.81.07s.14-11.83-.84-12.51-.9,12.32-.9,12.32" transform="translate(-237.21 -84.9)"/><path class="cls-2" d="M709.06,479.16l1.67.75,1.19-.64s.75-8.5,5.24-9.44,3.72,5.31,3.72,5.31l.46.31.6-.33s0-6.58-3.42-7.46a6,6,0,0,0-5.83,2.8A28.54,28.54,0,0,0,709.06,479.16Z" transform="translate(-237.21 -84.9)"/><path class="cls-2" d="M681.26,481.48s.85-9.19,9.88-8.94,9.11,9.13,9.11,9.13l-.88-.14,0,.29-1.62-.06s.32-6.58-6.66-6.85-7.36,7.12-7.36,7.12l-1.61.12,0-.58Z" transform="translate(-237.21 -84.9)"/><path class="cls-2" d="M652.39,442.51s-1.9,1.76-.77,5.34,6.56,9.29,26,11.45,39.12.35,47.16-6.81c0,0,4.85-4.82,1.39-8.69l-.9,1.24a3.57,3.57,0,0,1-.76,3.15c-1.27,1.72-5.51,11-39,9.2s-32-13.95-32-13.95Z" transform="translate(-237.21 -84.9)"/><path class="cls-10" d="M695.09,335.9" transform="translate(-237.21 -84.9)"/><path class="cls-10" d="M695.89,335.56l-.43-1s-.8.05-.66-1,.27-1.18.27-1.18,1.76,1,1.38,1.56l-.38.53.2.76s.37.25.65-.38.57-.69,1.42.06l.85.75a7.39,7.39,0,0,1-.93,1.34c-.29.21-.68-.26-.68-.26l-.13.82a1.06,1.06,0,0,1,.53.34c.26.29-.63,1.69-.63,1.69l-1-.74a1.56,1.56,0,0,1,0-1.19,3.86,3.86,0,0,0-.42-2.11" transform="translate(-237.21 -84.9)"/><path class="cls-10" d="M688.12,339.16l-.28-1s.65-.47-.13-1.21-1-.74-1-.74-.71,1.92-.08,2.08l.63.17.33.71s-.12.43-.75.12-.88-.17-1.06.95l-.18,1.12a7.39,7.39,0,0,0,1.57.45c.35,0,.36-.63.36-.63l.62.55a1.06,1.06,0,0,0-.19.6c0,.39,1.55.91,1.55.91l.33-1.22a1.56,1.56,0,0,0-.75-.93,3.86,3.86,0,0,1-1-1.9" transform="translate(-237.21 -84.9)"/><path class="cls-10" d="M693.13,300.38a1.64,1.64,0,0,0-.37,2l.06.6-1,.16-.55-.5-1.07,1.19.81,1.36.62-.15a.45.45,0,0,1,.27.44c0,.35-.08,2.21-.08,2.21a6.78,6.78,0,0,1-.52,1.06l-1.36-.05a1.66,1.66,0,0,0-2.87,0s-.52-.11,0,.44,1.08,1.86,2.83.62l1.42,0s.29-.2.27.42-.1,4.53-.1,4.53l-1-2.5.59,2.61-1.87-2,1.6,2.46-2.54-1.41,2.08,2-.16.18-5.78-1a1.08,1.08,0,0,0,.23-1,6.91,6.91,0,0,0-1-1.81s-1.24,1.22-.9,2.25a2.64,2.64,0,0,0-.85.42,1.71,1.71,0,0,0-1.95.57s.34,1.71,1.79,1.77a1.87,1.87,0,0,0,1.14,1,2.09,2.09,0,0,0,.52,2.16,2.28,2.28,0,0,0,.66-2.14s.34-.36.35-.46l5.45.86.23,0,0,.63-1.25,1.08,1.38-.63.24.29s-1.06,1.95-1,2.07l1.45-1.61.22.06L690,322.7l.57-1.11L690,336.44a3,3,0,0,0-.38,2.44l-.66.29s-1.72-.42-1.58,1.2,1.29,1.71,1.89.63l.57-.38-.35,9.1,1.57.31,1.2-.56.38-9.9,0-.6s1.85.07,2.14-.79l1.65-.73a.88.88,0,0,0,1-.72c.16-.82,0-1.91-1.06-1.6,0,0-.48.23-.54.41l-1.22.58s-.69-.18-.9.07l.43-14.46.37,1.47-.39-2.18,1.36,1.86-.87-2.27,2.07,1.06-1.77-1.83.18-.17,5.14.58a2.63,2.63,0,0,0,.92.92,2.38,2.38,0,0,0,.81,2.5,2.52,2.52,0,0,0,.88-2.53,2.8,2.8,0,0,0,2.1-1.48,4,4,0,0,0-2.08-2.07,2.27,2.27,0,0,0-.94-2.3s-1.27,1-.86,2.11l-.42.46-5.35-.86v-.43l1.3-1.08L695,316l-.29-.29L696,314l-1.53,1.17.61-2.14-.87,1,.11-3.39s0-.13.4.19.65.78.93.79h.23l0,.33s-.77-.15-.74.15.82.91.95,1.5-.61-.61.24-1-1.6-1.16-1.6-1.16l0-.83s1.72.22,2-.07c0,0,.4.73,1,.6s.6-.39,1-.79.22-.71-.14-1.25-.78-.8-1-.43-.44-.22-.62-.44-.61-.1-.61-.1l.08-.53s.94.26.89-.53-.84-1.13-1-1.66,0,.36-.38.63-1,1.26-.4,1.46l.37.11-.15.56-1.13,0-.48-.79.16-1.81s.2-.35.75,0l.92-.89-1-1.49-.55.13-1.14-.33.14-.6S694.18,301.58,693.13,300.38Z" transform="translate(-237.21 -84.9)"/><path class="cls-10" d="M726.74,439a17.76,17.76,0,0,1-9,7.9c-10.9,4.43-26,4.21-26,4.21-20.37.09-30.89-4.06-35.83-7a8.9,8.9,0,0,1-4.24-6.49h0c-1.4-9.21,5.1-10.09,5.37-10.13h0a27.1,27.1,0,0,1-3.67-26c4.27-11.7,15-17.49,22.8-23.28S686,366.34,686,366.32h0l1.89-10.16h0a4.51,4.51,0,0,0,2.9,1.22,4.38,4.38,0,0,0,1.29-.14,4.62,4.62,0,0,0,1.82-1h0l1.62,9.9h0S697,372.85,707,378.92c8.26,5,16.75,12.29,20.7,23.82,4.68,13.68-3.54,24.34-3.62,24.44h0a10,10,0,0,1,4,5.73C728.39,434.49,728.06,436.54,726.74,439Z" transform="translate(-237.21 -84.9)"/><path class="cls-10" d="M695.61,353.24a4.49,4.49,0,0,1-1.77,3.41,4.42,4.42,0,0,1-1.7.8,4.5,4.5,0,0,1-2.08-8.75,4.44,4.44,0,0,1,1.24-.13l.37,0A4.49,4.49,0,0,1,695.61,353.24Z" transform="translate(-237.21 -84.9)"/><path class="cls-2" d="M651.54,519.06a20.22,20.22,0,0,0,1.66,1.44Z" transform="translate(-237.21 -84.9)"/><path class="cls-3" d="M458.94,517.71s-.56,3.39.67,4.34a1.48,1.48,0,0,1,.34,2.11l-.46,5.23a7.64,7.64,0,0,0,2.1,5.6l-.12,6,.06,42.15-1.61,2.07-1.47,2.35s1.29,4.6,1.81,6a28.69,28.69,0,0,1,.86,4.94l1.49,4-1.62,1.3v7.14s1.54,4,.94,6.43a17.44,17.44,0,0,1-.65,2.41s3.87,11.82,25.45,14.35S541,631.88,544,615l-1-8.42-1.92-5.29,1-5.1-1.43-5.06.46-3.36-2.48-54.63a15.07,15.07,0,0,0,2-5.68,24.19,24.19,0,0,0,0-5.25s-.41-2-.63-3.53a21.61,21.61,0,0,1,.63-5.16l-34.28,4-47.44.15" transform="translate(-237.21 -84.9)"/><path class="cls-14" d="M462.41,524.37s7.1,8.8,40.34,8.15c0,0,27.24.11,34.35-10.1,0,0-6.54,9.76-40.4,9.18C496.7,531.61,473.9,533.1,462.41,524.37Z" transform="translate(-237.21 -84.9)"/><path class="cls-14" d="M462.41,535.62s4.89,7.88,35.38,8.69a90.84,90.84,0,0,0,20.7-1.73c7.61-1.56,16.36-4.4,19.27-9.41,0,0-6.89,10.71-45.3,9.64C492.46,542.81,476.43,543.58,462.41,535.62Z" transform="translate(-237.21 -84.9)"/><path class="cls-14" d="M539.9,604.87s-7.48,12.09-39.63,11.86-36.2-11.61-36.2-11.61,6.78,11,35.81,10.62,36.73-8.65,40-10.86" transform="translate(-237.21 -84.9)"/><path class="cls-14" d="M461.83,594.67s10,12.38,37.36,11.94,38.22-8.3,39.45-11.3c0,0-6.78,9-39.3,10.56C499.34,605.86,473.52,606.66,461.83,594.67Z" transform="translate(-237.21 -84.9)"/><polyline class="cls-4" points="226.04 469.08 226.48 502.94 224.38 502.25 223.92 469.08 225.55 469 226.04 469.08"/><path class="cls-4" d="M540.13,551.23l.6,33.46.7,3.58-2.26-.74s-.5-40.35-.53-41.88" transform="translate(-237.21 -84.9)"/><path class="cls-4" d="M528.75,552.76l-.68,39.32,6.1,2.58.34-1.66-1.08-39.32s-.13-3.27-3-2.47a5.86,5.86,0,0,0-1.64,1.53" transform="translate(-237.21 -84.9)"/><path class="cls-4" d="M475.47,555.42s-2.15-2.55-4.27-1a3.39,3.39,0,0,0-1.33,2.86l.94,38.28,4.66-1.91v-37.8" transform="translate(-237.21 -84.9)"/><path class="cls-6" d="M476,555.77s1.88,1.58,2,5.79,1.14,33.14,1.14,33.14l-2.67.61s-1.65-38-.67-39.66" transform="translate(-237.21 -84.9)"/><path class="cls-6" d="M528.75,552.76s-2.4,1.64-2.32,7.93.57,30.36.57,30.36l2.72-.35-1-37.95" transform="translate(-237.21 -84.9)"/><path class="cls-6" d="M497.68,560.24s.72-2.51,5.07-2.93,6.4,4.32,5.86,6.58,1.19,36.35,1.19,36.35l-11.14-1-1-39" transform="translate(-237.21 -84.9)"/><path class="cls-2" d="M541.12,601.32s6.12,7.75-3.52,13.72-26.32,10.25-46.83,8.42S455,612.7,460.58,603.77c0,0-.11.18,1.25,1.34s1.28,1.49,1.28,1.49-.18,1,1.61,3.39c1.91,2.61,5.55,7.65,26.82,9.64s44.22-3.67,47.74-12.09a10.6,10.6,0,0,0,.61-2.68Z" transform="translate(-237.21 -84.9)"/><path class="cls-2" d="M540.7,591.06s4.67,6.2-2.22,10.79-15.61,11.59-50.84,9.3c0,0-28.81-2.75-27-16.53,0,0,4,10.9,24.79,13.08s32.59.34,41-2.87,14.58-7.92,13.31-11.13l1-2.64" transform="translate(-237.21 -84.9)"/><path class="cls-2" d="M541.12,583l-.46,2,.46,2.83-2.17-.3L536,590.71v1.68l-1.76.72-4-2.26s-.67-28.25-.88-32.93-.61-5.16-.61-5.16l-.77,1,.34,3.67-1.78,1-.11,2.21,1.84-1.2.4,14.23L527,575.1v1.49l2-1.14V589.9l-1.92,1.16,0,5s-.14.51-1.57,1.14a2.26,2.26,0,0,1-2.36-.17l-10.4,2.52-.57.92-2.41-.28s-1.09-36-1.27-38a5.09,5.09,0,0,0-1.61-3.21l.17,4.36-8.78.5-.24-4.4-.8,1.49c-.8,1.5.34,40,.34,40a4.6,4.6,0,0,1-2.69.11,14.06,14.06,0,0,1-2.75-.8l-9.47-1.15-1,.57-1.09-.17L479,598.41l.22-4.66-2.23-.57L476.39,579l2.19.28.11-1.78-2.41-1L476,562.71l2.19.35-.12-1.84-2.18-1,.17-4.47-1.49-1.09.92,38.95-2.18.94-2.48,1s.3,1.38-5.67-3-5.22-7.35-5.22-7.35-6.56,3.37,8.05,12.24,41,5.82,41,5.82c30.76-4.13,31.68-12.09,32.75-14.62S541.12,583,541.12,583Zm-42.79-18h8.81l.28,15.1-8.6.3Zm.84,31.74-.34-14.46,9-.34.39,14.4Z" transform="translate(-237.21 -84.9)"/><path class="cls-2" d="M463.25,554s-1-12.66-1.78-13a2,2,0,0,0-1.55,0l1.21,13Z" transform="translate(-237.21 -84.9)"/><path class="cls-2" d="M482.63,562s-1.7-11.51-9.74-12.31c0,0-5.28-.71-5.62,8.74,0,0,1,.58,1.15-.28s-.52-4.74,2.47-5.77,7.52,1.63,8.49,9.63Z" transform="translate(-237.21 -84.9)"/><path class="cls-2" d="M539,551h1.66s-.34-12.91-1.43-13.6-.31,13.43-.31,13.43" transform="translate(-237.21 -84.9)"/><path class="cls-2" d="M522.47,559.49l1.84.75,1.26-.75s.46-9.24,5.28-10.44,4.25,5.6,4.25,5.6l.52.32.63-.39s-.23-7.13-4-7.93a6.45,6.45,0,0,0-6.2,3.27A30.93,30.93,0,0,0,522.47,559.49Z" transform="translate(-237.21 -84.9)"/><path class="cls-2" d="M492.46,563.17s.54-10,10.33-10.1S513,562.57,513,562.57h-1l0,.42h-1.76s.08-7.26-7.5-7.26-7.67,8-7.67,8l-1.74.17-.08-.64Z" transform="translate(-237.21 -84.9)"/><path class="cls-2" d="M459.56,522.16s-2,2-.61,5.82,7.5,9.79,28.62,11.32,42.39-1.25,50.8-9.35c0,0,5-5.42,1.15-9.48l-.92,1.38a3.87,3.87,0,0,1-.69,3.44c-1.3,1.91-5.51,12.17-41.89,11.59s-35.23-13.77-35.23-13.77Z" transform="translate(-237.21 -84.9)"/><path class="cls-10" d="M501.38,404.89" transform="translate(-237.21 -84.9)"/><path class="cls-10" d="M502.23,404.49l-.51-1s-.87.09-.76-1.07.25-1.29.25-1.29,2,1,1.56,1.63l-.39.59.25.81s.41.26.69-.44.59-.77,1.54,0l1,.78a8,8,0,0,1-1,1.49c-.3.24-.75-.25-.75-.25l-.11.9a1.15,1.15,0,0,1,.59.35c.29.3-.61,1.85-.61,1.85l-1.15-.76a1.7,1.7,0,0,1-.06-1.29,4.19,4.19,0,0,0-.55-2.27" transform="translate(-237.21 -84.9)"/><path class="cls-10" d="M494,408.72l-.35-1.1s.69-.54-.19-1.3-1.07-.77-1.07-.77-.69,2.1,0,2.26l.69.15.38.76s-.11.47-.8.16-1-.15-1.11,1.07l-.15,1.22a8,8,0,0,0,1.72.42c.38,0,.37-.7.37-.7l.7.57a1.15,1.15,0,0,0-.19.66c0,.42,1.72.92,1.72.92l.31-1.34a1.7,1.7,0,0,0-.85-1,4.19,4.19,0,0,1-1.17-2" transform="translate(-237.21 -84.9)"/><path class="cls-10" d="M497.77,366.5a1.78,1.78,0,0,0-.31,2.17l.09.65-1.11.22-.62-.52-1.11,1.34.93,1.44.67-.19a.49.49,0,0,1,.31.46c0,.38,0,2.57,0,2.57a9.11,9.11,0,0,1-.52,1.35h-1.47s-1.61-2.25-3.11-.09c0,0-.57-.18,0,.39s1.25,1.93,3.09.51l1.53-.11s.31-.24.31.44.08,4.91.08,4.91l-1.17-2.67.75,2.8L494,380.09l1.84,2.6L493,381.28l2.33,2-.16.2-6.3-.82a1.17,1.17,0,0,0,.2-1.1,7.49,7.49,0,0,0-1.17-1.92s-1.29,1.37-.88,2.47a2.86,2.86,0,0,0-.9.49,1.85,1.85,0,0,0-2.09.7s.44,1.84,2,1.84a2,2,0,0,0,1.28,1.06,2.27,2.27,0,0,0,.65,2.32,2.47,2.47,0,0,0,.63-2.34s.35-.41.35-.52l5.94.71.25,0,.05.68-1.31,1.23,1.47-.74.27.3s-1.06,2.15-1,2.29l1.5-1.8.25.05-1,2.37.62-1.23v16.11a3.08,3.08,0,0,0-.36,2.66l-.72.34s-1.89-.38-1.67,1.36,1.51,1.8,2.11.6l.64-.44v9.87l1.72.27,1.28-.65v-11.4s1.95,0,2.23-.94l1.73-.86a.94.94,0,0,0,1-.82c.14-.9-.06-2.07-1.23-1.69,0,0-.52.27-.57.46l-1.3.68s-.76-.16-1,.11l-.13-15.68.47,1.58-.52-2.34,1.55,2-1-2.43,2.29,1.06-2-1.91.19-.19,5.59.41a2.86,2.86,0,0,0,1,1,2.58,2.58,0,0,0,1,2.67s1.12-.71.85-2.78a3,3,0,0,0,2.21-1.69,4.29,4.29,0,0,0-2.34-2.15,2.46,2.46,0,0,0-1.12-2.45s-1.34,1.15-.85,2.32l-.44.52-5.83-.71,0-.46,1.36-1.23-1.66.6-.33-.3,1.25-1.85-1.61,1.34.57-2.34-.9,1.17,0-3.68s0,0,.44.37.74,1,1,1h.25l0,.18s-.85-.22-.79.1.93.91,1.09,1.54-.63-.66.27-1.15-1.72-1.21-1.72-1.21v-.9s1.81.16,2.14-.16c0,0,.44.78,1,.61s.62-.45,1.09-.9.2-.78-.21-1.35-.88-.84-1.07-.43-.48-.22-.69-.45-.66-.08-.66-.08l.07-.57s1,.25.94-.61-1-1.19-1.14-1.76,0,.39-.39.7-1,1.41-.37,1.59l.41.1-.14.61-1.23,0-.55-.84.1-2s.2-.39.82,0l1-1L500,369.48l-.59.16-1.25-.31.12-.65S499,367.76,497.77,366.5Z" transform="translate(-237.21 -84.9)"/><path class="cls-10" d="M540,515.24a19.25,19.25,0,0,1-9.45,8.93c-11.62,5.26-27.94,5.64-27.94,5.64-22.06.95-33.63-3.11-39.11-6.12a9.65,9.65,0,0,1-4.86-6.86h0c-1.9-9.91,5.1-11.15,5.39-11.19h0a29.38,29.38,0,0,1-5.05-28c4.14-12.85,15.47-19.57,23.72-26.17s10.1-13.21,10.1-13.23h0l1.62-11.09h0a4.89,4.89,0,0,0,3.19,1.2,4.75,4.75,0,0,0,1.39-.21,5,5,0,0,0,1.94-1.12h0l2.16,10.66h0S505,444.84,516,451c9.15,5.12,18.66,12.61,23.41,24.94,5.63,14.62-2.83,26.51-2.91,26.63h0a10.85,10.85,0,0,1,4.56,6C541.55,510.3,541.27,512.54,540,515.24Z" transform="translate(-237.21 -84.9)"/><path class="cls-10" d="M502.65,423.66a4.86,4.86,0,0,1-1.78,3.77,4.8,4.8,0,0,1-1.81.94,4.87,4.87,0,0,1-2.62-9.39,4.81,4.81,0,0,1,1.33-.19l.41,0A4.87,4.87,0,0,1,502.65,423.66Z" transform="translate(-237.21 -84.9)"/><path class="cls-2" d="M461.83,605.12a21.92,21.92,0,0,0,1.86,1.49" transform="translate(-237.21 -84.9)"/></g><g id="Слой_8" data-name="Слой 8"><polygon class="cls-2" points="366.37 721.36 370.48 748.24 384.71 754.63 413.6 729.84 421.96 735.36 431.22 730.07 430.04 728.73 421.89 733.51 413.63 726.32 395.04 741.09 383.56 749.81 384.25 727.09 369.1 718.14 366.37 721.36"/><path class="cls-1" d="M551.68,631.1l5.1,193.44c.3,11.47.21,22.34,1.8,33.7h0s5-4.85,13.22-19.53c2.59-4.63-4.23-199.69-4.23-199.69l-2.48-1.88,2.15-7.59.14-6.2a13.66,13.66,0,0,1-5.19,1.39c-2.24-.07-10.51-1.91-10.51-1.91Z" transform="translate(-237.21 -84.9)"/><path class="cls-1" d="M446.32,791.34l-.25,75.74S441,875.53,424,874.91V793.63S435.55,795.48,446.32,791.34Z" transform="translate(-237.21 -84.9)"/><path class="cls-1" d="M373.12,766.07l5.54,95.74-18,1.68-3.55-101.57s15.95-2.26,18.24-5.94S372.66,757.86,373.12,766.07Z" transform="translate(-237.21 -84.9)"/><path class="cls-1" d="M444.25,626.52l.59,135.4s-3.77-18.15-14.11-28.87c-7.66-9.43-11.72,8.55-10.35-15,2.23-38.16,1-121.84,1-121.84s25.84,13.83,27.68,17.38C449.06,613.56,444.25,621.7,444.25,626.52Z" transform="translate(-237.21 -84.9)"/><path class="cls-15" d="M378.66,623.86l2.54,122.82,2.11,3L385,750a74.55,74.55,0,0,1,13.42-11.21l-2-102.21,2-.57-.57-21Z" transform="translate(-237.21 -84.9)"/><path class="cls-4" d="M688.43,795.33l1.06-64.88s.42-11.62-7.5-11.33c0,0,4.57-2,6.64,2.11a21.83,21.83,0,0,1,2.17,8.26l1.37-.35s-.46-10.89-6.43-12.16c0,0,7.34-1,7.34,11h2.75s-.11-13.21-9.3-13.21-18.82,16.87-17.33,27.77c0,0,1-16.77,9.76-21.06,4-1.84,6.77,5.88,6.2,13.23s-1.49,60.48-1.49,60.48l1.15.12,1.84-63.9s.57-11-6.89-11c0,0,4.82-1.72,6.89,3.1s1.26,16,1.26,16l-1.61,55Z" transform="translate(-237.21 -84.9)"/><polygon class="cls-4" points="453.57 710.68 454.95 649.04 453 648.24 452.19 709.64 453.57 710.68"/><polygon class="cls-4" points="457.45 710.31 458.35 663.19 467.12 656.75 458.79 660.98 458.79 651.8 467.01 645.49 458.79 650.19 458.79 647.67 455.79 647.09 455.79 709.64 457.45 710.31"/><polyline class="cls-4" points="421.79 672.1 421.79 733.51 413.79 726.32 413.79 668.86 422 671.9"/><polygon class="cls-4" points="417.69 670.93 421.97 673.22 431.23 666.95 421.97 671.85 417.69 670.93"/><polygon class="cls-4" points="417.69 681.95 421.97 684.24 431.23 677.97 421.97 682.86 417.69 681.95"/><polyline class="cls-4" points="384.37 548.05 384.71 727.09 369.1 718.14 367.26 541.27 384.37 548.05"/><path class="cls-4" d="M571.8,631.57s4.09-5.28,9.76-2.07c4.51,2.56,4.4,10.86,4.16,14.14-.08,1.15-.12,2.3-.1,3.46l1.11,98.78h-2l-.3-99.25c0-.79,0-1.57,0-2.36C584.63,640.22,584.46,624.47,571.8,631.57Z" transform="translate(-237.21 -84.9)"/><path class="cls-16" d="M662.14,689.87c8.26,4.1,13.76,2.11,19.61-.8,5.23-2.61,4.34-9.12,3.11-12.49s-3.11.58-7.09,1.81a36,36,0,0,1-11.94,1.38C663.54,679.47,655.47,685.44,662.14,689.87Z" transform="translate(-237.21 -84.9)"/><path class="cls-16" d="M310.81,643s-2,10.71,1.53,14.08,4.75,4.13,13.32,1.84,11.32-2.14,5.81,2.3-17.4,7.19-22,3.06-3.83-9.95-3.06-13.62S311,641.68,310.81,643Z" transform="translate(-237.21 -84.9)"/><path class="cls-16" d="M269.5,727.36s-17.45-.77-19.13-7.5,1.22-15.61,7.19-22.8,17.48-16.53,17.77-14.23-4.61,8.26-8.59,12.24S258,699.67,258,705.79s2.14,9.95,6.58,12.24S273.17,728.44,269.5,727.36Z" transform="translate(-237.21 -84.9)"/><path class="cls-16" d="M320,684.82s-3.66,8.72,5.67,9.33,14.23-1.07,22.49,5.66,16.37,8.57,17.75,6.12-8.26-22.19-18.52-29.61-11.78-5.74-11.78-5.74-1.68-.46-1.22,2.3.31,6.12-1.22,7.8S322.14,686.35,320,684.82Z" transform="translate(-237.21 -84.9)"/><path class="cls-16" d="M310,676.33s-12.62,19.28-14,29.84-1.15,23.18,8,29.61,19.28,8,32.37,7.8,28.46-1.84,31.22-8.72-6.43-25-4.13-26.63,11.94,20.89,14.69,31.91-5.36,11-20.36,11.94S301.48,753,284,741.29s-11.94-22.49-2.75-36S306.07,678.86,310,676.33Z" transform="translate(-237.21 -84.9)"/><path class="cls-1" d="M277.68,606.47,292,611.37l.12,1.92-14.43-7L280.36,680l-7.72,3.42-5.75-109.56s-1.57-3.45,3.06-2.59l4.63.86,3.73-1.22L277,581.07l.77,2.68-4.9,3.6,1.53,4,.94.65,1.24,1.34.57,14" transform="translate(-237.21 -84.9)"/><polygon class="cls-4" points="126.25 553.1 143 560.67 161.25 551.15 143.23 558.03 126.25 553.1"/><polygon class="cls-4" points="125.33 535.65 142.09 543.23 160.33 533.7 142.31 540.59 125.33 535.65"/><path class="cls-4" d="M336.37,588.57s-4.67-6.73-8.26-5.89-5,4.36-5.2,6.81,1.76,10.1,6.73,11.86A12.56,12.56,0,0,1,325,590.1C325.89,582.91,331.63,582.22,336.37,588.57Z" transform="translate(-237.21 -84.9)"/><path class="cls-4" d="M340.5,596.3s.61,12.78-8.88,9.64c0,0,4,2.83,7.19-.38s3.37-9.95,3.37-9.95Z" transform="translate(-237.21 -84.9)"/><path class="cls-4" d="M659,568.57s4.67-6.73,8.26-5.89,5,4.36,5.2,6.81-1.76,10.1-6.73,11.86a12.56,12.56,0,0,0,4.67-11.25C669.44,562.91,663.7,562.22,659,568.57Z" transform="translate(-237.21 -84.9)"/><path class="cls-4" d="M654.83,576.3s-.61,12.78,8.88,9.64c0,0-4,2.83-7.19-.38s-3.37-9.95-3.37-9.95Z" transform="translate(-237.21 -84.9)"/><path class="cls-4" d="M307.68,557.77c-15.38,4.13-16.41,30.08-16.41,30.08l3.46,1.38,1.27.57v3.78l-4.88,2.07-15.67-4.49.46.18,15.24,5.86,5.47,88.66,2.11-1.72-5.28-87.68,1.6-.58,4.94,87.8,1.6-2.07s-4.81-87.34-4.93-91A36,36,0,0,1,302,569c8.25-13.85,22.49-10.22,28.67-7.79-6.3-2.36-16.17-3.24-24.65,5.14-10,9.88-8.26,25.6-8.26,25.6L303,680.12l1.27-1.84-4.82-87.12s-1.38-14.23,8.14-24.79c13-12.63,30,.07,31.47,1.19-1.34-.88-15.8-10.06-27.44-2.46-12.22,8-11.13,25.37-11.13,25.37l5.39,86.31,1.38-1s-5.63-68.4-5.63-85,9.18-23.64,9.18-23.64c24-14.16,45.8,18.07,47,19.89C342,558.46,323,553.64,307.68,557.77ZM294.59,588l-1.61-.62c3.14-33.51,26.93-29.84,26.93-29.84C294.13,558.81,294.59,588,294.59,588Z" transform="translate(-237.21 -84.9)"/><path class="cls-4" d="M756.77,595.3s-1.26-9.3-6.83-12.85c-5.11-3.26-8.09-1.61-9.12-2.75s-.46,1.55-4.13,3.84-3.56,4.45-3.56,4.45,3.56-3.69,5.51-4.26a3.48,3.48,0,0,0,2.41-2.07,14.74,14.74,0,0,1,6.89,1.26c5.09,2.58,6.93,9.07,7.14,11.53a1,1,0,0,0,1,.86Z" transform="translate(-237.21 -84.9)"/><path class="cls-4" d="M732.67,595.65s3.56-6.2,9.3-6.54,8.72,6.66,9.07,11.13,0,11.94,0,11.94l-2.18,60.37.23,10.79-.23,1.72-.84-.19-1.34.84-.77-.61-1.42,1.15-.84-.77L741.93,687l-2.33-2.6-2.45-.15,1.68-81.1s-.77-3.21-3.06-3.52S732.48,599.82,732.67,595.65Z" transform="translate(-237.21 -84.9)"/><polygon class="cls-4" points="456.02 487.45 455.56 610.48 457.09 611.71 457.86 488.21 456.02 487.45"/><polygon class="cls-4" points="462.79 489.28 462.79 508.1 460.46 508.1 460.15 614.07 457.86 612.28 458.77 507.87 458.47 491.1 460.46 491.1 462.79 489.28"/><path class="cls-17" d="M676.22,607.65A8.17,8.17,0,0,0,671,615.5v45.91l-2.28.46s-.77-42.93,0-45.65S671.48,607.14,676.22,607.65Z" transform="translate(-237.21 -84.9)"/><path class="cls-17" d="M657,671.51V619.17s.45-13.16,6.27-11.17c0,0-7.27-2.91-8.27,10.1v54.32Z" transform="translate(-237.21 -84.9)"/><path class="cls-4" d="M644,680l.77-46.71s-.46-10.27,4.59-11.5c0,0-5.82.1-6.73,10.66s0,47.54,0,47.54Z" transform="translate(-237.21 -84.9)"/><polyline class="cls-18" points="366.58 523.83 367.26 541.27 384.37 548.05 384.14 528.65 366.58 523.37"/><polygon class="cls-4" points="401.79 548.1 401.79 597.63 399.79 598.7 399.79 548.1 401.79 548.1"/><path class="cls-4" d="M639.36,573s14.46-38.79,39.48-35.81c0,0,16.53,1.84,19.28,29.61l-1.61,2.52s-1.84-42.35-33.05-27.77c0,0,27.2-15,32.25,28.35l-2.41,1.26s.92-37.42-28.12-28.81c0,0,27.2-9.76,27,35.92s-.69,117.07-.69,117.07l-1.72-.69,1-116.38s2.91-44.84-29.53-32.75c0,0,28.77-11.63,27.85,32.59s-.61,116.15-.61,116.15l-1.84-.61.61-123.8s-.92-28.62-24.18-23.72C663.08,546.18,649.31,552.3,639.36,573Z" transform="translate(-237.21 -84.9)"/><path class="cls-13" d="M623.3,600.51s2.14-18.67,7.65-30.91,3.06-9.49-3.83-8.57-3.83-4.48-2-9.43-10.71,7.59-11,22.28S622.55,605.74,623.3,600.51Z" transform="translate(-237.21 -84.9)"/><path class="cls-13" d="M634.54,530.57s-14.46,12.85-23.64,42c0,0-.69,5.74-6.43,6.89S575.05,585,572,586.81s-21.67,12.17-27-3.9-4.48-21.58-4.19-26.4-2.47-27.54,4.65-32.37,10.79-13.24,22-12.7,34.66,6.27,46.6,9.95S642.81,524.37,634.54,530.57Z" transform="translate(-237.21 -84.9)"/><path class="cls-13" d="M461,556.74V587s-21.35-7.8-30.16-19.43-3.06-10.25-1.83-26.17S406,517,390.42,517s-49.65,9.5-53,8.88,17.77-16.41,24.81-19.38,18.72-.6,24.79,5S425,516.65,440,533.79,458.44,543,458.44,543,461,550.62,461,556.74Z" transform="translate(-237.21 -84.9)"/><path class="cls-19" d="M374.47,503.74s-5.73-10.79,1.16-21.36a263.82,263.82,0,0,1,18.83-25c1.6-1.61-2.07,13.31-7.12,19.05s-6.2,10.85-6,14-3.23,16.08-6.89,13.3" transform="translate(-237.21 -84.9)"/><path class="cls-13" d="M316.62,479.61l2.08,37.64s1.84,3.21,1.15,6a18,18,0,0,0,.15,6.66s7.88.46,13.62-2.3,34.2-15.15,37-16.76,5-.92,3.44-10.56.69-12.62,2.75-15.84a31.17,31.17,0,0,0,3.21-7.35s2.07-5.59-18.36-2.68-21,3-23.11-3.37-21.89,8.57-21.89,8.57" transform="translate(-237.21 -84.9)"/><path class="cls-3" d="M315,455.08s5.61-9.07,14.64-14.58,9.61-9.85,9.61-10.77,2.91,5.51,6.43,5.2,9.79-1.53,18.06,2.75,14.84,12.65,16.22,16a50.35,50.35,0,0,0-33.05-1.79,45.15,45.15,0,0,0-25.43,18c-4.38,6.5-5.78,13.08-7.92,12.77s-.78-3.51-.84-6.48a51.73,51.73,0,0,1,1-7.9s2.11-4.33,1.06-7.37S313.58,457.44,315,455.08Z" transform="translate(-237.21 -84.9)"/><path class="cls-3" d="M572,447.31s1.78-8.06,13.6-15.06,17-3.06,20.69-4.78,6.56-4.11,6.67-5.6,1.38,3.11,2.76,5.29,17,9.53,22.59,15.5S653,460.56,654,464.58v4.94s-.21,22.8-1.74,19.89-22.59-25.56-30.7-30-12.71-7.17-18.62-8.29c-7.05-1.34-14.24-3.92-18.94-3.91C578.66,447.23,571.49,448.77,572,447.31Z" transform="translate(-237.21 -84.9)"/><path class="cls-19" d="M540.71,511.44s28.87-6.73,32.7-12.7.46-16.68,4.74-22.65,13.77-1.68,13.77-1.68,1.22.31-1.84-4.74-16.22-22.19-29.08-30l-4.59-3.37-.61,6.27s2,4.74-11,11.17-16.37,6.12-16.37,6.12,10.42,10.08,11.39,17.45,1.92,18.21-3.43,25.4C536.38,502.72,542.14,505.32,540.71,511.44Z" transform="translate(-237.21 -84.9)"/><path class="cls-19" d="M413,439.67S401.1,449.32,396.51,464s-1.38,21.58,8.26,21.58S419,505.32,437.37,514.5c0,0,20.12,9.18,21,1.61s.84-3.56.84-3.56a4,4,0,0,1,.57-3.56,16.76,16.76,0,0,1,3.79-3.33s-5.32-8.16-5.21-14.23-.77-11.24,4-18.82L467,465s-37.1-1-49.61-12.27C417.4,452.76,411.89,449.66,413,439.67Z" transform="translate(-237.21 -84.9)"/><path class="cls-20" d="M723.11,408.17s-13.36,7.21-26.86.69-21.85-14.28-30.61-13-11.27,3.88-8.63-.69,9.46-11.54,20.73-19.49c0,0,3.34-2.54,3.2,3s-.28,5.82,2.92,5.68S688,381,691,377s7.73-2.51,12.32.29,20,11.07,23.17,25.77-3.34,5.13-3.34,5.13" transform="translate(-237.21 -84.9)"/><path class="cls-21" d="M702.52,376.85s-8.77-3.33-8.77,1.11-3.2,6.1-.83,12.34,11.55,5.27,12.52,9.7-5.84,12.75,2.5,12.75,19.48-5.27,18.51-9.7S721.31,387.24,702.52,376.85Z" transform="translate(-237.21 -84.9)"/><path class="cls-20" d="M310.1,427.36s-13.57,7.35-27.29.71-22.2-14.56-31.1-13.29-11.45,4-8.77-.71,9.61-11.77,21.07-19.88c0,0,3.39-2.6,3.25,3.06s-.28,5.94,3,5.8,4.24-3.39,7.21-7.49,7.86-2.56,12.51.3,20.29,11.29,23.54,26.28-3.39,5.23-3.39,5.23" transform="translate(-237.21 -84.9)"/><path class="cls-21" d="M289.17,395.41s-8.91-3.39-8.91,1.13-3.25,6.22-.85,12.58,11.73,5.37,12.72,9.9-5.94,13,2.54,13,19.79-5.37,18.8-9.9S308.26,406,289.17,395.41Z" transform="translate(-237.21 -84.9)"/><path class="cls-20" d="M536.07,484.36s-14.69,8-29.53.77-24-15.76-33.67-14.38-12.4,4.28-9.49-.77,10.41-12.74,22.8-21.52c0,0,3.67-2.81,3.52,3.31s-.31,6.43,3.21,6.27,4.59-3.67,7.8-8.11,8.5-2.77,13.54.32,22,12.22,25.48,28.45-3.67,5.66-3.67,5.66" transform="translate(-237.21 -84.9)"/><path class="cls-21" d="M513.42,449.77s-9.64-3.67-9.64,1.22-3.52,6.73-.92,13.62,12.7,5.82,13.77,10.71-6.43,14.08,2.75,14.08,21.42-5.82,20.35-10.71S534.08,461.25,513.42,449.77Z" transform="translate(-237.21 -84.9)"/><path class="cls-16" d="M654.84,401.88a11.13,11.13,0,0,0,7.5,12.77c9.58,3.61,10.27,6.39,20.41,5.28s21.24,2.36,30-1.8,12.63-11.94,13.19-12.36,2.36,11.8-1,15.83S718.84,424,712,425.9s-18.19-.14-19.71,2.92-4.86,2.64-11.25,0-9.86-3.89-16.66-4.86-12.5-1.19-12.36-7.54S651.93,407.15,654.84,401.88Z" transform="translate(-237.21 -84.9)"/><path class="cls-16" d="M242.24,421.57a11,11,0,0,0,7.44,12.67c9.51,3.58,10.2,6.34,20.25,5.24s21.08,2.34,29.76-1.79,12.54-11.85,13.09-12.26,2.34,11.71-1,15.71-6.06,2.34-12.81,4.27-18-.14-19.56,2.89-4.82,2.62-11.16,0-9.78-3.86-16.53-4.82-12.4-1.19-12.26-7.48S239.35,426.81,242.24,421.57Z" transform="translate(-237.21 -84.9)"/><path class="cls-16" d="M461.39,474.41a12.27,12.27,0,0,0,8.26,14.08c10.56,4,11.32,7,22.49,5.82s23.41,2.6,33.05-2,13.93-13.16,14.54-13.62,2.6,13-1.07,17.45-6.73,2.6-14.23,4.74-20-.15-21.73,3.21-5.36,2.91-12.4,0-10.86-4.28-18.36-5.36-13.77-1.32-13.62-8.31S458.18,480.23,461.39,474.41Z" transform="translate(-237.21 -84.9)"/><path class="cls-16" d="M406.3,272.59s-1.53,17,20.81,20.33,21.73,1.53,37.64,3.67,11.65-3.06,30.92,1.53,38.25-.31,45.29-5.82,12.27-18.47,13.33-21.47,3.2,4.34,3.2,12-.31,30.3-12.24,33.36S537,314,522,313.73s-23.85,1.53-26.31-1.53-2.46-6.12-11-.61-15,4.28-22.34-.31-11-10.1-21.42-6.43-11.32,12.24-17.14,11,2.45,7.35-3.37,5.51-20.81-16.51-17.45-36.11S406.3,272.59,406.3,272.59Z" transform="translate(-237.21 -84.9)"/><path class="cls-22" d="M460.17,210.59s-4.28,6.12-17.45,14.38-28.16,30-29.38,31.83-3.37,8,6.43,4.59,3.06,8.26,13.47,5.2,13.47,2.14,24.18,6.43,10.71-12.55,22-5.82,37.34,12.85,53.25,17.14,25.4-7,20.2-19-19.59-33.05-49.27-49.27a33.68,33.68,0,0,1-5.82-5.51c-2.6-3.21-8.88,1.84-7.8,9.18s-17.6,9.79-20.66.31S462.29,208.14,460.17,210.59Z" transform="translate(-237.21 -84.9)"/><path class="cls-21" d="M496.59,212.43s8.72,11.48,3.44,9.41-4.82,3.21-3.44,10.33,7.35,3.21,19.05,16.76,16.9,23.17,27.77,23.64,10.85-7.08,5.27-15.25S529.16,232,515.53,223.38s-10.57-5.71-13.63-8.66S494,208.67,496.59,212.43Z" transform="translate(-237.21 -84.9)"/><polygon class="cls-4" points="369.68 524.4 384.37 530.6 396.76 523.83 384.14 528.65 369.68 524.4"/><polygon class="cls-4" points="369.68 541.85 384.37 548.05 396.76 541.27 384.14 546.1 369.68 541.85"/><path class="cls-14" d="M314.86,466.49a20.07,20.07,0,0,1-1.86,4.08l.58,9.05s0-7.68,0-8.69,1.07-2.69,1.27-4.45" transform="translate(-237.21 -84.9)"/></g></svg>