<?xml version="1.0" encoding="utf-8"?>
<!-- Generator: Adobe Illustrator 21.0.0, SVG Export Plug-In . SVG Version: 6.00 Build 0)  -->
<svg version="1.1" id="Слой_1" xmlns="http://www.w3.org/2000/svg" xmlns:xlink="http://www.w3.org/1999/xlink" x="0px" y="0px"
	 viewBox="0 0 532 825.7" style="enable-background:new 0 0 532 825.7;" xml:space="preserve">
<style type="text/css">
	.st0{fill:#C6C6C6;}
	.st1{fill:#231B1F;}
	.st2{fill:#E0E3E9;}
	.st3{fill:#9D9A9B;}
	.st4{fill:#37252B;}
	.st5{fill:#40444B;}
	.st6{fill:#171919;}
	.st7{fill:#8D949E;}
	.st8{fill:#1F1E20;}
	.st9{fill:#F4B461;}
	.st10{fill:#B4B4BB;}
	.st11{fill:none;stroke:#000000;stroke-miterlimit:10;}
	.st12{fill:#2D2124;}
	.st13{fill:#A3A6AC;}
	.st14{fill:#A0A0A0;}
	.st15{opacity:0.44;fill:#402E0C;enable-background:new    ;}
	.st16{fill:#B2B7C0;}
	.st17{fill:#A3A3A3;}
	.st18{fill:#4F3740;}
	.st19{opacity:0.44;fill:#C1AAA1;enable-background:new    ;}
	.st20{opacity:0.44;fill:#D5CFCD;enable-background:new    ;}
	.st21{opacity:0.44;fill:#D5C6C2;enable-background:new    ;}
</style>
<title>проект (1)</title>
<g id="Слой_7">
	<path class="st0" d="M360.1,753.1"/>
	<path class="st1" d="M528.4,575.7v17.6l-10.1,6.3v16.7l-5.5,4.2h-8.3l-10.9,7.8l-7.3,22l4.4,6l2,31.7c0,0-6.4,14.9-20,14.9
		l-2.9,0.6l-11.9,8.3l-2.2-1.4l-2,1.1c0,0-1.4-1.4-1.4-1.3c-0.5,0.5-1,0.9-1.5,1.3l-1.5-0.6l-1,0.9l-1.3-0.6l-15.7,10.7l-4.7,6.4
		L409,717.9l-26.3,24.2l-19,17.3l-5.8,6L342,781l-2.2,4.4c-14.8,19.5-24.3,26.8-47,35.3c-15,5.7-57.4,11-83.8-11.9
		c0,0-12.6,16.5-57.2,3.2l-12.4-5c0,0-34,10.1-65.7,1.8s-38.5-22-38.5-22v-23c0,0-22-1.8-23.9-15.2v-30.8l9.6,2.8"/>
	<path class="st2" d="M13.2,715.9L8,636.5c0,0,4-11.4,3.3-19.7S3.1,480.7,3.1,480.7l9.7-15.8l49.8-46.6l70.4,16.6l135.6,71.3
		l59.3-43.6l94.6-44.2l64.8,27.6l22.3,24.8l18.8,21.5v12.7l-2.5,1.7l-1.2,65.8l3.7,3.3l-9.3,5.9l-2-0.9l-0.3,3.3l2.6,2.9l-1.1,0.9
		l-0.1,5.4l2.9,2.2l-7.2,4.7l-1.1-0.5l-1,1l-0.9-0.6l-1.4,1l-0.8-0.6l-1.4,1.2l-0.9-0.9l-12.5,7.9l-0.3,33.6l-3.2,1.2l0.5,13.2
		c0,0,4.1,8.4-7.8,13.9s-13.3,4.6-13.3,4.6v1.7l2.8,3.2v4.1l-3.1,0.5l-0.6,18.7l-11.4,7.8l-1.6-1.5l-1.6,1.3l-1.7-1.5l-1.8,1.4
		l-1.3-1.3l-1.5,1.2l-1.3-1l-3.2,2.3l-9.7,6.1l-1.1-0.3l-2.8,2l0.1,9l-8.5,5.5l-5.8-6.3l-12.4,9.9l-21.6,14.3l2.5-11.3L367,720.6
		l-25.1,26.3l0,0l-7.4,6.9l0,0l-2.2,2.2c-2.4,5.4-4.4,7.9-8.4,14.5l-0.1,0.1c-2,2.2-4,4.5-6,6.7c-4.3,5-18.8,18.5-50.3,20.5
		c-29.5,1.9-58.8-15.6-58.8-15.6s-4.1,9.2-32.1,7.8s-33.9-13.3-33.9-13.3s-78.5,14.1-99.3-14.4c0,0-6-10.4-5.5-22.3
		C38.1,739.9,14.5,735.2,13.2,715.9z"/>
	<polygon class="st3" points="518.3,587.8 519.4,586.9 511.8,591.1 511.8,591.1 511.7,591.1 	"/>
</g>
<g id="Слой_5">
	<path class="st4" d="M8.7,669.1h2.8c0,0-0.3-13.5-1.4-15.3S8.7,669.1,8.7,669.1z"/>
	<path class="st5" d="M49.7,699.5c0,0,2.1-4.4,2.8,7l0.9,30l-1.9-2.4l-0.3-7.2L49.7,699.5z"/>
	<polygon class="st1" points="49.7,699.5 51,732.4 48.8,733.3 53.5,736.8 53.3,732.5 52,731.8 51.6,722.3 53,723.4 53,721.9 
		51.8,721 51.4,713.4 52.7,714.1 52.7,712.9 51.2,711.7 50.6,698.7 50.1,698.9 	"/>
	<path class="st1" d="M47.2,692.3c2.5,0.2,7,1.8,7.9,10.7l2.3-0.4c0.5-0.4,0,0.5,0,0c0.2-5.8-3.7-11.6-8.4-11.9l-1.9,1
		c-0.2,0.1-0.2,0.3-0.1,0.5C47,692.2,47.1,692.3,47.2,692.3z"/>
	<path class="st5" d="M22.6,678.2c0.7-1.7,2.3-3,4.2-3.1c2.2-0.4,4.3,1,4.9,3.1c0.5,1.5,1.2,35.1,1.2,35.1s-6.1,2-6,1.7
		s-2.2-3.1-2.2-3.8S22.8,678,22.8,678"/>
	<path class="st1" d="M32.2,682.3c0,0,0.2-3.6-1.1-4.9l-0.1,3.1l-8,0.3l-0.3-3.1c-0.3,1.5-0.5,3.1-0.5,4.7
		c0.1,2.5,2.1,36.1,2.1,36.1h9.9L32.2,682.3z M24.2,684.6h6.1l0.4,11.9h-5.9L24.2,684.6z M25.6,710.3l-0.5-11.9h6.1l0.4,11.9H25.6z"
		/>
	<path class="st5" d="M168.8,727.1c0.7-1.8,2.3-3,4.2-3.1c2.2-0.4,4.3,1,4.8,3.1c0.5,1.5,1.2,35.1,1.2,35.1s-6.1,2-6,1.7
		s-2.2-3.1-2.2-3.8s-1.8-33.3-1.8-33.3"/>
	<path class="st1" d="M178.4,731.2c0,0,0.2-3.6-1.1-4.9l-0.1,3.1l-8,0.3l-0.3-3.1c-0.3,1.5-0.5,3.1-0.5,4.7
		c0.1,2.5,2.1,36.1,2.1,36.1h9.9L178.4,731.2z M170.3,733.5h6.1l0.4,11.9h-6L170.3,733.5z M171.8,759.2l-0.5-11.9h6.1l0.4,11.9
		H171.8z"/>
	<path class="st5" d="M100.8,717c0.7-1.8,2.3-3,4.2-3.1c2.2-0.4,4.3,1,4.9,3.1c0.5,1.5,1.2,35.1,1.2,35.1s-6.1,2-6,1.7
		s-2.2-3.1-2.2-3.8s-1.8-33.3-1.8-33.3"/>
	<path class="st1" d="M110.5,721c0,0,0.2-3.5-1.1-4.8l-0.1,3.1l-8,0.3l-0.3-3c-0.4,1.5-0.5,3-0.5,4.5c0.1,2.5,2.1,36,2.1,36h9.9
		L110.5,721z M102.4,723.1h6.1l0.4,12h-5.9L102.4,723.1z M103.8,749.1l-0.5-12h6.1l0.4,12H103.8z"/>
	<path class="st5" d="M273.3,595.8c-1.8-1.7-4.6-1.6-6.2,0.2c-0.8,0.9-1.2,2-1.2,3.2c0,1.4,0,3.4-0.1,6.2c-0.2,6.6,3.2,154,3.2,154
		l8.6-3.1l-0.9-47.8l-2-39.2l0.7-22.4l-1.2-21.7V605L273.3,595.8"/>
	<path class="st1" d="M271.9,595c1.2,0.4,2,1.3,2.3,2.5c0.3,2,3.3,158.8,3.3,158.8s3.7,3,4,4.2l2.3,1.6v1.7l2,0.6v3.1
		c0,0-19.3,2-23,0.4l-0.4-1.6l1.2-0.6l-0.1-2l2.7-0.6l-0.1-2l2.6-2.1l0.1-2.4l7.5-0.8l0.2-13.7l-7.9,0.4l-0.1-1.7
		c0,0,7.1,0.5,7.6-0.8s0-12.7,0-12.7l-7.8,0.4v-1.9c0,0,7.5-0.1,7.5-0.9s-0.2-12.3-0.2-12.3l-7.6,0.1v-1.4l7.9-0.2l-0.3-12.8
		l-7.8,0.3l-0.2-1.5l7.8-0.4l-0.5-15.6l-7.7,0.4v-1.8l7.8-0.6l-0.5-13.4l-7.7,0.5v-1.4l7-0.8V649l-7.5,0.5v-1.5l7.8-0.6l-0.4-13.3
		l-7.6,0.3v-1.1l7.5-0.6l-0.3-14.7h-7.6l-0.1-1.3l7.6-0.5l-0.3-11.1l-7.3,0.3l-0.2-1.2l7.5-0.8C273,603.4,274,595.1,271.9,595z"/>
	<path class="st6" d="M438,647.7c-1,0.9-1.5,6.1-1.5,6.1l-0.7,58.7l0.7,1.3l6-3.8l-1.5-2.9c0,0-0.1-6.3-0.1-7.8S438,647.7,438,647.7
		"/>
	<path class="st7" d="M437.4,648.7c0,0,1.4-3,3.7-2.1s1.3,16.5,1.4,22.4s-0.5,40-0.5,40l-4.6-2.2
		C437.4,706.9,438.3,647.8,437.4,648.7z"/>
	<polyline class="st8" points="498.6,581.3 494.8,584 494.8,579.1 496.3,579.1 498.6,581.3 	"/>
	<path class="st8" d="M436.4,528.7c0,0-1.5,1.4-1.5,6.3s-0.5,38.1-0.5,38.1s0.1,2.8,0.5,2.9c0.3,0.1,0.6,0.3,0.9,0.5l5.7-3.2
		c-0.4-0.7-0.7-1.5-0.7-2.3c0-1.3-2-16.8-2.1-16.6s0-17.7,0-17.7L436.4,528.7"/>
	<path class="st8" d="M423.4,527.9c0,0-1.2,0.9-1.5,5.5s-0.3,47.9-0.3,47.9s-0.1,2.2,1.1,2s6.1-3.1,6.1-3.1v-1
		c-0.4-0.6-0.7-1.3-0.8-2c-0.4-1.6,0.3-14,0.3-14l-1.8-11.6v-18L423.4,527.9"/>
	<path class="st8" d="M409.9,542.5c-0.9,1.5-1.3,3.2-1.3,4.9c0,3.1,0,41.4,0,41.4s-0.2,1.4,0.3,1.7c0.2,0.2,0.5,0.3,0.7,0.3l6.2-3.5
		v-0.8l-1.3-1.2l-2.6-6.2l0.2-33.2C412.1,546,411.6,540.9,409.9,542.5"/>
	<path class="st3" d="M495.5,521c0,0,0.6-2.8,2.8-3.2s2,3.6,1.8,6.9s-1.5,56.7-1.5,56.7l-4.1-2.1L495.5,521z"/>
	<path class="st3" d="M436.2,528.9c0,0,1.2-2.1,2.8-2.2s2.3,1.4,2.3,4.9s-0.5,39.9-0.5,39.9l-4.6-0.6
		C436.2,570.9,437,527.3,436.2,528.9z"/>
	<path class="st3" d="M423.3,528.3c0,0,1.3-2.4,2.8-2.2s2,1.2,2.1,6s0,46.3,0,46.3l-4.9-1.2C423.3,577.2,424.6,522.9,423.3,528.3z"
		/>
	<path class="st3" d="M409.9,542.5c0.4-1.4,1.6-2.4,3-2.7c2.3-0.2,2,7,2.1,11.5s0,34.3,0,34.3l0.1,0.9l-5.2-2.2
		C409.9,584.4,411.3,540.4,409.9,542.5z"/>
</g>
<g id="крыша">
	<path class="st4" d="M14.6,620.9c0,0-9.3,4.5-8.8,9.5s0.2,9.4,10.1,14.9c9.9,5.5,15.8,3.7,15.8,3.7s-0.7,8.3,15.2,17.7
		c15.5,9.2,32.1,10.8,56.4,9.9s34.9-5.5,34.9-5.5s-9.2,20,9.2,29.2s47.1,10.3,61.8,6.2l-0.1-15.8l-23.6-19.1l-39.3-6.7l-3.2-4.7
		L38.7,622.4L14.6,620.9z"/>
	<path class="st4" d="M90.4,721.1h1.8c0,0-0.4-6.6,4.5-10.1c4.7-3.2,10.9-3.4,15.8-0.5c4.1,2.7,5.8,7.2,5.8,7.5s1.5,0.3,1.5,0.3
		v-2.2l0,0c0,0,0.9-2.2-2.3-5.5c-4.8-4.9-12.1-6.5-18.5-4.1c-5,1.9-8.5,6.5-9,11.9c0,0.4,0.3,0.7,0.6,0.8L90.4,721.1z"/>
	<path class="st4" d="M421.5,664.3l7.8-5.4c0,0,0.5,0.5,2,0s3.3-0.8,3.3-0.8l2.1,1.6l-14,9.3l-11.2-3.4l1.4-3.2v-7.1l-17,6.8v-9.4
		c0,0,3.6-1.3,4.4-3.6s6.3-31.6,26.7-37.3l14.5-1.8l3.7,0.7c0,0,6.3,0,10.3,1.5s13,6.4,13.7,24.6l3.7,2.8l-13.7,8.2l-6.9-2.1
		l0.1-0.9l1.2-0.6l1.3,0.5l1.3-1.2l2.1,0.9l7.3-4.2h1.4l2.1-1.3c0,0-1.3-7.9-2.2-11.1s-4.4-12.2-12.4-12.8s-6.1,1-8.3-1.7
		s-0.5,1-1.9,3s-11.6,10.4-17.8,26.4S421.5,664.3,421.5,664.3z"/>
	<path class="st4" d="M399.5,547.1l2.7,0.7c0,0,0.8-9.9,5.5-14.1s8.3-4.7,8.3-4.7c0.9-2.6,2-5.1,3.3-7.5c1.9-3.3,5.8-7.3,9.6-6.6
		s5.4,5,5.4,5s3.3-2.8,5.4-3.3s8,1.4,7.5,8.5l1.1-0.5c0,0,0.5-9-8-11.4c-2.4,0-4.8,0.9-6.7,2.5c-1.3-2.2-3.6-3.5-6.1-3.7
		c-4.2-0.1-11.3,5-13.3,14.2C414.2,526.3,400.1,529.4,399.5,547.1z"/>
	<path class="st4" d="M327.9,553l2.5,1.1c0,0,3.2-11.5,9.1-12.4c8.9-1.2,9.8,7.4,9.8,7.4l1.7-1h0.2l0.8-0.4
		c-1.8-5.9-7.2-9.9-13.4-9.7c0,0-5.7,0.5-8.1,5L327.9,553z"/>
	<path class="st4" d="M284.8,595.9c0,0-1.5-10.3-15.9-9.4c-14.3,0.9-13.7,12.5-13.7,12.5l2.9,1.2c0,0,0.8-9.8,11-10.8
		c10.2-0.9,14.5,9.4,14.5,9.4l1.2-0.2L284.8,595.9z"/>
	<path class="st4" d="M105.3,510.1c0,0-1.5-15.4-12.9-16.5c0,0-8.8,0.5-8.8,10.5h1.3c0,0-1-7.3,5.4-8.3s11.8,9.3,12.2,14.3H105.3z"
		/>
	<path class="st4" d="M415.6,490.1c0,0,1.5-15.4,12.8-16.5c0,0,8.8,0.5,8.8,10.5H436c0,0,1-7.3-5.4-8.3s-11.8,9.3-12.2,14.3H415.6z"
		/>
	<polygon class="st4" points="40.8,498.9 57.8,505.4 57.8,506.7 53.5,508.4 35.9,502.4 	"/>
	<path class="st4" d="M427.7,396.1L427.7,396.1z"/>
	<path class="st4" d="M518.4,498c3,4.1,3.3,9.6,3.8,10.9c0.3,0.8,0.8,1.5,1.5,2.1c0,0-4.6,2.7-6.1,3.6s-1.5,0.4-2.4,0.2
		c-0.5-0.1-0.8-0.5-0.7-1c0,0,0-0.1,0-0.1c0,0,6.8-3.2,6.9-4s-0.7-8-4.6-12.9s-6.7-2.9-9.9-3.7s-3.5-5-3.5-3.8s-1.2,3.8-2.5,5.7
		c-1.5,1.9-3.2,3.7-5.1,5.3v-8.6l-2.3-0.9l1.3-14.4v-14.2c-5,5-19,6.9-19,6.9v-0.9l-3.1,0.2l1,8.7l4.2,4.4l-15.3,8.1l-6.4-1.8
		l0.4-1.8l16.3-7.6v-4.9c-1-4.5-1.8-8.7-3-12.5c-1-3.1-2.2-6.1-3.6-9c-0.5-1.1-1.2-2.2-1.7-3.3c-0.5-0.9-1.1-1.8-1.6-2.6
		c-0.2-0.3-0.5-0.7-0.7-1s-0.4-0.8-0.7-1.1c-0.7-0.9-1.4-1.7-2.1-2.7l0,0c0,0,0,0.2,0,0.2c-1-0.8-2.2-1.6-3.3-2.3
		c-0.1,0-0.1,0.1-0.2,0.1l0,0c-1.5-1-3-2-4.6-2h-0.1c0,0,0-0.1,0-0.1s0,0,0,0c-0.7-0.2-1.4-0.5-2.2-0.7l0,0l0,0v0h-7.6
		c-0.4,0-0.8-0.3-1.2-0.3c-1.3,0-2.6-0.3-3.8-0.9l-0.3-0.2l0,0c-0.9-0.5-1.7-1.3-2.3-2.1v-0.1c-0.5-0.9-1-1.8-1.5-2.7l0,0
		c0-0.1-0.1,0-0.1-0.1c0,0-0.1-0.1-0.1-0.1v0.3v0.2h-0.3c-0.2,0-0.5,0.5-0.9,1.9c0,0,0-0.1,0-0.1c-0.1,0.4-0.3,0.8-0.5,1.4l0,0
		c-0.1,0.2-0.1,0.3-0.2,0.5l0,0c-0.2,0.6-0.6,1.3-0.9,2h-0.2l0,0v2.4l0,0c-0.1,0.1-0.2,0.2-0.3,0.3c-0.9,0.8-2,1.5-2.9,2.5l0,0
		c0,0,0.2-0.3,0.2-0.2l0,0l0,0c0,0-0.1,0-0.1,0H426c0,0-0.1,0-0.1,0.1V441c-0.1,0.1-0.2,0.1-0.2,0.1l0,0c-0.1,0-0.1,0.1-0.2,0.1
		s0,0.1,0,0.1s0-0.1,0-0.1v-0.1l0,0c0,0-0.1,0.2-0.1,0.2c-0.7,0.7-1.6,1.5-2.4,2.3v0.1l0,0l0,0l-2.5,2.2l0,0c-1.6,1.4-3.3,2.9-5,4.6
		c-2.8,2.7-5.3,5.6-7.7,8.7c-9.8,13.2-15.3,31.5-18.4,41.6c-1.8,5.7-2.6,11.8-2.1,17.8l6.4-4.3l8.9,4l-16.8,8l-19.9-6.1
		c0,0-4-1.5,0.6-3.1s6.1-19,6.1-19l-14.1,3.1c-14.1,3.1-28.2,14.1-30.3,19.6s1.8,13.2,3.4,15.9s-8.1,3.1-8.1,3.1l-8.1-0.9v7.3
		c-10.3,8.8-22.8,14.5-36.1,16.6c-22,3.4-47.3-0.3-63.2-9.4s-3.5-24.7-3.5-24.7l31.3-111.3c0,0,83.5-41.6,91-54.9
		s22.3-20.7,28.7-23.2c4.8-1.7,9.7-2.8,14.8-3.4c2.2-1.1,4.4-2.2,6.7-3.1c1.5-0.4,3.6-0.6,4.4,2.2s2.2,3.4,2.2,3.4
		c8.6,4.4,16.5,10.2,23.2,17.1c2.2,2.2,4.2,4.6,5.9,7.1l-0.2,2.8l3.4,23.4l0,0v0.1l1,5.6c0.9,0.8,1.9,1.4,3,1.8v0.4
		c1,0.1,0.4,0.3,0.6,0.4l0,0l0,0l0,0l0,0l0.4,0.3v0.2c0,0,0.3,0,0.4,0.1c0.5,0.3,1,0.2,1.6,1.2l0,0c4.1,3,10,6.4,16.8,10.9
		c0.1,0,0.1,0.1,0.2,0.1l0,0v0.3c1,0.2,0.6,0.4,0.9,0.6c0,0,0,0,0,0.1l0.5,0.3l0,0l0.1,0.1l1,0.7c0.2,0.1,0.3,0.3,0.5,0.4
		c0.7,0.5,1.5,0.5,2.2,1.5l0,0c0.2,0,0.4,0.2,0.6,0.4c1.2,0.8,2.5,1.6,3.7,2.5l0.2,0.1l0.9,0.6l0,0c0.1,0,0.1,0,0.2,0.1
		c0.1,0,0,0,0,0.1c5.3,3.5,11,7,16,10.4l0,0c1,0.7,2.1,1.3,3.1,2l0.2,0.1c0.5,0.3,1,0.7,1.5,1h0.1h0.1l0.6,0.4l0,0l1.3,0.8l0,0
		c0.8,0.5,1.7,1.2,2.5,1.7l0,0l0.1,0.1c0.8,0.4,1.6,0.9,2.2,1.5c0,0,0.1,0.1,0.1,0.1l0,0c0.7,0,1.1,0.4,2.1,0.8v0.5h-0.1
		c0.1,0,0.2,0,0.3,0l0,0l0,0l0,0l0.2,0.1c24.5,14.8,33.2,41.8,33.2,41.8s8.3,8.9,9,10.2c0.7,1,0.7,2.3,0,3.2
		c-0.7,0.8-9.2,5.5-10.7,5.9C519.8,498.4,519,498.4,518.4,498z"/>
	<path class="st4" d="M259.2,521.7l-30.1,19.8c0,0-36.4-29-52.7-33.2c-16.3-4.2-26.9-6.4-26.9-6.4l5.3,19l5.7,9.2l-19,8.8l-19-7.2
		l4.6-2.8l12.2,2.8c0,0-2.1-30.7-25.9-56.5c0,0-6.9-8.3-14.1-12.4s-11.9-10.7-12.9-14.2s-3.3,3.2-3.3,3.2c-1,1.3-2.5,2.1-4.1,2.4
		c-1,0.2-1.9,0.3-2.9,0.2c0,0,0-0.1,0-0.2c-0.4,0-0.7-0.3-1.1-0.3l0,0c0,0-0.1,0.2-0.1,0.1c-2.9-0.5-10.7,0.4-18.2,6.3v0.1
		c-0.5,0.4-1,0.9-1.6,1.3c-1.1,1-2.2,2.1-3.2,3.3c-1,1.2-2,2.5-2.8,3.8c-1.7,2.5-3,5.2-4.1,8.1c-2.5,6.6-3.9,13.6-4.3,20.6
		c0,0-0.9,1.1,0-4.5s1.1-7.3,1.1-7.3l-5.1,1.7c-1.3-0.8-2.9-1.2-4.5-1.2c-3.1,0-2.4,1.8-2.4,2.6S5.2,488.7,1,479.1
		c-1.2-2.8-1.2-6,0-8.8c2.1-4.7,8.8-8.7,8.8-8.7h0.1l0.6-0.2l4-1.2l3.7-1.1l0.9-0.3l1.6-0.5l1-1.8l1.3-2.3l1.1-2l0.3-0.5l0.8-1.4
		l0.2-0.3l1-1.9l13.9-26l0.1-0.2l0.8-1.4l0.5-0.9l2-3.7l0.3-0.8l3-5.7l0.6-1.1l1.3-2.4l5.1-9.6l0.8-1.4l0.1-0.2l0.6-2.8l0.5-2.5
		l0.9-4.1l0.2-0.8l0.5-2.2l2.4-11.1V371v-0.2l0.2-0.9l13.4-11.1c5-4.2,9.8-8.1,10.6-8.7c1.8-1.5,8.6-7.2,8.6-8.6
		c0-0.9,3.1,0.1,5.3,1c1.6,0.6,3.2,1.1,4.9,1.4c3.5,0.7,9.3,2,12,2.7c4,1.1,18.4,7.2,23.6,15.1s3.8,7,5.9,7.7s11.3,5.3,11.3,5.3
		l56.6,15.3l43.2,22l-8.3,30.7L259.2,521.7z"/>
</g>
<g id="Слой_6">
	<path class="st9" d="M47.1,594.2l1.1,24.7L35.8,645c0,0-17.3,2.1-24.9-8.9s3.7-15.2,3.7-15.2c2.1-4.2,4.7-8,7.9-11.4
		C27.5,604.4,37.8,595.4,47.1,594.2z"/>
	<path class="st9" d="M99.1,582.9c-3,3.7-7.5,5.8-12.2,5.8c-8.3,0.2-15-2.8-13.8-5.9c0,0-6.1-2.8-5.6-11.7s7.6-15.3,13.5-18.2
		l1.7-4.1c-1-0.9-1.1-2.4-0.2-3.4c0.2-0.3,0.6-0.5,0.9-0.6l-0.4-5.4l-2.5,0.5l-0.5-1.9l2.3-1.2L82,525.5c-0.7-0.4-1.1-1.2-1.1-2
		l-4.2-1.5c0,0,0.8,2.5-0.6,1.6c-0.3-0.5-0.5-1-0.3-1.6c-0.7-0.6-1.2-1.3-1.7-2c-0.5-0.9,1.1-0.5,1.7-0.5c0,0-0.5-1,0-1.3
		c0.4-0.3,0.9-0.2,1.2,0.2c0.1,0.2,0.2,0.4,0.2,0.6c0,0.4-0.1,0.8-0.2,1.3l4,1.5c0.2-0.3,0.4-0.6,0.6-0.8l0.3-0.3l-0.1-2.3l-0.7-0.8
		l-0.7-0.3c0,0,0.5,1.7-0.1,1.5s-0.9-0.4-0.8-1.5l-0.6-0.6c0,0-1.3-1.1-0.6-1.3c0.5-0.1,0.9-0.2,1.4-0.2c-0.1-0.4-0.1-0.7,0.1-1.1
		c0.3-0.7,1.2,0.4,1.2,0.4v1.4l0.5,0.2v-1.2c0,0-1.4-0.6-1-1.3c0.2-0.4,0.7-0.5,1.1-0.3c-0.1-0.4-0.2-0.8-0.2-1.3
		c0-0.5,0.5-0.9,1-0.5c0.3,0.3,0.5,0.8,0.5,1.2c-0.1,0.2-0.2,0.5-0.3,0.7c0,0,1,0,1.3,0.3s0.1,1.2-0.4,1.2l-0.7-0.1l-0.1,1.5
		l0.3,0.8l1.5,0.2c-0.3-0.4-0.4-0.9-0.4-1.4c0.1-0.3,0.3-0.4,0.6-0.4s0.4,0.3,0.4,0.6l0,0c-0.1,0.4,0,0.8,0.2,1.2c0,0,1.3,0,1.2,0.8
		s-1.2,0.7-1.2,0.7c0.1,0.4,0.1,0.8,0.1,1.2c-0.1,0.3-0.8,0.9-1.1,0s-0.6-1.4-0.7-1.3s-0.2,0.2-0.2,0.2v2.4l0.9,1.3l4.1,1.8
		c0,0-0.1-1.5,0.5-1.7s1.2,0.5,1.1,1.2l-0.1,0.8c0,0,1.4,0.5,1.7,1.3s-0.5,0.7-1.1,1l-0.6,0.3c0,0,0.3,1.2-0.2,1
		c-0.6-0.2-1-0.8-1.1-1.4c0-0.5-0.3-0.7-0.6-0.8s-3.2-1-3.2-1l-0.8,0.7l0.5,10.3l2.2-1.3l0.8,1.8l-2.5,2.1l-0.3,0.2l0.4,5.9
		c0,0,2.8,1.3,0.6,4.1l1.6,4.3c0,0,15.4,2.6,16.3,18C103.3,575.3,101.8,579.5,99.1,582.9z"/>
	<path class="st9" d="M142.9,660.1c0,0-50.1,16-82.2,3.6s-24.4-24.5-24.4-24.5s7.8-29.1,38.1-52.1h2.3l-0.2,7.8c0,0,0.9,5.8,7.8,4.7
		s12.2-5.7,12.9-8.4l-0.2-4.2l1.1-1l0.1-1.1c2,0.9,3.9,1.8,5.7,2.9c4.5,2.4,17.5,11.7,23.5,24.2S141.4,643.3,142.9,660.1z"/>
	<path class="st9" d="M208.9,701.7c0,0-58.3,8.4-69.3-17.8c1.5-5.7,3.7-11.2,6.7-16.3c4.6-7.5,20.9-19.5,32.4-20.9l11.5-1.4
		C190.1,645.4,211.6,657.9,208.9,701.7z"/>
	<path class="st9" d="M436,560l2.6-1.2l0.8,1l1.7-3l-1.8-2l-0.7,1.7l-2.9,1.3v-1.5l1.3-1.5l0.6,0.3l0.6-1.7l-2-1.5l-0.8,1.4l0.5-1.7
		l-1.1-1.3l-1.2,1.6l0.2,1.1l-0.9,1.1l-0.3-1c-0.5,0.4-0.7,1-0.6,1.7l-1.3,1.5l1.5,0.1c0,0-0.3,1.2,0.7,1.5l0.2-1.2l0.5-0.3l0.2,2
		l-3.5,1.8l-0.6-0.7c0,0-0.7,0.6-0.5,1.2l-1.5,1.9l1.7,0.3c0,0-0.3,1.3,0.3,1.6l0.9-1.7l2.8-1.4c0,0,0.4,0.5,0.5,0.7
		s-0.1,6.5-0.1,6.5l-2.1,0.4l0.1,1.2l1.8,0.7l0.1,7.3c-0.7,0.5-0.9,1.4-0.4,2.1c0.1,0.1,0.1,0.2,0.2,0.2l-1.5,2.6
		c0,0-10.2,3-10.8,13.5c-0.2,3.1,1,6,3.3,8.2c0,0-1.5,1.8,0.9,3.4s5,2.9,11.3,2.8s9.1-4.1,8.7-5.4l-0.5-0.3c0,0,4.3-3.7,4.1-8.8
		c0,0,0.1-10.6-11.9-13.3l-1.2-2.4c0.7-0.5,0.8-1.5,0.3-2.1c-0.1-0.1-0.2-0.3-0.4-0.4v-6.6l1.9,0.4l0.5-1.4l-2.1-1.2L436,560z"/>
</g>
<g id="большая_башня">
	<path class="st2" d="M320.6,337.4c-0.3,5.2-1.8,6.9-1.8,6.9v6.8c0,11.1-2.6,17.5-39.1,25.3s-77.9,2.1-93-4.8
		c-14.8-6.8-11.8-15.9-11.7-16.3h-0.2v-6.7c0,0,0.1,0-1.5-4.4s-0.3-10.1-0.3-10.1c-1.4-3.1,0.1-9.6,0.1-9.6l-1.5-49.2l0.8-2
		l-0.3-10.1l-1.7-3c-1.5-8.5,1.7-10.8,1.7-10.8l0.4-1.5l-0.7-1.9c0.5,0.4,16.6,14.5,79.5,12.1c0,0,52.8-2.6,67.8-15.5l-1.5,2.4
		l0.5,1.4c0,0,2,2.1,1.2,10.7l-1.7,3.3l0.2,8.8l1.4,2.2l0.6,49.2c0,0,2.7,5.2,0.3,9.2C320.6,332.1,320.9,334.8,320.6,337.4z"/>
	<path class="st10" d="M173.7,264.6c0,0,12.4,13.2,57.1,13.3c44.7,0.1,79.7-8.1,85.1-16.7c0,0-9.9,11.2-59.2,15.1
		S184.2,272.6,173.7,264.6z"/>
	<path class="st10" d="M174.8,249.5c0,0,14.7,15.6,87.2,10.7c0,0,48-5,53.9-14.4c0,0-11,9.9-58.6,13.3
		C257.2,259.1,199.4,264.5,174.8,249.5z"/>
	<path class="st10" d="M177.2,350.8c0,0,4.4,6.9,32.6,11.3s64.7,2,83.2-3.7c18.5-5.7,26.5-14.1,26.5-14.1s-17.9,19.2-74.1,19
		S177.2,350.8,177.2,350.8z"/>
	<path class="st10" d="M175.1,336.6c0,0,4,11.3,43,14.6s61.6-1.7,76.5-4.7s21.2-9.9,21.2-9.9s-6.9,9.8-54.8,14
		S178.7,344.1,175.1,336.6"/>
	<path class="st1" d="M175.1,336.6c0,0-3.1,11.5,26.9,16.6s63.8,5.2,88-1.4s30-12.9,28.6-20.2s1.6-1.1,1.6-1.1s4.7,9.2-7.3,15.5
		s-45,17.3-88.1,12.9s-46.1-10.7-48.8-13.3c-2.3-2.3-3.5-5.4-3.3-8.5c0.1-1.1,0.4-2.2,1-3.2C173.7,333.9,173.1,334.5,175.1,336.6z"
		/>
	<path class="st5" d="M295.4,335.1l-0.9-47c0,0,0.8-4.5,3.6-5.8s3.7,16.1,3.7,16.1v29.3c0,0-0.3,6.6-0.5,7.5s-5.7,0-5.7,0"/>
	<path class="st5" d="M259.8,291.5c0,0,3.8-5.6,8.1-2.3s2.4,12.7,2.4,12.7l0.4,15.8l-0.3,12.9l0.6,13l-10.9,2.1L259.8,291.5z"/>
	<path class="st5" d="M224,344.1l-2.3-53c0,0,3.3-3.5,7.2-1s3.4,6.6,3.6,12.8s1.2,41.2,1.2,41.2H224z"/>
	<path class="st5" d="M193.8,285.5l-2.4,19.4v1.7l1.4,24l2.1,10.6l3.9-1.8l-1.8-47c-0.1-1.9-0.7-3.8-1.7-5.5
		C195,286.3,194.4,285.8,193.8,285.5"/>
	<path class="st1" d="M194.2,286.4v5.5l2.8,0.5v1.3h-2.8l0.4,13.2l3.1,1.3l0.1,1.4l-3-0.3l0.6,12.9l2.8,1.3l0.1,2l-2.8-0.9l0.1,12
		c0.2,0.7,0.6,1.3,1.2,1.7c0.6,0.4,1.3,0.7,2,1v2.1c0,0,0.1,2,3.1,1.4c0,0,3.9,1.5,16.5,2.8c0.6,0.6,1.4,0.9,2.3,0.9l1-0.5l1.7-2.2
		l-1.6-15.1l-0.4-36.3c0.1-1.4,1.1-2.6,2.5-2.8c-0.5,0.4-0.8,0.9-1,1.5l0.2,5.2l9.1,0.4l0.1,1.7c0,0-9-0.2-9-0.3s-0.2,0.2-0.2,0.2
		l0.4,13.8l9,0.4l0.2,1.8l-9.1-0.3l0.6,13.7l8.9,0.3l0.1,2.1l-9-0.2c0,0,0.1,12.8,0.5,13.2s8.7,0.3,8.7,0.3l0.4,4
		c0,0,26.2-0.8,26.7-1.9c0.5-1.1-1-2.6-1-2.6l9.2-0.1l1.1-0.5l-0.5-13.7l-8.7,1.1v-1.9l8.9-1.1V313l-8.8,0.2l0.1-1.5l8.4-0.7
		l-0.4-14l-9,0.5l0.1-2.1l9.2-0.8c0,0,0.5-8-6-6.3c0,0,4.9-1.6,6.6,1.5c1.6,3.1,1.2,17.2,1.2,17.2v13.5l0.5,13.2l1.3,10.8
		c0,0-0.5,0.9,3.7,0s18.5-4.1,18.5-4.1l0.5-0.3l0.3-1.2l-0.3-3.9c0,0,2.2,0.1,2.3-1.1s-0.3-11.6-0.3-11.6l-2.3,0.7v-2.4l2-0.6
		l-0.1-12.3l-2.2,0.9l-0.1-3.1c0.9-0.2,1.8-0.5,2.7-0.9c0,0,0-0.8,0-1.2l-0.1-12.1l-2.8,0.5v-2l3.1-1c0,0,0.6-5.1-0.9-5.2
		c0.1-0.6,0.6-1.2,1.2-1.4c1-0.3,1.8,2.1,1.8,2.1v9.3l2.8,16.1v9.6l0.3,10.9l1,6.8c0,0-0.1,1,3-0.5s10.6-6.9,11.8-10.6
		s0.4-5.6,0.4-5.6s1.3-0.3,1.8,5.5s-6.7,10.1-15.2,14.1s-32.9,10.8-72,9.6s-53.3-10.4-56.4-12.6s-4.9-4-4.9-6.3
		c0-1.2,0.1-2.4,0.4-3.6c0,0-0.1,3.9,1.9,3.6c0.9-0.1,1.8-0.3,2.7-0.6l0.3,4.6c0,0,0-0.3,0.8,0.4s11.7,5.6,11.7,5.6l3.6-2.4
		l-2.3-20.4l0.2-13.6l-0.6-12.3l0.3-5.9l3.1-0.4c0.3,0.2,0.6,0.5,0.7,0.9C195,286.8,194.7,285.9,194.2,286.4z"/>
	<path class="st3" d="M317.4,272.4c0,0-1.5,0.3-1.5,9.6s0.5,45.1,0.5,45.1l2.2-1.2C318.6,325.9,318.5,271.3,317.4,272.4z"/>
	<path class="st3" d="M298.2,282.4c0,0,0.8,0.3,0.8,2.1s0.8,51,0.8,51l4.3,2.1l-0.8-50.1c0-1-0.2-2-0.6-3
		C302.1,283,300.8,281.3,298.2,282.4z"/>
	<path class="st3" d="M272.8,344.7l-1.4-51.6c0.1-1.6-0.8-3.1-2.2-3.9c0.5,1.1,0.8,2.3,0.9,3.6c0.1,2.1,0.9,50.1,0.9,50.1
		L272.8,344.7z"/>
	<path class="st3" d="M221.9,290.8c0,0-2,0.1-1.8,10.2s1.5,45.1,1.5,45.1l1.7-1.9C223.3,344.2,221.3,293.8,221.9,290.8z"/>
	<path class="st3" d="M175.1,281.4c0,0-0.5-5-1.6-5.2s-0.3,12.3-0.3,12.3l2,42l2.2-0.5L175.1,281.4"/>
	<path class="st3" d="M194.2,338.6l-1.5-50.1c0,0-0.2-2.8,1.5-2.9c0,0-4-2.6-5.3,1.5s1.2,53.4,1.2,53.4L194.2,338.6z"/>
	<path class="st1" d="M313.9,281.1c0,0-0.5-13.1,2.8-12.9l0.8,2.2c0,0-1.9,1.6-1.8,10.6H313.9z"/>
	<path class="st1" d="M290.9,289.7c0,0,0.5-9.3,6.6-11.4s8,5.1,8,8l-0.8,0.2c0,0,0.8-7.5-6.5-6.4c0,0-4.9,1.8-4.9,9.2L290.9,289.7z"
		/>
	<path class="st1" d="M255.2,295.1c0,0,0.4-9.2,8.7-10.7c8.3-1.5,10.9,5.6,11,7.8l-1.4,0.6c0,0-0.9-7.5-9.4-6.5
		c-3.8,1.3-6.3,4.8-6.4,8.8L255.2,295.1z"/>
	<path class="st1" d="M216.9,295c-0.4-1.5-0.2-3.1,0.4-4.5c1-2.8,4.1-5.9,9.5-5.5c5.3,0.5,9.4,4.7,9.8,10l-2.2,0.3
		c0,0-1.5-7.8-8-8.1s-8.5,4.9-8.3,7.7L216.9,295z"/>
	<path class="st1" d="M186,288.9c-0.1-2,0.3-4,1.4-5.7c1.7-2.8,3.6-3.1,6.3-2.4s7.3,6,6.9,11.3l-2.2,0.3c0,0-0.6-8-6.3-9.5
		s-5.5,6.2-5.5,6.2L186,288.9z"/>
	<path class="st1" d="M175.1,284.1c0,0,0.4-8.3-1.8-9.6c0,0-1.5-0.9-1.2,3.1c0,0-0.9-3,0.6-4.3s0.9-1.9,1.9-0.9s3,4.8,3.3,11.8
		L175.1,284.1z"/>
	<path class="st1" d="M171.9,249.2c0,0-1,10.6,13.7,14.2s38.3,9.3,79.6,5s54.2-12.7,51.5-21.7c0,0,0.1-2.4,1.7,0.5
		s3.7,11.1-18.1,17.3s-59.7,9.9-89.5,6.7s-42.3-10.3-40.7-17.9l0,0C170,253.3,171.2,249.3,171.9,249.2"/>
	<line class="st11" x1="243.8" y1="93.8" x2="243.5" y2="93.7"/>
	<path class="st9" d="M319.6,234.1c0,0,3,4.5-0.8,8.3c-15,13-67.8,15.5-67.8,15.5c-62.8,2.4-79-11.7-79.5-12.1l0,0
		c-4-3.5-1.4-8.3-1.4-8.3c-2.6-4.4,2.1-7.9,2.1-7.9s-13.2-14.1-4-41.3s28.8-41.7,43.8-52.5c9-6.5,16-15.5,20.1-25.8l3-18
		c2.4,1.8,5.5,2.4,8.4,1.6c1.3-0.4,2.5-1,3.5-1.8l3.9,17.3c0,0,3,14.1,18.7,23.6c15.7,9.6,37.3,25.2,48.1,51.9
		c9.5,23.8-2.4,40.7-2.4,40.7S321.8,229.4,319.6,234.1z"/>
	<path class="st4" d="M252,444.9c-121.2,8.2-115.7-36.4-115.7-36.4s12.2-24.1,18.7-33.9s17-16.6,17-16.6l3.3-2.8
		c-0.1,0.4-3.4,9.5,11.5,16.3c15.1,6.9,56.7,12.6,93.2,4.8s39.2-14.1,39.5-25.3l4,3.6c0,0,10.8,7.3,18.5,16.2
		c8.2,9.4,23.6,31.2,23.6,31.2S374.1,444.2,252,444.9z"/>
	<path class="st9" d="M250.6,84.5c0,2.9-1.3,5.6-3.5,7.4c-1,0.9-2.2,1.5-3.5,1.8c-5.1,1.4-10.4-1.5-11.8-6.6
		c-1.4-5.1,1.5-10.4,6.6-11.8c0.9-0.2,1.7-0.4,2.6-0.4c0.3,0,0.5,0,0.8,0C246.8,75.3,250.6,79.5,250.6,84.5z"/>
	<path class="st9" d="M239.9,0c0,0-1.5,1.5-0.4,3.1l0.1,0.9l-1.5,0.3l-0.9-0.7l-1.6,1.9l1.3,2l0.9-0.3c0.3,0.1,0.4,0.4,0.4,0.7
		c0,0.5,0,3.5,0,3.5c-0.2,0.6-0.4,1.2-0.7,1.8h-2.1c0,0-2.3-3-4.4,0c0,0-0.8-0.2,0,0.6s1.8,2.7,4.3,0.7l2.1-0.1c0,0,0.4-0.3,0.4,0.6
		s0.1,6.9,0.1,6.9l-1.6-3.7l1,3.9l-3-2.9l2.6,3.7l-3.9-2l3.3,2.8l-0.2,0.3l-8.8-1.2c0.4-0.4,0.5-1,0.3-1.6c-0.4-1-1-1.9-1.6-2.7
		c0,0-1.8,1.9-1.2,3.5c-0.5,0.2-0.9,0.4-1.3,0.7c-1.1-0.3-2.3,0.1-2.9,1c0,0,0.6,2.6,2.8,2.6c0.4,0.7,1,1.3,1.8,1.5
		c-0.3,1.2,0,2.4,0.9,3.3c0.9-0.9,1.2-2.1,0.9-3.3c0,0,0.5-0.6,0.5-0.7l8.3,1h0.3l0.1,1l-1.8,1.7l2.1-1l0.4,0.4c0,0-1.5,3-1.5,3.2
		l2.1-2.5l0.3,0.1l-1.2,3.2l1-1.7V55c0,0-1.2,1.1-0.7,3.7l-1.1,0.5c0,0-2.7-0.5-2.4,1.9s2.3,2.5,3.1,0.8l1.1-0.6v13.9l2.3,0.4
		l1.7-0.9v-16c0,0,2.6,0,3.1-1.3l2.4-1.2c0.7,0.1,1.3-0.4,1.4-1.1c0.2-1.3-0.1-2.9-1.7-2.4c0,0-0.7,0.4-0.8,0.6l-1.8,1
		c0,0-1.1-0.2-1.4,0.1l-0.2-22l0.6,2.2l-0.7-3.3l2.2,2.8l-1.5-3.4l3.2,1.5l-2.8-2.7l0.3-0.3l7.8,0.6c0.4,0.6,0.9,1,1.5,1.3
		c-0.3,1.4,0.2,2.9,1.4,3.8c0,0,1.6-1,1.2-3.9c0,0,1.7-0.1,3.1-2.4c-0.7-1.4-1.8-2.5-3.3-3c0,0,0.5-1.8-1.6-3.4c0,0-1.9,1.6-1.2,3.3
		l-0.6,0.7l-8.2-1v-0.7l1.9-1.7l-2.3,0.8l-0.5-0.4l1.8-2.6l-2.3,1.9l0.8-3.3l-1.3,1.7v-5.2c0,0,0-0.7,0.6-0.2
		c0.4,0.4,0.9,0.6,1.5,0.7h0.3v1c0,0-1.2,0-1.1,0.5s1.3,1.5,1.5,2.3s0-0.8,1.3-1.5s-1.5-1.6-1.5-1.6v-1.3c0,0,1.7,0.2,2.1-0.2
		c0,0,0.2,1.1,1,0.9s0.6-0.6,1.3-1.3s0.2-1.1-0.4-1.9s-1.3-1.2-1.5-0.6s-0.7-0.3-1-0.6s-0.9-0.1-0.9-0.1l0.1-0.8
		c0,0,1.4,0.3,1.3-0.9s-1.4-1.7-1.6-2.5s0,0.6-0.5,1s-1.5,2-0.5,2.2l0.6,0.1l-0.2,0.9h-1.7l-0.8-1.2l0.1-2.8c0,0,0.3-0.6,1.1,0
		l1.4-1.4L243,4.3l-0.8,0.2l-1.8-0.4l0.2-0.9C240.6,3.1,241.6,1.8,239.9,0z"/>
	<path class="st12" d="M85.7,447.6l14.2-4.3c0,0,1.9-0.7,5.4,6.1s25.5,13.1,39.5,44c0,0,4.6,7.6,4.9,8.5s32-24.2,64.1-4.2
		c32.1,20-8.4-8.6-8.4-20.6S193.5,445,193.5,445s-18.7-16-57.2-18.3S85.7,447.6,85.7,447.6"/>
</g>
<g id="_3_башни">
	<path class="st2" d="M81.1,447.3L81.1,447.3l0.4-2.8v-0.1l0.5-1.8l-1.2-4.5l0,0h-0.3h0.1l0.2-2.6v-1.6l-0.3-0.5l-0.1-0.2l0.2-0.1
		l0.2-0.2l0,0l-0.3-0.4l-0.1-0.1l0.3-1l0.2-1.7l0,0l-1-5.5v-0.2l-0.2-0.8l-1.8-21v-1.9v-0.5l0,0l-0.1-0.4l-0.9-9.1l0,0l-0.1-0.4
		l-0.5-4c0.9-1.6,1.4-3.4,1.6-5.2c0-0.4,0.1-0.9,0.1-1.3l0,0l0,0v-3.4l0,0c0,0-0.2,0-0.2,0c-0.1-0.3-0.6-1.9-0.8-3.1
		c-0.1-1.5,0-3,0.3-4.5c0,0,0,0,0-0.1s0-0.1,0-0.1c0,0,0-0.1,0-0.1l0,0L59.7,371v0.1l0,0l-13.3,2.2l-43.1,2.1c0,0-0.4,0-0.4,0l0,0
		c0,0,0.4,0.1,0.4,0.2H2.8l0,0c0,0.8,0.4,2.9,1.3,3.5c0,0,0.2,0.1,0.3,0.1h0.1c0.2,0.1,0.4,0.2,0.5,0.3H5l0.1,0.1
		c0.2,0.4,0.2,1-0.1,1.4l-0.1,4.5l0,0l-0.1,0.2c0,0,0.1,0,0.1,0.1c-0.1,1.8,0.7,3.6,2,4.9l0.1,5.2v0.2l0.6,11.3v0.4l1.2,26v0.3
		l-1.3,1.9l0,0l-1.2,2.2l0,0l0,0c0,0.1,0.4,1,0.7,2.1c0,0.1,0.1,0.2,0.1,0.3c0,0.1,0,0.1,0.1,0.2c0.4,1.1,0.9,2.2,1.1,2.8
		c0.1,0.3,0.6,0.8,0.6,1.3l0,0c0,0.1,0,0.2,0,0.3c0.1,1,0.2,1.9,0.4,2.9l0.3,1.2v0.1l0.9,2.3l-1.6,1.3l0,0l0.5,6.4
		c0,0-0.5,0.3,0.5,0.8l0,0c0,0.5,0.1,1,0.3,1.4c0.4,1.1,0.5,2.3,0.3,3.5l-0.4,2.2c0,0,3.1,9.1,22.6,10.5c4.1,0.2,8.2,0.1,12.3-0.5
		c1.1-2.8,2.5-5.5,4.1-8.1c0.9-1.3,1.8-2.6,2.8-3.8c1-1.2,2.1-2.3,3.2-3.3c0.5-0.5,1-0.9,1.6-1.3l0,0c7.5-5.9,15.3-6.9,18.2-6.4
		c0,0,0.1-0.1,0.1-0.1l0,0c0.4,0,0.8,0.3,1.1,0.3c0,0,0,0,0,0.1c1,0.1,2,0.1,2.9-0.2c1.6-0.3,3-1.2,4.1-2.4L81.1,447.3z"/>
	<path class="st13" d="M7.1,381.3c0,0,6.8,7.6,36.7,5.6c0,0,24.5-1,30.5-10.5c0,0-5.5,9.1-36,10C38.2,386.3,17.8,388.6,7.1,381.3z"
		/>
	<path class="st13" d="M7.5,391.4c0,0,4.7,6.9,32.2,6.4c6.3-0.1,12.5-0.9,18.6-2.4c6.8-1.7,14.5-4.6,17-9.3c0,0-5.8,9.9-40.4,10.6
		C34.9,396.6,20.5,398,7.5,391.4z"/>
	<path class="st13" d="M44.6,462c4-0.2,8-0.7,12-1.3c-0.5,0.4-1,0.8-1.6,1.3c-3.3,0.5-6.7,0.8-10,0.9c-14,0.5-22.2-1.5-26.9-3.8
		c-5.1-2.5-6.2-5.2-6.2-5.2s1.8,2.6,7.1,4.9C24,460.9,32.1,462.7,44.6,462z"/>
	<path class="st13" d="M80.2,450.5c-1.1,1.6-2.5,2.9-4.1,4l0,0c-0.4,0-0.7-0.2-1.1-0.2C76.8,453.2,78.5,451.9,80.2,450.5z"/>
	<path class="st13" d="M9.5,444.6c0,0,9.5,10.7,34.1,9.2s34.1-9.1,35-11.8c0,0-5.7,8.4-35,11.2C43.7,453.1,20.5,454.9,9.5,444.6z"/>
	<polygon class="st3" points="9.1,407.9 10.9,438.4 8.9,437.8 7.1,408 8.6,407.8 9.1,407.9 	"/>
	<path class="st3" d="M78.2,402.2l1.9,30.1l0.8,3.2l-2.1-0.6c0,0-2.1-36.3-2.2-37.7L78.2,402.2z"/>
	<path class="st3" d="M68,404.1l1,35.4l5.6,2.1l0.2-1.5l-2.6-35.4c0,0-0.3-2.9-2.8-2.1C68.8,403,68.3,403.5,68,404.1z"/>
	<path class="st3" d="M20.1,408.7c0,0-2-2.2-3.9-0.8c-0.8,0.6-1.2,1.6-1.1,2.6l2.4,34.4l4.1-1.9l-1.6-34L20.1,408.7z"/>
	<path class="st5" d="M20.6,409c0,0,1.8,1.3,2.1,5.1s2.4,29.8,2.4,29.8l-2.4,0.7c0,0-3.1-34.1-2.3-35.7L20.6,409z"/>
	<path class="st5" d="M68,404.1c0,0-2.1,1.6-1.8,7.2s1.8,27.3,1.8,27.3l2.4-0.4L68,404.1z"/>
	<path class="st5" d="M40.3,412.1c0,0,0.5-2.3,4.5-2.9s5.9,3.6,5.5,5.7s2.6,32.7,2.6,32.7l-10.1-0.5L40.3,412.1L40.3,412.1z"/>
	<path class="st1" d="M51.8,465.3c-1,1.2-2,2.5-2.8,3.8c-4.1,0.4-8.2,0.5-12.3,0.3c-11.7-0.5-21.7-3.7-26.3-8
		c-0.4-0.4-0.8-0.8-1.1-1.3l0,0c-1.7-2-2-4.9-0.6-7.2l0,0l0,0c0,0,0.1,0.3,1.2,1.2s1.2,1.3,1.2,1.3s-0.1,0.9,1.6,3
		c0.5,0.7,1.1,1.3,1.7,1.9c2.6,2.3,8.1,5,22.8,5.7C42.1,466.1,47,465.9,51.8,465.3z"/>
	<path class="st1" d="M83.1,451.9c-1,1.3-2.5,2.1-4.1,2.4c0.3-0.4,0.5-0.9,0.7-1.4c0.2-0.8,0.4-1.6,0.4-2.4l1-3.2
		C82.3,448.6,82.9,450.2,83.1,451.9z"/>
	<path class="st1" d="M80.3,438c0,0,4.5,5.4-1.5,9.8s-13.6,11.1-45.4,10.5c0,0-26.1-1.3-25-13.8c0,0,4.1,9.7,22.9,10.8
		s29.4-1,36.8-4.3s12.8-7.7,11.5-10.6L80.3,438L80.3,438z"/>
	<path class="st1" d="M68.2,404H68c0,0.1,0.1,0.1,0.1,0.2L68.2,404l0.2,0.1l0,0L68.2,404z M80.4,430.8l0.2,0.7l0.2,0.8l0,0l-0.3,0.1
		l-0.1,0.1l-0.1,0.1l0,0v0.1l0.1,0.4v0.1v0.2l0.3,1.8h-0.2h-1.6v-0.1v-0.1l0,0l-2.3,3l0.1,1.5l-1.8,0.7l0,0l-3.8-1.8
		c0,0-1.8-25.4-2.2-29.6c-0.1-1.5-0.3-3-0.7-4.5l-0.1,0.1l0,0l-0.5,0.7l0.4,3.3l-1.6,1v2l1.8-1.2l0.8,10.6v1.5l-0.1,0.6h-0.1h-0.1
		l-1.1,1.2h0.3l-0.5,0.1l-0.1,1.3v-0.1l1.4-0.9l0.2-0.2l0.7,13l-0.6,0.4l-1,0.7l0,0l0.3,4.5c0,0-0.1,0.5-1.4,1.1
		c-0.6,0.4-1.5,0.4-2.1,0l-9.3,2.7l-0.5,0.8l-2.2-0.2v-0.3c-0.2-2.9-2-26.1-2.5-32.4c-0.1-0.8-0.1-1.3-0.1-1.5
		c-0.2-1.1-0.7-2.1-1.6-2.8l0.3,3.9l-5.1,0.7l-2.7,0.3l-0.4-3.9c0,0-0.2,0-0.2,0.1s0.1,0.1,0.1,0.2s0,0.1-0.1,0.2h-0.1
		c-0.1,0.1-0.5,0.1-0.5,0.2l0,0c0,0.2,0,0.5,0,0.7c-0.2,0.4,0,4.1,0.3,9c0,0.1,0,0.1,0,0.2c0.6,10.7,1.9,26.8,1.9,26.8
		c-0.8,0.3-1.6,0.4-2.4,0.2c-0.8-0.1-1.7-0.3-2.5-0.6l-8.6-0.6l-0.9,0.6l-1-0.1l-0.4-0.3l-1.3-0.7l-0.2-3.3V443h0.1h0.1l-1.9-0.4
		l-1.1-12.7L24,430h0.3l0.5-1.2l0,0l-0.4-0.5h-0.3h-0.2l-2.1-0.7l-0.9-12.1l1.9,0.6l0,0L23,416l-0.2-0.6l0,0l-0.1-0.9V414l-2-0.8v-4
		l-0.2-0.1l-0.5-0.3l0,0v-0.2v-0.2l0,0v0.2l-0.7-0.3l2.5,35.1l-1.9,1l-2.2,1c0,0,0.3,1.2-5.2-2.5s-5-6.4-5-6.4H7.3
		c-0.8,0.3-1.4,1.1-1.5,2l0,0c0.1,0.7,0.4,1.5,0.9,2.1c0.1,0.1,0.1,0.2,0.2,0.3l0.2,0.2c1.2,1.5,3.6,3.5,8,5.9
		c2.9,1.6,6.4,3.3,9.9,3.3l0,0c0.1,0,0.1-0.1,0.2-0.1c12.8,2.7,27.1,0.3,27.1,0.3c21.1-3.8,26.3-8.9,28-12.2l0,0l0,0l0,0
		c0.3-0.7,0.6-1.5,0.8-2.2C82,433.5,80.4,430.8,80.4,430.8L80.4,430.8z M50.3,431.2l1,13l-8.1,0.7l-0.9-13L50.3,431.2z M43.3,415.9
		l5.7-0.3l0.9,13.8l-7.7,0.5l-0.8-10.4l-0.3-3.6L43.3,415.9z"/>
	<path class="st1" d="M9,407.5c0,0-1.4-11.2-2.1-11.4c-0.5-0.2-0.9-0.2-1.4,0l1.6,11.5L9,407.5z"/>
	<path class="st1" d="M26.8,414.6c0,0-2-10.5-9.3-10.9c0,0-4.8-0.5-4.7,8c0,0,0.9,0.4,1-0.3s-0.7-4.1,2-5.1s6.8,0.6,8.1,8.5
		L26.8,414.6z"/>
	<path class="st1" d="M76.9,402.4l1.8-0.1c0,0-0.9-11.8-1.9-12.4s0.1,12.2,0.1,12.2L76.9,402.4z"/>
	<path class="st1" d="M62.6,410.4l1.7,0.6l1.1-0.7c0,0,0-8.3,4.3-9.6s4.1,4.9,4.1,4.9l0.5,0.3l0.5-0.4c0,0-0.5-6.4-4-7
		c-2.3-0.1-4.4,1.2-5.4,3.2C64,404.3,63,407.3,62.6,410.4z"/>
	<path class="st1" d="M35.8,414.9c0,0,0.1-9,8.9-9.5s9.6,8.1,9.6,8.1l-0.9,0.3l0.1,0.6l-1.6,0.1c0,0-0.2-6.8-7.1-6.4
		s-6.6,7.4-6.6,7.4l-1.6,0.2l-0.1-0.6L35.8,414.9z"/>
	<path class="st1" d="M4.4,379.4c0,0-1.7,1.9-0.3,5.3s7.2,8.5,26.2,9s38.1-2.9,45.4-10.5c0,0,4.3-5.1,0.6-8.6l-0.8,1.3
		c0.3,1.1,0.2,2.2-0.5,3.1c-1.1,1.8-4.5,11.2-37.2,12.2S5.5,380.2,5.5,380.2L4.4,379.4z"/>
	<path class="st9" d="M37.2,272"/>
	<path class="st9" d="M37.9,271.6l-0.5-0.9c0,0-0.8,0.1-0.7-0.9s0.2-1.2,0.2-1.2s1.8,0.9,1.5,1.4l-0.3,0.5l0.3,0.7
		c0,0,0.4,0.2,0.6-0.4s0.5-0.7,1.4-0.1l0.9,0.7c-0.2,0.5-0.5,1-0.8,1.4c-0.3,0.2-0.7-0.2-0.7-0.2l-0.1,0.8c0.2,0,0.4,0.1,0.5,0.3
		c0.3,0.3-0.5,1.7-0.5,1.7l-1.1-0.6c-0.2-0.4-0.2-0.8-0.1-1.2C38.5,273,38.3,272.3,37.9,271.6L37.9,271.6z"/>
	<path class="st9" d="M30.6,275.8l-0.4-1c0,0,0.6-0.5-0.2-1.2s-1-0.6-1-0.6s-0.5,1.9,0.1,2l0.6,0.1l0.4,0.7c0,0-0.1,0.4-0.7,0.2
		s-0.9-0.1-1,1l-0.1,1.1c0.5,0.2,1,0.3,1.6,0.3c0.3,0,0.3-0.6,0.3-0.6l0.6,0.5c-0.1,0.2-0.2,0.4-0.1,0.6c0,0.4,1.6,0.8,1.6,0.8
		l0.2-1.2c0,0-0.1-0.4-0.8-0.8C31.2,277.1,30.8,276.4,30.6,275.8L30.6,275.8z"/>
	<path class="st9" d="M32.3,237.6c-0.5,0.5-0.6,1.4-0.2,2l0.1,0.6l-1,0.2l-0.6-0.4l-1,1.3l0.9,1.3l0.6-0.2c0.2,0.1,0.3,0.2,0.3,0.4
		c0,0.3,0.1,2.5,0.1,2.5c-0.1,0.5-0.2,1-0.4,1.4l-1.3,0.1c0,0-1.5-2.1-2.8-0.1c0,0-0.5-0.2,0,0.3s1.2,1.6,2.8,0.3l1.4-0.2
		c0,0,0.3-0.2,0.3,0.4s0.3,4.4,0.3,4.4l-1.2-2.4l0.8,2.5l-2-1.8l1.8,2.3l-2.5-1.2l2.2,1.7l-0.1,0.2l-5.7-0.5c0.2-0.3,0.3-0.7,0.1-1
		c-0.3-0.6-0.7-1.2-1.1-1.7c0,0-1.1,1.3-0.7,2.3c-0.3,0.1-0.6,0.3-0.8,0.5c-0.7-0.2-1.5,0.1-1.9,0.7c0,0,0.5,1.6,1.9,1.6
		c0.3,0.5,0.7,0.8,1.2,0.9c-0.2,0.8,0.1,1.6,0.7,2.1c0.5-0.6,0.7-1.4,0.5-2.1c0,0,0.3-0.4,0.3-0.5l5.4,0.4h0.2l0.1,0.6l-1.1,1.2
		l1.3-0.7l0.3,0.3c0,0-0.9,2-0.8,2.1l1.3-1.7H32l-0.9,2.2l0.4-1.1l0.7,14.5c-0.4,0.8-0.4,1.6-0.1,2.4l-0.6,0.3c0,0-1.7-0.3-1.4,1.3
		s1.4,1.6,1.8,0.5l0.5-0.4l0.4,8.9l1.7,0.2l1.3-0.6l-0.5-9.7v-0.6c0,0,1.7-0.1,1.9-0.9l1.5-0.8c0.5,0,0.8-0.3,0.9-0.8
		c0.1-0.8-0.1-1.9-1.2-1.5c0,0-0.5,0.3-0.5,0.4l-1.1,0.7c0,0-0.7-0.1-0.9,0.1l-0.8-14.1l0.5,1.4l-0.6-2.1l1.5,1.7l-1-2.1l2.1,0.9
		l-1.9-1.6l0.2-0.2l5,0.1c0.3,0.4,0.6,0.6,1,0.8c-0.2,0.9,0.2,1.8,1,2.4c0.7-0.7,0.9-1.6,0.6-2.5c0.9-0.2,1.6-0.8,1.9-1.6
		c-0.5-0.9-1.3-1.5-2.2-1.8c0.1-0.9-0.3-1.7-1.1-2.2c0,0-1.2,1.1-0.7,2.1l-0.4,0.5l-5.3-0.4v-0.4l1.2-1.2l-1.5,0.6l-0.3-0.3l1-1.7
		l-1.5,1.3l0.4-2.1l-0.8,1.1l-0.2-3.3c0,0,0-0.1,0.4,0.1s0.7,0.7,1,0.7h0.2v0.3c0,0-0.8-0.1-0.7,0.2s0.9,0.8,1,1.4s-0.5-0.5,0.3-1
		s-1.5-1-1.5-1v-0.8c0,0,1.6,0.1,1.8-0.2c0,0,0.4,0.7,0.9,0.5s0.5-0.4,0.9-0.9s0.1-0.7-0.3-1.2s-0.8-0.7-1-0.3s-0.5-0.2-0.6-0.4
		s-0.6,0-0.6,0v-0.5c0,0,0.9,0.2,0.8-0.6s-0.9-1-1.1-1.5s0,0.4-0.3,0.6s-0.9,1.3-0.3,1.5l0.4,0.1l-0.1,0.6l-1.1,0.1l-0.5-0.7v-1.8
		c0,0,0.2-0.4,0.7,0l0.8-0.9l-1.1-1.4l-0.5,0.2l-1.1-0.2l0.1-0.6C32.8,239.7,33.4,238.7,32.3,237.6z"/>
	<path class="st9" d="M76.5,369.8c-1.7,3.7-4.5,6.7-8.1,8.4c-10.3,5.2-24.9,6.2-24.9,6.2c-19.8,1.8-30.4-1.4-35.5-3.9
		c-2.4-1.2-4.1-3.4-4.7-6l0,0c-2.1-8.9,4.1-10.3,4.4-10.3l0,0c-6.1-6.8-8.2-16.2-5.7-25c3.2-11.8,13.1-18.3,20.3-24.5
		s8.5-12.3,8.5-12.3l0,0l1-10l0,0c0.8,0.7,1.9,1,2.9,1c0.4,0,0.8-0.1,1.2-0.3c0.6-0.2,1.2-0.6,1.7-1.1l0,0l2.4,9.5l0,0
		c0,0,2,6.4,12.2,11.5c8.5,4.2,17.3,10.6,22.1,21.5c5.7,12.9-1.4,24-1.5,24.1l0,0c2,1.2,3.6,3,4.4,5.3
		C77.8,365.3,77.6,367.3,76.5,369.8z"/>
	<path class="st9" d="M39.1,288.9c0.1,1.3-0.5,2.6-1.5,3.5c-0.5,0.4-1,0.7-1.6,0.9c-2.3,0.8-4.8-0.5-5.5-2.8
		c-0.8-2.3,0.5-4.8,2.8-5.5l0,0c0.4-0.1,0.8-0.2,1.2-0.2h0.4C37.1,284.8,39,286.6,39.1,288.9z"/>
	<path class="st1" d="M9.9,454c0.6,0.5,1.1,0.9,1.7,1.3L9.9,454z"/>
	<path class="st2" d="M489.8,365.4c-0.3,1.8-1,3.6-2,5.2l0.1,13.9v25.2v7.7v0.7v3.1l-0.1,0.3l0,0l-0.2,0.1l-0.8,2.7l0,0h0.3l0.2,0.3
		l1.2,4.4l-0.3,1.8l0,0v0.1l0,0.1H488l-0.2,0.2l0,0l-0.3,2.2l0,0l0.2,0.2l0.1,0.6v0.3l0,0l0.2,0.3l0,0l0.8,2.5v0.5l0.3,0.6l0.1,0.3
		v0.1l0.6,7.8c-1.7,7.6-9.9,12.2-20.2,14.6c-0.9-3.1-2.1-6.1-3.5-9c-0.5-1.1-1.1-2.2-1.7-3.3c-0.5-0.9-1-1.8-1.6-2.6
		c-0.2-0.3-0.5-0.7-0.7-1s-0.4-0.8-0.6-1.1c-0.7-0.9-1.4-1.7-2.1-2.7l0,0c0,0,0,0.2,0,0.2c-1-0.8-2.2-1.6-3.3-2.3
		c-0.1,0-0.1,0.1-0.2,0.1l0,0c-1.5-1-3-2-4.6-2h-0.1c0,0,0-0.1,0-0.1s0,0,0,0c-0.7-0.2-1.4-0.5-2.2-0.7l0,0l0,0v0h-7.6
		c-0.4,0-0.8-0.3-1.2-0.3c-1.3,0-2.6-0.3-3.8-0.9l-0.3-0.2l0,0c-0.9-0.5-1.7-1.3-2.3-2.1v-0.1c-0.5-0.9-1-1.8-1.5-2.7l0,0
		c0-0.1-0.1,0-0.1-0.1c0,0-0.1-0.1-0.1-0.1v0.3v0.2h-0.3c-0.2,0-0.5,0.5-0.9,1.9c0,0,0-0.1,0-0.1c-0.1,0.4-0.3,0.8-0.5,1.4l0,0
		c-0.1,0.2-0.1,0.3-0.2,0.5l0,0c-0.2,0.6-0.6,1.3-0.9,2h-0.2l0,0v2.4l0,0c-0.1,0.1-0.2,0.2-0.3,0.3c-0.9,0.8-2,1.5-2.9,2.5l0,0
		c0,0,0.2-0.3,0.2-0.2l0,0l0,0c0,0-0.1,0-0.1,0H426c0,0-0.1,0-0.1,0.1V441c-0.1,0.1-0.2,0.1-0.2,0.1l0,0c-0.1,0-0.1,0.1-0.2,0.1
		s0,0.1,0,0.1s0-0.1,0-0.1v-0.1l0,0c0,0-0.1,0.2-0.1,0.2c-0.7,0.7-1.6,1.5-2.4,2.3v0.1l0,0l0,0l-2.5,2.2l0,0c-1.6,1.4-3.3,2.9-5,4.6
		c-0.6-0.9-1.2-1.9-1.5-2.9c0.3-0.7,0.5-1.4,0.7-2.2c0.3-1.4,0.2-2.9-0.2-4.3c-0.2-1-0.4-1.7-0.4-1.7l0.2-6v-0.6l1.6-1.1l-0.5-1.8
		l0,0h-0.1v-0.1v-0.1l0,0l-0.7-1.7c-0.2-1-0.3-2-0.3-3v-0.1c0-0.1-0.1-0.1-0.1-0.2l0,0l0,0l0,0c-0.1-0.5-0.2-0.9-0.4-1.3
		c-0.2-0.6-0.7-2.1-1-3.4l0,0c-0.3-1.1-0.5-2-0.6-2.2s0,0,0,0l1.4-2.1l0,0l1.6-1.9l1-26.9l0.4-12l0.3-5.5c-1.3-1.4-1.9-3.3-1.7-5.2
		l0.6-4.8c0.5-0.6,0.4-1.4-0.1-1.9c0,0-0.1-0.1-0.1-0.1c-0.5-0.5-0.7-1.2-0.6-1.9c0-0.7,0-1.4,0.2-2.1l43.7,1.5l31.7-2.5
		c-0.4,1.5-0.7,3.1-0.8,4.7c0.2,1.4,0.5,3.3,0.5,3.3C490.3,362.2,490.1,363.8,489.8,365.4z"/>
	<path class="st13" d="M417.7,359.8c0,0,6.2,8.4,36.9,8.9c0,0,25.1,1.1,32-8.1c0,0-6.4,8.8-37.6,7
		C449.1,367.6,428,368.2,417.7,359.8z"/>
	<path class="st13" d="M417.3,370.1c0,0,4.2,7.4,32.3,9.3c6.4,0.4,12.8,0.2,19.1-0.9c7.1-1.2,15.2-3.5,18.1-8c0,0-6.7,9.6-42.1,7.3
		C444.8,377.8,430,378,417.3,370.1z"/>
	<path class="st13" d="M425.6,440.9c-0.2,0.2-0.4,0.3-0.5,0.5c-7.2-3.3-8.6-7-8.6-7.2C416.5,434.5,418.6,437.9,425.6,440.9z"/>
	<path class="st13" d="M486.3,436.7c-0.2,0.3-5.3,7.5-23.4,9.2c-0.2-0.3-0.5-0.7-0.7-1C478.4,443.4,483.8,438.3,486.3,436.7z"/>
	<path class="st13" d="M414.8,424.6c3.9,4.3,9.7,7,15.3,8.6l0,0c-0.1,0.2-0.1,0.3-0.2,0.5C419.7,430.5,415.4,425.4,414.8,424.6z"/>
	<path class="st13" d="M445.9,436c0.5,0,0.9,0.1,1.3,0.1h-5.9c-0.4,0-0.8-0.3-1.2-0.3c-1.3,0-2.6-0.3-3.8-0.9l-0.3-0.2
		C439.2,435.4,442.5,435.8,445.9,436z"/>
	<path class="st13" d="M485.5,427.9c-0.5,1-2,2.5-5,3.9c-5.2,2.6-14.5,5.2-29.3,5.1l0,0c-0.7-0.2-1.4-0.5-2.2-0.7l0,0l0,0l0,0h0.1
		c16.3,0,25.6-2.5,30.8-4.8h0.1C483.8,429.6,485.3,428.1,485.5,427.9z"/>
	<polygon class="st3" points="417.5,387.1 416.7,418.3 414.7,417.6 415.5,387 417,387 417.5,387.1 	"/>
	<path class="st3" d="M488.4,387.3l-0.6,30.8l0.5,3.3l-2-0.8c0,0,1-37.2,1-38.6L488.4,387.3z"/>
	<path class="st3" d="M477.9,388.3l-2,36.2l5.5,2.6l0.4-1.5l0.4-36.3c0,0,0-3-2.7-2.4C478.9,387.3,478.3,387.8,477.9,388.3
		L477.9,388.3z"/>
	<path class="st3" d="M428.7,388.8c0,0-1.9-2.4-3.9-1.1c-0.8,0.6-1.3,1.6-1.3,2.6l-0.5,35.3l4.4-1.6l1.3-34.8L428.7,388.8z"/>
	<path class="st5" d="M429.2,389.2c0,0,1.7,1.5,1.7,5.4s-0.1,30.6-0.1,30.6l-2.5,0.5c0,0-0.2-35.1,0.8-36.6L429.2,389.2z"/>
	<path class="st5" d="M477.9,388.3c0,0-2.3,1.4-2.4,7.2s-0.5,28-0.5,28l2.5-0.2L477.9,388.3L477.9,388.3z"/>
	<path class="st5" d="M449,394.1c0,0,0.8-2.3,4.8-2.5s5.8,4.2,5.2,6.3s-0.2,33.5-0.2,33.5l-10.2-1.3L449,394.1L449,394.1z"/>
	<path class="st1" d="M422.5,443.7l-2.6,2.2c-2.3-1.2-4.3-2.8-6-4.8c-2.1-2.6-2.5-5.5-0.6-8.3c0,0,0,0.2,0.4,0.6
		c0.2,0.2,0.4,0.4,0.7,0.7l0.2,0.2c1,1,0.9,1.2,0.9,1.2s-0.2,0.9,1.4,3.2C418.2,440.9,420.2,442.6,422.5,443.7z"/>
	<path class="st1" d="M489.1,438.4c0,2.4-1.1,5.3-5.3,7.6c-5.5,2.9-11.5,4.9-17.7,5.8c-0.5-1.1-1.1-2.2-1.7-3.3
		c10.6-1.5,19.1-4.9,21.2-9.4c0.3-0.8,0.5-1.6,0.7-2.5l0.4-1l0.8-2.2l0,0l0,0c0.7,1.1,1.2,2.3,1.4,3.6
		C489.1,437.5,489.1,437.9,489.1,438.4z"/>
	<path class="st1" d="M429.5,435.9c0,0.8-0.7,1.6-0.7,2.4l0,0c0,0-0.3,0.1-0.3,0.1c-5.3-1.6-11.3-4.3-13.7-8.5l0,0
		c-0.8-1.6-1.1-3.4-1-5.2l0,0c0-0.1,0-0.2,0.1-0.3C413.8,424.5,416.4,432.1,429.5,435.9z"/>
	<path class="st1" d="M488.2,430.6L488.2,430.6c0,0.1-0.2,0.1-0.2,0.2s-0.2,0.1-0.2,0.2l0,0c-1,1-1.3,2-2.8,2.9
		c-0.3,0.2-0.5,0.3-0.7,0.5v-0.2c-4.6,2.9-10.4,6.9-24.8,6.9l0,0c0,0,0,0.2,0,0.1c-1-0.9-2.2-1.7-3.3-2.4c6,0.1,12-0.8,17.8-2.7
		c2.8-0.9,5.4-2.1,7.9-3.5c3.5-2.1,5.4-4.4,4.8-6.2l0.8-2l0.1-0.4C487.5,424,489.7,427.3,488.2,430.6z"/>
	<path class="st1" d="M488.2,416.6l-0.1,0.7L488,418l-0.1,0.1l-0.1,0.1l0,0l-0.1,0.3l0.2,1.7v0.1v0.3l0.1,0.6h-0.1l-1.6-0.3h-0.1
		l-0.4-0.1l-3,2.9l0.1,1.6l-1.1,0.4l-0.4,0.2l-3.6-2.3c0,0,0.4-26.1,0.4-30.4c0-3.8-0.3-4.6-0.3-4.8l0,0l0,0l0,0l0,0l-0.7,0.9
		l0.2,3.4l-1.7,0.9l-0.2,2l1.6-1l-0.3,9.1v0.9l0,3.1l-0.1,0.1l0,0l-1.5,1.1v1.4l1.5-0.8l0.4-0.2l-0.5,13.3l-0.5,0.4l-0.1,0.1l-1,0.5
		h-0.2v-0.4h0.1v0.4l-0.1,4.5v0.2l0,0c0,0.1-0.3,0.5-1.5,1c-0.7,0.3-1.6,0.2-2.2-0.2l-9.7,2l-0.5,0.8l-2.2-0.3l0,0v-33.6
		c0-0.8,0-1.4,0-1.5c-0.1-1.1-0.5-2.2-1.3-3v4l-7.9,0.1l0.2-4l0,0c-0.1,0-0.1,0-0.2,0c0,0-0.1,0-0.2,0.1s-0.2,0.3-0.4,0.6l0,0l0,0
		c-0.1,0.2-0.3,0.4-0.4,0.6c-0.3,0.6-0.8,7.7-0.8,15.5v0.2c0,10-0.3,21.2-0.3,21.2c-0.8,0.3-1.7,0.3-2.5,0c-0.9-0.2-1.7-0.5-2.5-0.8
		l-8.7-1.4l-1,0.7h-0.7h-0.3c0,0,0-0.3,0-0.2s0-0.1,0-0.1s0.1,0,0.1,0s0.1,0,0.1,0l0,0c0.4,0.9,0.9,1.8,1.5,2.7l0,0
		c8,1.6,16.2,2.2,24.4,1.7c9.4-0.9,15.6-2.3,20-3.8c0.1,0,0-0.1,0.1-0.1c5.8-2.1,7.8-4.4,8.8-6.2l0,0h0.4c0.4-0.7,0.9-1.4,1.2-2.2
		C489.5,419.5,488.2,416.6,488.2,416.6z M457.8,417.1l-0.3,10.5h-8.4l0.1-13.4l3.9-0.1h4.4l0.3,2.6V417.1z M449.8,411.5L449.8,411.5
		l-0.2-13.2l8,0.3l-0.3,13.8l-6.4-0.3l0,0l-0.5,0.1l-1.1,0.1l0.2-0.8L449.8,411.5z M431.8,429.6l-0.3-0.2l0,0l-1-0.8l0.3-3.4l0,0
		v-0.9h-0.1h-0.1l-1.9-0.6l-0.1-13.1l2.1,0.3h-0.1l0.1-1v-0.1l0-0.6h-0.1l0,0l-1.9-0.9L429,398l-0.2-0.4l0,0l0.1-2l1.9,0.4h0.1l0-1
		v0.1l0,0l-2-1.4l0.3-4.3l-0.2-0.2l0,0l-0.4-0.4l0,0h-0.1l0,0l-0.6-0.5l-0.1,8.1v0.4l-0.4,27.2l-1.7,0.6h-0.1h-0.1l0,0l-0.2,0.1
		l-1.1,0.4l-0.3,0.1l-0.8,0.3l0,0c0,0,0.3,1.3-5.1-3c-5-4-4.6-6.6-4.5-6.9l0,0c-0.8,0.4-1.3,1.2-1.4,2.1l0,0c0,0.8,0.2,1.5,0.5,2.2
		l0,0c0.9,1.8,3.2,4.1,7.9,7.2c3.2,2,6.7,3.5,10.3,4.4c0,0,0,0.3,0,0.3c0.4-1.4,0.7-1.9,0.9-1.9h0.3V429.6L431.8,429.6z M431,396
		L431,396z"/>
	<path class="st1" d="M417.5,386.9c0,0-0.5-11.6-1.2-12c-0.5-0.2-1-0.2-1.4-0.1l0.7,11.9L417.5,386.9z"/>
	<path class="st1" d="M435,395c0,0-1.2-10.6-8.5-11.6c0,0-4.8-0.8-5.5,7.9c0,0,0.9,0.6,1.1-0.2s-0.3-4.5,2.5-5.3s6.9,1.7,7.5,9.1
		L435,395z"/>
	<path class="st1" d="M487.1,386.9l1.8,0.1c0,0,0.1-11.8-0.8-12.5s-0.9,12.3-0.9,12.3"/>
	<path class="st1" d="M471.8,394.3l1.7,0.8l1.2-0.6c0,0,0.8-8.5,5.2-9.4s3.7,5.3,3.7,5.3l0.5,0.3l0.6-0.3c0,0,0-6.6-3.4-7.5
		c-2.3-0.3-4.6,0.8-5.8,2.8C473.8,388.2,472.6,391.2,471.8,394.3z"/>
	<path class="st1" d="M444,396.6c0,0,0.8-9.2,9.9-8.9s9.1,9.1,9.1,9.1l-0.9-0.1v0.3l-1.6-0.1c0,0,0.3-6.6-6.7-6.9s-7.4,7.1-7.4,7.1
		l-1.6,0.1v-0.6L444,396.6z"/>
	<path class="st1" d="M415.2,357.6c0,0-1.9,1.8-0.8,5.3s6.6,9.3,26,11.5s39.1,0.4,47.2-6.8c0,0,4.8-4.8,1.4-8.7l-0.9,1.2
		c0.3,1.1,0,2.3-0.8,3.1c-1.3,1.7-5.5,11-39,9.2s-32-14-32-14L415.2,357.6z"/>
	<path class="st9" d="M457.9,251"/>
	<path class="st9" d="M458.7,250.7l-0.4-1c0,0-0.8,0-0.7-1s0.3-1.2,0.3-1.2s1.8,1,1.4,1.6l-0.4,0.5l0.2,0.8c0,0,0.4,0.3,0.7-0.4
		s0.6-0.7,1.4,0.1l0.8,0.8c-0.3,0.5-0.6,0.9-0.9,1.3c-0.3,0.2-0.7-0.3-0.7-0.3l-0.1,0.8c0.2,0.1,0.4,0.2,0.5,0.3
		c0.3,0.3-0.6,1.7-0.6,1.7l-1-0.7c-0.2-0.4-0.2-0.8,0-1.2C459.2,252,459.1,251.3,458.7,250.7"/>
	<path class="st9" d="M450.9,254.3l-0.3-1c0,0,0.7-0.5-0.1-1.2s-1-0.7-1-0.7s-0.7,1.9-0.1,2.1l0.6,0.2l0.3,0.7c0,0-0.1,0.4-0.8,0.1
		s-0.9-0.2-1.1,1l-0.2,1.1c0.5,0.2,1,0.4,1.6,0.5c0.3,0,0.4-0.6,0.4-0.6l0.6,0.5c-0.1,0.2-0.2,0.4-0.2,0.6c0,0.4,1.5,0.9,1.5,0.9
		l0.3-1.2c-0.1-0.4-0.4-0.7-0.8-0.9C451.4,255.7,451,255,450.9,254.3"/>
	<path class="st9" d="M455.9,215.5c-0.6,0.5-0.7,1.3-0.4,2l0.1,0.6l-1,0.2l-0.5-0.5l-1.1,1.2l0.8,1.4l0.6-0.1
		c0.2,0.1,0.3,0.3,0.3,0.4c0,0.4-0.1,2.2-0.1,2.2c-0.1,0.4-0.3,0.7-0.5,1.1l-1.4,0c-0.5-0.8-1.5-1.1-2.3-0.6
		c-0.2,0.1-0.5,0.4-0.6,0.6c0,0-0.5-0.1,0,0.4s1.1,1.9,2.8,0.6h1.4c0,0,0.3-0.2,0.3,0.4s-0.1,4.5-0.1,4.5l-1-2.5l0.6,2.6l-1.9-2
		l1.6,2.5l-2.5-1.4l2.1,2l-0.2,0.2l-5.8-1c0.2-0.3,0.3-0.6,0.2-1c-0.2-0.7-0.6-1.3-1-1.8c0,0-1.2,1.2-0.9,2.3
		c-0.3,0.1-0.6,0.2-0.8,0.4c-0.7-0.3-1.5,0-2,0.6c0,0,0.3,1.7,1.8,1.8c0.2,0.5,0.6,0.8,1.1,1c-0.3,0.8-0.1,1.6,0.5,2.2
		c0.6-0.5,0.8-1.4,0.7-2.1c0,0,0.3-0.4,0.3-0.5l5.5,0.9h0.2v0.6l-1.3,1.1l1.4-0.6l0.2,0.3c0,0-1.1,2-1,2.1l1.5-1.6l0.2,0.1l-1.1,2.1
		l0.6-1.1l-0.6,14.8c-0.5,0.7-0.6,1.6-0.4,2.4l-0.7,0.3c0,0-1.7-0.4-1.6,1.2s1.3,1.7,1.9,0.6l0.6-0.4l-0.3,9.1l1.6,0.3l1.2-0.6
		l0.4-9.9v-0.6c0,0,1.8,0.1,2.1-0.8l1.7-0.7c0.5,0.1,0.9-0.2,1-0.7c0.2-0.8,0-1.9-1.1-1.6c0,0-0.5,0.2-0.5,0.4l-1.2,0.6
		c0,0-0.7-0.2-0.9,0.1l0.4-14.5l0.4,1.5l-0.4-2.2l1.4,1.9l-0.9-2.3l2.1,1.1l-1.8-1.8l0.2-0.2l5.1,0.6c0.2,0.4,0.5,0.7,0.9,0.9
		c-0.3,0.9,0.1,1.9,0.8,2.5c0.8-0.6,1.1-1.6,0.9-2.5c0.9-0.1,1.7-0.7,2.1-1.5c-0.4-0.9-1.1-1.7-2.1-2.1c0.2-0.9-0.2-1.8-0.9-2.3
		c0,0-1.3,1-0.9,2.1l-0.4,0.5l-5.3-0.9v-0.4l1.3-1.1l-1.6,0.5l-0.3-0.3l1.3-1.7l-1.5,1.2l0.6-2.1l-0.9,1l0.1-3.4c0,0,0-0.1,0.4,0.2
		s0.7,0.8,0.9,0.8h0.2v0.3c0,0-0.8-0.1-0.7,0.1s0.8,0.9,1,1.5s-0.6-0.6,0.2-1s-1.6-1.2-1.6-1.2v-0.8c0,0,1.7,0.2,2-0.1
		c0,0,0.4,0.7,1,0.6s0.6-0.4,1-0.8s0.2-0.7-0.1-1.3s-0.8-0.8-1-0.4s-0.4-0.2-0.6-0.4s-0.6-0.1-0.6-0.1l0.1-0.5c0,0,0.9,0.3,0.9-0.5
		s-0.8-1.1-1-1.7s0,0.4-0.4,0.6s-1,1.3-0.4,1.5l0.4,0.1l-0.2,0.6h-1.1l-0.5-0.8l0.2-1.8c0,0,0.2-0.4,0.8,0l0.9-0.9l-1-1.5l-0.5,0.1
		l-1.1-0.3l0.1-0.6C456.2,217.5,457,216.7,455.9,215.5z"/>
	<path class="st9" d="M489.5,354.1c-2,3.6-5.2,6.4-9,7.9c-10.9,4.4-26,4.2-26,4.2c-20.4,0.1-30.9-4.1-35.8-7
		c-2.3-1.4-3.9-3.8-4.2-6.5l0,0c-1.4-9.2,5.1-10.1,5.4-10.1l0,0c-5.6-7.5-7-17.3-3.7-26c4.3-11.7,15-17.5,22.8-23.3
		s9.8-11.9,9.8-11.9l0,0l1.9-10.2l0,0c0.8,0.7,1.8,1.2,2.9,1.2c0.4,0,0.9,0,1.3-0.1c0.7-0.2,1.3-0.5,1.8-1l0,0l1.6,9.9l0,0
		c0,0,1.5,6.7,11.5,12.8c8.3,5,16.8,12.3,20.7,23.8c4.7,13.7-3.5,24.3-3.6,24.4l0,0c2,1.4,3.4,3.4,4,5.7
		C491.2,349.6,490.8,351.6,489.5,354.1z"/>
	<path class="st9" d="M458.4,268.3c0,1.3-0.7,2.6-1.8,3.4c-0.5,0.4-1.1,0.7-1.7,0.8c-2.4,0.5-4.8-1.1-5.3-3.5
		c-0.5-2.3,0.9-4.6,3.2-5.2c0.4-0.1,0.8-0.1,1.2-0.1h0.4C456.8,264,458.5,266,458.4,268.3z"/>
	<path class="st1" d="M414.3,434.2c0.5,0.5,1.1,1,1.7,1.4L414.3,434.2z"/>
	<path class="st2" d="M221.7,432.8c0,0-0.6,3.4,0.7,4.3c0.7,0.5,0.8,1.4,0.4,2.1c0,0,0,0,0,0.1l-0.5,5.2c-0.1,2.1,0.7,4.1,2.1,5.6
		l-0.1,6l0.1,42.2l-1.6,2.1l-1.5,2.3c0,0,1.3,4.6,1.8,6c0.4,1.6,0.7,3.3,0.9,4.9l1.5,4l-1.6,1.3v7.1c0,0,1.5,4,0.9,6.4
		c-0.2,0.8-0.4,1.6-0.6,2.4c0,0,3.9,11.8,25.5,14.3s54.3-2.2,57.3-19.1l-1-8.4l-1.9-5.3l1-5.1l-1.4-5.1l0.5-3.4l-2.5-54.6
		c1-1.7,1.7-3.7,2-5.7c0.2-1.7,0.2-3.5,0-5.3c0,0-0.4-2-0.6-3.5c0-1.7,0.2-3.5,0.6-5.2l-34.3,4L221.7,432.8"/>
	<path class="st13" d="M225.2,439.5c0,0,7.1,8.8,40.3,8.2c0,0,27.2,0.1,34.3-10.1c0,0-6.5,9.8-40.4,9.2
		C259.5,446.7,236.7,448.2,225.2,439.5z"/>
	<path class="st13" d="M225.2,450.7c0,0,4.9,7.9,35.4,8.7c6.9,0.2,13.9-0.4,20.7-1.7c7.6-1.6,16.4-4.4,19.3-9.4
		c0,0-6.9,10.7-45.3,9.6C255.2,457.9,239.2,458.7,225.2,450.7z"/>
	<path class="st13" d="M302.7,520c0,0-7.5,12.1-39.6,11.9s-36.2-11.6-36.2-11.6s6.8,11,35.8,10.6C291.7,530.5,299.4,522.2,302.7,520
		"/>
	<path class="st13" d="M224.6,509.8c0,0,10,12.4,37.4,11.9c27.4-0.4,38.2-8.3,39.5-11.3c0,0-6.8,9-39.3,10.6
		C262.1,521,236.3,521.8,224.6,509.8z"/>
	<polyline class="st3" points="226,469.1 226.5,502.9 224.4,502.3 223.9,469.1 225.6,469 226,469.1 	"/>
	<path class="st3" d="M302.9,466.3l0.6,33.5l0.7,3.6l-2.3-0.7c0,0-0.5-40.3-0.5-41.9"/>
	<path class="st3" d="M291.5,467.9l-0.7,39.3l6.1,2.6l0.3-1.7l-1.1-39.3c0,0-0.1-3.3-3-2.5C292.6,466.7,292,467.2,291.5,467.9"/>
	<path class="st3" d="M238.3,470.5c0,0-2.1-2.5-4.3-1c-0.9,0.7-1.4,1.7-1.3,2.9l0.9,38.3l4.7-1.9v-37.8"/>
	<path class="st5" d="M238.8,470.9c0,0,1.9,1.6,2,5.8s1.1,33.1,1.1,33.1l-2.7,0.6c0,0-1.6-38-0.7-39.7"/>
	<path class="st5" d="M291.5,467.9c0,0-2.4,1.6-2.3,7.9s0.6,30.4,0.6,30.4l2.7-0.3L291.5,467.9"/>
	<path class="st5" d="M260.5,475.3c0,0,0.7-2.5,5.1-2.9c4.4-0.4,6.4,4.3,5.9,6.6c-0.5,2.3,1.2,36.3,1.2,36.3l-11.1-1L260.5,475.3"/>
	<path class="st1" d="M303.9,516.4c0,0,6.1,7.8-3.5,13.7s-26.3,10.3-46.8,8.4s-35.8-10.8-30.2-19.7c0,0-0.1,0.2,1.3,1.3
		s1.3,1.5,1.3,1.5s-0.2,1,1.6,3.4c1.9,2.6,5.5,7.7,26.8,9.6s44.2-3.7,47.7-12.1c0.3-0.9,0.5-1.8,0.6-2.7L303.9,516.4z"/>
	<path class="st1" d="M303.5,506.2c0,0,4.7,6.2-2.2,10.8s-15.6,11.6-50.8,9.3c0,0-28.8-2.8-27-16.5c0,0,4,10.9,24.8,13.1
		s32.6,0.3,41-2.9s14.6-7.9,13.3-11.1L303.5,506.2"/>
	<path class="st1" d="M303.9,498.1l-0.5,2l0.5,2.8l-2.2-0.3l-3,3.2v1.7l-1.8,0.7l-4-2.3c0,0-0.7-28.3-0.9-32.9s-0.6-5.2-0.6-5.2
		l-0.8,1l0.3,3.7l-1.8,1l-0.1,2.2l1.8-1.2l0.4,14.2l-1.7,1.4v1.5l2-1.1V505l-1.9,1.2v5c0,0-0.1,0.5-1.6,1.1
		c-0.8,0.4-1.7,0.3-2.4-0.2l-10.4,2.5l-0.6,0.9l-2.4-0.3c0,0-1.1-36-1.3-38c-0.1-1.2-0.7-2.4-1.6-3.2l0.2,4.4l-8.8,0.5l-0.2-4.4
		L260,476c-0.8,1.5,0.3,40,0.3,40c-0.9,0.3-1.8,0.3-2.7,0.1c-0.9-0.2-1.9-0.4-2.8-0.8l-9.5-1.2l-1,0.6l-1.1-0.2l-1.6-1.1l0.2-4.7
		l-2.2-0.6l-0.6-14.2l2.2,0.3l0.1-1.8l-2.4-1l-0.3-13.8l2.2,0.3l-0.1-1.8l-2.2-1l0.2-4.5l-1.5-1.1l0.9,39l-2.2,0.9l-2.5,1
		c0,0,0.3,1.4-5.7-3c-6-4.4-5.2-7.3-5.2-7.3s-6.6,3.4,8,12.2c14.6,8.9,41,5.8,41,5.8c30.8-4.1,31.7-12.1,32.7-14.6
		S303.9,498.1,303.9,498.1z M261.1,480.1h8.8l0.3,15.1l-8.6,0.3L261.1,480.1z M262,511.8l-0.3-14.5l9-0.3l0.4,14.4L262,511.8z"/>
	<path class="st1" d="M226,469.1c0,0-1-12.7-1.8-13c-0.5-0.2-1.1-0.2-1.5,0l1.2,13H226z"/>
	<path class="st1" d="M245.4,477.1c0,0-1.7-11.5-9.7-12.3c0,0-5.3-0.7-5.6,8.7c0,0,1,0.6,1.1-0.3s-0.5-4.7,2.5-5.8s7.5,1.6,8.5,9.6
		L245.4,477.1z"/>
	<path class="st1" d="M301.8,466.1h1.7c0,0-0.3-12.9-1.4-13.6s-0.3,13.4-0.3,13.4"/>
	<path class="st1" d="M285.3,474.6l1.8,0.8l1.3-0.8c0,0,0.5-9.2,5.3-10.4s4.3,5.6,4.3,5.6l0.5,0.3l0.6-0.4c0,0-0.2-7.1-4-7.9
		c-2.5-0.2-5,1.1-6.2,3.3C287.1,468,285.9,471.2,285.3,474.6z"/>
	<path class="st1" d="M255.2,478.3c0,0,0.5-10,10.3-10.1c9.8-0.1,10.2,9.5,10.2,9.5h-1v0.4H273c0,0,0.1-7.3-7.5-7.3
		c-7.6,0-7.7,8-7.7,8l-1.7,0.2l-0.1-0.6L255.2,478.3z"/>
	<path class="st1" d="M222.3,437.3c0,0-2,2-0.6,5.8s7.5,9.8,28.6,11.3s42.4-1.3,50.8-9.3c0,0,5-5.4,1.2-9.5l-0.9,1.4
		c0.3,1.2,0.1,2.5-0.7,3.4c-1.3,1.9-5.5,12.2-41.9,11.6s-35.2-13.8-35.2-13.8L222.3,437.3z"/>
	<path class="st9" d="M264.2,320"/>
	<path class="st9" d="M265,319.6l-0.5-1c0,0-0.9,0.1-0.8-1.1s0.3-1.3,0.3-1.3s2,1,1.6,1.6l-0.4,0.6l0.3,0.8c0,0,0.4,0.3,0.7-0.4
		c0.3-0.7,0.6-0.8,1.5,0l1,0.8c-0.3,0.5-0.6,1-1,1.5c-0.3,0.2-0.8-0.3-0.8-0.3l-0.1,0.9c0.2,0.1,0.4,0.2,0.6,0.4
		c0.3,0.3-0.6,1.9-0.6,1.9l-1.2-0.8c-0.2-0.4-0.2-0.9-0.1-1.3C265.6,321.1,265.4,320.3,265,319.6"/>
	<path class="st9" d="M256.8,323.8l-0.3-1.1c0,0,0.7-0.5-0.2-1.3c-0.9-0.8-1.1-0.8-1.1-0.8s-0.7,2.1,0,2.3l0.7,0.1l0.4,0.8
		c0,0-0.1,0.5-0.8,0.2c-0.7-0.3-1-0.1-1.1,1.1l-0.1,1.2c0.6,0.2,1.1,0.3,1.7,0.4c0.4,0,0.4-0.7,0.4-0.7l0.7,0.6
		c-0.1,0.2-0.2,0.4-0.2,0.7c0,0.4,1.7,0.9,1.7,0.9l0.3-1.3c-0.1-0.4-0.4-0.8-0.8-1C257.4,325.3,257,324.6,256.8,323.8"/>
	<path class="st9" d="M260.6,281.6c-0.6,0.6-0.7,1.5-0.3,2.2l0.1,0.6l-1.1,0.2l-0.6-0.5l-1.1,1.3l0.9,1.4l0.7-0.2
		c0.2,0.1,0.3,0.3,0.3,0.5c0,0.4,0,2.6,0,2.6c-0.1,0.5-0.3,0.9-0.5,1.4h-1.5c0,0-1.6-2.3-3.1-0.1c0,0-0.6-0.2,0,0.4s1.3,1.9,3.1,0.5
		l1.5-0.1c0,0,0.3-0.2,0.3,0.4s0.1,4.9,0.1,4.9l-1.2-2.7l0.8,2.8l-2.1-2.1l1.8,2.6l-2.8-1.4l2.3,2l-0.2,0.2l-6.3-0.8
		c0.2-0.3,0.3-0.7,0.2-1.1c-0.3-0.7-0.7-1.3-1.2-1.9c0,0-1.3,1.4-0.9,2.5c-0.3,0.1-0.6,0.3-0.9,0.5c-0.8-0.3-1.6,0-2.1,0.7
		c0,0,0.4,1.8,2,1.8c0.3,0.5,0.7,0.9,1.3,1.1c-0.2,0.8,0,1.7,0.6,2.3c0.6-0.6,0.8-1.5,0.6-2.3c0,0,0.4-0.4,0.4-0.5l5.9,0.7h0.3
		l0,0.7l-1.3,1.2l1.5-0.7l0.3,0.3c0,0-1.1,2.1-1,2.3l1.5-1.8l0.3,0l-1,2.4l0.6-1.2v16.1c-0.5,0.8-0.7,1.8-0.4,2.7l-0.7,0.3
		c0,0-1.9-0.4-1.7,1.4c0.2,1.7,1.5,1.8,2.1,0.6l0.6-0.4v9.9l1.7,0.3l1.3-0.6v-11.4c0,0,2,0,2.2-0.9l1.7-0.9c0.5,0,0.9-0.3,1-0.8
		c0.1-0.9-0.1-2.1-1.2-1.7c0,0-0.5,0.3-0.6,0.5l-1.3,0.7c0,0-0.8-0.2-1,0.1l-0.1-15.7l0.5,1.6l-0.5-2.3l1.5,2l-1-2.4l2.3,1.1l-2-1.9
		l0.2-0.2l5.6,0.4c0.2,0.4,0.6,0.8,1,1c-0.2,1,0.2,2.1,1,2.7c0,0,1.1-0.7,0.8-2.8c1-0.2,1.8-0.8,2.2-1.7c-0.5-1-1.3-1.8-2.3-2.1
		c0.1-1-0.3-1.9-1.1-2.5c0,0-1.3,1.1-0.8,2.3l-0.4,0.5l-5.8-0.7V299l1.4-1.2l-1.7,0.6l-0.3-0.3l1.3-1.9l-1.6,1.3l0.6-2.3l-0.9,1.2
		v-3.7c0,0,0,0,0.4,0.4s0.7,1,1,1h0.3v0.2c0,0-0.9-0.2-0.8,0.1s0.9,0.9,1.1,1.5c0.2,0.6-0.6-0.7,0.3-1.1c0.9-0.5-1.7-1.2-1.7-1.2
		v-0.9c0,0,1.8,0.2,2.1-0.2c0,0,0.4,0.8,1,0.6s0.6-0.5,1.1-0.9c0.5-0.4,0.2-0.8-0.2-1.4c-0.4-0.6-0.9-0.8-1.1-0.4s-0.5-0.2-0.7-0.5
		c-0.2-0.2-0.7-0.1-0.7-0.1l0.1-0.6c0,0,1,0.3,0.9-0.6s-1-1.2-1.1-1.8s0,0.4-0.4,0.7s-1,1.4-0.4,1.6l0.4,0.1l-0.1,0.6h-1.2l-0.5-0.8
		l0.1-2c0,0,0.2-0.4,0.8,0l1-1l-1.1-1.6l-0.6,0.2l-1.3-0.3l0.1-0.6C261.1,283.8,261.8,282.9,260.6,281.6z"/>
	<path class="st9" d="M302.8,430.3c-2,4-5.4,7.1-9.5,8.9c-11.6,5.3-27.9,5.6-27.9,5.6c-22.1,1-33.6-3.1-39.1-6.1
		c-2.6-1.4-4.4-4-4.9-6.9l0,0c-1.9-9.9,5.1-11.1,5.4-11.2l0,0c-6.4-7.8-8.3-18.4-5-28c4.1-12.9,15.5-19.6,23.7-26.2
		s10.1-13.2,10.1-13.2l0,0l1.6-11.1l0,0c0.9,0.8,2,1.2,3.2,1.2c0.5,0,0.9-0.1,1.4-0.2c0.7-0.2,1.4-0.6,1.9-1.1l0,0l2.2,10.7l0,0
		c0,0,1.9,7.2,12.9,13.3c9.2,5.1,18.7,12.6,23.4,24.9c5.6,14.6-2.8,26.5-2.9,26.6l0,0c2.2,1.4,3.8,3.5,4.6,6
		C304.3,425.4,304.1,427.6,302.8,430.3z"/>
	<path class="st9" d="M265.4,338.8c0,1.5-0.7,2.8-1.8,3.8c-0.5,0.4-1.1,0.8-1.8,0.9c-2.6,0.7-5.3-0.8-6-3.4c-0.7-2.6,0.8-5.3,3.4-6
		c0.4-0.1,0.9-0.2,1.3-0.2h0.4C263.5,334.1,265.4,336.2,265.4,338.8z"/>
	<path class="st1" d="M224.6,520.2c0.6,0.5,1.2,1,1.9,1.5"/>
</g>
<g id="Слой_8">
	<polygon class="st1" points="366.4,721.4 370.5,748.2 384.7,754.6 413.6,729.8 422,735.4 431.2,730.1 430,728.7 421.9,733.5 
		413.6,726.3 395,741.1 383.6,749.8 384.3,727.1 369.1,718.1 	"/>
	<path class="st0" d="M314.5,546.2l5.1,193.4c0.3,11.5,0.2,22.3,1.8,33.7l0,0c0,0,5-4.8,13.2-19.5c2.6-4.6-4.2-199.7-4.2-199.7
		l-2.5-1.9l2.2-7.6l0.1-6.2c-1.6,0.8-3.4,1.3-5.2,1.4c-2.2-0.1-10.5-1.9-10.5-1.9V546.2z"/>
	<path class="st0" d="M209.1,706.4l-0.3,75.7c0,0-5.1,8.5-22.1,7.8v-81.3C186.8,708.7,198.3,710.6,209.1,706.4z"/>
	<path class="st0" d="M135.9,681.2l5.5,95.7l-18,1.7L119.9,677c0,0,16-2.3,18.2-5.9S135.4,673,135.9,681.2z"/>
	<path class="st0" d="M207,541.6l0.6,135.4c0,0-3.8-18.2-14.1-28.9c-7.7-9.4-11.7,8.5-10.4-15c2.2-38.2,1-121.8,1-121.8
		s25.8,13.8,27.7,17.4C211.8,528.7,207,536.8,207,541.6z"/>
	<path class="st14" d="M141.4,539l2.5,122.8l2.1,3l1.7,0.3c4-4.3,8.5-8,13.4-11.2l-2-102.2l2-0.6l-0.6-21L141.4,539z"/>
	<path class="st3" d="M451.2,710.4l1.1-64.9c0,0,0.4-11.6-7.5-11.3c0,0,4.6-2,6.6,2.1c1.3,2.6,2,5.4,2.2,8.3l1.4-0.3
		c0,0-0.5-10.9-6.4-12.2c0,0,7.3-1,7.3,11h2.8c0,0-0.1-13.2-9.3-13.2s-18.8,16.9-17.3,27.8c0,0,1-16.8,9.8-21.1
		c4-1.8,6.8,5.9,6.2,13.2s-1.5,60.5-1.5,60.5l1.2,0.1l1.8-63.9c0,0,0.6-11-6.9-11c0,0,4.8-1.7,6.9,3.1s1.3,16,1.3,16l-1.6,55
		L451.2,710.4z"/>
	<polygon class="st3" points="453.6,710.7 455,649 453,648.2 452.2,709.6 	"/>
	<polygon class="st3" points="457.5,710.3 458.4,663.2 467.1,656.8 458.8,661 458.8,651.8 467,645.5 458.8,650.2 458.8,647.7 
		455.8,647.1 455.8,709.6 	"/>
	<polyline class="st3" points="421.8,672.1 421.8,733.5 413.8,726.3 413.8,668.9 422,671.9 	"/>
	<polygon class="st3" points="417.7,670.9 422,673.2 431.2,667 422,671.8 	"/>
	<polygon class="st3" points="417.7,682 422,684.2 431.2,678 422,682.9 	"/>
	<polyline class="st3" points="384.4,548 384.7,727.1 369.1,718.1 367.3,541.3 384.4,548 	"/>
	<path class="st3" d="M334.6,546.7c0,0,4.1-5.3,9.8-2.1c4.5,2.6,4.4,10.9,4.2,14.1c-0.1,1.2-0.1,2.3-0.1,3.5l1.1,98.8h-2l-0.3-99.3
		c0-0.8,0-1.6,0-2.4C347.4,555.3,347.3,539.6,334.6,546.7z"/>
	<path class="st15" d="M424.9,605c8.3,4.1,13.8,2.1,19.6-0.8c5.2-2.6,4.3-9.1,3.1-12.5s-3.1,0.6-7.1,1.8c-3.9,1.1-7.9,1.6-11.9,1.4
		C426.3,594.6,418.3,600.5,424.9,605z"/>
	<path class="st15" d="M73.6,558.1c0,0-2,10.7,1.5,14.1s4.8,4.1,13.3,1.8s11.3-2.1,5.8,2.3s-17.4,7.2-22,3.1s-3.8-10-3.1-13.6
		S73.8,556.8,73.6,558.1z"/>
	<path class="st15" d="M32.3,642.5c0,0-17.4-0.8-19.1-7.5s1.2-15.6,7.2-22.8s17.5-16.5,17.8-14.2s-4.6,8.3-8.6,12.2
		s-8.7,4.6-8.7,10.7s2.1,10,6.6,12.2S36,643.5,32.3,642.5z"/>
	<path class="st15" d="M82.8,599.9c0,0-3.7,8.7,5.7,9.3s14.2-1.1,22.5,5.7s16.4,8.6,17.8,6.1s-8.3-22.2-18.5-29.6
		s-11.8-5.7-11.8-5.7s-1.7-0.5-1.2,2.3s0.3,6.1-1.2,7.8S84.9,601.4,82.8,599.9z"/>
	<path class="st15" d="M72.8,591.4c0,0-12.6,19.3-14,29.8s-1.1,23.2,8,29.6s19.3,8,32.4,7.8s28.5-1.8,31.2-8.7s-6.4-25-4.1-26.6
		s11.9,20.9,14.7,31.9s-5.4,11-20.4,11.9s-56.3,0.9-73.8-10.8s-11.9-22.5-2.8-36S68.9,594,72.8,591.4z"/>
	<path class="st0" d="M40.5,521.6l14.3,4.9l0.1,1.9l-14.4-7l2.7,73.7l-7.7,3.4L29.7,489c0,0-1.6-3.5,3.1-2.6l4.6,0.9l3.7-1.2
		l-1.3,10.2l0.8,2.7l-4.9,3.6l1.5,4l0.9,0.7l1.2,1.3l0.6,14"/>
	<polygon class="st3" points="126.3,553.1 143,560.7 161.3,551.2 143.2,558 	"/>
	<polygon class="st3" points="125.3,535.7 142.1,543.2 160.3,533.7 142.3,540.6 	"/>
	<path class="st3" d="M99.2,503.7c0,0-4.7-6.7-8.3-5.9s-5,4.4-5.2,6.8s1.8,10.1,6.7,11.9c-3.4-2.7-5.1-7-4.6-11.2
		C88.7,498,94.4,497.3,99.2,503.7z"/>
	<path class="st3" d="M103.3,511.4c0,0,0.6,12.8-8.9,9.6c0,0,4,2.8,7.2-0.4s3.4-9.9,3.4-9.9L103.3,511.4z"/>
	<path class="st3" d="M421.8,483.7c0,0,4.7-6.7,8.3-5.9s5,4.4,5.2,6.8s-1.8,10.1-6.7,11.9c3.4-2.7,5.2-6.9,4.7-11.3
		C432.2,478,426.5,477.3,421.8,483.7z"/>
	<path class="st3" d="M417.6,491.4c0,0-0.6,12.8,8.9,9.6c0,0-4,2.8-7.2-0.4s-3.4-10-3.4-10L417.6,491.4z"/>
	<path class="st3" d="M70.5,472.9C55.1,477,54.1,503,54.1,503l3.5,1.4l1.3,0.6v3.8l-4.9,2.1l-15.7-4.5l0.5,0.2l15.2,5.9l5.5,88.7
		l2.1-1.7l-5.3-87.7l1.6-0.6l4.9,87.8l1.6-2.1c0,0-4.8-87.3-4.9-91c-0.5-7.6,1.3-15.2,5.3-21.6c8.3-13.8,22.5-10.2,28.7-7.8
		c-6.3-2.4-16.2-3.2-24.6,5.1c-10,9.9-8.3,25.6-8.3,25.6l5.2,88.2l1.3-1.8l-4.8-87.1c0,0-1.4-14.2,8.1-24.8c13-12.6,30,0.1,31.5,1.2
		c-1.3-0.9-15.8-10.1-27.4-2.5c-12.2,8-11.1,25.4-11.1,25.4l5.4,86.3l1.4-1c0,0-5.6-68.4-5.6-85c0-16.6,9.2-23.6,9.2-23.6
		c24-14.2,45.8,18.1,47,19.9C104.8,473.6,85.8,468.7,70.5,472.9z M57.4,503.1l-1.6-0.6c3.1-33.5,26.9-29.8,26.9-29.8
		C56.9,473.9,57.4,503.1,57.4,503.1z"/>
	<path class="st3" d="M519.6,510.4c0,0-1.3-9.3-6.8-12.8c-5.1-3.3-8.1-1.6-9.1-2.8s-0.5,1.5-4.1,3.8s-3.6,4.5-3.6,4.5
		s3.6-3.7,5.5-4.3c1.1-0.3,2-1,2.4-2.1c2.4-0.1,4.7,0.3,6.9,1.3c5.1,2.6,6.9,9.1,7.1,11.5c0.1,0.5,0.5,0.9,1,0.9L519.6,510.4z"/>
	<path class="st3" d="M495.5,510.8c0,0,3.6-6.2,9.3-6.5s8.7,6.7,9.1,11.1c0.4,4.5,0,11.9,0,11.9l-2.2,60.4l0.2,10.8l-0.2,1.7
		l-0.8-0.2l-1.3,0.8l-0.8-0.6l-1.4,1.2l-0.8-0.8l-1.7,1.5l-2.3-2.6l-2.5-0.2l1.7-81.1c0,0-0.8-3.2-3.1-3.5S495.3,514.9,495.5,510.8z
		"/>
	<polygon class="st3" points="456,487.5 455.6,610.5 457.1,611.7 457.9,488.2 	"/>
	<polygon class="st3" points="462.8,489.3 462.8,508.1 460.5,508.1 460.1,614.1 457.9,612.3 458.8,507.9 458.5,491.1 460.5,491.1 	
		"/>
	<path class="st16" d="M439,522.8c-3.2,1.2-5.3,4.4-5.2,7.8v45.9l-2.3,0.5c0,0-0.8-42.9,0-45.7S434.3,522.2,439,522.8z"/>
	<path class="st16" d="M419.8,586.6v-52.3c0,0,0.5-13.2,6.3-11.2c0,0-7.3-2.9-8.3,10.1v54.3L419.8,586.6z"/>
	<path class="st3" d="M406.8,595.1l0.8-46.7c0,0-0.5-10.3,4.6-11.5c0,0-5.8,0.1-6.7,10.7s0,47.5,0,47.5L406.8,595.1z"/>
	<polyline class="st17" points="366.6,523.8 367.3,541.3 384.4,548 384.1,528.7 366.6,523.4 	"/>
	<polygon class="st3" points="401.8,548.1 401.8,597.6 399.8,598.7 399.8,548.1 	"/>
	<path class="st3" d="M402.1,488.1c0,0,14.5-38.8,39.5-35.8c0,0,16.5,1.8,19.3,29.6l-1.6,2.5c0,0-1.8-42.3-33-27.8
		c0,0,27.2-15,32.3,28.3l-2.4,1.3c0,0,0.9-37.4-28.1-28.8c0,0,27.2-9.8,27,35.9s-0.7,117.1-0.7,117.1l-1.7-0.7l1-116.4
		c0,0,2.9-44.8-29.5-32.8c0,0,28.8-11.6,27.8,32.6s-0.6,116.1-0.6,116.1l-1.8-0.6L450,485c0,0-0.9-28.6-24.2-23.7
		C425.9,461.3,412.1,467.4,402.1,488.1z"/>
	<path class="st12" d="M386.1,515.6c0,0,2.1-18.7,7.7-30.9s3.1-9.5-3.8-8.6s-3.8-4.5-2-9.4s-10.7,7.6-11,22.3
		S385.3,520.8,386.1,515.6z"/>
	<path class="st12" d="M397.3,445.7c0,0-14.5,12.8-23.6,42c0,0-0.7,5.7-6.4,6.9s-29.4,5.5-32.5,7.3s-21.7,12.2-27-3.9
		c-5.3-16.1-4.5-21.6-4.2-26.4s-2.5-27.5,4.7-32.4s10.8-13.2,22-12.7s34.7,6.3,46.6,10S405.6,439.5,397.3,445.7z"/>
	<path class="st12" d="M223.8,471.8v30.3c0,0-21.4-7.8-30.2-19.4s-3.1-10.3-1.8-26.2s-23-24.4-38.6-24.4s-49.6,9.5-53,8.9
		s17.8-16.4,24.8-19.4s18.7-0.6,24.8,5c6.1,5.6,38,5.2,53,22.3s18.4,9.2,18.4,9.2S223.8,465.7,223.8,471.8z"/>
	<path class="st18" d="M137.3,418.8c0,0-5.7-10.8,1.2-21.4c5.8-8.7,12.1-17,18.8-25c1.6-1.6-2.1,13.3-7.1,19s-6.2,10.9-6,14
		S140.9,421.6,137.3,418.8"/>
	<path class="st12" d="M79.4,394.7l2.1,37.6c0,0,1.8,3.2,1.1,6c-0.4,2.2-0.3,4.5,0.1,6.7c0,0,7.9,0.5,13.6-2.3s34.2-15.2,37-16.8
		s5-0.9,3.4-10.6s0.7-12.6,2.8-15.8c1.4-2.3,2.5-4.8,3.2-7.4c0,0,2.1-5.6-18.4-2.7s-21,3-23.1-3.4S79.4,394.7,79.4,394.7"/>
	<path class="st2" d="M77.8,370.2c0,0,5.6-9.1,14.6-14.6s9.6-9.9,9.6-10.8s2.9,5.5,6.4,5.2s9.8-1.5,18.1,2.8s14.8,12.6,16.2,16
		c-10.5-4.3-22.1-4.9-33-1.8c-10.3,2.8-19.4,9.2-25.4,18c-4.4,6.5-5.8,13.1-7.9,12.8s-0.8-3.5-0.8-6.5c0.1-2.7,0.5-5.3,1-7.9
		c0,0,2.1-4.3,1.1-7.4S76.4,372.5,77.8,370.2z"/>
	<path class="st2" d="M334.8,362.4c0,0,1.8-8.1,13.6-15.1s17-3.1,20.7-4.8s6.6-4.1,6.7-5.6s1.4,3.1,2.8,5.3s17,9.5,22.6,15.5
		s14.7,17.9,15.7,21.9v4.9c0,0-0.2,22.8-1.7,19.9s-22.6-25.6-30.7-30s-12.7-7.2-18.6-8.3c-7-1.3-14.2-3.9-18.9-3.9
		C341.4,362.3,334.3,363.9,334.8,362.4z"/>
	<path class="st18" d="M303.5,426.5c0,0,28.9-6.7,32.7-12.7s0.5-16.7,4.7-22.6s13.8-1.7,13.8-1.7s1.2,0.3-1.8-4.7
		s-16.2-22.2-29.1-30l-4.6-3.4l-0.6,6.3c0,0,2,4.7-11,11.2s-16.4,6.1-16.4,6.1s10.4,10.1,11.4,17.5s1.9,18.2-3.4,25.4
		C299.2,417.8,304.9,420.4,303.5,426.5z"/>
	<path class="st18" d="M175.8,354.8c0,0-11.9,9.6-16.5,24.3s-1.4,21.6,8.3,21.6s14.2,19.7,32.6,28.9c0,0,20.1,9.2,21,1.6
		s0.8-3.6,0.8-3.6c-0.4-1.2-0.2-2.5,0.6-3.6c1.1-1.3,2.4-2.4,3.8-3.3c0,0-5.3-8.2-5.2-14.2s-0.8-11.2,4-18.8l4.6-7.6
		c0,0-37.1-1-49.6-12.3C180.2,367.9,174.7,364.8,175.8,354.8z"/>
	<path class="st19" d="M485.9,323.3c0,0-13.4,7.2-26.9,0.7s-21.8-14.3-30.6-13s-11.3,3.9-8.6-0.7s9.5-11.5,20.7-19.5
		c0,0,3.3-2.5,3.2,3s-0.3,5.8,2.9,5.7s4.1-3.4,7.1-7.4s7.7-2.5,12.3,0.3s20,11.1,23.2,25.8S485.9,323.3,485.9,323.3"/>
	<path class="st20" d="M465.3,292c0,0-8.8-3.3-8.8,1.1s-3.2,6.1-0.8,12.3s11.5,5.3,12.5,9.7s-5.8,12.8,2.5,12.8s19.5-5.3,18.5-9.7
		S484.1,302.3,465.3,292z"/>
	<path class="st19" d="M72.9,342.5c0,0-13.6,7.4-27.3,0.7s-22.2-14.6-31.1-13.3s-11.4,4-8.8-0.7s9.6-11.8,21.1-19.9
		c0,0,3.4-2.6,3.3,3.1s-0.3,5.9,3,5.8s4.2-3.4,7.2-7.5s7.9-2.6,12.5,0.3s20.3,11.3,23.5,26.3S72.9,342.5,72.9,342.5"/>
	<path class="st20" d="M52,310.5c0,0-8.9-3.4-8.9,1.1s-3.3,6.2-0.9,12.6s11.7,5.4,12.7,9.9s-5.9,13,2.5,13s19.8-5.4,18.8-9.9
		S71.1,321.1,52,310.5z"/>
	<path class="st19" d="M298.9,399.5c0,0-14.7,8-29.5,0.8c-14.8-7.2-24-15.8-33.7-14.4s-12.4,4.3-9.5-0.8s10.4-12.7,22.8-21.5
		c0,0,3.7-2.8,3.5,3.3s-0.3,6.4,3.2,6.3c3.5-0.2,4.6-3.7,7.8-8.1c3.2-4.4,8.5-2.8,13.5,0.3s22,12.2,25.5,28.5
		S298.8,399.5,298.9,399.5"/>
	<path class="st20" d="M276.2,364.9c0,0-9.6-3.7-9.6,1.2s-3.5,6.7-0.9,13.6s12.7,5.8,13.8,10.7s-6.4,14.1,2.8,14.1
		s21.4-5.8,20.3-10.7S296.9,376.4,276.2,364.9z"/>
	<path class="st15" d="M417.6,317c-1.1,5.5,2.1,11,7.5,12.8c9.6,3.6,10.3,6.4,20.4,5.3s21.2,2.4,30-1.8s12.6-11.9,13.2-12.4
		s2.4,11.8-1,15.8s-6.1,2.4-12.9,4.3s-18.2-0.1-19.7,2.9s-4.9,2.6-11.3,0s-9.9-3.9-16.7-4.9s-12.5-1.2-12.4-7.5
		S414.7,322.3,417.6,317z"/>
	<path class="st15" d="M5,336.7c-1.1,5.5,2.1,11,7.4,12.7c9.5,3.6,10.2,6.3,20.2,5.2s21.1,2.3,29.8-1.8s12.5-11.9,13.1-12.3
		s2.3,11.7-1,15.7s-6.1,2.3-12.8,4.3s-18-0.1-19.6,2.9s-4.8,2.6-11.2,0s-9.8-3.9-16.5-4.8s-12.4-1.2-12.3-7.5S2.1,341.9,5,336.7z"/>
	<path class="st15" d="M224.2,389.5c-1.2,6.1,2.3,12.2,8.3,14.1c10.6,4,11.3,7,22.5,5.8c11.2-1.2,23.4,2.6,33-2s13.9-13.2,14.5-13.6
		s2.6,13-1.1,17.5s-6.7,2.6-14.2,4.7s-20-0.1-21.7,3.2c-1.7,3.4-5.4,2.9-12.4,0c-7-2.9-10.9-4.3-18.4-5.4s-13.8-1.3-13.6-8.3
		S221,395.3,224.2,389.5z"/>
	<path class="st15" d="M169.1,187.7c0,0-1.5,17,20.8,20.3s21.7,1.5,37.6,3.7s11.6-3.1,30.9,1.5s38.3-0.3,45.3-5.8
		s12.3-18.5,13.3-21.5s3.2,4.3,3.2,12s-0.3,30.3-12.2,33.4s-8.3-2.2-23.3-2.5s-23.8,1.5-26.3-1.5c-2.5-3.1-2.5-6.1-11-0.6
		c-8.5,5.5-15,4.3-22.3-0.3s-11-10.1-21.4-6.4s-11.3,12.2-17.1,11s2.5,7.4-3.4,5.5s-20.8-16.5-17.5-36.1S169.1,187.7,169.1,187.7z"
		/>
	<path class="st21" d="M223,125.7c0,0-4.3,6.1-17.5,14.4s-28.2,30-29.4,31.8s-3.4,8,6.4,4.6s3.1,8.3,13.5,5.2s13.5,2.1,24.2,6.4
		s10.7-12.5,22-5.8s37.3,12.9,53.2,17.1s25.4-7,20.2-19s-19.6-33.1-49.3-49.3c-2.2-1.6-4.1-3.4-5.8-5.5c-2.6-3.2-8.9,1.8-7.8,9.2
		c1.1,7.3-17.6,9.8-20.7,0.3C229.1,125.7,225.1,123.2,223,125.7z"/>
	<path class="st20" d="M259.4,127.5c0,0,8.7,11.5,3.4,9.4c-5.3-2.1-4.8,3.2-3.4,10.3s7.3,3.2,19,16.8s16.9,23.2,27.8,23.6
		s10.8-7.1,5.3-15.3s-19.5-25.3-33.2-33.9s-10.6-5.7-13.6-8.7C261.6,126.9,256.8,123.8,259.4,127.5z"/>
	<polygon class="st3" points="369.7,524.4 384.4,530.6 396.8,523.8 384.1,528.7 	"/>
	<polygon class="st3" points="369.7,541.8 384.4,548 396.8,541.3 384.1,546.1 	"/>
	<path class="st13" d="M77.6,381.6c-0.5,1.4-1.1,2.8-1.9,4.1l0.6,9c0,0,0-7.7,0-8.7S77.4,383.3,77.6,381.6"/>
</g>
</svg>
