<?xml version="1.0" encoding="UTF-8"?><!DOCTYPE svg PUBLIC "-//W3C//DTD SVG 1.1//EN" "http://www.w3.org/Graphics/SVG/1.1/DTD/svg11.dtd"><svg xmlns="http://www.w3.org/2000/svg"><defs><style>.cls-1{fill:#c6c6c6}.cls-2{fill:#231b1f}.cls-3{fill:#e0e3e9}.cls-4{fill:#9d9a9b}.cls-5{fill:#37252b}.cls-6{fill:#40444b}.cls-7{fill:#171919}.cls-8{fill:#8d949e}.cls-9{fill:#1f1e20}.cls-10{fill:#f4b461}.cls-11{fill:#b4b4bb}.cls-12{fill:none;stroke:#000;stroke-miterlimit:10}.cls-13{fill:#2d2124}.cls-14{fill:#a3a6ac}.cls-15{fill:#a0a0a0}.cls-16{fill:#402e0c}.cls-16,.cls-20,.cls-21,.cls-22{opacity:.44}.cls-17{fill:#b2b7c0}.cls-18{fill:#a3a3a3}.cls-19{fill:#4f3740}.cls-20{fill:#c1aaa1}.cls-21{fill:#d5cfcd}.cls-22{fill:#d5c6c2}</style></defs><symbol id="clock" viewBox="0 0 60 60"><path d="M30 0C13.458 0 0 13.458 0 30s13.458 30 30 30 30-13.458 30-30S46.542 0 30 0zm0 58C14.561 58 2 45.439 2 30S14.561 2 30 2s28 12.561 28 28-12.561 28-28 28z"/><path d="M31 26.021V15.879a1 1 0 1 0-2 0v10.142a3.995 3.995 0 0 0-2.858 2.858H19a1 1 0 1 0 0 2h7.142c.447 1.72 2 3 3.858 3 2.206 0 4-1.794 4-4 0-1.859-1.28-3.411-3-3.858zm-1 5.858c-1.103 0-2-.897-2-2s.897-2 2-2 2 .897 2 2-.897 2-2 2zM30 9.879a1 1 0 0 0 1-1v-1a1 1 0 1 0-2 0v1a1 1 0 0 0 1 1zM30 49.879a1 1 0 0 0-1 1v1a1 1 0 1 0 2 0v-1a1 1 0 0 0-1-1zM52 28.879h-1a1 1 0 1 0 0 2h1a1 1 0 1 0 0-2zM9 28.879H8a1 1 0 1 0 0 2h1a1 1 0 1 0 0-2zM44.849 13.615l-.707.707a.999.999 0 1 0 1.414 1.414l.707-.707a.999.999 0 1 0-1.414-1.414zM14.444 44.021l-.707.707a.999.999 0 1 0 1.414 1.414l.707-.707a.999.999 0 1 0-1.414-1.414zM45.556 44.021a.999.999 0 1 0-1.414 1.414l.707.707a.997.997 0 0 0 1.414 0 .999.999 0 0 0 0-1.414l-.707-.707zM15.151 13.615a.999.999 0 1 0-1.414 1.414l.707.707a.997.997 0 0 0 1.414 0 .999.999 0 0 0 0-1.414l-.707-.707z"/></symbol><symbol id="hram-logo" viewBox="0 0 531.98 825.65"><title>проект (1)</title><g id="Слой_7" data-name="Слой 7"><path class="cls-2" d="M765.61 660.61v17.64l-10.1 6.34v16.66l-5.51 4.23h-8.26l-10.88 7.8-7.26 22 4.36 6L730 773s-6.43 14.92-20 14.92l-2.87.57-11.94 8.26-2.18-1.43-2 1.09s-1.38-1.43-1.38-1.26a10 10 0 0 1-1.55 1.26l-1.55-.57-1 .92-1.32-.63-15.65 10.69-4.74 6.43-17.6-10.41L619.93 827l-19 17.29-5.82 6-15.88 15.61-2.18 4.44c-14.81 19.53-24.31 26.79-47 35.35-15 5.66-57.42 11-83.76-11.94 0 0-12.65 16.53-57.18 3.21l-12.4-5s-34 10.1-65.71 1.84-38.5-22-38.5-22v-23s-22-1.84-23.87-15.15v-30.84l9.64 2.75" transform="translate(-237.21 -84.9)"/><path class="cls-3" d="M250.45 800.83l-5.22-79.44s4-11.4 3.33-19.66-8.2-136.16-8.2-136.16l9.68-15.8 49.77-46.58 70.37 16.58 135.63 71.28 59.28-43.64 94.6-44.21 64.85 27.65 22.25 24.79 18.82 21.45v12.7l-2.45 1.68-1.22 65.8 3.67 3.33-9.3 5.91-2-.93-.34 3.28 2.63 2.89-1.14.89-.11 5.39 2.87 2.18-7.22 4.69-1.11-.48-1 1-.86-.57-1.38 1-.8-.63-1.43 1.21-.92-.92-12.45 7.86-.34 33.59-3.21 1.22.46 13.16s4.13 8.42-7.8 13.93-13.31 4.59-13.31 4.59v1.68l2.75 3.21v4.13l-3.06.46-.61 18.66-11.36 7.84-1.57-1.45-1.57 1.26-1.65-1.49-1.78 1.38-1.3-1.26-1.49 1.22-1.34-1-3.18 2.3-9.69 6.08-1.07-.27-2.75 2 .08 9-8.49 5.47-5.77-6.29-12.43 9.87L618.93 837l2.52-11.25-17.22-20.2-25.1 26.25-7.4 6.91-2.17 2.18c-2.38 5.4-4.43 7.92-8.36 14.45l-.11.12c-2 2.2-4 4.45-6 6.72-4.31 5-18.76 18.45-50.28 20.51-29.49 1.93-58.76-15.63-58.76-15.63s-4.13 9.18-32.13 7.8-33.86-13.31-33.86-13.31-78.46 14.08-99.28-14.38c0 0-6-10.41-5.51-22.34.04.01-23.56-4.76-24.82-24z" transform="translate(-237.21 -84.9)"/><path class="cls-4" d="M518.3 587.76l1.14-.9-7.65 4.24h-.07l6.58-3.34z"/></g><g id="Слой_5" data-name="Слой 5"><path class="cls-5" d="M245.93 754h2.75s-.34-13.54-1.38-15.26-1.37 15.26-1.37 15.26z" transform="translate(-237.21 -84.9)"/><path class="cls-6" d="M286.87 784.44s2.07-4.44 2.83 7l.91 30-1.87-2.44-.3-7.19z" transform="translate(-237.21 -84.9)"/><path class="cls-2" d="M49.66 699.54l1.3 32.87-2.21.86 4.7 3.57-.17-4.39-1.24-.61-.41-9.51 1.37 1.03-.04-1.47-1.2-.94-.34-7.58 1.3.75-.04-1.26-1.45-1.21-.64-12.95-.45.18-.48.66z"/><path class="cls-2" d="M284.43 777.17c2.51.15 7 1.75 7.86 10.72l2.29-.4c.52-.39 0 .46 0 0 .23-5.77-3.69-11.56-8.37-11.94l-1.91 1a.34.34 0 0 0 .13.62z" transform="translate(-237.21 -84.9)"/><path class="cls-6" d="M259.83 763.09A4.86 4.86 0 0 1 264 760a4.28 4.28 0 0 1 4.85 3.13c.46 1.46 1.17 35.12 1.17 35.12s-6.08 2-6 1.68-2.16-3.06-2.24-3.75-1.82-33.31-1.82-33.31" transform="translate(-237.21 -84.9)"/><path class="cls-2" d="M269.46 767.23s.23-3.61-1.15-4.88l-.11 3.1-8 .28-.25-3.06a20 20 0 0 0-.48 4.68c.06 2.46 2.08 36.14 2.08 36.14h9.94zm-8.09 2.3h6.08l.35 11.94h-5.91zm1.43 25.71l-.51-11.94h6.08l.35 11.94z" transform="translate(-237.21 -84.9)"/><path class="cls-6" d="M406 812a4.86 4.86 0 0 1 4.16-3.13A4.28 4.28 0 0 1 415 812c.46 1.46 1.17 35.12 1.17 35.12s-6.08 2-6 1.68-2.16-3.06-2.24-3.75-1.82-33.31-1.82-33.31" transform="translate(-237.21 -84.9)"/><path class="cls-2" d="M415.62 816.12s.23-3.61-1.15-4.88l-.11 3.1-8 .28-.25-3.06a20 20 0 0 0-.48 4.68c.06 2.46 2.08 36.14 2.08 36.14h9.94zm-8.09 2.3h6.08l.35 11.94H408zm1.47 25.7l-.51-11.94h6.08l.35 11.94z" transform="translate(-237.21 -84.9)"/><path class="cls-6" d="M338 801.89a4.86 4.86 0 0 1 4.16-3.13 4.28 4.28 0 0 1 4.85 3.13c.46 1.46 1.17 35.12 1.17 35.12s-6.08 2-6 1.68-2.16-3.06-2.24-3.75-1.82-33.31-1.82-33.31" transform="translate(-237.21 -84.9)"/><path class="cls-2" d="M347.67 805.88s.23-3.54-1.15-4.81l-.11 3.14-8 .3-.25-3.05a18.21 18.21 0 0 0-.48 4.55c.06 2.46 2.08 36 2.08 36h9.94zm-8.09 2.12h6.08l.35 12h-5.91zm1.42 26l-.51-12h6.08l.35 12z" transform="translate(-237.21 -84.9)"/><path class="cls-6" d="M510.47 680.73a4.42 4.42 0 0 0-7.42 3.4c0 1.38 0 3.39-.11 6.2-.23 6.58 3.18 153.95 3.18 153.95l8.59-3.13-.92-47.84-2-39.15.72-22.36-1.2-21.72v-20.2l-.81-9.15" transform="translate(-237.21 -84.9)"/><path class="cls-2" d="M509.15 679.9a3.25 3.25 0 0 1 2.26 2.52c.31 2 3.3 158.75 3.3 158.75s3.68 3 4 4.24L521 847v1.68l2 .61v3.06s-19.33 2-23 .38l-.41-1.61 1.17-.61-.14-2 2.68-.61-.07-2 2.6-2.07.15-2.37 7.5-.77.15-13.7-7.92.37-.11-1.67s7.12.46 7.57-.84 0-12.7 0-12.7l-7.8.37v-1.91s7.46-.14 7.54-.91-.23-12.32-.23-12.32l-7.6.14v-1.38l7.86-.22-.31-12.85-7.84.31-.16-1.49 7.84-.42-.47-15.62-7.68.43v-1.85l7.8-.58-.46-13.39-7.66.46v-1.38l7-.84v-14.75l-7.45.49v-1.46l7.81-.57-.36-13.31-7.58.29v-1.09l7.46-.6-.29-14.7H503l-.08-1.28 7.65-.53-.31-11.13-7.35.29-.15-1.23 7.5-.85s.92-8.27-1.11-8.37z" transform="translate(-237.21 -84.9)"/><path class="cls-7" d="M675.25 732.58c-1 .89-1.46 6.12-1.46 6.12l-.69 58.7.69 1.26 6-3.79-1.52-2.87s-.11-6.31-.11-7.8-2.9-51.63-2.9-51.63" transform="translate(-237.21 -84.9)"/><path class="cls-8" d="M674.6 733.6s1.38-3 3.67-2.07 1.26 16.53 1.38 22.38-.46 40.05-.46 40.05l-4.59-2.18s.92-59.1 0-58.18z" transform="translate(-237.21 -84.9)"/><path class="cls-9" d="M498.63 581.33l-3.84 2.64v-4.87h1.48l2.38 2.15"/><path class="cls-9" d="M673.58 613.56s-1.51 1.37-1.51 6.3-.46 38.1-.46 38.1.06 2.75.52 2.87a3.06 3.06 0 0 1 .92.46l5.68-3.16a4.63 4.63 0 0 1-.72-2.35c0-1.26-2.05-16.76-2.07-16.64s0-17.73 0-17.73l-2.36-7.85M660.61 612.83s-1.15.88-1.49 5.47-.32 47.92-.32 47.92-.08 2.18 1.1 2 6.1-3.1 6.1-3.1v-1a4.74 4.74 0 0 1-.81-2c-.4-1.61.34-14 .34-14l-1.78-11.63v-18l-3.17-5.66M647.15 627.44a9.72 9.72 0 0 0-1.29 4.94c0 3.06-.05 41.43-.05 41.43s-.16 1.42.34 1.72a1.65 1.65 0 0 0 .71.31l6.15-3.48v-.84l-1.27-1.15-2.64-6.2.18-33.23s-.51-5.16-2.16-3.5" transform="translate(-237.21 -84.9)"/><path class="cls-4" d="M732.67 605.86s.57-2.75 2.75-3.21 2 3.56 1.84 6.89-1.49 56.7-1.49 56.7l-4.13-2.07zM673.41 613.82s1.22-2.07 2.75-2.22 2.3 1.38 2.3 4.9-.46 39.86-.46 39.86l-4.59-.61s.84-43.54 0-41.93zM660.48 613.21s1.3-2.37 2.83-2.22 2 1.22 2.07 6 0 46.29 0 46.29l-4.9-1.22s1.38-54.29 0-48.85zM647.09 627.44a3.78 3.78 0 0 1 3-2.68c2.3-.23 2 7 2.14 11.55s0 34.28 0 34.28l.07.92-5.19-2.22s1.36-43.99-.02-41.85z" transform="translate(-237.21 -84.9)"/></g><g id="крыша"><path class="cls-5" d="M251.78 705.83s-9.3 4.48-8.84 9.53.23 9.41 10.1 14.92 15.84 3.67 15.84 3.67-.71 8.25 15.23 17.67c15.53 9.18 32.06 10.79 56.39 9.87s34.89-5.49 34.89-5.49-9.18 20 9.18 29.15 47.08 10.33 61.76 6.2l-.06-15.78-23.6-19.11-39.33-6.72-3.24-4.74-104.18-37.68zM327.65 806h1.84s-.38-6.57 4.51-10.09a14.57 14.57 0 0 1 15.76-.49c4.13 2.68 5.84 7.21 5.76 7.52s1.48.25 1.48.25V801s.93-2.22-2.28-5.51a17.27 17.27 0 0 0-18.51-4.06 14 14 0 0 0-8.95 11.86 1.07 1.07 0 0 0 .61.83zM658.76 749.21l7.75-5.39s.55.46 2 0 3.26-.8 3.26-.8l2.09 1.61-14 9.3-11.24-3.44 1.38-3.21v-7.12L633 747v-9.41s3.64-1.26 4.44-3.56 6.3-31.56 26.73-37.3l14.51-1.84 3.7.69s6.32 0 10.34 1.49 13 6.43 13.66 24.56l3.68 2.75-13.66 8.15-6.89-2.07.12-.92 1.15-.57 1.26.46 1.26-1.15 2.07.87 7.35-4.19h1.38l2.07-1.27s-1.26-7.86-2.18-11.08-4.36-12.2-12.4-12.77-6.11 1-8.32-1.74-.46 1-1.89 3-11.59 10.44-17.79 26.39-4.83 21.72-4.83 21.72zM636.72 632l2.72.69s.77-9.87 5.51-14.08 8.26-4.67 8.26-4.67a45.88 45.88 0 0 1 3.29-7.5c1.91-3.29 5.82-7.27 9.64-6.58s5.36 5 5.36 5 3.29-2.75 5.43-3.29 8 1.38 7.5 8.49l1.07-.46s.46-9-8-11.4a10.39 10.39 0 0 0-6.66 2.52 7.61 7.61 0 0 0-6.12-3.67c-4.21-.15-11.25 5-13.31 14.15-.03.02-14.11 3.15-14.69 20.8zM565.09 637.92l2.48 1.11s3.21-11.53 9.14-12.36c8.9-1.23 9.82 7.37 9.82 7.37l1.71-1h.15l.77-.41a13.62 13.62 0 0 0-13.39-9.73s-5.66.53-8.11 5zM522 680.81s-1.52-10.33-15.86-9.41-13.73 12.51-13.73 12.51l2.89 1.15s.82-9.84 11-10.79 14.49 9.41 14.49 9.41l1.18-.23zM342.49 595s-1.45-15.38-12.85-16.52c0 0-8.8.52-8.8 10.52h1.3s-1-7.3 5.43-8.26S339.35 590 339.74 595zM652.84 575s1.45-15.38 12.85-16.52c0 0 8.8.52 8.8 10.52h-1.3s1-7.3-5.43-8.26S656 570 655.59 575z" transform="translate(-237.21 -84.9)"/><path class="cls-5" d="M40.76 498.85l17.03 6.5v1.38l-4.33 1.68-17.6-5.97 4.9-3.59z"/><path class="cls-5" d="M664.92 481zM755.58 582.91c3 4.06 3.3 9.64 3.76 10.94a5 5 0 0 0 1.45 2.07s-4.59 2.75-6.12 3.59-1.45.39-2.37.16a.86.86 0 0 1-.69-1.07s6.81-3.21 6.89-4-.69-8-4.59-12.93-6.73-2.91-9.87-3.68-3.52-5-3.52-3.75-1.24 3.83-2.46 5.67a46.11 46.11 0 0 1-5.06 5.29v-8.57l-2.34-.92 1.34-14.38V547.1c-5 5-19 6.89-19 6.89v-.92l-3.08.16 1 8.72 4.17 4.43-15.29 8.11-6.42-1.84.36-1.84 16.26-7.64v-4.89c-1-4.48-1.81-8.66-3-12.53a65.83 65.83 0 0 0-3.56-9c-.53-1.12-1.15-2.2-1.74-3.26-.5-.9-1.06-1.77-1.61-2.62-.22-.35-.46-.69-.7-1s-.43-.83-.65-1.13c-.65-.91-1.37-1.69-2.12-2.69s0 .16 0 .15a28.91 28.91 0 0 0-3.31-2.29c-.06 0-.11.14-.17.14-1.47-1-3-2-4.58-2h-.13v-.12c0-.02 0 0 0 0-.72-.23-1.44-.55-2.17-.72s0-.05 0-.05h-7.57c-.41 0-.82-.27-1.21-.27a8.55 8.55 0 0 1-3.8-.92l-.32-.18a7.22 7.22 0 0 1-2.32-2.14v-.07a28 28 0 0 1-1.49-2.73c0-.06-.07 0-.1-.06a.26.26 0 0 0-.11-.07v.48h-.32c-.24 0-.46.51-.9 1.91v-.06c-.14.43-.28.82-.47 1.38-.06.17-.13.33-.18.53-.19.61-.63 1.26-.88 2h-.23v2.38a3.62 3.62 0 0 1-.33.32c-.88.83-2 1.45-2.87 2.45s.21-.27.21-.19-.12 0-.13 0h-.07s-.06 0-.07.06v-.06c-.07.13-.15.09-.21.09s-.13.11-.19.11 0 .12 0 .14v-.14-.11s-.06.17-.09.21c-.74.7-1.56 1.53-2.44 2.29v.06l-2.52 2.2c-1.57 1.37-3.26 2.89-5 4.61a73.83 73.83 0 0 0-7.66 8.73c-9.8 13.17-15.31 31.53-18.36 41.63a47.77 47.77 0 0 0-2.14 17.76l6.43-4.29 8.87 4-16.83 8-19.9-6.11s-4-1.53.62-3.07 6.12-19 6.12-19l-14.08 3.06c-14.08 3.06-28.15 14.08-30.3 19.58s1.84 13.17 3.37 15.92-8.1 3.06-8.1 3.06l-8.1-.92v7.34a73.15 73.15 0 0 1-36.1 16.59c-22 3.37-47.33-.25-63.25-9.43s-3.55-24.7-3.55-24.7l31.28-111.3s83.54-41.63 91-54.86 22.33-20.66 28.69-23.18a65 65 0 0 1 14.76-3.37 66.35 66.35 0 0 1 6.66-3.06c1.46-.39 3.6-.62 4.36 2.21s2.15 3.44 2.15 3.44a87.87 87.87 0 0 1 23.21 17.09 49.28 49.28 0 0 1 5.93 7.13l-.15 2.75 3.42 23.37v.09l1.05 5.63a10.35 10.35 0 0 0 3 1.83v.43c1 .12.36.27.58.41l.37.26v.18s.25.05.37.14c.5.28 1 .18 1.6 1.18 4.14 3 10 6.35 16.77 10.89.06 0 .12.11.18.11v.34c1 .2.63.41.93.62l.05.06.53.33.1.06 1 .66c.16.1.32.25.48.36.73.5 1.49.52 2.23 1.52.2 0 .39.23.6.36 1.23.83 2.48 1.63 3.74 2.46l.22.14.9.59a1.08 1.08 0 0 0 .2.06c.07 0 0 0 0 .06 5.27 3.49 11 7 16 10.4 1 .68 2.1 1.35 3.14 2l.24.09c.53.34 1 .68 1.54 1h.15l.61.41 1.27.81c.85.53 1.67 1.19 2.5 1.73l.13.09a7.28 7.28 0 0 1 2.19 1.51s.06.13.09.13c.67 0 1.09.42 2.09.79v.52h-.14a.35.35 0 0 1 .25 0l.22.11c24.49 14.85 33.21 41.77 33.21 41.77s8.34 8.94 9 10.17a2.73 2.73 0 0 1 0 3.21c-.69.76-9.18 5.51-10.71 5.89a2.78 2.78 0 0 1-2.1-.24z" transform="translate(-237.21 -84.9)"/><path class="cls-5" d="M496.45 606.61l-30.06 19.8s-36.37-29-52.67-33.16-26.86-6.43-26.86-6.43l5.28 19.05 5.74 9.18-19.05 8.84-19.05-7.15 4.59-2.84 12.17 2.84s-2.07-30.74-25.94-56.5c0 0-6.89-8.35-14.12-12.4s-11.94-10.72-12.85-14.16-3.32 3.18-3.32 3.18a7 7 0 0 1-4.07 2.41 9.19 9.19 0 0 1-2.92.18.9.9 0 0 0 0-.15c-.35 0-.72-.3-1.1-.3s-.08.15-.13.14c-2.89-.53-10.72.4-18.2 6.31v.06c-.52.41-1 .86-1.56 1.33a34.6 34.6 0 0 0-3.21 3.31 38 38 0 0 0-2.84 3.79 44.22 44.22 0 0 0-4.15 8.07 68.11 68.11 0 0 0-4.31 20.6s-.92 1.07 0-4.52 1.15-7.35 1.15-7.35l-5.13 1.68a7.6 7.6 0 0 0-4.51-1.15c-3.07 0-2.38 1.84-2.38 2.61s-24.52-.27-28.77-9.91a11.13 11.13 0 0 1 0-8.84c2.07-4.71 8.83-8.72 8.83-8.72h.13l.61-.18 4-1.17 3.66-1.07.94-.28 1.61-.47 1-1.84 1.26-2.35 1.07-2 .27-.51.76-1.41.18-.35 1-1.9 13.88-26 .08-.16.75-1.4.46-.86 2-3.67.33-.79 3-5.68.59-1.09 1.27-2.38 5.12-9.59.75-1.4.11-.21.61-2.84.53-2.52.88-4.13.18-.84.47-2.2 2.35-11.12v-.28l.19-.91 13.43-11.13c5-4.17 9.75-8.07 10.56-8.72 1.84-1.5 8.57-7.21 8.57-8.59 0-.9 3.12.14 5.3 1a32.17 32.17 0 0 0 4.89 1.42c3.5.73 9.34 2 12 2.7 4 1.07 18.36 7.2 23.56 15.15s3.83 7 5.89 7.73 11.32 5.28 11.32 5.28L449.15 475l43.24 22-8.29 30.73z" transform="translate(-237.21 -84.9)"/></g><g id="Слой_6" data-name="Слой 6"><path class="cls-10" d="M284.26 679.08l1.15 24.68L273 729.91S255.69 732 248.11 721s3.67-15.15 3.67-15.15a46 46 0 0 1 7.92-11.36c5.05-5.19 15.3-14.14 24.56-15.41zM336.31 667.8a15.67 15.67 0 0 1-12.21 5.8c-8.26.15-15-2.8-13.76-5.94 0 0-6.11-2.85-5.65-11.73s7.65-15.31 13.47-18.22l1.69-4.06a2.42 2.42 0 0 1 .68-4.06l-.37-5.43-2.52.53-.46-1.91 2.3-1.22-.31-11.17a2.39 2.39 0 0 1-1.15-2l-4.21-1.45s.77 2.45-.61 1.61a2 2 0 0 1-.34-1.61 10 10 0 0 1-1.72-2c-.5-.88 1.07-.54 1.68-.54 0 0-.5-1 0-1.26a.87.87 0 0 1 1.38.8 6.48 6.48 0 0 1-.23 1.26l4.03 1.5a4.81 4.81 0 0 1 .57-.8l.27-.27-.15-2.33-.73-.8-.69-.31s.46 1.72-.08 1.45-.88-.38-.77-1.45l-.57-.61s-1.3-1.11-.57-1.3a6.06 6.06 0 0 1 1.38-.19 1.4 1.4 0 0 1 .13-1.07c.31-.65 1.2.38 1.2.38v1.42l.54.15v-1.19s-1.4-.61-1-1.3a.86.86 0 0 1 1.12-.34 4.29 4.29 0 0 1-.21-1.26c0-.5.53-.92.95-.54a1.8 1.8 0 0 1 .46 1.22 3.21 3.21 0 0 1-.27.69s1 0 1.3.34.06 1.22-.35 1.19l-.68-.08-.15 1.45.34.8 1.53.23a2.26 2.26 0 0 1-.42-1.38.49.49 0 1 1 1 .23 1.61 1.61 0 0 0 .19 1.15s1.26 0 1.22.77-1.22.73-1.22.73a3.08 3.08 0 0 1 .08 1.15c-.11.34-.84.92-1.11 0s-.59-1.38-.73-1.34-.22.23-.22.23v2.37l.88 1.26 4.09 1.8s-.08-1.45.5-1.72 1.22.46 1.11 1.22l-.11.77s1.38.54 1.72 1.26-.5.73-1.11 1l-.61.31s.34 1.19-.19 1a1.75 1.75 0 0 1-1.07-1.42c0-.5-.27-.65-.61-.8s-3.18-1-3.18-1l-.84.73.5 10.29 2.22-1.34.77 1.8-2.45 2.1-.31.23.38 5.93s2.79 1.3.57 4.09l1.65 4.25s15.38 2.64 16.3 18a20.3 20.3 0 0 1-4.26 11.95z" transform="translate(-237.21 -84.9)"/><path class="cls-10" d="M380.1 745s-50.1 16-82.24 3.64-24.36-24.55-24.36-24.55S281.28 695 311.58 672h2.3l-.23 7.79s.92 5.85 7.8 4.7 12.17-5.68 12.85-8.44l-.23-4.22 1.15-1 .11-1.14a58.67 58.67 0 0 1 5.74 2.87c4.48 2.41 17.45 11.71 23.53 24.22s14.01 31.43 15.5 48.22zM446.09 786.59s-58.3 8.42-69.32-17.75a64.54 64.54 0 0 1 6.66-16.3C388 745 404.31 733 415.79 731.65l11.48-1.38s21.57 12.55 18.82 56.32zM673.25 644.91l2.63-1.19.8 1 1.72-3-1.84-2-.66 1.73-2.9 1.25v-1.49l1.26-1.5.6.3.56-1.66-2-1.55-.81 1.43.49-1.66-1.1-1.3-1.21 1.61.21 1.12-.86 1.09-.29-1a1.67 1.67 0 0 0-.57 1.66l-1.26 1.49 1.49.11s-.29 1.21.69 1.49l.23-1.21.46-.29.17 2-3.5 1.84-.63-.69s-.69.57-.52 1.21l-1.55 1.89 1.72.34s-.34 1.26.29 1.61l.86-1.72 2.75-1.43s.4.52.52.69-.11 6.48-.11 6.48l-2.07.4.06 1.15 1.78.69.06 7.29a1.52 1.52 0 0 0-.23 2.35L669 668s-10.16 3-10.85 13.49a10.5 10.5 0 0 0 3.27 8.15s-1.55 1.78.92 3.44 5 2.93 11.25 2.81 9.12-4.13 8.72-5.39l-.52-.34s4.3-3.67 4.13-8.84c0 0 .11-10.62-11.88-13.31l-1.15-2.42a1.52 1.52 0 0 0-.11-2.5v-6.58l1.91.38.46-1.38-2.07-1.22z" transform="translate(-237.21 -84.9)"/></g><g id="большая_башня" data-name="большая башня"><path class="cls-3" d="M557.85 422.34c-.34 5.17-1.85 6.89-1.85 6.89V436c0 11.13-2.62 17.45-39.12 25.25s-77.86 2.07-93-4.82c-14.84-6.75-11.81-15.91-11.68-16.29h-.2v-6.74s.13 0-1.55-4.44-.31-10.1-.31-10.1c-1.38-3.06.07-9.64.07-9.64l-1.5-49.22.75-2-.34-10.1-1.71-3c-1.5-8.49 1.72-10.79 1.72-10.79l.35-1.49-.72-1.86c.45.4 16.63 14.49 79.46 12.07 0 0 52.82-2.57 67.78-15.52l-1.46 2.43.46 1.38s2 2.09 1.16 10.68l-1.73 3.32.23 8.82 1.38 2.19.58 49.23s2.68 5.17.28 9.18a18.75 18.75 0 0 1 .95 7.8z" transform="translate(-237.21 -84.9)"/><path class="cls-11" d="M410.89 349.54s12.4 13.19 57.08 13.25 79.71-8.14 85.08-16.74c0 0-9.94 11.17-59.21 15.06s-72.39-3.61-82.95-11.57zM412 334.39s14.67 15.61 87.2 10.71c0 0 48-5 53.86-14.35 0 0-11 9.91-58.6 13.28-.01-.03-57.81 5.36-82.46-9.64zM414.45 435.7s4.4 6.89 32.56 11.32 64.73 2 83.25-3.67 26.47-14.12 26.47-14.12-17.91 19.17-74.07 19-68.21-12.53-68.21-12.53z" transform="translate(-237.21 -84.9)"/><path class="cls-11" d="M412.27 421.54s4 11.25 43 14.61 61.63-1.68 76.49-4.74 21.24-9.87 21.24-9.87-6.91 9.78-54.85 14-82.21-6.54-85.92-14" transform="translate(-237.21 -84.9)"/><path class="cls-2" d="M412.27 421.54s-3.06 11.55 26.93 16.6 63.81 5.2 88-1.38 30-12.92 28.62-20.23 1.62-1.08 1.62-1.08 4.66 9.22-7.28 15.49-45 17.29-88.14 12.85-46.06-10.72-48.82-13.25a11.25 11.25 0 0 1-3.3-8.54 7.37 7.37 0 0 1 1-3.21s-.54.61 1.37 2.75z" transform="translate(-237.21 -84.9)"/><path class="cls-6" d="M532.63 420l-.86-47s.81-4.45 3.56-5.83 3.67 16.15 3.67 16.15v29.27s-.29 6.6-.55 7.46-5.67 0-5.67 0M497 376.44s3.84-5.63 8.09-2.3 2.38 12.69 2.38 12.69l.41 15.78-.32 12.91.63 13-10.92 2.07zM461.24 429l-2.3-53s3.28-3.46 7.18-1 3.44 6.63 3.56 12.82 1.2 41.18 1.2 41.18zM431 370.43l-2.37 19.36v1.68l1.35 24 2.1 10.6 3.9-1.82-1.75-47a10.35 10.35 0 0 0-1.74-5.46 3.09 3.09 0 0 0-1.48-1.35" transform="translate(-237.21 -84.9)"/><path class="cls-2" d="M431.4 371.27v5.51l2.75.52v1.32h-2.75l.38 13.16 3.1 1.33.07 1.39-3-.3.63 12.94 2.8 1.31.13 2-2.8-.9.1 12a3.18 3.18 0 0 0 1.18 1.72 14.19 14.19 0 0 0 2 .95v2.12s.08 2 3.14 1.38c0 0 3.9 1.45 16.45 2.75a3.35 3.35 0 0 0 2.3.92l1-.46 1.68-2.22-1.62-15.15-.37-36.29a3 3 0 0 1 2.51-2.81 3.18 3.18 0 0 0-1 1.52l.23 5.19 9.1.37.14 1.72s-9-.23-9-.32-.17.2-.17.2l.43 13.77 9 .37.17 1.78-9.15-.32.57 13.72 8.94.26.1 2.15-9-.23s.14 12.8.52 13.17 8.67.34 8.67.34l.37 4s26.18-.76 26.71-1.9-1-2.6-1-2.6l9.18-.15 1.07-.46-.54-13.7-8.72 1.07v-1.91l8.91-1.15V397.9l-8.8.23.15-1.45 8.42-.69-.38-14-9 .54.15-2.07 9.18-.77s.54-8-6-6.27c0 0 4.94-1.65 6.58 1.49s1.24 17.18 1.24 17.18v13.47l.55 13.24 1.3 10.77s-.5.92 3.71 0 18.52-4.13 18.52-4.13l.53-.26.29-1.21-.32-3.93s2.18.11 2.35-1.15-.34-11.65-.34-11.65l-2.34.74v-2.35l2-.63-.06-12.34-2.21.89-.06-3.07a17.39 17.39 0 0 0 2.67-.87v-1.19l-.11-12.09-2.8.51v-2l3.07-1s.57-5.07-.86-5.18a1.88 1.88 0 0 1 1.18-1.42c1-.29 1.81 2.1 1.81 2.1v9.26l2.75 16.11v9.6l.29 10.9 1 6.77s-.06 1 3-.52 10.62-6.85 11.76-10.65.4-5.64.4-5.64 1.3-.29 1.83 5.51-6.65 10.1-15.2 14.06-32.94 10.79-72 9.64-53.27-10.38-56.41-12.61-4.94-4-4.94-6.31a14.78 14.78 0 0 1 .35-3.6s-.07 3.91 1.9 3.6a12.9 12.9 0 0 0 2.68-.61l.31 4.59s0-.27.84.38 11.67 5.62 11.67 5.62l3.6-2.37-2.34-20.39.19-13.58-.65-12.28.27-5.93 3.06-.42a2.68 2.68 0 0 1 .73.86c.12.36-.18-.52-.72-.06z" transform="translate(-237.21 -84.9)"/><path class="cls-4" d="M554.59 357.31s-1.45.28-1.53 9.61.54 45.14.54 45.14l2.22-1.22s-.06-54.65-1.23-53.53zM535.38 367.25s.77.33.84 2.1.84 51 .84 51l4.28 2.14-.75-50.13a7.83 7.83 0 0 0-.59-3c-.65-1.47-2-3.18-4.62-2.11zM510 429.57L508.64 378a4.14 4.14 0 0 0-2.18-3.9 9.51 9.51 0 0 1 .86 3.56c.11 2.12.92 50.1.92 50.1zM459.1 375.71s-2 .08-1.76 10.18 1.53 45.11 1.53 45.11l1.68-1.92s-2.04-50.38-1.45-53.37zM412.28 366.28s-.51-5-1.6-5.16-.34 12.34-.34 12.34l1.95 42 2.17-.46-2.17-48.72M431.4 423.49l-1.49-50.15s-.18-2.78 1.49-2.87c0 0-4-2.58-5.34 1.55s1.21 53.43 1.21 53.43z" transform="translate(-237.21 -84.9)"/><path class="cls-2" d="M551.07 366s-.46-13.09 2.75-12.86l.77 2.22s-1.86 1.64-1.78 10.64zM528.11 374.56s.46-9.33 6.58-11.4 8 5.13 8 8l-.77.23s.84-7.5-6.5-6.43c0 0-4.9 1.84-4.9 9.18zM492.38 380s.38-9.22 8.72-10.68 10.94 5.64 11 7.78l-1.38.56s-.92-7.52-9.41-6.45a9.49 9.49 0 0 0-6.43 8.78zM454.12 379.88a7.35 7.35 0 0 1 .38-4.55c1-2.83 4.09-5.89 9.45-5.47a10.81 10.81 0 0 1 9.79 10l-2.22.34s-1.48-7.79-8-8.07-8.49 4.9-8.3 7.69zM423.25 373.8a9.86 9.86 0 0 1 1.38-5.74c1.72-2.81 3.56-3.1 6.25-2.35s7.29 6 6.89 11.3l-2.18.29s-.57-8-6.31-9.53-5.45 6.2-5.45 6.2zM412.29 369s.4-8.3-1.84-9.62c0 0-1.49-.94-1.21 3.08 0 0-.86-3 .57-4.34s.92-1.88 1.89-.89 3 4.77 3.27 11.77zM409.13 334.09s-1 10.56 13.7 14.23 38.26 9.33 79.57 5 54.21-12.74 51.46-21.69c0 0 .1-2.36 1.71.49s3.68 11.11-18.13 17.3-59.68 9.87-89.52 6.66-42.29-10.31-40.72-17.85 1.24-4.07 1.93-4.19" transform="translate(-237.21 -84.9)"/><path class="cls-12" d="M243.8 93.84l-.29-.16"/><path class="cls-10" d="M556.77 319s2.95 4.54-.76 8.34c-15 12.95-67.78 15.52-67.78 15.52-62.83 2.41-79-11.67-79.46-12.07-4-3.53-1.38-8.26-1.38-8.26-2.6-4.43 2.15-7.94 2.15-7.94s-13.16-14.07-4-41.31 28.79-41.74 43.79-52.45a58.05 58.05 0 0 0 20.1-25.83l2.95-18a9.56 9.56 0 0 0 8.35 1.63 9.4 9.4 0 0 0 3.54-1.84l3.94 17.33s3 14.06 18.71 23.64S544.26 243 555 269.7c9.55 23.75-2.39 40.74-2.39 40.74s6.39 3.9 4.16 8.56z" transform="translate(-237.21 -84.9)"/><path class="cls-5" d="M489.24 529.76C368 538 373.56 493.39 373.56 493.39s12.17-24.1 18.71-33.86 17-16.64 17-16.64l3.31-2.75c-.13.38-3.35 9.54 11.49 16.29 15.15 6.89 56.7 12.62 93.19 4.82s39.24-14.12 39.48-25.25l4 3.57s10.77 7.3 18.46 16.18c8.15 9.41 23.62 31.23 23.62 31.23s8.54 42.14-113.58 42.78z" transform="translate(-237.21 -84.9)"/><path class="cls-10" d="M487.76 169.36a9.54 9.54 0 0 1-3.49 7.38 9.4 9.4 0 0 1-3.54 1.84 9.55 9.55 0 0 1-5.14-18.4 9.43 9.43 0 0 1 2.62-.37 7.64 7.64 0 0 1 .8 0 9.54 9.54 0 0 1 8.75 9.55z" transform="translate(-237.21 -84.9)"/><path class="cls-10" d="M477.12 84.9s-1.51 1.52-.44 3.05l.13.91-1.55.3-.87-.73-1.56 1.87 1.3 2 .94-.27a.69.69 0 0 1 .44.65v3.5a11.58 11.58 0 0 1-.73 1.78h-2.07s-2.26-3-4.36 0c0 0-.8-.2 0 .6s1.75 2.73 4.34.74l2.15-.14s.43-.33.43.62.11 6.89.11 6.89l-1.63-3.67 1.05 3.93-3-2.91 2.58 3.65-3.94-2 3.27 2.85-.23.28-8.84-1.15a1.64 1.64 0 0 0 .29-1.55 10.51 10.51 0 0 0-1.64-2.7s-1.81 1.92-1.23 3.47a4 4 0 0 0-1.26.69 2.6 2.6 0 0 0-2.93 1s.61 2.58 2.83 2.58a2.85 2.85 0 0 0 1.8 1.49 3.18 3.18 0 0 0 .92 3.25 3.46 3.46 0 0 0 .88-3.29s.5-.57.5-.73l8.34 1h.34l.08 1-1.84 1.72 2.07-1 .38.42s-1.49 3-1.45 3.21l2.1-2.52.34.08L474 119l1-1.72v22.61s-1.2 1.09-.68 3.73l-1.11.48s-2.7-.54-2.39 1.91 2.28 2.52 3.12.84l1.06-.61v13.85l2.31.38 1.69-.92v-16s2.65 0 3.06-1.32l2.39-1.21a1.3 1.3 0 0 0 1.41-1.15c.19-1.26-.09-2.91-1.73-2.37 0 0-.73.38-.81.65l-1.82 1s-1.06-.23-1.37.15l-.19-22 .65 2.22-.73-3.29 2.18 2.75-1.45-3.4 3.21 1.49-2.8-2.69.27-.27 7.84.57a4 4 0 0 0 1.45 1.34 3.62 3.62 0 0 0 1.38 3.75s1.57-1 1.19-3.9c0 0 1.72-.08 3.1-2.37a6 6 0 0 0-3.29-3s.5-1.8-1.57-3.44c0 0-1.87 1.61-1.19 3.25l-.61.73-8.19-1v-.65l1.91-1.72-2.33.84-.46-.42 1.76-2.6-2.26 1.85.8-3.29-1.26 1.65v-5.16s0-.66.61-.2a2.65 2.65 0 0 0 1.45.68h.34v1s-1.19 0-1.11.5 1.3 1.46 1.53 2.34 0-.84 1.26-1.53-1.54-1.61-1.54-1.61v-1.26s1.67.23 2.13-.23c0 0 .18 1.09 1 .86s.65-.63 1.31-1.26.17-1.09-.41-1.89-1.29-1.18-1.55-.6-.7-.32-1-.63-.94-.11-.94-.11l.09-.8s1.44.34 1.32-.86-1.35-1.66-1.61-2.47 0 .55-.54 1-1.46 2-.52 2.24l.57.14-.2.86h-1.72l-.77-1.18.14-2.75s.29-.55 1.15 0l1.35-1.41-1.64-2.21-.83.23-1.75-.43.17-.92s.96-1.38-.71-3.14z" transform="translate(-237.21 -84.9)"/><path class="cls-13" d="M322.89 532.5l14.19-4.33s1.91-.67 5.42 6.08 25.51 13.12 39.51 44c0 0 4.6 7.58 4.87 8.54s32-24.18 64.14-4.2-8.35-8.59-8.35-20.59-11.94-32.11-11.94-32.11-18.69-16-57.21-18.29-50.63 20.9-50.63 20.9" transform="translate(-237.21 -84.9)"/></g><g id="_3_башни" data-name="3 башни"><path class="cls-3" d="M318.36 532.18l.4-2.75v-.06l.48-1.84L318 523h-.28.06l.22-2.64v-1.63l-.26-.47-.13-.17.2-.06.19-.17-.3-.42-.14-.07.26-.95.19-1.72-1-5.48V509l-.17-.77-1.83-21V484.76l-.14-.38-.86-9.08-.11-.41-.51-4a14.15 14.15 0 0 0 1.56-5.2c0-.44.06-.86.06-1.26V461h-.19c-.06-.25-.58-1.87-.82-3.14a18.07 18.07 0 0 1 .29-4.51v-.06-.11a.41.41 0 0 0 0-.1l-17.35 2.87v.13l-13.3 2.23-43.13 2.14s-.43 0-.43.05.37.1.36.17H240c0 .82.36 2.89 1.26 3.54 0 0 .2.06.25.09h.07a2.08 2.08 0 0 1 .51.31h.08l.07.12a1.34 1.34 0 0 1-.13 1.35l-.11 4.52-.08.2s.06 0 .06.06a6.41 6.41 0 0 0 2 4.88l.15 5.22v.18l.55 11.33v.36l1.24 26v.25l-1.35 1.92-1.2 2.15c0 .11.35 1 .71 2.06a2.38 2.38 0 0 1 .13.27c0 .06 0 .14.07.2.39 1.08.9 2.22 1.14 2.76.14.31.59.75.59 1.25v.28a17.5 17.5 0 0 0 .41 2.87l.28 1.19v.06l.88 2.32-1.58 1.32.47 6.39s-.47.29.53.77a5.22 5.22 0 0 0 .31 1.43 7.59 7.59 0 0 1 .34 3.53l-.44 2.19s3.09 9.09 22.62 10.46a60.42 60.42 0 0 0 12.25-.54 44.19 44.19 0 0 1 4.14-8.07 37.94 37.94 0 0 1 2.83-3.78 34.46 34.46 0 0 1 3.21-3.31c.52-.47 1-.9 1.56-1.31 7.47-5.9 15.31-6.91 18.2-6.38 0 0 .08-.14.13-.14.39 0 .75.28 1.1.3a.26.26 0 0 1 0 .07 9.27 9.27 0 0 0 2.92-.15 7 7 0 0 0 4.07-2.4z" transform="translate(-237.21 -84.9)"/><path class="cls-14" d="M244.27 466.16s6.76 7.63 36.67 5.65c0 0 24.53-1 30.51-10.53 0 0-5.48 9.06-36 10 .01-.04-20.45 2.26-31.18-5.12zM244.74 476.29s4.73 6.89 32.22 6.35a81.89 81.89 0 0 0 18.57-2.42c6.79-1.73 14.55-4.65 17-9.28 0 0-5.75 9.93-40.39 10.57-.04 0-14.44 1.36-27.4-5.22zM281.83 546.86a112.05 112.05 0 0 0 12-1.32c-.52.41-1 .84-1.56 1.31a97.75 97.75 0 0 1-10.05.89c-14 .55-22.16-1.51-26.89-3.79-5.08-2.45-6.19-5.15-6.19-5.15s1.77 2.6 7.12 4.87c4.96 2.11 13 3.94 25.57 3.19zM317.4 535.42a14.86 14.86 0 0 1-4.09 4c-.35 0-.72-.15-1.1-.16a48.55 48.55 0 0 0 5.19-3.84zM246.69 529.49s9.49 10.73 34.14 9.19 34.07-9.07 35.05-11.83c0 0-5.73 8.41-34.95 11.15 0 0-23.22 1.8-34.24-8.51z" transform="translate(-237.21 -84.9)"/><path class="cls-4" d="M9.06 407.89l1.81 30.47-1.93-.53-1.8-29.85 1.47-.15.45.06z"/><path class="cls-4" d="M315.38 487.1l1.94 30.1.78 3.19-2.06-.57s-2.14-36.31-2.22-37.69zM305.2 489l1 35.44 5.6 2.07.23-1.51-2.62-35.36s-.25-2.94-2.84-2.1a5.28 5.28 0 0 0-1.37 1.46zM257.33 493.57s-2-2.21-3.89-.75a3.06 3.06 0 0 0-1.08 2.63l2.45 34.43 4.12-1.92-1.58-34z" transform="translate(-237.21 -84.9)"/><path class="cls-6" d="M257.86 493.86s1.76 1.34 2.07 5.13 2.41 29.79 2.41 29.79l-2.38.66s-3.07-34.15-2.26-35.68zM305.2 489s-2.09 1.57-1.76 7.24 1.78 27.32 1.78 27.32l2.44-.43L305.2 489zM277.53 497s.54-2.29 4.45-2.85 5.94 3.63 5.55 5.68 2.58 32.68 2.58 32.68L280 532l-2.51-35z" transform="translate(-237.21 -84.9)"/><path class="cls-2" d="M289.06 550.16a38 38 0 0 0-2.84 3.78 92.67 92.67 0 0 1-12.27.27c-11.74-.5-21.71-3.66-26.26-8a10.13 10.13 0 0 1-1.13-1.25 6.15 6.15 0 0 1-.63-7.16s.06.28 1.18 1.15 1.21 1.29 1.21 1.29-.12.86 1.59 3a13.76 13.76 0 0 0 1.74 1.86c2.59 2.27 8.07 5 22.82 5.7a87.39 87.39 0 0 0 14.59-.64zM320.3 536.85a7 7 0 0 1-4.07 2.41 6.56 6.56 0 0 0 .73-1.42 9.77 9.77 0 0 0 .44-2.43l1-3.23a9 9 0 0 1 1.9 4.67z" transform="translate(-237.21 -84.9)"/><path class="cls-2" d="M317.55 522.94s4.46 5.38-1.55 9.81-13.57 11.09-45.4 10.49c0 0-26.06-1.28-25-13.76 0 0 4.07 9.65 22.87 10.75s29.37-1.05 36.78-4.29 12.79-7.74 11.52-10.58l.75-2.41z" transform="translate(-237.21 -84.9)"/><path class="cls-2" d="M305.43 488.9h-.19a.57.57 0 0 1 .07.17l.09-.11h.21zm12.17 26.76l.21.72.2.8-.31.14-.15.07-.1.07v.08l.07.4v.23l.33 1.76H316v-.19l-2.27 3 .08 1.49-1.75.7-3.8-1.84s-1.84-25.39-2.22-29.59a18.9 18.9 0 0 0-.71-4.45l-.09.1-.55.7.4 3.29-1.59 1v2l1.76-1.16.79 10.64v1.53l-.09.63h-.15l-1.1 1.18h.29l-.45.06-.12 1.34v-.07l1.39-.87.24-.17.68 13-.58.4-1 .69.29 4.54s-.08.47-1.35 1.09a2 2 0 0 1-2.11 0l-9.26 2.7-.48.85-2.18-.16v-.3c-.22-2.92-2-26.12-2.55-32.37-.07-.78-.12-1.29-.15-1.48a4.56 4.56 0 0 0-1.58-2.83l.34 3.92-5.13.7-2.71.28-.4-3.94s-.2 0-.23.06.08.09.08.18 0 .11-.09.18h-.08c-.09.06-.53.15-.53.24a1.17 1.17 0 0 1-.05.67c-.21.43 0 4.14.29 9v.16c.57 10.68 1.85 26.83 1.85 26.83a4 4 0 0 1-2.4.21 12.19 12.19 0 0 1-2.49-.6l-8.57-.64-.9.56-1-.12-.37-.25-1.25-.71-.16-3.35v-.85h.15l-1.88-.39-1.14-12.74 2.08.16h.34l.45-1.15-.42-.45H261.14l-2.13-.73-.88-12.11 1.9.56.14-.14-.22-.6-.07-.86v-.59l-2-.84v-4l-.16-.13-.46-.29v-.45.18l-.66-.34 2.45 35.09-1.92 1-2.19 1s.32 1.24-5.23-2.45-5-6.39-5-6.39h-.18a2.6 2.6 0 0 0-1.53 1.95 4.45 4.45 0 0 0 .87 2.06c.06.08.15.17.22.27l.17.2c1.17 1.55 3.57 3.51 8 5.93 2.93 1.6 6.37 3.32 9.91 3.32.06 0 .12-.12.18-.11 12.75 2.7 27.11.25 27.11.25 21.14-3.84 26.34-8.93 28-12.15a22.59 22.59 0 0 0 .83-2.24c.95-2.29-.7-5.08-.7-5.08zm-30.06.45l1 12.95-8.09.73-.91-13zm-7-15.34l5.69-.27.89 13.77-7.73.54-.82-10.38-.28-3.57zM246.25 492.42s-1.45-11.17-2.14-11.44a2.05 2.05 0 0 0-1.4 0l1.62 11.52z" transform="translate(-237.21 -84.9)"/><path class="cls-2" d="M264.06 499.54s-2-10.46-9.29-10.85c0 0-4.79-.51-4.7 8 0 0 .9.44 1-.34s-.66-4.1 2-5.15 6.81.57 8.06 8.46zM314.09 487.29l1.78-.08s-.87-11.78-1.87-12.36.14 12.2.14 12.2zM299.82 495.28l1.68.6 1.11-.72s0-8.34 4.32-9.63 4.06 4.86 4.06 4.86l.48.26.55-.38s-.5-6.41-3.95-7a5.82 5.82 0 0 0-5.44 3.2 27.89 27.89 0 0 0-2.81 8.81zM273 499.84s.07-9 8.88-9.53 9.63 8.13 9.63 8.13l-.85.26.06.59-1.58.07s-.24-6.76-7.07-6.44-6.58 7.38-6.58 7.38l-1.56.17-.1-.6zM241.61 464.28s-1.71 1.87-.31 5.26 7.16 8.51 26.24 9 38.12-2.89 45.36-10.54c0 0 4.32-5.09.64-8.58l-.77 1.28a3.49 3.49 0 0 1-.48 3.13c-1.09 1.78-4.45 11.18-37.24 12.19s-32.3-10.93-32.3-10.93z" transform="translate(-237.21 -84.9)"/><path class="cls-10" d="M275.13 356.54l-.5-.91s-.78.12-.73-.93.17-1.17.17-1.17 1.8.86 1.47 1.41l-.33.54.25.72s.38.22.61-.42.5-.72 1.39-.06l.89.66a7.22 7.22 0 0 1-.8 1.38c-.26.23-.68-.2-.68-.2l-.06.81a1 1 0 0 1 .55.29c.27.26-.47 1.69-.47 1.69l-1.06-.63a1.53 1.53 0 0 1-.11-1.16 3.77 3.77 0 0 0-.59-2zM267.85 360.7l-.36-1s.6-.51-.23-1.16-1-.64-1-.64-.53 1.92.09 2l.63.11.38.67s-.08.43-.72.18-.87-.1-1 1l-.09 1.11a7.22 7.22 0 0 0 1.57.31c.34-.05.3-.64.3-.64l.65.49a1 1 0 0 0-.14.6c0 .38 1.59.75 1.59.75l.22-1.22s-.1-.44-.8-.84a3.77 3.77 0 0 1-1.14-1.77z" transform="translate(-237.21 -84.9)"/><path class="cls-10" d="M269.52 322.52a1.6 1.6 0 0 0-.19 2l.11.58-1 .24-.58-.44-.95 1.25.9 1.26.59-.2a.44.44 0 0 1 .3.4c0 .34.12 2.5.12 2.5a10.4 10.4 0 0 1-.4 1.42l-1.33.06s-1.55-2.14-2.81-.14c0 0-.53-.23 0 .26s1.2 1.64 2.8.28l1.37-.19s.27-.24.29.37.28 4.41.28 4.41l-1.16-2.36.79 2.49-2-1.78 1.77 2.27-2.54-1.2 2.18 1.73-.14.18-5.71-.47a1.05 1.05 0 0 0 .14-1 6.75 6.75 0 0 0-1.13-1.68s-1.1 1.29-.69 2.26a2.58 2.58 0 0 0-.79.48 1.67 1.67 0 0 0-1.85.71s.47 1.64 1.89 1.57a1.83 1.83 0 0 0 1.2.9 2 2 0 0 0 .69 2.06 2.23 2.23 0 0 0 .47-2.14s.3-.38.3-.48l5.38.39h.18l.08.61-1.08 1.22 1.3-.72.26.26s-.87 2-.84 2.11l1.28-1.68h.22l-.92 2.18.4-1.13.67 14.51a3.07 3.07 0 0 0-.11 2.4l-.59.33s-1.69-.27-1.42 1.3 1.35 1.56 1.84.46l.47-.42.41 8.89 1.69.17 1.26-.65-.45-9.67v-.59s1.72-.08 1.94-.94l1.51-.84a.84.84 0 0 0 .88-.78c.09-.82-.14-1.86-1.18-1.47 0 0-.46.27-.5.44l-1.14.67s-.69-.12-.87.14l-.77-14.11.48 1.4-.56-2.09 1.48 1.7-1-2.14 2.11.86-1.87-1.64.16-.18 5 .14a2.57 2.57 0 0 0 1 .82 2.32 2.32 0 0 0 1 2.36 2.46 2.46 0 0 0 .65-2.54 2.74 2.74 0 0 0 1.92-1.61 3.86 3.86 0 0 0-2.2-1.84 2.22 2.22 0 0 0-1.11-2.16s-1.16 1.09-.66 2.12l-.37.48-5.28-.39v-.42l1.18-1.16-1.47.61-.31-.26 1.05-1.72-1.54 1.3.42-2.14-.76 1.09-.18-3.31s0-.14.4.14.7.69 1 .68h.22v.34s-.77-.08-.7.21.87.82 1 1.38-.51-.55.28-1-1.52-1-1.52-1v-.81s1.56.08 1.84-.23c0 0 .39.68.93.51s.52-.43.92-.85.13-.71-.26-1.21-.84-.72-1-.34-.45-.18-.64-.38-.6 0-.6 0v-.52s.93.18.82-.59-.91-1-1.1-1.54 0 .35-.32.64-.88 1.31-.26 1.45l.37.07-.1.56-1.1.07-.53-.73v-1.77s.17-.36.74-.05l.82-.94-1.12-1.37-.53.17-1.14-.22.08-.59s.67-.96-.46-2.04zM313.72 454.7a17.36 17.36 0 0 1-8.14 8.44c-10.25 5.22-24.93 6.24-24.93 6.24-19.83 1.78-30.42-1.39-35.47-3.88a8.7 8.7 0 0 1-4.66-6c-2.13-8.85 4.13-10.25 4.39-10.3a26.49 26.49 0 0 1-5.72-25c3.19-11.75 13.11-18.27 20.27-24.55s8.54-12.32 8.54-12.33l1-10.05a4.41 4.41 0 0 0 2.92.95 4.28 4.28 0 0 0 1.24-.25 4.51 4.51 0 0 0 1.7-1.09l2.39 9.51s2 6.37 12.19 11.46c8.46 4.23 17.33 10.58 22.12 21.48 5.68 12.93-1.44 24-1.51 24.1a9.78 9.78 0 0 1 4.36 5.25c.59 1.5.39 3.53-.69 6.02z" transform="translate(-237.21 -84.9)"/><path class="cls-10" d="M276.31 373.79a4.38 4.38 0 0 1-1.45 3.47 4.32 4.32 0 0 1-1.59.92 4.39 4.39 0 0 1-2.75-8.34 4.34 4.34 0 0 1 1.19-.22h.37a4.39 4.39 0 0 1 4.23 4.17z" transform="translate(-237.21 -84.9)"/><path class="cls-2" d="M247.12 538.89a19.76 19.76 0 0 0 1.73 1.27z" transform="translate(-237.21 -84.9)"/><path class="cls-3" d="M727 450.31a13.83 13.83 0 0 1-2.05 5.17l.1 13.86v36.59l-.08.25-.17.06-.8 2.71h.35l.16.3 1.19 4.42-.33 1.75v.11l-.05.06h-.12l-.18.17-.26 2.16.15.22.11.58v.28l.22.32.8 2.47v.55l.25.62.12.3v.06l.62 7.8c-1.68 7.59-9.9 12.23-20.17 14.61a65.67 65.67 0 0 0-3.46-9 55.68 55.68 0 0 0-1.7-3.26c-.5-.9-1-1.77-1.59-2.62-.22-.35-.45-.69-.69-1s-.42-.83-.64-1.13c-.65-.91-1.36-1.69-2.11-2.69s0 .16 0 .15a28.91 28.91 0 0 0-3.31-2.29c-.06 0-.11.14-.17.14-1.47-1-3-2-4.58-2h-.13v-.12c0-.02 0 0 0 0-.72-.23-1.44-.55-2.17-.72s0-.05 0-.05h-7.57c-.41 0-.82-.27-1.21-.27a8.55 8.55 0 0 1-3.8-.92l-.32-.18a7.22 7.22 0 0 1-2.32-2.14v-.07a28 28 0 0 1-1.49-2.73c0-.06-.07 0-.1-.06a.26.26 0 0 0-.11-.07v.48h-.32c-.24 0-.46.51-.9 1.91v-.06c-.14.43-.28.82-.47 1.38-.06.17-.13.33-.18.53-.19.61-.63 1.26-.88 2h-.23v2.38a3.62 3.62 0 0 1-.33.32c-.88.83-2 1.45-2.87 2.45s.21-.27.21-.19-.12 0-.13 0h-.07s-.06 0-.07.06v-.06c-.07.13-.15.09-.21.09s-.13.11-.19.11 0 .12 0 .14v-.14-.11s-.06.17-.09.21c-.74.7-1.56 1.53-2.44 2.29v.06l-2.52 2.2c-1.57 1.37-3.26 2.89-5 4.61a11.64 11.64 0 0 1-1.52-2.92 12.94 12.94 0 0 0 .69-2.2 9.61 9.61 0 0 0-.17-4.27c-.21-1-.44-1.67-.44-1.67l.23-6v-.59l1.61-1.14-.49-1.8h-.08V514.56l-.65-1.71a16.54 16.54 0 0 1-.35-3v-.06c0-.06-.09-.1-.1-.16a3.71 3.71 0 0 0-.39-1.29c-.22-.65-.65-2.1-1-3.35-.28-1.07-.52-2-.56-2.17l1.4-2.08 1.56-1.85 1-26.88.44-12 .32-5.51a7 7 0 0 1-1.74-5.23l.61-4.8a1.36 1.36 0 0 0-.23-2 2.63 2.63 0 0 1-.64-1.92 10.34 10.34 0 0 1 .17-2.1l43.74 1.54 31.74-2.48a20.28 20.28 0 0 0-.76 4.73c.15 1.41.46 3.28.46 3.28a22.48 22.48 0 0 1-.55 4.79z" transform="translate(-237.21 -84.9)"/><path class="cls-14" d="M654.93 444.66s6.23 8.37 36.9 8.94c0 0 25.11 1.07 32-8.09 0 0-6.38 8.76-37.57 7 .03.03-21.04.6-31.33-7.85zM654.54 455s4.23 7.43 32.31 9.26a83.8 83.8 0 0 0 19.14-.86c7.07-1.17 15.24-3.48 18.09-8 0 0-6.73 9.63-42.1 7.28.02.04-14.8.18-27.44-7.68zM662.79 525.84c-.17.18-.36.35-.54.52-7.21-3.27-8.57-7-8.64-7.22.12.23 2.25 3.71 9.18 6.7zM723.5 521.61c-.17.26-5.33 7.46-23.43 9.24-.22-.35-.45-.69-.69-1 16.24-1.55 21.62-6.67 24.12-8.24zM652 509.53c3.89 4.26 9.65 7 15.32 8.64-.06.17-.13.35-.18.54-10.19-3.34-14.56-8.44-15.14-9.18zM683.07 520.89c.5 0 .93.11 1.31.11h-5.86c-.41 0-.82-.27-1.21-.27a8.55 8.55 0 0 1-3.8-.92l-.32-.17a77.5 77.5 0 0 0 9.88 1.25zM722.68 512.77c-.45 1-2 2.45-5 3.93-5.15 2.57-14.47 5.15-29.34 5.1-.72-.23-1.44-.53-2.17-.7h.06c16.27 0 25.64-2.55 30.81-4.75h.06c3.9-1.87 5.39-3.35 5.58-3.58z" transform="translate(-237.21 -84.9)"/><path class="cls-4" d="M417.45 387.08l-.79 31.23-1.92-.71.75-30.59 1.51-.02.45.09z"/><path class="cls-4" d="M725.62 472.17L725 503l.52 3.32-2.05-.76s1-37.21 1-38.62zM715.09 473.18l-2 36.23 5.53 2.6.37-1.51.4-36.28s0-3-2.72-2.38a5.4 5.4 0 0 0-1.56 1.36zM665.88 473.73s-1.89-2.43-3.9-1.1a3.13 3.13 0 0 0-1.33 2.59l-.49 35.32 4.36-1.6 1.34-34.84z" transform="translate(-237.21 -84.9)"/><path class="cls-6" d="M666.39 474.08s1.68 1.52 1.67 5.41-.13 30.59-.13 30.59l-2.48.47s-.17-35.09.79-36.58zM715.09 473.18s-2.27 1.42-2.42 7.23-.55 28-.55 28l2.52-.23.45-35zM686.17 479s.75-2.28 4.78-2.52 5.75 4.21 5.17 6.27-.2 33.55-.2 33.55l-10.23-1.35.48-36z" transform="translate(-237.21 -84.9)"/><path class="cls-2" d="M659.69 528.63l-2.58 2.22a20 20 0 0 1-6-4.8c-2.1-2.64-2.51-5.5-.63-8.26 0 0 0 .17.42.6.16.17.38.39.68.68l.22.2c1 1 .91 1.21.91 1.21s-.19.87 1.37 3.19a13.5 13.5 0 0 0 5.61 4.96zM726.33 523.26c0 2.39-1.08 5.25-5.3 7.64a54.33 54.33 0 0 1-17.68 5.82c-.53-1.12-1.1-2.2-1.69-3.26 10.62-1.45 19.07-4.86 21.19-9.41a9.86 9.86 0 0 0 .66-2.45l.39-1 .85-2.22a9.45 9.45 0 0 1 1.43 3.62 7.67 7.67 0 0 1 .15 1.26zM666.68 520.84c0 .82-.68 1.6-.68 2.38s-.3.06-.33.08c-5.26-1.63-11.29-4.32-13.72-8.45a9.91 9.91 0 0 1-1-5.21 1.46 1.46 0 0 1 .06-.28s2.56 7.64 15.67 11.48zM725.39 515.47c0 .06-.15.11-.18.17s-.2.12-.2.17c-1 1-1.35 2-2.83 2.93-.27.17-.46.33-.74.5v-.19c-4.6 2.86-10.44 6.93-24.82 6.93s0 .16 0 .14a31.3 31.3 0 0 0-3.31-2.44A56.5 56.5 0 0 0 711.1 521a40.12 40.12 0 0 0 7.9-3.5c3.46-2.09 5.44-4.36 4.8-6.21l.81-2 .12-.39s2.15 3.26.66 6.57z" transform="translate(-237.21 -84.9)"/><path class="cls-2" d="M725.41 501.48l-.08.7-.09.67-.11.07-.13.08-.08.26.24 1.7V505.32l.06.56h-.09l-1.62-.28h-.06l-.4-.06-3 2.86.05 1.6-1.13.44-.39.16-3.58-2.27s.42-26.07.39-30.38c0-3.76-.28-4.6-.35-4.75l-.72.91.18 3.4-1.67.86-.18 2 1.62-1-.28 9.12v.88l.05 3.13-.1.1-1.54 1.09v1.38l1.51-.79.36-.19-.45 13.32-.53.39-.14.09-.95.5h-.2V508h.1v.38l-.1 4.52v.19c0 .1-.29.51-1.47 1a2.07 2.07 0 0 1-2.17-.24l-9.68 2-.46.83-2.22-.35v-33.58c0-.82.05-1.36 0-1.55a4.73 4.73 0 0 0-1.34-3v4l-7.89.15.16-4a.91.91 0 0 0-.22 0s-.13 0-.16.06-.19.25-.38.57c-.1.17-.25.39-.41.65-.35.58-.77 7.67-.77 15.46v.24c0 10-.33 21.18-.33 21.18a4.14 4.14 0 0 1-2.47 0 13.37 13.37 0 0 1-2.52-.84L671 514.3l-1 .66h-1v-.23-.12c0 .01.07 0 .11 0h.1a28.08 28.08 0 0 0 1.49 2.72 95.73 95.73 0 0 0 24.37 1.67c9.37-.89 15.58-2.29 20-3.83.08 0 0-.06.11-.09 5.78-2.06 7.82-4.38 8.82-6.16s.38 0 .38 0a23.23 23.23 0 0 0 1.22-2.19c1.07-2.31-.19-5.25-.19-5.25zM695 502l-.27 10.55h-8.4l.14-13.36 3.88-.13h4.37l.28 2.59zm-8-5.56l-.15-13.2 8 .31-.33 13.82-6.39-.29-.48.08-1.06.13.23-.77zm-18 18.08l-.25-.17-1-.84.33-3.42v-.85h-.15l-1.93-.64-.1-13.09 2.09.34h-.09l.1-1v-.06l.05-.6h-.06l-1.91-.94.13-10.31-.2-.41.06-2 1.88.37h.12l-.05-.95v.05l-2-1.4.29-4.32-.15-.22-.42-.37h-.06l-.59-.49-.09 8.1v.43l-.44 27.21-1.7.64h-.19l-.23.09-1.1.39-.34.12-.8.28s.25 1.29-5.11-2.95c-5-4-4.62-6.64-4.55-6.93a2.66 2.66 0 0 0-1.42 2.11 4 4 0 0 0 .54 2.17c.93 1.75 3.16 4.12 7.86 7.24a36 36 0 0 0 10.31 4.44v.26c.44-1.4.66-1.91.9-1.91h.27v-.28zm-.82-33.6zM654.67 471.82s-.51-11.62-1.18-12a1.94 1.94 0 0 0-1.43-.06l.65 11.94z" transform="translate(-237.21 -84.9)"/><path class="cls-2" d="M672.25 479.85s-1.17-10.56-8.54-11.59c0 0-4.84-.79-5.5 7.91 0 0 .88.6 1.07-.19s-.3-4.48 2.48-5.33 6.87 1.71 7.49 9.08zM724.32 471.75l1.81.07s.14-11.83-.84-12.51-.9 12.32-.9 12.32M709.06 479.16l1.67.75 1.19-.64s.75-8.5 5.24-9.44 3.72 5.31 3.72 5.31l.46.31.6-.33s0-6.58-3.42-7.46a6 6 0 0 0-5.83 2.8 28.54 28.54 0 0 0-3.63 8.7zM681.26 481.48s.85-9.19 9.88-8.94 9.11 9.13 9.11 9.13l-.88-.14v.29l-1.62-.06s.32-6.58-6.66-6.85-7.36 7.12-7.36 7.12l-1.61.12v-.58zM652.39 442.51s-1.9 1.76-.77 5.34 6.56 9.29 26 11.45 39.12.35 47.16-6.81c0 0 4.85-4.82 1.39-8.69l-.9 1.24a3.57 3.57 0 0 1-.76 3.15c-1.27 1.72-5.51 11-39 9.2s-32-13.95-32-13.95z" transform="translate(-237.21 -84.9)"/><path class="cls-10" d="M695.89 335.56l-.43-1s-.8.05-.66-1 .27-1.18.27-1.18 1.76 1 1.38 1.56l-.38.53.2.76s.37.25.65-.38.57-.69 1.42.06l.85.75a7.39 7.39 0 0 1-.93 1.34c-.29.21-.68-.26-.68-.26l-.13.82a1.06 1.06 0 0 1 .53.34c.26.29-.63 1.69-.63 1.69l-1-.74a1.56 1.56 0 0 1 0-1.19 3.86 3.86 0 0 0-.42-2.11M688.12 339.16l-.28-1s.65-.47-.13-1.21-1-.74-1-.74-.71 1.92-.08 2.08l.63.17.33.71s-.12.43-.75.12-.88-.17-1.06.95l-.18 1.12a7.39 7.39 0 0 0 1.57.45c.35 0 .36-.63.36-.63l.62.55a1.06 1.06 0 0 0-.19.6c0 .39 1.55.91 1.55.91l.33-1.22a1.56 1.56 0 0 0-.75-.93 3.86 3.86 0 0 1-1-1.9" transform="translate(-237.21 -84.9)"/><path class="cls-10" d="M693.13 300.38a1.64 1.64 0 0 0-.37 2l.06.6-1 .16-.55-.5-1.07 1.19.81 1.36.62-.15a.45.45 0 0 1 .27.44c0 .35-.08 2.21-.08 2.21a6.78 6.78 0 0 1-.52 1.06l-1.36-.05a1.66 1.66 0 0 0-2.87 0s-.52-.11 0 .44 1.08 1.86 2.83.62h1.42s.29-.2.27.42-.1 4.53-.1 4.53l-1-2.5.59 2.61-1.87-2 1.6 2.46-2.54-1.41 2.08 2-.16.18-5.78-1a1.08 1.08 0 0 0 .23-1 6.91 6.91 0 0 0-1-1.81s-1.24 1.22-.9 2.25a2.64 2.64 0 0 0-.85.42 1.71 1.71 0 0 0-1.95.57s.34 1.71 1.79 1.77a1.87 1.87 0 0 0 1.14 1 2.09 2.09 0 0 0 .52 2.16 2.28 2.28 0 0 0 .66-2.14s.34-.36.35-.46l5.45.86h.23v.63l-1.25 1.08 1.38-.63.24.29s-1.06 1.95-1 2.07l1.45-1.61.22.06-1.12 2.14.57-1.11-.57 14.85a3 3 0 0 0-.38 2.44l-.66.29s-1.72-.42-1.58 1.2 1.29 1.71 1.89.63l.57-.38-.35 9.1 1.57.31 1.2-.56.38-9.9v-.6s1.85.07 2.14-.79l1.65-.73a.88.88 0 0 0 1-.72c.16-.82 0-1.91-1.06-1.6 0 0-.48.23-.54.41l-1.22.58s-.69-.18-.9.07l.43-14.46.37 1.47-.39-2.18 1.36 1.86-.87-2.27 2.07 1.06-1.77-1.83.18-.17 5.14.58a2.63 2.63 0 0 0 .92.92 2.38 2.38 0 0 0 .81 2.5 2.52 2.52 0 0 0 .88-2.53 2.8 2.8 0 0 0 2.1-1.48 4 4 0 0 0-2.08-2.07 2.27 2.27 0 0 0-.94-2.3s-1.27 1-.86 2.11l-.42.46-5.35-.86v-.43l1.3-1.08-1.59.51-.29-.29L696 314l-1.53 1.17.61-2.14-.87 1 .11-3.39s0-.13.4.19.65.78.93.79h.23v.33s-.77-.15-.74.15.82.91.95 1.5-.61-.61.24-1-1.6-1.16-1.6-1.16v-.83s1.72.22 2-.07c0 0 .4.73 1 .6s.6-.39 1-.79.22-.71-.14-1.25-.78-.8-1-.43-.44-.22-.62-.44-.61-.1-.61-.1l.08-.53s.94.26.89-.53-.84-1.13-1-1.66 0 .36-.38.63-1 1.26-.4 1.46l.37.11-.15.56h-1.13l-.48-.79.16-1.81s.2-.35.75 0l.92-.89-1-1.49-.55.13-1.14-.33.14-.6s.74-.81-.31-2.01zM726.74 439a17.76 17.76 0 0 1-9 7.9c-10.9 4.43-26 4.21-26 4.21-20.37.09-30.89-4.06-35.83-7a8.9 8.9 0 0 1-4.24-6.49c-1.4-9.21 5.1-10.09 5.37-10.13a27.1 27.1 0 0 1-3.67-26c4.27-11.7 15-17.49 22.8-23.28s9.83-11.87 9.83-11.89l1.89-10.16a4.51 4.51 0 0 0 2.9 1.22 4.38 4.38 0 0 0 1.29-.14 4.62 4.62 0 0 0 1.82-1l1.62 9.9s1.48 6.71 11.48 12.78c8.26 5 16.75 12.29 20.7 23.82 4.68 13.68-3.54 24.34-3.62 24.44a10 10 0 0 1 4 5.73c.31 1.58-.02 3.63-1.34 6.09z" transform="translate(-237.21 -84.9)"/><path class="cls-10" d="M695.61 353.24a4.49 4.49 0 0 1-1.77 3.41 4.42 4.42 0 0 1-1.7.8 4.5 4.5 0 0 1-2.08-8.75 4.44 4.44 0 0 1 1.24-.13h.37a4.49 4.49 0 0 1 3.94 4.67z" transform="translate(-237.21 -84.9)"/><path class="cls-2" d="M651.54 519.06a20.22 20.22 0 0 0 1.66 1.44z" transform="translate(-237.21 -84.9)"/><path class="cls-3" d="M458.94 517.71s-.56 3.39.67 4.34a1.48 1.48 0 0 1 .34 2.11l-.46 5.23a7.64 7.64 0 0 0 2.1 5.6l-.12 6 .06 42.15-1.61 2.07-1.47 2.35s1.29 4.6 1.81 6a28.69 28.69 0 0 1 .86 4.94l1.49 4-1.62 1.3v7.14s1.54 4 .94 6.43a17.44 17.44 0 0 1-.65 2.41s3.87 11.82 25.45 14.35S541 631.88 544 615l-1-8.42-1.92-5.29 1-5.1-1.43-5.06.46-3.36-2.48-54.63a15.07 15.07 0 0 0 2-5.68 24.19 24.19 0 0 0 0-5.25s-.41-2-.63-3.53a21.61 21.61 0 0 1 .63-5.16l-34.28 4-47.44.15" transform="translate(-237.21 -84.9)"/><path class="cls-14" d="M462.41 524.37s7.1 8.8 40.34 8.15c0 0 27.24.11 34.35-10.1 0 0-6.54 9.76-40.4 9.18 0 .01-22.8 1.5-34.29-7.23zM462.41 535.62s4.89 7.88 35.38 8.69a90.84 90.84 0 0 0 20.7-1.73c7.61-1.56 16.36-4.4 19.27-9.41 0 0-6.89 10.71-45.3 9.64 0 0-16.03.77-30.05-7.19zM539.9 604.87s-7.48 12.09-39.63 11.86-36.2-11.61-36.2-11.61 6.78 11 35.81 10.62 36.73-8.65 40-10.86" transform="translate(-237.21 -84.9)"/><path class="cls-14" d="M461.83 594.67s10 12.38 37.36 11.94 38.22-8.3 39.45-11.3c0 0-6.78 9-39.3 10.56 0-.01-25.82.79-37.51-11.2z" transform="translate(-237.21 -84.9)"/><path class="cls-4" d="M226.04 469.08l.44 33.86-2.1-.69-.46-33.17 1.63-.08.49.08"/><path class="cls-4" d="M540.13 551.23l.6 33.46.7 3.58-2.26-.74s-.5-40.35-.53-41.88M528.75 552.76l-.68 39.32 6.1 2.58.34-1.66-1.08-39.32s-.13-3.27-3-2.47a5.86 5.86 0 0 0-1.64 1.53M475.47 555.42s-2.15-2.55-4.27-1a3.39 3.39 0 0 0-1.33 2.86l.94 38.28 4.66-1.91v-37.8" transform="translate(-237.21 -84.9)"/><path class="cls-6" d="M476 555.77s1.88 1.58 2 5.79 1.14 33.14 1.14 33.14l-2.67.61s-1.65-38-.67-39.66M528.75 552.76s-2.4 1.64-2.32 7.93.57 30.36.57 30.36l2.72-.35-1-37.95M497.68 560.24s.72-2.51 5.07-2.93 6.4 4.32 5.86 6.58 1.19 36.35 1.19 36.35l-11.14-1-1-39" transform="translate(-237.21 -84.9)"/><path class="cls-2" d="M541.12 601.32s6.12 7.75-3.52 13.72-26.32 10.25-46.83 8.42-35.77-10.76-30.19-19.69c0 0-.11.18 1.25 1.34s1.28 1.49 1.28 1.49-.18 1 1.61 3.39c1.91 2.61 5.55 7.65 26.82 9.64s44.22-3.67 47.74-12.09a10.6 10.6 0 0 0 .61-2.68z" transform="translate(-237.21 -84.9)"/><path class="cls-2" d="M540.7 591.06s4.67 6.2-2.22 10.79-15.61 11.59-50.84 9.3c0 0-28.81-2.75-27-16.53 0 0 4 10.9 24.79 13.08s32.59.34 41-2.87 14.58-7.92 13.31-11.13l1-2.64" transform="translate(-237.21 -84.9)"/><path class="cls-2" d="M541.12 583l-.46 2 .46 2.83-2.17-.3-2.95 3.18v1.68l-1.76.72-4-2.26s-.67-28.25-.88-32.93-.61-5.16-.61-5.16l-.77 1 .34 3.67-1.78 1-.11 2.21 1.84-1.2.4 14.23-1.67 1.43v1.49l2-1.14v14.45l-1.92 1.16v5s-.14.51-1.57 1.14a2.26 2.26 0 0 1-2.36-.17l-10.4 2.52-.57.92-2.41-.28s-1.09-36-1.27-38a5.09 5.09 0 0 0-1.61-3.21l.17 4.36-8.78.5-.24-4.4-.8 1.49c-.8 1.5.34 40 .34 40a4.6 4.6 0 0 1-2.69.11 14.06 14.06 0 0 1-2.75-.8l-9.47-1.15-1 .57-1.09-.17-1.58-1.08.22-4.66-2.23-.57-.6-14.18 2.19.28.11-1.78-2.41-1-.28-13.79 2.19.35-.12-1.84-2.18-1 .17-4.47-1.49-1.09.92 38.95-2.18.94-2.48 1s.3 1.38-5.67-3-5.22-7.35-5.22-7.35-6.56 3.37 8.05 12.24 41 5.82 41 5.82c30.76-4.13 31.68-12.09 32.75-14.62s-.62-5.64-.62-5.64zm-42.79-18h8.81l.28 15.1-8.6.3zm.84 31.74l-.34-14.46 9-.34.39 14.4zM463.25 554s-1-12.66-1.78-13a2 2 0 0 0-1.55 0l1.21 13z" transform="translate(-237.21 -84.9)"/><path class="cls-2" d="M482.63 562s-1.7-11.51-9.74-12.31c0 0-5.28-.71-5.62 8.74 0 0 1 .58 1.15-.28s-.52-4.74 2.47-5.77 7.52 1.63 8.49 9.63zM539 551h1.66s-.34-12.91-1.43-13.6-.31 13.43-.31 13.43M522.47 559.49l1.84.75 1.26-.75s.46-9.24 5.28-10.44 4.25 5.6 4.25 5.6l.52.32.63-.39s-.23-7.13-4-7.93a6.45 6.45 0 0 0-6.2 3.27 30.93 30.93 0 0 0-3.58 9.57zM492.46 563.17s.54-10 10.33-10.1 10.21 9.5 10.21 9.5h-1v.42h-1.76s.08-7.26-7.5-7.26-7.67 8-7.67 8l-1.74.17-.08-.64zM459.56 522.16s-2 2-.61 5.82 7.5 9.79 28.62 11.32 42.39-1.25 50.8-9.35c0 0 5-5.42 1.15-9.48l-.92 1.38a3.87 3.87 0 0 1-.69 3.44c-1.3 1.91-5.51 12.17-41.89 11.59s-35.23-13.77-35.23-13.77z" transform="translate(-237.21 -84.9)"/><path class="cls-10" d="M502.23 404.49l-.51-1s-.87.09-.76-1.07.25-1.29.25-1.29 2 1 1.56 1.63l-.39.59.25.81s.41.26.69-.44.59-.77 1.54 0l1 .78a8 8 0 0 1-1 1.49c-.3.24-.75-.25-.75-.25l-.11.9a1.15 1.15 0 0 1 .59.35c.29.3-.61 1.85-.61 1.85l-1.15-.76a1.7 1.7 0 0 1-.06-1.29 4.19 4.19 0 0 0-.55-2.27M494 408.72l-.35-1.1s.69-.54-.19-1.3-1.07-.77-1.07-.77-.69 2.1 0 2.26l.69.15.38.76s-.11.47-.8.16-1-.15-1.11 1.07l-.15 1.22a8 8 0 0 0 1.72.42c.38 0 .37-.7.37-.7l.7.57a1.15 1.15 0 0 0-.19.66c0 .42 1.72.92 1.72.92l.31-1.34a1.7 1.7 0 0 0-.85-1 4.19 4.19 0 0 1-1.17-2" transform="translate(-237.21 -84.9)"/><path class="cls-10" d="M497.77 366.5a1.78 1.78 0 0 0-.31 2.17l.09.65-1.11.22-.62-.52-1.11 1.34.93 1.44.67-.19a.49.49 0 0 1 .31.46v2.57a9.11 9.11 0 0 1-.52 1.35h-1.47s-1.61-2.25-3.11-.09c0 0-.57-.18 0 .39s1.25 1.93 3.09.51l1.53-.11s.31-.24.31.44.08 4.91.08 4.91l-1.17-2.67.75 2.8-2.11-2.08 1.84 2.6-2.84-1.41 2.33 2-.16.2-6.3-.82a1.17 1.17 0 0 0 .2-1.1 7.49 7.49 0 0 0-1.17-1.92s-1.29 1.37-.88 2.47a2.86 2.86 0 0 0-.9.49 1.85 1.85 0 0 0-2.09.7s.44 1.84 2 1.84a2 2 0 0 0 1.28 1.06 2.27 2.27 0 0 0 .65 2.32 2.47 2.47 0 0 0 .63-2.34s.35-.41.35-.52l5.94.71h.25l.05.68-1.31 1.23 1.47-.74.27.3s-1.06 2.15-1 2.29l1.5-1.8.25.05-1 2.37.62-1.23v16.11a3.08 3.08 0 0 0-.36 2.66l-.72.34s-1.89-.38-1.67 1.36 1.51 1.8 2.11.6l.64-.44v9.87l1.72.27 1.28-.65v-11.4s1.95 0 2.23-.94l1.73-.86a.94.94 0 0 0 1-.82c.14-.9-.06-2.07-1.23-1.69 0 0-.52.27-.57.46l-1.3.68s-.76-.16-1 .11l-.13-15.68.47 1.58-.52-2.34 1.55 2-1-2.43 2.29 1.06-2-1.91.19-.19 5.59.41a2.86 2.86 0 0 0 1 1 2.58 2.58 0 0 0 1 2.67s1.12-.71.85-2.78a3 3 0 0 0 2.21-1.69 4.29 4.29 0 0 0-2.34-2.15 2.46 2.46 0 0 0-1.12-2.45s-1.34 1.15-.85 2.32l-.44.52-5.83-.71v-.46l1.36-1.23-1.66.6-.33-.3 1.25-1.85-1.61 1.34.57-2.34-.9 1.17v-3.68l.44.37c.44.37.74 1 1 1h.25v.18s-.85-.22-.79.1.93.91 1.09 1.54-.63-.66.27-1.15-1.72-1.21-1.72-1.21v-.9s1.81.16 2.14-.16c0 0 .44.78 1 .61s.62-.45 1.09-.9.2-.78-.21-1.35-.88-.84-1.07-.43-.48-.22-.69-.45-.66-.08-.66-.08l.07-.57s1 .25.94-.61-1-1.19-1.14-1.76 0 .39-.39.7-1 1.41-.37 1.59l.41.1-.14.61h-1.23l-.55-.84.1-2s.2-.39.82 0l1-1-1.1-1.57-.59.16-1.25-.31.12-.65s.72-.92-.51-2.18zM540 515.24a19.25 19.25 0 0 1-9.45 8.93c-11.62 5.26-27.94 5.64-27.94 5.64-22.06.95-33.63-3.11-39.11-6.12a9.65 9.65 0 0 1-4.86-6.86c-1.9-9.91 5.1-11.15 5.39-11.19a29.38 29.38 0 0 1-5.05-28c4.14-12.85 15.47-19.57 23.72-26.17s10.1-13.21 10.1-13.23l1.62-11.09a4.89 4.89 0 0 0 3.19 1.2 4.75 4.75 0 0 0 1.39-.21 5 5 0 0 0 1.94-1.12l2.16 10.66S505 444.84 516 451c9.15 5.12 18.66 12.61 23.41 24.94 5.63 14.62-2.83 26.51-2.91 26.63a10.85 10.85 0 0 1 4.56 6c.49 1.73.21 3.97-1.06 6.67z" transform="translate(-237.21 -84.9)"/><path class="cls-10" d="M502.65 423.66a4.86 4.86 0 0 1-1.78 3.77 4.8 4.8 0 0 1-1.81.94 4.87 4.87 0 0 1-2.62-9.39 4.81 4.81 0 0 1 1.33-.19h.41a4.87 4.87 0 0 1 4.47 4.87z" transform="translate(-237.21 -84.9)"/><path class="cls-2" d="M461.83 605.12a21.92 21.92 0 0 0 1.86 1.49" transform="translate(-237.21 -84.9)"/></g><g id="Слой_8" data-name="Слой 8"><path class="cls-2" d="M366.37 721.36l4.11 26.88 14.23 6.39 28.89-24.79 8.36 5.52 9.26-5.29-1.18-1.34-8.15 4.78-8.26-7.19-18.59 14.77-11.48 8.72.69-22.72-15.15-8.95-2.73 3.22z"/><path class="cls-1" d="M551.68 631.1l5.1 193.44c.3 11.47.21 22.34 1.8 33.7s5-4.85 13.22-19.53c2.59-4.63-4.23-199.69-4.23-199.69l-2.48-1.88 2.15-7.59.14-6.2a13.66 13.66 0 0 1-5.19 1.39c-2.24-.07-10.51-1.91-10.51-1.91zM446.32 791.34l-.25 75.74s-5.07 8.45-22.07 7.83v-81.28s11.55 1.85 22.32-2.29zM373.12 766.07l5.54 95.74-18 1.68-3.55-101.57s15.95-2.26 18.24-5.94-2.69 1.88-2.23 10.09zM444.25 626.52l.59 135.4s-3.77-18.15-14.11-28.87c-7.66-9.43-11.72 8.55-10.35-15 2.23-38.16 1-121.84 1-121.84s25.84 13.83 27.68 17.38c0-.03-4.81 8.11-4.81 12.93z" transform="translate(-237.21 -84.9)"/><path class="cls-15" d="M378.66 623.86l2.54 122.82 2.11 3 1.69.32a74.55 74.55 0 0 1 13.42-11.21l-2-102.21 2-.57-.57-21z" transform="translate(-237.21 -84.9)"/><path class="cls-4" d="M688.43 795.33l1.06-64.88s.42-11.62-7.5-11.33c0 0 4.57-2 6.64 2.11a21.83 21.83 0 0 1 2.17 8.26l1.37-.35s-.46-10.89-6.43-12.16c0 0 7.34-1 7.34 11h2.75s-.11-13.21-9.3-13.21-18.82 16.87-17.33 27.77c0 0 1-16.77 9.76-21.06 4-1.84 6.77 5.88 6.2 13.23s-1.49 60.48-1.49 60.48l1.15.12 1.84-63.9s.57-11-6.89-11c0 0 4.82-1.72 6.89 3.1s1.26 16 1.26 16l-1.61 55z" transform="translate(-237.21 -84.9)"/><path class="cls-4" d="M453.57 710.68l1.38-61.64-1.95-.8-.81 61.4 1.38 1.04zM457.45 710.31l.9-47.12 8.77-6.44-8.33 4.23v-9.18l8.22-6.31-8.22 4.7v-2.52l-3-.58v62.55l1.66.67zM421.79 672.1v61.41l-8-7.19v-57.46l8.21 3.04"/><path class="cls-4" d="M417.69 670.93l4.28 2.29 9.26-6.27-9.26 4.9-4.28-.92zM417.69 681.95l4.28 2.29 9.26-6.27-9.26 4.89-4.28-.91zM384.37 548.05l.34 179.04-15.61-8.95-1.84-176.87 17.11 6.78"/><path class="cls-4" d="M571.8 631.57s4.09-5.28 9.76-2.07c4.51 2.56 4.4 10.86 4.16 14.14-.08 1.15-.12 2.3-.1 3.46l1.11 98.78h-2l-.3-99.25v-2.36c.2-4.05.03-19.8-12.63-12.7z" transform="translate(-237.21 -84.9)"/><path class="cls-16" d="M662.14 689.87c8.26 4.1 13.76 2.11 19.61-.8 5.23-2.61 4.34-9.12 3.11-12.49s-3.11.58-7.09 1.81a36 36 0 0 1-11.94 1.38c-2.29-.3-10.36 5.67-3.69 10.1zM310.81 643s-2 10.71 1.53 14.08 4.75 4.13 13.32 1.84 11.32-2.14 5.81 2.3-17.4 7.19-22 3.06-3.83-9.95-3.06-13.62 4.59-8.98 4.4-7.66zM269.5 727.36s-17.45-.77-19.13-7.5 1.22-15.61 7.19-22.8 17.48-16.53 17.77-14.23-4.61 8.26-8.59 12.24-8.74 4.6-8.74 10.72 2.14 9.95 6.58 12.24 8.59 10.41 4.92 9.33zM320 684.82s-3.66 8.72 5.67 9.33 14.23-1.07 22.49 5.66 16.37 8.57 17.75 6.12-8.26-22.19-18.52-29.61-11.78-5.74-11.78-5.74-1.68-.46-1.22 2.3.31 6.12-1.22 7.8-11.03 5.67-13.17 4.14z" transform="translate(-237.21 -84.9)"/><path class="cls-16" d="M310 676.33s-12.62 19.28-14 29.84-1.15 23.18 8 29.61 19.28 8 32.37 7.8 28.46-1.84 31.22-8.72-6.43-25-4.13-26.63 11.94 20.89 14.69 31.91-5.36 11-20.36 11.94-56.31.92-73.79-10.79-11.94-22.49-2.75-36 24.82-26.43 28.75-28.96z" transform="translate(-237.21 -84.9)"/><path class="cls-1" d="M277.68 606.47l14.32 4.9.12 1.92-14.43-7 2.67 73.71-7.72 3.42-5.75-109.56s-1.57-3.45 3.06-2.59l4.63.86 3.73-1.22-1.31 10.16.77 2.68-4.9 3.6 1.53 4 .94.65 1.24 1.34.57 14" transform="translate(-237.21 -84.9)"/><path class="cls-4" d="M126.25 553.1l16.75 7.57 18.25-9.52-18.02 6.88-16.98-4.93zM125.33 535.65l16.76 7.58 18.24-9.53-18.02 6.89-16.98-4.94z"/><path class="cls-4" d="M336.37 588.57s-4.67-6.73-8.26-5.89-5 4.36-5.2 6.81 1.76 10.1 6.73 11.86A12.56 12.56 0 0 1 325 590.1c.89-7.19 6.63-7.88 11.37-1.53zM340.5 596.3s.61 12.78-8.88 9.64c0 0 4 2.83 7.19-.38s3.37-9.95 3.37-9.95zM659 568.57s4.67-6.73 8.26-5.89 5 4.36 5.2 6.81-1.76 10.1-6.73 11.86a12.56 12.56 0 0 0 4.67-11.25c-.96-7.19-6.7-7.88-11.4-1.53zM654.83 576.3s-.61 12.78 8.88 9.64c0 0-4 2.83-7.19-.38s-3.37-9.95-3.37-9.95z" transform="translate(-237.21 -84.9)"/><path class="cls-4" d="M307.68 557.77c-15.38 4.13-16.41 30.08-16.41 30.08l3.46 1.38 1.27.57v3.78l-4.88 2.07-15.67-4.49.46.18 15.24 5.86 5.47 88.66 2.11-1.72-5.28-87.68 1.6-.58 4.94 87.8 1.6-2.07s-4.81-87.34-4.93-91A36 36 0 0 1 302 569c8.25-13.85 22.49-10.22 28.67-7.79-6.3-2.36-16.17-3.24-24.65 5.14-10 9.88-8.26 25.6-8.26 25.6l5.24 88.17 1.27-1.84-4.82-87.12s-1.38-14.23 8.14-24.79c13-12.63 30 .07 31.47 1.19-1.34-.88-15.8-10.06-27.44-2.46-12.22 8-11.13 25.37-11.13 25.37l5.39 86.31 1.38-1s-5.63-68.4-5.63-85 9.18-23.64 9.18-23.64c24-14.16 45.8 18.07 47 19.89-15.81-28.57-34.81-33.39-50.13-29.26zM294.59 588l-1.61-.62c3.14-33.51 26.93-29.84 26.93-29.84-25.78 1.27-25.32 30.46-25.32 30.46zM756.77 595.3s-1.26-9.3-6.83-12.85c-5.11-3.26-8.09-1.61-9.12-2.75s-.46 1.55-4.13 3.84-3.56 4.45-3.56 4.45 3.56-3.69 5.51-4.26a3.48 3.48 0 0 0 2.41-2.07 14.74 14.74 0 0 1 6.89 1.26c5.09 2.58 6.93 9.07 7.14 11.53a1 1 0 0 0 1 .86z" transform="translate(-237.21 -84.9)"/><path class="cls-4" d="M732.67 595.65s3.56-6.2 9.3-6.54 8.72 6.66 9.07 11.13 0 11.94 0 11.94l-2.18 60.37.23 10.79-.23 1.72-.84-.19-1.34.84-.77-.61-1.42 1.15-.84-.77-1.72 1.52-2.33-2.6-2.45-.15 1.68-81.1s-.77-3.21-3.06-3.52-3.29.19-3.1-3.98z" transform="translate(-237.21 -84.9)"/><path class="cls-4" d="M456.02 487.45l-.46 123.03 1.53 1.23.77-123.5-1.84-.76zM462.79 489.28v18.82h-2.33l-.31 105.97-2.29-1.79.91-104.41-.3-16.77h1.99l2.33-1.82z"/><path class="cls-17" d="M676.22 607.65a8.17 8.17 0 0 0-5.22 7.85v45.91l-2.28.46s-.77-42.93 0-45.65 2.76-9.08 7.5-8.57zM657 671.51v-52.34s.45-13.16 6.27-11.17c0 0-7.27-2.91-8.27 10.1v54.32z" transform="translate(-237.21 -84.9)"/><path class="cls-4" d="M644 680l.77-46.71s-.46-10.27 4.59-11.5c0 0-5.82.1-6.73 10.66s0 47.54 0 47.54z" transform="translate(-237.21 -84.9)"/><path class="cls-18" d="M366.58 523.83l.68 17.44 17.11 6.78-.23-19.4-17.56-5.28"/><path class="cls-4" d="M401.79 548.1v49.53l-2 1.07v-50.6h2z"/><path class="cls-4" d="M639.36 573s14.46-38.79 39.48-35.81c0 0 16.53 1.84 19.28 29.61l-1.61 2.52s-1.84-42.35-33.05-27.77c0 0 27.2-15 32.25 28.35l-2.41 1.26s.92-37.42-28.12-28.81c0 0 27.2-9.76 27 35.92s-.69 117.07-.69 117.07l-1.72-.69 1-116.38s2.91-44.84-29.53-32.75c0 0 28.77-11.63 27.85 32.59s-.61 116.15-.61 116.15l-1.84-.61.61-123.8s-.92-28.62-24.18-23.72c.01.05-13.76 6.17-23.71 26.87z" transform="translate(-237.21 -84.9)"/><path class="cls-13" d="M623.3 600.51s2.14-18.67 7.65-30.91 3.06-9.49-3.83-8.57-3.83-4.48-2-9.43-10.71 7.59-11 22.28 8.43 31.86 9.18 26.63z" transform="translate(-237.21 -84.9)"/><path class="cls-13" d="M634.54 530.57s-14.46 12.85-23.64 42c0 0-.69 5.74-6.43 6.89S575.05 585 572 586.81s-21.67 12.17-27-3.9-4.48-21.58-4.19-26.4-2.47-27.54 4.65-32.37 10.79-13.24 22-12.7 34.66 6.27 46.6 9.95 28.75 2.98 20.48 9.18zM461 556.74V587s-21.35-7.8-30.16-19.43-3.06-10.25-1.83-26.17S406 517 390.42 517s-49.65 9.5-53 8.88 17.77-16.41 24.81-19.38 18.72-.6 24.79 5S425 516.65 440 533.79s18.44 9.21 18.44 9.21 2.56 7.62 2.56 13.74z" transform="translate(-237.21 -84.9)"/><path class="cls-19" d="M374.47 503.74s-5.73-10.79 1.16-21.36a263.82 263.82 0 0 1 18.83-25c1.6-1.61-2.07 13.31-7.12 19.05s-6.2 10.85-6 14-3.23 16.08-6.89 13.3" transform="translate(-237.21 -84.9)"/><path class="cls-13" d="M316.62 479.61l2.08 37.64s1.84 3.21 1.15 6a18 18 0 0 0 .15 6.66s7.88.46 13.62-2.3 34.2-15.15 37-16.76 5-.92 3.44-10.56.69-12.62 2.75-15.84a31.17 31.17 0 0 0 3.21-7.35s2.07-5.59-18.36-2.68-21 3-23.11-3.37-21.89 8.57-21.89 8.57" transform="translate(-237.21 -84.9)"/><path class="cls-3" d="M315 455.08s5.61-9.07 14.64-14.58 9.61-9.85 9.61-10.77 2.91 5.51 6.43 5.2 9.79-1.53 18.06 2.75 14.84 12.65 16.22 16a50.35 50.35 0 0 0-33.05-1.79 45.15 45.15 0 0 0-25.43 18c-4.38 6.5-5.78 13.08-7.92 12.77s-.78-3.51-.84-6.48a51.73 51.73 0 0 1 1-7.9s2.11-4.33 1.06-7.37-1.2-3.47.22-5.83zM572 447.31s1.78-8.06 13.6-15.06 17-3.06 20.69-4.78 6.56-4.11 6.67-5.6 1.38 3.11 2.76 5.29 17 9.53 22.59 15.5S653 460.56 654 464.58v4.94s-.21 22.8-1.74 19.89-22.59-25.56-30.7-30-12.71-7.17-18.62-8.29c-7.05-1.34-14.24-3.92-18.94-3.91-5.34.02-12.51 1.56-12 .1z" transform="translate(-237.21 -84.9)"/><path class="cls-19" d="M540.71 511.44s28.87-6.73 32.7-12.7.46-16.68 4.74-22.65 13.77-1.68 13.77-1.68 1.22.31-1.84-4.74-16.22-22.19-29.08-30l-4.59-3.37-.61 6.27s2 4.74-11 11.17-16.37 6.12-16.37 6.12 10.42 10.08 11.39 17.45 1.92 18.21-3.43 25.4c-.01.01 5.75 2.61 4.32 8.73zM413 439.67s-11.9 9.65-16.49 24.33-1.38 21.58 8.26 21.58 14.23 19.74 32.6 28.92c0 0 20.12 9.18 21 1.61s.84-3.56.84-3.56a4 4 0 0 1 .57-3.56 16.76 16.76 0 0 1 3.79-3.33s-5.32-8.16-5.21-14.23-.77-11.24 4-18.82L467 465s-37.1-1-49.61-12.27c.01.03-5.5-3.07-4.39-13.06z" transform="translate(-237.21 -84.9)"/><path class="cls-20" d="M723.11 408.17s-13.36 7.21-26.86.69-21.85-14.28-30.61-13-11.27 3.88-8.63-.69 9.46-11.54 20.73-19.49c0 0 3.34-2.54 3.2 3s-.28 5.82 2.92 5.68S688 381 691 377s7.73-2.51 12.32.29 20 11.07 23.17 25.77-3.34 5.13-3.34 5.13" transform="translate(-237.21 -84.9)"/><path class="cls-21" d="M702.52 376.85s-8.77-3.33-8.77 1.11-3.2 6.1-.83 12.34 11.55 5.27 12.52 9.7-5.84 12.75 2.5 12.75 19.48-5.27 18.51-9.7-5.14-15.81-23.93-26.2z" transform="translate(-237.21 -84.9)"/><path class="cls-20" d="M310.1 427.36s-13.57 7.35-27.29.71-22.2-14.56-31.1-13.29-11.45 4-8.77-.71 9.61-11.77 21.07-19.88c0 0 3.39-2.6 3.25 3.06s-.28 5.94 3 5.8 4.24-3.39 7.21-7.49 7.86-2.56 12.51.3 20.29 11.29 23.54 26.28-3.39 5.23-3.39 5.23" transform="translate(-237.21 -84.9)"/><path class="cls-21" d="M289.17 395.41s-8.91-3.39-8.91 1.13-3.25 6.22-.85 12.58 11.73 5.37 12.72 9.9-5.94 13 2.54 13 19.79-5.37 18.8-9.9-5.21-16.12-24.3-26.71z" transform="translate(-237.21 -84.9)"/><path class="cls-20" d="M536.07 484.36s-14.69 8-29.53.77-24-15.76-33.67-14.38-12.4 4.28-9.49-.77 10.41-12.74 22.8-21.52c0 0 3.67-2.81 3.52 3.31s-.31 6.43 3.21 6.27 4.59-3.67 7.8-8.11 8.5-2.77 13.54.32 22 12.22 25.48 28.45-3.67 5.66-3.67 5.66" transform="translate(-237.21 -84.9)"/><path class="cls-21" d="M513.42 449.77s-9.64-3.67-9.64 1.22-3.52 6.73-.92 13.62 12.7 5.82 13.77 10.71-6.43 14.08 2.75 14.08 21.42-5.82 20.35-10.71-5.65-17.44-26.31-28.92z" transform="translate(-237.21 -84.9)"/><path class="cls-16" d="M654.84 401.88a11.13 11.13 0 0 0 7.5 12.77c9.58 3.61 10.27 6.39 20.41 5.28s21.24 2.36 30-1.8 12.63-11.94 13.19-12.36 2.36 11.8-1 15.83-6.1 2.4-12.94 4.3-18.19-.14-19.71 2.92-4.86 2.64-11.25 0-9.86-3.89-16.66-4.86-12.5-1.19-12.36-7.54-.09-9.27 2.82-14.54zM242.24 421.57a11 11 0 0 0 7.44 12.67c9.51 3.58 10.2 6.34 20.25 5.24s21.08 2.34 29.76-1.79 12.54-11.85 13.09-12.26 2.34 11.71-1 15.71-6.06 2.34-12.81 4.27-18-.14-19.56 2.89-4.82 2.62-11.16 0-9.78-3.86-16.53-4.82-12.4-1.19-12.26-7.48-.11-9.19 2.78-14.43zM461.39 474.41a12.27 12.27 0 0 0 8.26 14.08c10.56 4 11.32 7 22.49 5.82s23.41 2.6 33.05-2 13.93-13.16 14.54-13.62 2.6 13-1.07 17.45-6.73 2.6-14.23 4.74-20-.15-21.73 3.21-5.36 2.91-12.4 0-10.86-4.28-18.36-5.36-13.77-1.32-13.62-8.31-.14-10.19 3.07-16.01zM406.3 272.59s-1.53 17 20.81 20.33 21.73 1.53 37.64 3.67 11.65-3.06 30.92 1.53 38.25-.31 45.29-5.82 12.27-18.47 13.33-21.47 3.2 4.34 3.2 12-.31 30.3-12.24 33.36S537 314 522 313.73s-23.85 1.53-26.31-1.53-2.46-6.12-11-.61-15 4.28-22.34-.31-11-10.1-21.42-6.43-11.32 12.24-17.14 11 2.45 7.35-3.37 5.51-20.81-16.51-17.45-36.11 3.33-12.66 3.33-12.66z" transform="translate(-237.21 -84.9)"/><path class="cls-22" d="M460.17 210.59s-4.28 6.12-17.45 14.38-28.16 30-29.38 31.83-3.37 8 6.43 4.59 3.06 8.26 13.47 5.2 13.47 2.14 24.18 6.43 10.71-12.55 22-5.82 37.34 12.85 53.25 17.14 25.4-7 20.2-19-19.59-33.05-49.27-49.27a33.68 33.68 0 0 1-5.82-5.51c-2.6-3.21-8.88 1.84-7.8 9.18s-17.6 9.79-20.66.31-7.03-11.91-9.15-9.46z" transform="translate(-237.21 -84.9)"/><path class="cls-21" d="M496.59 212.43s8.72 11.48 3.44 9.41-4.82 3.21-3.44 10.33 7.35 3.21 19.05 16.76 16.9 23.17 27.77 23.64 10.85-7.08 5.27-15.25-19.52-25.32-33.15-33.94-10.57-5.71-13.63-8.66-7.9-6.05-5.31-2.29z" transform="translate(-237.21 -84.9)"/><path class="cls-4" d="M369.68 524.4l14.69 6.2 12.39-6.77-12.62 4.82-14.46-4.25zM369.68 541.85l14.69 6.2 12.39-6.78-12.62 4.83-14.46-4.25z"/><path class="cls-14" d="M314.86 466.49a20.07 20.07 0 0 1-1.86 4.08l.58 9.05v-8.69c0-1.01 1.07-2.69 1.27-4.45" transform="translate(-237.21 -84.9)"/></g></symbol><symbol id="location-sign" viewBox="0 0 395.71 395.71"><path d="M197.849 0C122.131 0 60.531 61.609 60.531 137.329c0 72.887 124.591 243.177 129.896 250.388l4.951 6.738a3.064 3.064 0 0 0 2.471 1.255 3.08 3.08 0 0 0 2.486-1.255l4.948-6.738c5.308-7.211 129.896-177.501 129.896-250.388C335.179 61.609 273.569 0 197.849 0zm0 88.138c27.13 0 49.191 22.062 49.191 49.191 0 27.115-22.062 49.191-49.191 49.191-27.114 0-49.191-22.076-49.191-49.191 0-27.129 22.076-49.191 49.191-49.191z"/></symbol><symbol id="papyrus" viewBox="0 0 465 465"><path d="M396.137 0H147.535C114.48 0 87.588 26.893 87.588 59.947v40.811a7.499 7.499 0 0 0 2.851 5.885l12.077 9.542-12.077 9.542a7.499 7.499 0 0 0-2.851 5.885v32.084a7.497 7.497 0 0 0 2.851 5.885l12.076 9.541-12.076 9.542a7.499 7.499 0 0 0-2.851 5.885v161.047H16.416a7.499 7.499 0 0 0-7.5 7.5v41.958C8.916 438.107 35.809 465 68.863 465h248.602c33.055 0 59.947-26.893 59.947-59.947v-96.169a7.498 7.498 0 0 0-3.053-6.039l-11.608-8.549 11.811-9.33a7.5 7.5 0 0 0 2.851-5.885V109.405h71.172c4.143 0 7.5-3.357 7.5-7.5V59.947C456.084 26.893 429.191 0 396.137 0zm44.947 94.405h-63.672v-8.234c0-10.324 8.399-18.724 18.725-18.724 4.143 0 7.5-3.357 7.5-7.5s-3.357-7.5-7.5-7.5c-18.596 0-33.725 15.128-33.725 33.724v189.277l-16.675 13.173a7.501 7.501 0 0 0 .202 11.924l16.473 12.13v92.378c0 24.784-20.163 44.947-44.947 44.947H68.863c-24.784 0-44.947-20.163-44.947-44.947v-34.458h258.398v8.234c0 18.596 15.128 33.724 33.724 33.724 4.143 0 7.5-3.357 7.5-7.5s-3.357-7.5-7.5-7.5c-10.324 0-18.724-8.399-18.724-18.724v-15.734c0-4.143-3.357-7.5-7.5-7.5H102.588V198.181l16.675-13.175a7.499 7.499 0 0 0 0-11.77l-16.675-13.174v-24.818l16.675-13.175a7.499 7.499 0 0 0 0-11.77l-16.675-13.175V59.947c0-24.784 20.163-44.947 44.947-44.947h248.602c24.784 0 44.947 20.163 44.947 44.947v34.458z"/></symbol><symbol id="phone-call" viewBox="0 0 473.806 473.806"><path d="M374.456 293.506c-9.7-10.1-21.4-15.5-33.8-15.5-12.3 0-24.1 5.3-34.2 15.4l-31.6 31.5c-2.6-1.4-5.2-2.7-7.7-4-3.6-1.8-7-3.5-9.9-5.3-29.6-18.8-56.5-43.3-82.3-75-12.5-15.8-20.9-29.1-27-42.6 8.2-7.5 15.8-15.3 23.2-22.8 2.8-2.8 5.6-5.7 8.4-8.5 21-21 21-48.2 0-69.2l-27.3-27.3c-3.1-3.1-6.3-6.3-9.3-9.5-6-6.2-12.3-12.6-18.8-18.6-9.7-9.6-21.3-14.7-33.5-14.7s-24 5.1-34 14.7l-.2.2-34 34.3c-12.8 12.8-20.1 28.4-21.7 46.5-2.4 29.2 6.2 56.4 12.8 74.2 16.2 43.7 40.4 84.2 76.5 127.6 43.8 52.3 96.5 93.6 156.7 122.7 23 10.9 53.7 23.8 88 26 2.1.1 4.3.2 6.3.2 23.1 0 42.5-8.3 57.7-24.8.1-.2.3-.3.4-.5 5.2-6.3 11.2-12 17.5-18.1 4.3-4.1 8.7-8.4 13-12.9 9.9-10.3 15.1-22.3 15.1-34.6 0-12.4-5.3-24.3-15.4-34.3l-54.9-55.1zm35.8 105.3c-.1 0-.1.1 0 0-3.9 4.2-7.9 8-12.2 12.2-6.5 6.2-13.1 12.7-19.3 20-10.1 10.8-22 15.9-37.6 15.9-1.5 0-3.1 0-4.6-.1-29.7-1.9-57.3-13.5-78-23.4-56.6-27.4-106.3-66.3-147.6-115.6-34.1-41.1-56.9-79.1-72-119.9-9.3-24.9-12.7-44.3-11.2-62.6 1-11.7 5.5-21.4 13.8-29.7l34.1-34.1c4.9-4.6 10.1-7.1 15.2-7.1 6.3 0 11.4 3.8 14.6 7l.3.3c6.1 5.7 11.9 11.6 18 17.9 3.1 3.2 6.3 6.4 9.5 9.7l27.3 27.3c10.6 10.6 10.6 20.4 0 31-2.9 2.9-5.7 5.8-8.6 8.6-8.4 8.6-16.4 16.6-25.1 24.4-.2.2-.4.3-.5.5-8.6 8.6-7 17-5.2 22.7l.3.9c7.1 17.2 17.1 33.4 32.3 52.7l.1.1c27.6 34 56.7 60.5 88.8 80.8 4.1 2.6 8.3 4.7 12.3 6.7 3.6 1.8 7 3.5 9.9 5.3.4.2.8.5 1.2.7 3.4 1.7 6.6 2.5 9.9 2.5 8.3 0 13.5-5.2 15.2-6.9l34.2-34.2c3.4-3.4 8.8-7.5 15.1-7.5 6.2 0 11.3 3.9 14.4 7.3l.2.2 55.1 55.1c10.3 10.2 10.3 20.7.1 31.3zM256.056 112.706c26.2 4.4 50 16.8 69 35.8s31.3 42.8 35.8 69c1.1 6.6 6.8 11.2 13.3 11.2.8 0 1.5-.1 2.3-.2 7.4-1.2 12.3-8.2 11.1-15.6-5.4-31.7-20.4-60.6-43.3-83.5s-51.8-37.9-83.5-43.3c-7.4-1.2-14.3 3.7-15.6 11s3.5 14.4 10.9 15.6zM473.256 209.006c-8.9-52.2-33.5-99.7-71.3-137.5s-85.3-62.4-137.5-71.3c-7.3-1.3-14.2 3.7-15.5 11-1.2 7.4 3.7 14.3 11.1 15.6 46.6 7.9 89.1 30 122.9 63.7 33.8 33.8 55.8 76.3 63.7 122.9 1.1 6.6 6.8 11.2 13.3 11.2.8 0 1.5-.1 2.3-.2 7.3-1.1 12.3-8.1 11-15.4z"/></symbol><symbol id="phone" viewBox="0 0 29.731 29.731"><path d="M23.895 29.731c-1.237 0-2.731-.31-4.374-.93-3.602-1.358-7.521-4.042-11.035-7.556C4.971 17.73 2.287 13.81.928 10.208-.307 6.933-.31 4.245.921 3.015c.177-.177.357-.367.543-.563C2.587 1.271 3.856-.058 5.538.002 6.697.05 7.82.77 8.97 2.201c3.398 4.226 1.866 5.732.093 7.478l-.313.31c-.29.29-.838 1.633 4.26 6.731 1.664 1.664 3.083 2.882 4.217 3.619.714.464 1.991 1.166 2.515.642l.315-.318c1.744-1.769 3.25-3.296 7.473.099 1.431 1.15 2.15 2.272 2.198 3.433.069 1.681-1.27 2.953-2.452 4.075-.195.186-.385.366-.562.542-.611.612-1.588.919-2.819.919zM5.418 1C4.223 1 3.144 2.136 2.189 3.141c-.192.202-.378.398-.561.581-.917.916-.824 3.323.236 6.134 1.31 3.472 3.913 7.266 7.33 10.683 3.416 3.415 7.208 6.018 10.681 7.327 2.811 1.062 5.218 1.152 6.133.237.183-.183.379-.369.581-.56 1.027-.976 2.192-2.082 2.141-3.309-.035-.843-.649-1.75-1.825-2.695-3.519-2.83-4.503-1.831-6.135-.176l-.32.323c-.78.781-2.047.608-3.767-.51-1.193-.776-2.667-2.038-4.379-3.751-4.231-4.23-5.584-6.819-4.26-8.146l.319-.315c1.659-1.632 2.66-2.617-.171-6.138-.947-1.175-1.853-1.789-2.696-1.825L5.418 1z"/></symbol><symbol id="search" viewBox="0 0 64 64"><path d="M25.915 52.205c6.377 0 12.206-2.344 16.708-6.196L59.98 63.365a2.004 2.004 0 1 0 2.836-2.837L45.459 43.172c3.853-4.5 6.197-10.331 6.197-16.707C51.656 12.271 40.107.724 25.915.724 11.721.724.173 12.271.173 26.465c0 14.193 11.548 25.74 25.742 25.74zm0-47.47c11.98 0 21.729 9.747 21.729 21.729 0 11.98-9.749 21.729-21.729 21.729-11.981 0-21.73-9.748-21.73-21.729 0-11.982 9.749-21.729 21.73-21.729z"/></symbol><symbol id="time-passing" viewBox="0 0 59.99 59.99"><path d="M1.005 31a1 1 0 0 0 1-1c0-15.439 12.561-28 28-28a27.84 27.84 0 0 1 17.302 6h-5.302a1 1 0 1 0 0 2h7.915a.958.958 0 0 0 .193 0h.891V1a1 1 0 1 0-2 0v5.81A29.817 29.817 0 0 0 30.005 0c-16.542 0-30 13.458-30 30a1 1 0 0 0 1 1z"/><path d="M30.005 8c-12.131 0-22 9.869-22 22s9.869 22 22 22 22-9.869 22-22-9.869-22-22-22zm0 42c-11.028 0-20-8.972-20-20s8.972-20 20-20 20 8.972 20 20-8.972 20-20 20z"/><path d="M30.005 15a1 1 0 0 0 1-1v-2a1 1 0 1 0-2 0v2a1 1 0 0 0 1 1zM30.005 45a1 1 0 0 0-1 1v2a1 1 0 1 0 2 0v-2a1 1 0 0 0-1-1zM46.005 31h2a1 1 0 1 0 0-2h-2a1 1 0 1 0 0 2zM14.005 29h-2a1 1 0 1 0 0 2h2a1 1 0 1 0 0-2zM31.005 25.142V20a1 1 0 1 0-2 0v5.142c-1.72.447-3 1.999-3 3.858 0 .74.215 1.424.567 2.019l-8.274 8.274a.999.999 0 1 0 1.414 1.414l8.274-8.274a3.947 3.947 0 0 0 2.019.567c2.206 0 4-1.794 4-4 0-1.859-1.28-3.411-3-3.858zm-1 5.858c-1.103 0-2-.897-2-2s.897-2 2-2 2 .897 2 2-.897 2-2 2zM11.894 52.66a.995.995 0 0 0 .8 1.589c.31 0 .61-.13.81-.4.32-.439.23-1.069-.21-1.399a.996.996 0 0 0-1.4.21zM7.235 46.27c-.32-.439-.95-.55-1.4-.229a1.006 1.006 0 0 0 .59 1.819 1.008 1.008 0 0 0 .81-1.59zM7.624 48.45c-.41.369-.45 1-.08 1.409.19.23.47.341.75.341.23 0 .47-.08.66-.25.41-.37.45-1 .08-1.41-.359-.42-.989-.45-1.41-.09zM11.065 50.6c-.4-.37-1.04-.34-1.41.061a1 1 0 0 0 .73 1.68c.27 0 .54-.11.74-.32a.996.996 0 0 0-.06-1.41V50.6zM5.675 43.84h-.01a.988.988 0 0 0-1.36-.37.997.997 0 1 0 .5 1.86 1 1 0 0 0 .87-1.49zM58.945 32.12h.04c.54 0 .98-.431 1-.96a.996.996 0 0 0-.96-1.04c-.55-.021-1.02.41-1.04.96s.409 1.02.96 1.04zM1.265 33.99a1.001 1.001 0 0 0-.21-1.991.99.99 0 0 0-.89 1.09c.05.52.49.9.99.9l.11.001zM1.825 36.93c.54-.11.89-.64.77-1.18a.988.988 0 0 0-1.18-.771.989.989 0 0 0-.77 1.181c.09.47.51.79.97.79.069 0 .14 0 .21-.02zM4.365 41.25c-.22-.5-.81-.73-1.32-.51-.5.22-.73.81-.51 1.319.17.37.53.601.92.601.13 0 .27-.03.4-.091.499-.219.729-.809.51-1.319zM3.334 38.55a.988.988 0 0 0-1.25-.65 1 1 0 0 0-.65 1.261c.14.42.53.689.95.689.1 0 .21-.01.31-.04.521-.17.811-.741.64-1.26zM29.465 57.99c-.55-.011-1.01.43-1.02.979a.998.998 0 0 0 .98 1.021h.02c.55 0 .99-.431 1-.98.009-.55-.43-1.01-.98-1.02zM52.135 47.14a1 1 0 0 0 .17 1.4c.19.14.4.21.62.21.29 0 .59-.13.79-.391.34-.43.26-1.06-.18-1.399s-1.06-.26-1.4.18zM45.834 53.08a.996.996 0 0 0-.25 1.39c.19.28.5.43.82.43a1 1 0 0 0 .57-.17c.45-.31.57-.939.25-1.39a.997.997 0 0 0-1.39-.26zM48.135 51.319a.999.999 0 0 0 .65 1.761.999.999 0 0 0 .76-1.65 1 1 0 0 0-1.41-.111zM55.164 44.439c-.47-.29-1.09-.14-1.38.32-.29.47-.15 1.09.32 1.38.17.101.35.15.53.15a1 1 0 0 0 .53-1.85zM50.245 49.33a.987.987 0 0 0 .03 1.41.97.97 0 0 0 .69.279c.26 0 .53-.1.72-.31a.996.996 0 1 0-1.44-1.379zM58.854 33.109a1.01 1.01 0 0 0-1.13.851c-.08.55.3 1.05.85 1.13.05.01.1.01.14.01a1 1 0 0 0 .14-1.991zM58.385 36.069c-.54-.13-1.08.2-1.22.73-.13.54.2 1.08.73 1.22a1.003 1.003 0 0 0 1.21-.73 1.005 1.005 0 0 0-.72-1.22zM15.704 54.06a.996.996 0 0 0-1.37.351.995.995 0 1 0 1.71 1.02.997.997 0 0 0-.34-1.371zM57.604 38.97a.995.995 0 0 0-1.28.6.992.992 0 0 0 .93 1.341c.41 0 .8-.25.94-.66a.992.992 0 0 0-.59-1.281zM56.525 41.77c-.49-.239-1.1-.04-1.34.46s-.03 1.101.46 1.34a1.004 1.004 0 0 0 1.34-.46 1 1 0 0 0-.46-1.34zM26.575 57.79a.992.992 0 0 0-1.11.87c-.07.55.32 1.05.87 1.109v.011h.12c.5 0 .93-.37.99-.881a.992.992 0 0 0-.87-1.109zM20.945 56.5a.993.993 0 0 0-1.27.62c-.18.52.1 1.09.62 1.27.11.03.22.05.33.05a.997.997 0 0 0 .32-1.94zM23.725 57.29c-.54-.12-1.07.21-1.2.75-.12.54.22 1.08.75 1.2.08.02.15.02.23.02.45 0 .87-.31.97-.77a.993.993 0 0 0-.75-1.2zM18.265 55.42c-.51-.24-1.1-.021-1.33.479s-.02 1.101.48 1.33c.14.061.28.09.42.09.38 0 .74-.21.91-.579a.99.99 0 0 0-.48-1.32zM35.225 57.51c-.54.1-.9.63-.8 1.17.09.48.52.811.99.811.06 0 .12 0 .18-.011.54-.109.9-.63.8-1.17a1 1 0 0 0-1.17-.8zM38.035 56.83a.987.987 0 0 0-.67 1.239 1.005 1.005 0 0 0 1.25.671c.53-.16.83-.721.67-1.25-.161-.52-.72-.82-1.25-.66zM40.765 55.85c-.51.21-.75.8-.54 1.311.16.38.53.609.92.609.13 0 .26-.02.39-.069.51-.221.75-.801.54-1.311-.221-.51-.8-.75-1.31-.54zM32.354 57.899a.998.998 0 0 0-.91 1.08c.04.521.48.92 1 .92h.08v-.01c.55-.04.96-.52.91-1.07a1.007 1.007 0 0 0-1.08-.92zM43.374 54.6c-.49.26-.67.87-.4 1.351.18.34.52.529.88.529.16 0 .32-.04.47-.13.49-.26.67-.87.4-1.35a.983.983 0 0 0-1.35-.4z"/></symbol><symbol id="timer" viewBox="0 0 129 129"><path d="M12.3 70.2c0 28.8 23.4 52.2 52.2 52.2s52.2-23.4 52.2-52.2c0-14.3-5.8-27.4-15.2-36.8l4.1-4.1 1.9 1.9c.8.8 1.8 1.2 2.9 1.2s2.1-.4 2.9-1.2c1.6-1.6 1.6-4.2 0-5.8l-9.5-9.5c-1.6-1.6-4.2-1.6-5.8 0-1.6 1.6-1.6 4.2 0 5.8l1.9 1.9-4.5 4.5c-7.6-5.6-16.7-9.1-26.7-9.9v-3.5h9.1c2.3 0 4.1-1.8 4.1-4.1s-1.8-4.1-4.1-4.1h-27c-2.3 0-4.1 1.8-4.1 4.1s1.8 4.1 4.1 4.1h9.7v3.5c-27 2.1-48.2 24.6-48.2 52zm52.2-44c24.3 0 44.1 19.8 44.1 44.1s-19.8 44.1-44.1 44.1-44.1-19.8-44.1-44.1c0-24.4 19.8-44.1 44.1-44.1z"/><path d="M64.5 73.6H82c2.3 0 4.1-1.8 4.1-4.1s-1.8-4.1-4.1-4.1H68.6V44.3c0-2.3-1.8-4.1-4.1-4.1s-4.1 1.8-4.1 4.1v25.3c0 2.2 1.8 4 4.1 4z"/></symbol></svg>