<?xml version="1.0" encoding="UTF-8"?><!DOCTYPE svg PUBLIC "-//W3C//DTD SVG 1.1//EN" "http://www.w3.org/Graphics/SVG/1.1/DTD/svg11.dtd"><svg xmlns="http://www.w3.org/2000/svg"><symbol id="candle-2" viewBox="0 0 32 32"><title>candle-2</title><path d="M22.296 14.471V32H11.157v-7.096c-.753.315-.727-.349-.397-1.31l-.044.058c-2.022 1.273-.55-1.915.442-3.817v-5.756s1.436 1.643 2.896 0 8.243.392 8.243.392zm-7.903-2.938a.447.447 0 0 0 .348.167h.884a.19.19 0 0 1-.172-.109c-.582-1.239-.683-2.322-.299-3.219.515-1.202 1.707-1.612 1.758-1.628a.19.19 0 1 1 .21.295c-.54.706-.073 1.21-.013 1.27 1.569 1.658.276 3.305.263 3.321a.189.189 0 0 1-.148.071h1.285c.173 0 .331-.1.404-.257 1.373-2.918 1.611-5.471.705-7.584C18.405 1.027 15.596.063 15.477.023c-.186-.062-.391.004-.504.164s-.11.374.008.53c1.271 1.665.17 2.852.031 2.992-3.696 3.906-.65 7.785-.619 7.824z"/></symbol><symbol id="candle-3" viewBox="0 0 32 32"><title>candle-3</title><path d="M14.01 11.807a.467.467 0 0 0-.087.013c-1.126.164-2.02.438-2.637.837-.308.199-.561.435-.697.758-.076.18-.091.386-.061.586h-.027v16h11v-16h-.025a1.1 1.1 0 0 0-.062-.59c-.137-.322-.39-.557-.699-.756-.618-.398-1.512-.672-2.643-.836a.5.5 0 0 0-.146.988c1.042.151 1.837.424 2.246.688.204.132.299.257.32.309s.031.03-.019.111c-.102.163-.634.516-1.445.736s-1.879.355-3.023.355c-1.145 0-2.211-.134-3.023-.354s-1.346-.572-1.449-.736c-.051-.082-.043-.062-.021-.113s.117-.175.32-.307c.408-.264 1.2-.536 2.24-.688a.5.5 0 0 0-.059-.996zm6.49 3.359v7.084H20a.493.493 0 0 1-.5-.5v-1.5c0-.823-.677-1.5-1.5-1.5s-1.5.677-1.5 1.5V21c0 .282-.218.5-.5.5s-.5-.218-.5-.5v-2c0-.823-.678-1.5-1.5-1.5a.493.493 0 0 1-.5-.5v-1.209c.755.139 1.606.215 2.504.215 1.223 0 2.361-.14 3.283-.391.459-.124.869-.266 1.213-.449z"/><path d="M16.004 2.189s-3.077 4.225-2.652 6.562c.208 1.146.971 2.451 2.149 2.748v2.007a.5.5 0 0 0 1 0V11.515c1.225-.229 2.146-1.27 2.154-2.361.015-1.913-3.503-5.467-2.65-6.965z"/></symbol><symbol id="candle" viewBox="0 0 32 32"><title>candle</title><path fill="none" stroke="#fff" stroke-linecap="round" stroke-linejoin="round" d="M14.201 11.998s-1.945.37-2.74.912c-.261.178-.608.728-.608.728l-.088 15.247M17.877 12.003s1.968.445 2.718 1.066c.266.221.552.878.552.878l.088 15.247"/><path fill="none" stroke="#fff" d="M10.998 13.762s1.123.865 1.781 1.094c.946.33 1.983.333 2.984.359.997.026 2.016.034 2.984-.203.795-.195 2.25-.984 2.25-.984"/><path fill="none" stroke="#fff" stroke-linecap="round" stroke-linejoin="round" d="M13.132 15.028c-.22 1.867-.08 2.625 1.538 3.031.57.143.18 2.779.484 3.313.306.536 1.626.421 1.844-.156.112-.296-.185-1.513.366-2.009.442-.397.891-.418 1.328-.015.78.717-.12 2.307.618 3.024.395.383 1.625.281 1.625.281M15.935 10.169l.044 2.961M16.115 10.982c-.431.069-.934.057-1.294-.19-.718-.494-1.209-1.411-1.294-2.284-.129-1.332.617-2.639 1.267-3.806.403-.723 1.59-1.903 1.59-1.903s-.065 1.637.204 2.391c.391 1.093 1.764 1.729 1.97 2.872.135.746-.055 1.633-.55 2.207-.582.516-1.229.608-1.893.713z"/><path fill="none" stroke="#fff" stroke-width=".5" stroke-linecap="round" stroke-linejoin="round" d="M19.768 16.212l.022 1.525M13.334 22.543l-1.297.734M13.49 23.387l-1.641 1.109M13.615 24.184l-1.859 1.266M13.756 25.028l-1.828 1.266M13.99 25.825l-1.5 1.203M14.037 26.778l-1.203.984M13.008 21.812l-.739.4M15.477 7.172l-.739.4M15.445 8.031l-.739.4M15.789 8.828l-.739.4"/></symbol><symbol id="clock" viewBox="0 0 32 32"><title>clock</title><path d="M16 0C7.178 0 0 7.178 0 16s7.178 16 16 16 16-7.178 16-16S24.822 0 16 0zm0 30.933C7.766 30.933 1.067 24.234 1.067 16S7.766 1.067 16 1.067 30.933 7.766 30.933 16 24.234 30.933 16 30.933z"/><path d="M16.533 13.878V8.469a.533.533 0 1 0-1.066 0v5.409a2.13 2.13 0 0 0-1.524 1.524h-3.809a.533.533 0 1 0 0 1.066h3.809a2.132 2.132 0 0 0 2.058 1.6 2.135 2.135 0 0 0 2.133-2.133c0-.991-.683-1.819-1.6-2.058zM16 17.002a1.068 1.068 0 0 1 0-2.134 1.067 1.067 0 0 1 0 2.134zM16 5.269a.533.533 0 0 0 .533-.533v-.533a.533.533 0 1 0-1.066 0v.533c0 .295.239.533.533.533zM16 26.602a.533.533 0 0 0-.533.533v.533a.533.533 0 1 0 1.066 0v-.533a.533.533 0 0 0-.533-.533zM27.733 15.402H27.2a.533.533 0 1 0 0 1.066h.533a.533.533 0 1 0 0-1.066zM4.8 15.402h-.533a.533.533 0 1 0 0 1.066H4.8a.533.533 0 1 0 0-1.066zM23.919 7.261l-.377.377a.532.532 0 0 0 .377.91.532.532 0 0 0 .377-.156l.377-.377a.534.534 0 0 0-.754-.754zM7.703 23.478l-.377.377a.532.532 0 0 0 .377.91.532.532 0 0 0 .377-.156l.377-.377a.534.534 0 0 0-.754-.754zM24.297 23.478a.533.533 0 1 0-.754.754l.377.377a.532.532 0 1 0 .754-.754l-.377-.377zM8.081 7.261a.533.533 0 1 0-.754.754l.377.377a.532.532 0 1 0 .754-.754l-.377-.377z"/></symbol><symbol id="hram-logo" viewBox="0 0 21 32"><title>hram-logo</title><path fill="#c6c6c6" d="M20.479 22.313v.684l-.391.246v.646l-.214.164h-.32l-.422.302-.281.853.169.233.079 1.229s-.249.578-.775.578l-.111.022-.463.32-.084-.055-.078.042s-.053-.055-.053-.049a.387.387 0 0 1-.059.048l-.061-.021-.039.036-.051-.024-.607.414-.184.249-.682-.403-1.019.936-.736.67-.226.233-.615.605-.085.172c-.574.757-.942 1.038-1.822 1.37-.581.219-2.225.426-3.246-.463 0 0-.49.641-2.216.124l-.481-.194s-1.318.391-2.547.071-1.492-.853-1.492-.853v-.891s-.853-.071-.925-.587v-1.195l.374.107zM.513 27.748l-.202-3.079s.155-.442.129-.762S.122 18.63.122 18.63l.375-.612 1.929-1.805 2.727.643 5.257 2.763 2.298-1.691 3.666-1.713 2.513 1.072.862.961.729.831v.492l-.095.065-.047 2.55.142.129-.36.229-.078-.036-.013.127.102.112-.044.035-.004.209.111.084-.28.182-.043-.019-.039.039-.033-.022-.053.039-.031-.024-.055.047-.036-.036-.483.305-.013 1.302-.124.047.018.51s.16.326-.302.54-.516.178-.516.178v.065l.107.124v.16l-.119.018-.024.723-.44.304-.061-.056-.061.049-.064-.058-.069.053-.05-.049-.058.047-.052-.039-.123.089-.376.236-.041-.01-.107.078.003.349-.329.212-.224-.244-.482.383-.839.556.098-.436-.667-.783-.973 1.017-.287.268-.084.084c-.092.209-.172.307-.324.56l-.004.005c-.078.085-.155.172-.233.26-.167.194-.727.715-1.949.795-1.143.075-2.277-.606-2.277-.606s-.16.356-1.245.302-1.312-.516-1.312-.516-3.041.546-3.848-.557c0 0-.233-.403-.214-.866.002 0-.913-.184-.962-.93zm19.575-4.968l.044-.035-.296.164h-.003l.255-.129zM.338 25.933h.107s-.013-.525-.053-.591-.053.591-.053.591zm1.587 1.179s.08-.172.11.271l.035 1.163-.072-.095-.012-.279zm0 0l.05 1.274-.086.033.182.138-.007-.17-.048-.024L2 27.994l.053.04-.002-.057-.046-.036-.013-.294.05.029-.002-.049-.056-.047-.025-.502-.017.007-.019.026zm-.095-.281c.097.006.271.068.305.415l.089-.015c.02-.015 0 .018 0 0 .009-.224-.143-.448-.324-.463l-.074.039c-.004.002-.006.006-.006.011 0 .006.005.012.011.013zm-.953-.546a.189.189 0 0 1 .161-.12c.009-.002.018-.002.028-.002.077 0 .141.052.16.122.018.058.046 1.362.046 1.362s-.236.078-.233.065-.084-.119-.087-.145-.071-1.291-.071-1.291zm.373.16s.009-.14-.045-.189l-.004.12-.31.011-.01-.119a.747.747 0 0 0-.019.169v.013c.002.095.081 1.4.081 1.4h.385zm-.314.089h.236l.014.463H.957zm.056.997l-.02-.463h.236l.014.463zm5.55.649a.189.189 0 0 1 .161-.121l.028-.002c.077 0 .141.052.16.122.018.058.046 1.362.046 1.362s-.236.078-.233.065-.084-.119-.087-.145-.071-1.291-.071-1.291zm.373.16s.009-.14-.045-.189l-.004.12-.31.011-.01-.119a.747.747 0 0 0-.019.169v.013c.002.095.081 1.4.081 1.4h.385zm-.314.089h.236l.014.463H6.62zm.057.996l-.02-.463h.236l.014.463zm-2.752-1.636a.189.189 0 0 1 .161-.121c.009-.002.019-.002.028-.002.077 0 .141.052.16.122.018.058.046 1.362.046 1.362s-.236.078-.233.065-.084-.119-.087-.145-.071-1.291-.071-1.291zm.375.154s.009-.137-.045-.186l-.004.122-.31.012-.01-.118a.686.686 0 0 0-.019.162v.015c.002.095.081 1.395.081 1.395h.385zm-.313.082h.236l.014.465h-.229zm.055 1.008l-.02-.465h.236l.014.465zm6.568-5.94a.17.17 0 0 0-.287.125v.006c0 .053 0 .131-.004.24-.009.255.123 5.967.123 5.967l.333-.121-.036-1.854-.078-1.517.028-.867-.046-.842v-.783l-.031-.355zm-.051-.032a.125.125 0 0 1 .087.097c.012.078.128 6.154.128 6.154s.143.116.155.164l.089.062v.065l.078.024v.119s-.749.078-.891.015l-.016-.062.045-.024-.005-.078.104-.024-.003-.078.101-.08.006-.092.291-.03.006-.531-.307.014-.004-.065s.276.018.293-.033 0-.492 0-.492l-.302.014v-.074s.289-.005.292-.035-.009-.477-.009-.477l-.295.005v-.053l.305-.009-.012-.498-.304.012-.006-.058.304-.016-.018-.605-.298.017v-.072l.302-.022-.018-.519-.297.018v-.053l.271-.033v-.572l-.289.019v-.057l.303-.022-.014-.516-.294.011v-.042l.289-.023-.011-.57h-.294l-.003-.05.296-.021-.012-.431-.285.011-.006-.048.291-.033s.036-.321-.043-.324zm6.437 2.041c-.039.035-.057.237-.057.237l-.027 2.275.027.049.233-.147-.059-.111-.004-.302c0-.057-.112-2.001-.112-2.001zm-.025.04s.053-.116.142-.08.049.641.053.867-.018 1.552-.018 1.552l-.178-.084s.036-2.291 0-2.255zm2.374-2.611l-.149.102v-.189h.057l.092.083zm-2.413-2.042s-.059.053-.059.244-.018 1.477-.018 1.477.002.107.02.111a.11.11 0 0 1 .036.018l.22-.123a.174.174 0 0 1-.028-.091c0-.049-.079-.65-.08-.645s0-.687 0-.687l-.091-.304zm-.503-.028s-.045.034-.058.212-.012 1.857-.012 1.857-.003.084.043.078.236-.12.236-.12v-.039a.17.17 0 0 1-.031-.076c-.016-.063.013-.544.013-.544l-.069-.451v-.698l-.123-.219zm-.522.566a.38.38 0 0 0-.05.188v.004l-.002 1.605s-.006.055.013.067c.008.006.017.01.027.012l.239-.135v-.033l-.049-.045-.102-.24.007-1.288s-.02-.2-.084-.136zm3.315-.836s.022-.107.107-.124.078.138.071.267-.058 2.198-.058 2.198l-.16-.08zm-2.297.309s.047-.08.107-.086.089.053.089.19-.018 1.545-.018 1.545l-.178-.024s.033-1.688 0-1.625zm-.501-.024s.05-.092.11-.086.078.047.08.233 0 1.794 0 1.794l-.19-.047s.053-2.104 0-1.893zm-.519.551a.147.147 0 0 1 .115-.104c.09-.009.078.271.084.448s0 1.329 0 1.329l.003.036-.201-.086s.053-1.705-.001-1.622zM.565 24.066s-.36.174-.343.369.009.365.391.578.614.142.614.142-.028.32.59.685c.602.356 1.243.418 2.186.383s1.352-.213 1.352-.213-.356.775.356 1.13 1.825.4 2.394.24l-.002-.612-.915-.741-1.524-.26-.126-.184-4.038-1.46zm2.94 3.882h.071s-.015-.255.175-.391a.562.562 0 0 1 .613-.018c.158.102.224.278.221.29s.057.01.057.01v-.085s.036-.086-.088-.214a.67.67 0 0 0-.722-.155.542.542 0 0 0-.342.456.043.043 0 0 0 .023.034zm12.833-2.201l.3-.209s.021.018.078 0 .126-.031.126-.031l.081.062-.543.36-.436-.133.053-.124v-.276l-.659.265v-.365s.141-.049.172-.138.244-1.223 1.036-1.446l.562-.071.143.027s.245 0 .401.058.504.249.529.952l.143.107-.529.316-.267-.08.005-.036.045-.022.049.018.049-.045.08.034.285-.162h.053l.08-.049s-.049-.305-.084-.429-.169-.473-.481-.495-.237.039-.322-.067-.018.039-.073.116-.449.405-.689 1.023-.187.842-.187.842zm-.854-4.543l.105.027s.03-.383.214-.546.32-.181.32-.181c.038-.113.081-.209.132-.3.069-.119.221-.273.369-.246s.208.194.208.194.128-.107.21-.128.31.053.291.329l.041-.018s.018-.349-.31-.442a.403.403 0 0 0-.259.098.295.295 0 0 0-.236-.143c-.164-.006-.437.194-.517.548-.001.001-.547.122-.569.806zm-2.776.23l.096.043s.124-.447.354-.479c.345-.048.381.286.381.286l.066-.039h.006l.03-.016a.529.529 0 0 0-.506-.377h-.014c-.005 0-.219.021-.314.194zm-1.67 1.662s-.059-.4-.615-.365-.532.485-.532.485l.112.045s.032-.381.426-.418.562.365.562.365l.046-.009zM4.08 19.77s-.056-.596-.498-.64c0 0-.341.02-.341.408h.05s-.039-.283.21-.32.457.359.472.553zm12.029-.775s.056-.596.498-.64c0 0 .341.02.341.408h-.05s.039-.283-.21-.32-.456.359-.472.553zm-14.529.339l.66.252v.053l-.168.065-.682-.231.19-.139zm14.997-3.982zm3.514 3.95c.116.157.128.374.146.424.012.032.031.059.056.08s-.178.107-.237.139-.056.015-.092.006a.033.033 0 0 1-.028-.033l.001-.009c.001-.003.264-.124.267-.155s-.027-.31-.178-.501-.261-.113-.383-.143-.136-.194-.136-.145-.048.148-.095.22a1.793 1.793 0 0 1-.194.204l-.002-.331-.091-.036.052-.557v-.552c-.194.194-.736.267-.736.267v-.036l-.119.006.039.338.162.172-.593.314-.249-.071.014-.071.63-.296v-.19c-.039-.174-.07-.336-.116-.486a2.464 2.464 0 0 0-.145-.364c-.014-.028-.038-.07-.061-.111-.019-.035-.041-.069-.062-.102l-.027-.039c-.009-.012-.017-.032-.025-.044-.025-.035-.053-.066-.082-.104s0 .006 0 .006a1.119 1.119 0 0 0-.123-.086c-.007-.003-.009.003-.012.003-.057-.039-.116-.078-.177-.078h-.005v-.005c0-.001 0 0 0 0-.028-.009-.056-.021-.084-.028s0-.002 0-.002h-.293c-.016 0-.032-.01-.047-.01a.325.325 0 0 1-.149-.037l-.011-.006a.28.28 0 0 1-.089-.082l-.001-.004a1.128 1.128 0 0 1-.055-.099l-.003-.006c0-.002-.003 0-.004-.002l-.004-.003v.019h-.012c-.009 0-.018.02-.035.074v-.002l-.018.053-.007.021c-.007.024-.024.049-.034.078h-.009v.092l-.013.012c-.034.032-.078.056-.111.095s.008-.01.008-.007-.005 0-.005 0h-.003s-.002 0-.003.002v-.002c-.003.005-.006.003-.008.003l-.007.004c-.002 0 0 .005 0 .005v-.005-.004l-.003.008c-.029.027-.06.059-.095.089v.002l-.098.085a4.184 4.184 0 0 0-.194.179 2.955 2.955 0 0 0-.292.331c-.385.518-.599 1.229-.717 1.621a1.824 1.824 0 0 0-.082.694l.249-.172.344.155-.652.31-.771-.237s-.155-.059.024-.119.237-.736.237-.736l-.546.119c-.546.119-1.091.546-1.174.759s.071.51.131.617-.314.119-.314.119l-.314-.036v.284a2.825 2.825 0 0 1-1.383.641c-.869.133-1.851-.008-2.468-.363s-.138-.957-.138-.957l1.212-4.314s3.238-1.613 3.527-2.126.865-.801 1.112-.898c.166-.061.36-.107.561-.13.08-.038.165-.078.252-.113.074-.021.157-.03.186.079s.083.133.083.133c.347.178.644.4.899.662.084.084.16.174.226.271l-.002.113.133.906v.004l.041.218a.402.402 0 0 0 .114.07l.003.018c.039.005.014.01.022.016l.014.01v.007s.01.002.014.005c.019.011.039.007.062.046.16.116.388.246.65.422l.007.004v.013c.039.008.024.016.036.024l.002.002.021.013.004.002.039.026.019.014c.028.019.058.02.086.059.008 0 .015.009.023.014l.145.095.009.005.035.023.007.002c.002 0 0 0 0 .002.204.135.426.271.62.403l.122.078.009.003.06.039h.006l.024.016.049.031c.033.021.065.046.097.067l.005.003c.033.015.061.035.085.058s.002.005.003.005c.026 0 .042.016.081.031v.02h-.005l.005-.001.005.001c.002.001 0 0 0 0l.009.004c.949.576 1.287 1.619 1.287 1.619s.323.346.349.394c.013.017.02.039.02.062s-.008.045-.02.063a2.702 2.702 0 0 1-.415.228.108.108 0 0 1-.082-.01zm-10.044.918l-1.165.767s-1.41-1.124-2.041-1.285-1.041-.249-1.041-.249l.205.738.222.356-.738.343-.738-.277.178-.11.472.11s-.08-1.191-1.005-2.19c0 0-.267-.324-.547-.481s-.463-.415-.498-.549-.129.123-.129.123a.27.27 0 0 1-.156.093.344.344 0 0 1-.08.009l-.036-.002c.002-.001.002-.002.002-.003v-.003c-.014 0-.028-.012-.043-.012s-.003.006-.005.005c-.112-.021-.415.015-.705.245v.002a1.46 1.46 0 0 0-.451.628c-.096.247-.156.519-.171.803s-.036.048 0-.169.045-.285.045-.285l-.199.065a.295.295 0 0 0-.157-.045l-.019.001c-.118 0-.091.071-.091.101s-.95-.01-1.115-.384a.428.428 0 0 1 .002-.345c.079-.18.341-.335.341-.335h.005l.024-.007.396-.116.039-.071.049-.091.041-.078.01-.02.029-.055.007-.014.039-.074.588-1.101.077-.142.013-.031.116-.22.023-.042.281-.526.024-.11.021-.098.034-.16.007-.033.018-.085.091-.431v-.011l.007-.035.52-.431c.194-.162.378-.313.409-.338.071-.058.332-.279.332-.333 0-.035.121.005.205.039.053.021.116.04.181.054.144.03.37.079.473.106.155.041.712.279.913.587s.148.271.228.3.439.205.439.205l2.193.595 1.676.853-.321 1.191zm-8.223 2.809l.045.957L1.388 25s-.671.081-.965-.345.142-.587.142-.587c.084-.169.187-.314.308-.441.195-.2.592-.547.951-.596zm2.017-.437a.606.606 0 0 1-.472.225h-.002c-.32.006-.581-.109-.533-.23 0 0-.237-.11-.219-.455s.296-.593.522-.706l.066-.157a.092.092 0 0 1-.032-.071c0-.039.024-.072.058-.087l-.014-.211-.098.021-.018-.074.089-.047-.012-.433a.095.095 0 0 1-.045-.077l-.163-.056s.03.095-.024.062a.081.081 0 0 1-.015-.046l.002-.017a.4.4 0 0 1-.066-.076c-.02-.036.041-.022.064-.022 0 0-.019-.039 0-.049a.035.035 0 0 1 .02-.007c.019 0 .034.015.034.034v.004a.344.344 0 0 1-.009.05l.157.056a.189.189 0 0 1 .022-.031l.01-.01-.006-.09-.028-.031-.027-.012s.018.067-.003.056-.034-.015-.03-.056l-.022-.024s-.05-.043-.022-.05a.22.22 0 0 1 .053-.007.06.06 0 0 1-.002-.015.06.06 0 0 1 .007-.027c.012-.025.046.015.046.015v.055l.021.006v-.046s-.054-.024-.039-.05a.034.034 0 0 1 .044-.014.153.153 0 0 1-.008-.049c0-.02.021-.036.037-.021a.07.07 0 0 1 .018.047v.001c-.003.01-.006.019-.011.027s.039-.001.051.013.002.047-.014.046l-.026-.003-.006.056.013.031.059.009a.088.088 0 0 1-.016-.051v-.003a.02.02 0 0 1 .019-.015.02.02 0 0 1 .02.02l-.001.005-.001.013c0 .012.003.023.009.032s.049 0 .047.03-.047.028-.047.028c.002.009.004.02.004.03l-.001.015c-.004.013-.033.035-.043-.001s-.023-.053-.028-.052-.009.009-.009.009v.092l.034.049.159.07s-.003-.056.019-.067.047.018.043.047l-.004.03s.054.021.067.049-.019.028-.043.039l-.024.012s.013.046-.007.039a.066.066 0 0 1-.041-.055c0-.02-.01-.026-.024-.031l-.123-.039-.033.028.019.399.086-.052.03.07-.095.081-.012.009.015.23s.108.05.022.159l.064.165s.596.102.632.698a.785.785 0 0 1-.166.465zm1.697 2.992s-1.942.62-3.187.141-.944-.951-.944-.951.302-1.127 1.476-2.019h.089l-.009.302s.036.227.302.182.472-.22.498-.327l-.009-.164.045-.039.004-.044c.09.039.163.076.233.117.163.088.665.448.901.933s.543 1.218.601 1.869zm2.558 1.612s-2.26.326-2.687-.688c.062-.24.151-.45.264-.643.171-.28.803-.746 1.248-.798l.445-.053s.836.486.729 2.183zm8.804-5.492l.102-.046.031.039.067-.116-.071-.078-.026.067-.112.048v-.058l.049-.058.023.012.022-.064-.078-.06-.031.055.019-.064-.043-.05-.047.062.008.043-.033.042-.011-.039a.064.064 0 0 0-.022.065l-.049.057.058.004s-.011.047.027.058l.009-.047.018-.011.007.078-.136.071-.024-.027s-.027.022-.02.047l-.06.073.067.013s-.013.049.011.062l.033-.067.107-.055.02.027c.005.007-.004.251-.004.251l-.08.015.002.045.069.027.002.283a.06.06 0 0 0-.026.049.06.06 0 0 0 .018.042l-.058.099s-.394.116-.421.523v.02c0 .116.049.221.127.295s-.06.069.036.134.194.114.436.109.353-.16.338-.209l-.02-.013s.167-.142.16-.343c0 0 .004-.412-.46-.516l-.045-.094a.06.06 0 0 0-.004-.097v-.255l.074.015.018-.053-.08-.047zm-4.473-8.626c-.013.2-.072.267-.072.267v.262c0 .431-.102.676-1.516.979s-3.018.08-3.604-.187c-.575-.262-.458-.617-.453-.631h-.008v-.261s.005 0-.06-.172-.012-.391-.012-.391c-.053-.119.003-.374.003-.374l-.058-1.908.029-.078-.013-.391-.066-.116c-.058-.329.067-.418.067-.418l.014-.058-.028-.072c.017.015.645.562 3.08.468 0 0 2.047-.1 2.627-.601l-.057.094.018.053s.078.081.045.414l-.067.129.009.342.053.085.022 1.908s.104.2.011.356a.718.718 0 0 1 .037.305zm-5.696-2.821s.481.511 2.212.514 3.089-.316 3.297-.649c0 0-.385.433-2.295.584s-2.806-.14-3.215-.448zm.043-.587s.569.605 3.38.415c0 0 1.86-.194 2.087-.556 0 0-.426.384-2.271.515 0-.001-2.241.208-3.196-.374zm.095 3.926s.171.267 1.262.439 2.509.078 3.227-.142 1.026-.547 1.026-.547-.694.743-2.871.736-2.644-.486-2.644-.486zm-.084-.549s.155.436 1.667.566 2.389-.065 2.965-.184.823-.383.823-.383-.268.379-2.126.543-3.186-.253-3.33-.543zm0 0s-.119.448 1.044.643 2.473.202 3.411-.053 1.163-.501 1.109-.784.063-.042.063-.042.181.357-.282.6-1.744.67-3.416.498-1.785-.415-1.892-.514a.435.435 0 0 1-.128-.309l.001-.023c.003-.045.017-.088.039-.125s-.022.025.052.108zm4.665-.059l-.033-1.822s.031-.172.138-.226.142.626.142.626V12.7s-.011.256-.021.289-.22 0-.22 0zm-1.381-1.689s.149-.218.314-.089.092.492.092.492l.016.612-.012.5.024.504-.423.08zm-1.386 2.037l-.089-2.054s.127-.134.278-.039.133.257.138.497.046 1.596.046 1.596zm-1.172-2.27l-.092.75v.065l.052.93.081.411.151-.071-.068-1.822a.399.399 0 0 0-.068-.213.121.121 0 0 0-.056-.051zm.015.033v.214l.107.02v.051h-.107l.015.51.12.052.003.054-.116-.012.024.502.109.051.005.078-.109-.035.004.465c.008.027.024.05.045.066a.636.636 0 0 0 .074.036l.004.083s.003.078.122.053c0 0 .151.056.638.107a.13.13 0 0 0 .089.036l.039-.018.065-.086-.063-.587-.014-1.406a.117.117 0 0 1 .097-.109.128.128 0 0 0-.038.058l.009.202.353.014.005.067s-.349-.009-.349-.012-.007.008-.007.008l.017.534.349.014.007.069-.355-.012.022.532.347.01.004.083-.349-.009s.005.496.02.51.336.013.336.013l.014.155s1.015-.029 1.035-.074-.039-.101-.039-.101l.356-.006.041-.018-.021-.531-.338.041v-.074l.345-.045v-.521l-.341.009.006-.056.326-.027-.015-.543-.349.021.006-.08.356-.03s.021-.31-.233-.243c0 0 .191-.064.255.058s.048.666.048.666v.522l.021.513.05.417s-.019.036.144 0l.718-.16.021-.01.011-.047-.012-.152s.085.004.091-.045-.013-.452-.013-.452l-.091.029v-.091l.078-.024-.002-.478-.086.034-.002-.119c.04-.01.075-.021.108-.035s-.004-.027-.004-.044l-.004-.469-.109.02v-.078l.119-.039s.022-.197-.033-.201a.074.074 0 0 1 .045-.055c.039-.011.071.081.071.081v.359l.107.624v.372l.011.422.039.262s-.002.039.116-.02.412-.265.456-.413.015-.219.015-.219.05-.011.071.214-.258.391-.589.545-1.277.418-2.791.374-2.065-.402-2.186-.489-.191-.155-.191-.245v-.015c0-.044.005-.087.014-.129s-.003.155.073.143a.493.493 0 0 0 .107-.025l.008.179s0-.01.033.015.452.218.452.218l.14-.092-.091-.79.007-.526-.025-.476.01-.23.119-.016c.012.009.021.02.028.033.005.014-.007-.02-.028-.002zm4.775-.541s-.056.011-.059.372.021 1.749.021 1.749l.086-.047s-.002-2.118-.048-2.075zm-.745.385s.03.013.033.081.033 1.977.033 1.977l.166.083-.029-1.943v-.001a.293.293 0 0 0-.024-.118c-.024-.055-.077-.121-.178-.08zm-.983 2.415l-.053-1.999v-.01a.16.16 0 0 0-.084-.141c.018.04.03.087.032.137.004.083.036 1.943.036 1.943zM8.6 11.271s-.078.003-.068.395.059 1.748.059 1.748l.065-.074s-.079-1.953-.056-2.068zm-1.815-.365s-.02-.194-.062-.2-.013.478-.013.478l.076 1.628.084-.018-.084-1.888zm.741 2.217l-.058-1.944s-.007-.108.058-.111c0 0-.155-.1-.207.06s.047 2.071.047 2.071zm4.638-2.228s-.018-.507.107-.498l.03.086s-.072.064-.069.412zm-.89.331s.018-.362.255-.442.31.199.31.31l-.03.009s.033-.291-.252-.249c0 0-.19.071-.19.356zm-1.384.211s.015-.357.338-.414.424.219.426.302l-.053.022s-.036-.291-.365-.25a.368.368 0 0 0-.249.34zm-1.483-.004a.285.285 0 0 1 .015-.179c.038-.108.158-.226.366-.21a.42.42 0 0 1 .379.386l-.086.015s-.057-.302-.31-.313-.329.19-.322.298zm-1.197-.236l-.001-.026c0-.073.02-.14.055-.198.066-.107.137-.118.241-.089s.283.233.267.438l-.085.011s-.022-.31-.245-.369-.211.24-.211.24zm-.424-.186s.016-.322-.071-.373c0 0-.058-.036-.047.119 0 0-.033-.116.022-.168s.036-.073.073-.034.116.185.127.456zm-.123-1.353s-.039.409.531.552 1.483.362 3.084.194 2.101-.494 1.994-.841c0 0 .004-.091.066.019s.143.431-.703.671-2.313.383-3.47.258-1.639-.4-1.578-.692.048-.158.075-.162zm5.722-.585s.114.176-.029.323c-.581.502-2.627.601-2.627.601-2.435.093-3.062-.452-3.08-.468-.155-.137-.053-.32-.053-.32-.101-.172.083-.308.083-.308s-.51-.545-.155-1.601S7.64 5.682 8.221 5.267a2.27 2.27 0 0 0 .774-.986l.12-.713a.366.366 0 0 0 .326.062.372.372 0 0 0 .135-.071l.152.672s.116.545.725.916 1.447.978 1.863 2.013c.37.921-.093 1.579-.093 1.579s.248.151.161.332zm-2.617 8.169c-4.699.319-4.483-1.41-4.483-1.41s.472-.934.725-1.312.659-.645.659-.645l.128-.107c-.005.015-.13.37.445.631.587.267 2.198.489 3.612.187s1.521-.547 1.53-.979l.155.138s.417.283.715.627c.316.365.915 1.21.915 1.21s.331 1.633-4.402 1.658zM9.711 3.273a.365.365 0 0 1-.135.285.358.358 0 0 1-.237.085.37.37 0 1 1 .002-.741h.031a.37.37 0 0 1 .338.368v.002zM9.298 0s-.059.059-.017.118l.005.035-.06.012-.034-.028-.06.072.05.077.036-.01c.01.004.017.014.017.025v.136a.476.476 0 0 1-.029.071L9.127.506s-.088-.116-.169 0c0 0-.031-.008 0 .023s.068.106.168.029l.083-.005s.017-.013.017.024l.004.267-.063-.142.041.152-.116-.113.1.141-.153-.078.127.11-.009.011L8.814.88a.064.064 0 0 0 .011-.06C8.808.78 8.787.746 8.761.715s-.07.075-.047.135a.137.137 0 0 0-.049.027.101.101 0 0 0-.113.038c-.018.026.023.1.109.1a.114.114 0 0 0 .069.058c-.002.011-.004.022-.004.035 0 .036.016.069.04.091A.132.132 0 0 0 8.8 1.07c-.003-.011.02-.021.02-.027l.323.039h.013l.003.039-.071.067.08-.039.015.016s-.058.116-.056.124l.081-.098.013.003-.045.125.039-.067v.876s-.046.042-.026.145l-.043.019s-.105-.021-.093.074.088.098.121.033l.041-.024v.537l.09.015.066-.036v-.62s.103 0 .119-.051l.093-.047h.005a.05.05 0 0 0 .05-.045c.007-.049-.003-.113-.067-.092 0 0-.028.015-.031.025l-.071.039s-.041-.009-.053.006l-.007-.853.025.086-.028-.127.085.107-.056-.132.124.058-.109-.104.01-.01.304.022a.16.16 0 0 0 .055.052.169.169 0 0 0-.003.033c0 .046.022.087.057.113s.061-.038.046-.151c0 0 .067-.003.12-.092-.026-.054-.071-.095-.126-.116s.018-.07-.062-.134c0 0-.072.062-.046.126l-.024.028-.317-.039V.948l.074-.067-.09.033L9.43.898l.068-.101-.088.072.031-.127-.049.064v-.2s0-.026.024-.008a.1.1 0 0 0 .056.026h.014v.039s-.046 0-.043.019.05.057.059.091 0-.033.049-.059-.06-.062-.06-.062V.603s.065.009.083-.009c0 0 .007.042.039.033s.025-.024.051-.049.007-.042-.016-.073-.05-.046-.06-.023S9.561.47 9.549.458 9.513.454 9.513.454l.004-.031s.056.013.051-.033-.052-.064-.062-.096 0 .021-.021.039-.057.078-.02.087l.022.005-.008.033h-.067l-.03-.046.005-.107s.011-.021.045 0L9.484.25 9.42.164l-.032.009L9.32.156 9.327.12s.037-.053-.028-.122zM3.321 17.348l.55-.168s.074-.026.21.236.989.509 1.531 1.705c0 0 .178.294.189.331s1.24-.937 2.486-.163-.324-.333-.324-.798-.463-1.244-.463-1.244-.724-.62-2.217-.709-1.962.81-1.962.81zm-.176-.013l.015-.107v-.002l.019-.071-.048-.176H3.12h.002l.009-.102v-.063l-.01-.018-.005-.007.008-.002.007-.007-.012-.016-.005-.003.01-.037.007-.067-.039-.212v-.009l-.007-.03-.071-.814v-.096l-.005-.015-.033-.352-.004-.016-.02-.155a.538.538 0 0 0 .06-.199c0-.019.003-.036.003-.051v-.133h-.007c-.002-.01-.022-.072-.032-.122l-.001-.043c0-.047.005-.092.013-.136s-.001.004-.001.002v-.004-.002-.002l-.672.111v.005l-.515.086-1.672.083s-.017 0-.017.002.014.004.014.007H.108c0 .032.014.112.049.137 0 0 .008.002.01.004H.17a.067.067 0 0 1 .02.012h.003l.003.005a.05.05 0 0 1 .005.022.057.057 0 0 1-.01.031l-.004.175-.003.008s.002 0 .002.002v.009c0 .071.03.135.078.18l.006.202v.007l.021.439v.014l.048 1.008v.01l-.052.074-.046.083c0 .004.014.039.028.08l.005.01c0 .003 0 .006.003.008.015.042.035.086.044.107.005.012.023.029.023.048v.011a.612.612 0 0 0 .017.116l.01.042v.002l.034.09-.061.051.018.248s-.018.011.021.03c.002.02.006.039.012.057a.276.276 0 0 1 .013.137l-.017.083s.12.352.877.405a2.414 2.414 0 0 0 .488-.022 1.18 1.18 0 0 1 .151-.318 1.465 1.465 0 0 1 .229-.267.743.743 0 0 1 .062-.052c.29-.229.593-.268.705-.247 0 0 .003-.005.005-.005.015 0 .029.011.043.012v.002a.394.394 0 0 0 .115-.006.27.27 0 0 0 .155-.092zM.274 14.777s.262.296 1.421.219c0 0 .951-.039 1.183-.408 0 0-.212.351-1.395.388 0-.002-.793.088-1.208-.198zm.018.392s.183.267 1.249.246c.257-.004.505-.038.742-.099.241-.062.542-.175.637-.355 0 0-.223.385-1.565.41-.002 0-.56.053-1.062-.202zm1.437 2.735c.174-.01.334-.028.491-.055-.046.02-.064.036-.086.054a3.475 3.475 0 0 1-.383.034c-.55.022-.866-.058-1.049-.147-.197-.095-.24-.2-.24-.2s.069.101.276.189c.192.082.504.153.991.124zm1.379-.443a.6.6 0 0 1-.156.154l-.002.001c-.014 0-.028-.006-.043-.006a1.86 1.86 0 0 0 .204-.151zm-2.741-.23s.368.416 1.323.356 1.32-.352 1.358-.459c0 0-.222.326-1.355.432 0 0-.9.07-1.327-.33zm-.016-1.422l.07 1.181-.075-.021-.07-1.157.057-.006.017.002zm2.679-.221l.075 1.167.03.124-.08-.022-.086-1.461zm-.395.074l.039 1.374.217.08.009-.059-.102-1.37s-.01-.114-.11-.081a.202.202 0 0 0-.053.056zm-1.855.177s-.078-.086-.151-.029a.118.118 0 0 0-.041.103l.095 1.334.16-.074-.061-1.318zm.02.011s.068.052.08.199l.093 1.155-.092.026s-.119-1.324-.088-1.383zm1.835-.188s-.081.061-.068.281.069 1.059.069 1.059l.095-.017-.095-1.323zm-1.072.31s.021-.089.172-.11.23.141.215.22.1 1.267.1 1.267l-.392-.02-.097-1.357zm.447 2.06a1.578 1.578 0 0 0-.107.141 3.102 3.102 0 0 1-.487.015c-.447-.019-.834-.142-1.01-.31a.389.389 0 0 1-.043-.048l-.001-.001a.236.236 0 0 1-.024-.279l-.001.001s.002.011.046.045.047.05.047.05-.005.033.062.116c.021.027.043.05.067.072.101.088.313.194.885.221a3.487 3.487 0 0 0 .583-.026zm1.21-.516a.27.27 0 0 1-.156.093.373.373 0 0 0 .026-.053.372.372 0 0 0 .018-.095l.039-.126c.04.05.066.112.074.179zm-.106-.539s.173.209-.06.38-.526.43-1.76.407c0 0-1.01-.05-.969-.533 0 0 .158.374.886.417s1.138-.041 1.425-.166.496-.3.446-.41l.029-.093zm-.47-1.319h-.007l.003.006.004-.004h.008zm.472 1.037l.008.028.008.031-.012.005-.006.003-.004.003v.003l.003.015v.009l.013.068h-.072v-.007l-.088.116.003.058-.068.027-.147-.071s-.071-.984-.086-1.147a.697.697 0 0 0-.029-.178l-.002.009-.021.027.015.127-.062.039v.078l.068-.045.031.412v.059l-.003.024h-.006l-.043.046h.011l-.017.002-.005.052v-.003l.054-.034.009-.007.026.504-.061.042.011.176s-.003.018-.052.042c-.012.007-.026.012-.041.012s-.029-.004-.041-.012l-.359.105-.019.033-.084-.006v-.012c-.009-.113-.077-1.012-.099-1.255l-.006-.057a.178.178 0 0 0-.061-.109l.013.152-.199.027-.105.011-.016-.153s-.008 0-.009.002.003.004.003.007 0 .004-.004.007h-.003c-.004.002-.021.006-.021.009l.001.01a2.588 2.588 0 0 0 .008.366v.006c.022.414.072 1.04.072 1.04a.163.163 0 0 1-.094.008.512.512 0 0 1-.099-.024l-.329-.024-.035.022-.039-.005-.014-.01-.048-.028-.006-.13v-.033h.006l-.073-.015-.044-.494.081.006h.013l.017-.045-.016-.017H.925l-.083-.028-.034-.469.074.022.005-.005-.009-.023-.003-.033v-.023l-.078-.033v-.155l-.006-.005-.018-.011v-.01l-.026-.013.095 1.36-.074.039-.085.039s.012.048-.203-.095-.194-.248-.194-.248H.279a.1.1 0 0 0-.059.075v.001a.18.18 0 0 0 .034.08l.008.01.007.008c.045.06.138.136.31.23.114.062.247.129.384.129.002 0 .005-.005.007-.004.494.105 1.051.01 1.051.01.819-.149 1.021-.346 1.085-.471a.667.667 0 0 0 .03-.081c.039-.095-.025-.203-.025-.203zm-1.165.018l.039.502-.314.028-.035-.504zm-.272-.595l.221-.01.034.534-.3.021-.032-.402-.011-.138zM.35 15.794s-.056-.433-.083-.443a.076.076 0 0 0-.055 0l.063.446zm.691.276s-.078-.405-.36-.421c0 0-.186-.02-.182.31 0 0 .035.017.039-.013s-.026-.159.078-.2.264.022.312.328zm1.939-.474l.069-.003s-.034-.457-.072-.479.005.473.005.473zm-.553.309l.065.023.043-.028s0-.323.167-.373.157.188.157.188l.019.01.021-.015s-.019-.248-.153-.271h-.009a.225.225 0 0 0-.201.123 1.05 1.05 0 0 0-.109.337zm-1.04.177s.003-.349.344-.369.373.315.373.315l-.033.01.002.023-.061.003s-.009-.262-.274-.25-.255.286-.255.286l-.06.007-.004-.023zM.171 14.704s-.066.072-.012.204.277.33 1.017.349 1.477-.112 1.758-.409c0 0 .167-.197.025-.333l-.03.05a.134.134 0 0 1-.019.121c-.042.069-.172.433-1.443.472s-1.252-.424-1.252-.424zm1.299-4.176l-.019-.035s-.03.005-.028-.036.007-.045.007-.045.07.033.057.055l-.013.021.01.028s.015.009.024-.016.019-.028.054-.002l.034.026a.24.24 0 0 1-.032.054c-.01.008-.026-.008-.026-.008l-.002.031a.033.033 0 0 1 .021.011c.01.01-.018.066-.018.066l-.041-.024a.057.057 0 0 1-.004-.046.151.151 0 0 0-.023-.078zm-.282.161l-.014-.039s.023-.02-.009-.045-.039-.025-.039-.025-.021.074.004.078l.024.004.015.026s-.003.017-.028.007-.034-.004-.039.039l-.004.043c.018.006.038.01.06.012.014-.002.013-.025.013-.025l.025.019a.036.036 0 0 0-.006.02v.003c0 .015.062.029.062.029l.009-.047s-.004-.017-.031-.033a.149.149 0 0 1-.044-.068zm.064-1.479a.062.062 0 0 0-.008.077l.004.022-.039.009-.022-.017-.037.048.035.049.023-.008c.007.002.011.008.012.015l.005.097a.403.403 0 0 1-.016.058h-.051s-.06-.083-.109-.005c0 0-.021-.009 0 .01s.046.064.109.011l.053-.007s.01-.009.011.014l.011.171-.045-.091.031.097-.077-.069.069.088-.098-.046.085.067-.005.007-.221-.018a.04.04 0 0 0 .005-.039c-.012-.025-.026-.046-.044-.065s-.042.05-.027.088a.108.108 0 0 0-.031.019C.87 9.79.864 9.79.858 9.79c-.023 0-.043.012-.054.03s.018.064.073.061c.01.018.026.03.046.035a.11.11 0 0 0-.002.019c0 .024.011.046.029.06a.083.083 0 0 0 .022-.057c0-.009-.001-.018-.004-.026s.012-.014.012-.018l.208.015h.007l.003.024-.042.047.05-.028.01.01s-.034.078-.033.082l.05-.065h.009l-.036.085.016-.044.026.562a.116.116 0 0 0-.004.094l-.023.012s-.066-.01-.055.05.052.06.071.018l.018-.016.016.345.065.007.049-.025-.017-.375v-.023s.067-.003.075-.036l.059-.033h.002a.032.032 0 0 0 .032-.03c.004-.032-.005-.072-.046-.057 0 0-.018.01-.019.017l-.044.026s-.027-.005-.034.005l-.03-.547.019.054-.022-.081.057.066-.039-.083.082.033-.072-.064.006-.007.194.005c.01.014.023.024.038.032l-.001.017a.09.09 0 0 0 .04.075.092.092 0 0 0 .025-.099.102.102 0 0 0 .074-.061.149.149 0 0 0-.084-.072l-.001-.009c0-.032-.017-.06-.043-.075s-.045.042-.026.082l-.014.019-.205-.015v-.016l.046-.045-.057.024-.012-.01.041-.067-.06.05.016-.083-.029.042-.007-.128s0-.005.016.005.027.027.039.026h.009v.013s-.03-.003-.027.008.034.032.039.053-.02-.021.011-.039-.059-.039-.059-.039v-.031s.06.003.071-.009c0 0 .015.026.036.02s.02-.017.036-.033.005-.028-.01-.047-.033-.028-.039-.013-.017-.007-.025-.015-.023 0-.023 0v-.02s.036.007.032-.023-.035-.039-.043-.06 0 .014-.012.025-.034.051-.01.056l.014.003-.004.022-.043.003-.021-.028v-.069s.007-.014.029-.002l.032-.036-.043-.053-.021.007-.044-.009.003-.023s.026-.037-.018-.079zm1.713 5.122a.675.675 0 0 1-.312.325c-.401.204-.97.244-.97.244-.769.069-1.179-.054-1.375-.15a.338.338 0 0 1-.18-.23v-.002c-.083-.343.16-.397.17-.399a1.024 1.024 0 0 1-.22-.976c.122-.448.506-.701.784-.944s.331-.477.331-.478l.039-.389a.17.17 0 0 0 .106.037h.007a.166.166 0 0 0 .114-.052l.093.369s.077.247.472.444c.328.164.672.41.857.832.22.501-.056.93-.059.934a.381.381 0 0 1 .168.201c.024.061.016.139-.026.236zm-1.45-3.135v.008a.17.17 0 0 1-.341 0 .168.168 0 0 1 .163-.17h.015a.17.17 0 0 1 .164.161zM.384 17.595c.02.016.041.032.064.047zm18.599-3.433a.524.524 0 0 1-.081.202l.005.535v1.418l-.003.01-.007.002-.031.105h.014l.006.012.046.171-.013.068v.004l-.002.002h-.005l-.007.007-.01.084.006.009.004.022v.011l.009.012.031.096v.021l.01.024.005.012v.002l.024.302c-.065.294-.384.474-.782.566a2.468 2.468 0 0 0-.2-.475 1.066 1.066 0 0 0-.062-.102c-.009-.014-.017-.027-.027-.039s-.016-.032-.025-.044c-.025-.035-.053-.066-.082-.104s0 .006 0 .006a1.119 1.119 0 0 0-.123-.086c-.007-.003-.009.003-.012.003-.057-.039-.116-.078-.177-.078h-.005v-.005c0-.001 0 0 0 0-.028-.009-.056-.021-.084-.028s0-.002 0-.002h-.293c-.016 0-.032-.01-.047-.01a.325.325 0 0 1-.149-.037l-.011-.006a.28.28 0 0 1-.089-.082l-.001-.004a1.128 1.128 0 0 1-.055-.099l-.003-.006c0-.002-.003 0-.004-.002l-.004-.003v.019h-.012c-.009 0-.018.02-.035.074v-.002l-.018.053-.007.021c-.007.024-.024.049-.034.078h-.009v.092l-.013.012c-.034.032-.078.056-.111.095s.008-.01.008-.007-.005 0-.005 0h-.003s-.002 0-.003.002v-.002c-.003.005-.006.003-.008.003l-.007.004c-.002 0 0 .005 0 .005v-.005-.004l-.003.008c-.029.027-.06.059-.095.089v.002l-.098.085a4.184 4.184 0 0 0-.194.179.428.428 0 0 1-.058-.11c.009-.027.019-.056.025-.085a.345.345 0 0 0-.007-.172c-.008-.036-.016-.062-.016-.062l.009-.233v-.023l.062-.044-.019-.07h-.003v-.008l-.025-.066a.67.67 0 0 1-.014-.115v-.003c0-.002-.003-.004-.004-.006a2.98 2.98 0 0 1-.053-.18l-.022-.084c-.002-.006 0 0 0 0l.054-.081.06-.072.039-1.042.017-.465.012-.214a.273.273 0 0 1-.068-.18l.001-.024.024-.185a.052.052 0 0 0 .013-.035.054.054 0 0 0-.022-.043.1.1 0 0 1-.025-.067v-.008-.008c0-.026.002-.051.007-.075l1.695.062 1.23-.096a.73.73 0 0 0-.029.182c.006.056.018.129.018.129a.87.87 0 0 1-.022.192zm-2.793-.219s.241.324 1.43.347c0 0 .973.041 1.24-.314 0 0-.247.339-1.456.271.001.001-.815.023-1.214-.304zm-.015.401s.164.288 1.252.359a3.162 3.162 0 0 0 .761-.036c.255-.043.572-.132.682-.307 0 0-.261.373-1.632.282a2.18 2.18 0 0 1-1.064-.298zm.319 2.746a.387.387 0 0 1-.021.02c-.279-.127-.332-.271-.335-.28.005.009.087.144.356.26zm2.353-.164c-.007.01-.207.289-.908.358-.009-.014-.017-.027-.027-.039.629-.06.838-.259.935-.319zm-2.771-.468c.151.165.374.271.594.335l-.007.021c-.395-.129-.564-.327-.587-.356zm1.204.44c.019 0 .036.004.051.004h-.227c-.016 0-.032-.01-.047-.01a.325.325 0 0 1-.149-.037l-.011-.006c.109.022.241.04.374.048zm1.536-.315c-.017.039-.078.095-.194.152-.2.1-.561.2-1.137.198-.028-.009-.056-.021-.084-.027h.002c.631 0 .994-.099 1.194-.184h.002a.708.708 0 0 0 .216-.139zm-2.637-1.581l-.031 1.21-.074-.028.029-1.186.059-.001.017.004zm2.75.008l-.024 1.195.02.129-.079-.029s.039-1.442.039-1.497zm-.408.039l-.078 1.404.214.101.014-.059.015-1.406s0-.116-.105-.092a.217.217 0 0 0-.06.052zm-1.907.021s-.073-.094-.151-.043a.122.122 0 0 0-.052.099v.001l-.019 1.369.169-.062.052-1.35zm.02.014s.065.059.065.21l-.005 1.186-.096.018s-.007-1.36.031-1.418zm1.887-.035s-.088.055-.094.28-.021 1.085-.021 1.085l.098-.009.017-1.357zm-1.12.225s.029-.088.185-.098.223.163.2.243-.008 1.3-.008 1.3l-.396-.052.019-1.395zm-1.027 1.924l-.1.086a.797.797 0 0 1-.232-.185c-.082-.103-.098-.214-.025-.321 0 0 0 .007.016.023l.026.026.009.008c.039.039.035.047.035.047s-.007.034.053.124a.525.525 0 0 0 .214.191zm2.583-.208c0 .093-.042.203-.205.296a2.06 2.06 0 0 1-.674.224c-.032-.042-.054-.084-.077-.125.412-.056.739-.188.821-.365a.344.344 0 0 0 .025-.093l.015-.041.033-.086c.027.04.046.087.055.138.003.017.006.033.006.05zm-2.312-.094c0 .032-.026.062-.026.092s-.012.002-.013.003c-.204-.063-.438-.167-.532-.328a.385.385 0 0 1-.04-.171l.001-.033v.001l.002-.011c.001-.003.099.296.607.445zm2.276-.208c0 .002-.006.004-.007.007s-.008.005-.008.007c-.039.039-.052.078-.11.114-.01.007-.018.013-.029.019v-.007c-.178.111-.405.269-.962.269s0 .006 0 .005a1.329 1.329 0 0 0-.124-.092c.002-.003.01-.003.018-.003.238 0 .468-.038.682-.108a1.56 1.56 0 0 0 .298-.135c.127-.077.204-.165.179-.237l.031-.078.005-.015s.083.126.026.255zm0-.542l-.003.027-.003.026-.004.003-.005.003-.003.01.009.066v.014l.002.022h-.003l-.063-.011h-.002l-.015-.002-.116.111.002.062-.044.017-.015.006-.139-.088s.016-1.01.015-1.177a.571.571 0 0 0-.014-.184l-.028.035.007.132-.065.033-.007.078.063-.039-.011.353v.034l.002.121-.004.004-.06.042v.053l.072-.038-.017.516-.021.015-.005.003-.037.019h-.008v-.015h.004v.015l-.004.175v.007c0 .004-.011.02-.057.039a.078.078 0 0 1-.035.008.08.08 0 0 1-.05-.017l-.375.078-.018.032-.086-.014v-1.301c0-.032.002-.053 0-.06a.179.179 0 0 0-.052-.116v.155l-.306.006.006-.155h-.008c-.001 0-.005 0-.006.002l-.015.022-.016.025c-.014.022-.03.297-.03.599v.009c0 .388-.013.821-.013.821a.157.157 0 0 1-.097-.001.453.453 0 0 1-.1-.034l-.333-.052-.039.026h-.039v-.009-.005h.008c.02.042.039.077.06.11l-.003-.005a3.642 3.642 0 0 0 .955.064c.353-.034.593-.088.765-.148.003 0 0-.002.004-.003.224-.08.303-.17.342-.239s.015 0 .015 0a.736.736 0 0 0 .045-.08c.044-.095-.005-.209-.005-.209zm-1.178.02l-.01.409h-.326l.005-.518.15-.005h.169l.011.1zm-.31-.216l-.006-.512.31.012-.013.536-.248-.011-.019.003-.041.005.009-.03zm-.698.701l-.01-.007-.039-.033.013-.133v-.033h-.006l-.075-.025-.004-.507.081.013h-.003l.004-.039v-.002l.002-.023h-.002l-.074-.036.005-.4-.008-.016.002-.078.073.014h.005l-.002-.037v.002l-.078-.054.011-.167-.006-.009-.016-.014h-.002l-.023-.019-.003.314v.017l-.017 1.055-.066.025h-.007l-.009.003-.056.02-.031.011s.01.05-.198-.114c-.194-.155-.179-.257-.176-.269-.03.016-.052.046-.055.081v.006a.16.16 0 0 0 .021.079v-.001c.036.068.122.16.305.281.115.074.248.133.39.17s.01.012.01.012c.017-.054.026-.074.035-.074h.01v-.011zm-.032-1.302zm-.523-.353s-.02-.45-.046-.465a.078.078 0 0 0-.031-.007.1.1 0 0 0-.025.004l.026.463zm.681.311s-.045-.409-.331-.449c0 0-.188-.031-.213.307 0 0 .034.023.041-.007s-.012-.174.096-.207.266.066.29.352zm2.018-.314l.07.003s.005-.459-.033-.485-.035.477-.035.477zm-.591.287l.065.029.046-.025s.029-.329.203-.366.144.206.144.206l.018.012.023-.013s0-.255-.133-.289a.23.23 0 0 0-.225.107c-.062.098-.111.21-.14.331zm-1.078.09s.033-.356.383-.347.353.354.353.354l-.034-.005v.011l-.063-.002s.012-.255-.258-.265-.285.276-.285.276l-.062.005v-.022zm-1.119-1.51s-.074.068-.03.207.254.36 1.008.444 1.516.014 1.828-.264c0 0 .188-.187.054-.337l-.035.048a.142.142 0 0 1-.029.122c-.049.066-.213.426-1.511.356s-1.24-.541-1.24-.541zm1.686-4.145l-.017-.039s-.031.002-.026-.039.01-.046.01-.046.068.039.053.06l-.015.021.008.029s.014.01.025-.015.022-.027.055.002l.033.029a.297.297 0 0 1-.036.052c-.011.008-.026-.01-.026-.01l-.005.032a.039.039 0 0 1 .02.013c.01.011-.024.066-.024.066l-.039-.029a.06.06 0 0 1-.005-.023.06.06 0 0 1 .005-.023v-.012a.15.15 0 0 0-.017-.07zm-.301.139l-.011-.039s.025-.018-.005-.047-.039-.029-.039-.029-.028.074-.003.081l.024.007.013.028s-.005.017-.029.005-.034-.007-.041.037l-.007.043a.315.315 0 0 0 .059.017c.015 0 .016-.024.016-.024l.024.021a.039.039 0 0 0-.007.023c0 .015.06.035.06.035l.013-.047a.061.061 0 0 0-.029-.036.153.153 0 0 1-.039-.073zm.194-1.503a.066.066 0 0 0-.022.048c0 .011.003.021.008.03l.002.023-.039.006-.021-.019-.041.046.031.053.024-.006c.006.003.011.009.011.016v.001l-.003.086a.235.235 0 0 1-.021.042l-.052-.003c-.011-.019-.032-.032-.056-.032s-.044.013-.055.032-.02-.004 0 .017.042.072.11.024h.055s.011-.008.01.016l-.004.176-.039-.097.023.101-.072-.078.062.095-.098-.055.081.078-.006.007-.224-.039a.043.043 0 0 0 .01-.028.036.036 0 0 0-.002-.011c-.01-.027-.023-.05-.039-.07s-.048.048-.034.088a.101.101 0 0 0-.033.016.067.067 0 0 0-.076.022c-.012.016.013.066.069.069a.077.077 0 0 0 .044.039.109.109 0 0 0-.004.026.08.08 0 0 0 .024.058.088.088 0 0 0 .028-.064l-.002-.019c-.001-.006.013-.013.014-.017l.211.033h.009v.024l-.048.042.053-.024.009.011s-.041.076-.039.08l.056-.062.009.002-.043.083.022-.043-.022.576a.115.115 0 0 0-.019.064c0 .011.002.022.004.032l-.026.01s-.067-.016-.061.046.05.066.073.024l.022-.015-.014.353.061.012.047-.022.015-.384v-.023s.072.003.083-.031l.064-.028h.005a.034.034 0 0 0 .034-.028c.006-.032 0-.074-.041-.062 0 0-.019.009-.021.016l-.047.022s-.027-.007-.035.003l.017-.56.014.057-.015-.085.053.072-.034-.088.08.041-.069-.071.007-.007.199.022a.098.098 0 0 0 .035.035.093.093 0 0 0 .032.097.095.095 0 0 0 .034-.099.105.105 0 0 0 .081-.056.15.15 0 0 0-.079-.08L18.05 9c0-.03-.015-.056-.038-.072s-.049.039-.034.082l-.016.018-.207-.033v-.017l.05-.042-.062.02-.011-.011.05-.066-.059.045.024-.083-.034.039.004-.131s0-.005.015.007.025.03.036.031h.009V8.8s-.03-.006-.029.006.032.035.037.058-.024-.024.009-.039-.062-.045-.062-.045v-.032s.067.009.078-.003c0 0 .015.028.039.023s.023-.015.039-.031.009-.028-.005-.048-.03-.031-.039-.017-.017-.009-.024-.017-.024-.004-.024-.004l.003-.021s.036.01.035-.021-.033-.044-.039-.064 0 .014-.015.024-.039.049-.015.057l.014.004-.006.022h-.044l-.019-.031.006-.07s.008-.014.029 0l.036-.034-.039-.058-.021.005-.044-.013.005-.023s.029-.031-.012-.078zm1.303 5.373a.695.695 0 0 1-.344.305c-.427.173-1.012.165-1.012.165-.79.004-1.197-.157-1.389-.271a.347.347 0 0 1-.164-.25v-.002c-.054-.357.198-.391.208-.393a1.045 1.045 0 0 1-.14-1.015c.163-.446.579-.671.881-.895s.381-.46.381-.461l.073-.394a.173.173 0 0 0 .112.047h.007c.015 0 .03-.002.044-.006a.186.186 0 0 0 .07-.039l.063.384s.057.26.445.495c.32.194.649.476.802.923.181.53-.137.943-.14.947a.39.39 0 0 1 .154.219c.013.064 0 .143-.051.239zM17.766 10.4a.174.174 0 0 1-.133.163.174.174 0 0 1-.082-.338.154.154 0 0 1 .043-.005h.021a.174.174 0 0 1 .153.173v.009zm-1.708 6.427c.02.019.041.037.063.055zm-7.464-.052s-.022.131.026.168a.059.059 0 0 1 .025.047.055.055 0 0 1-.012.035l-.018.203v.013c0 .079.031.151.082.204l-.005.232.002 1.634-.062.08-.057.091s.05.178.07.233c.015.055.027.12.033.187l.058.159-.063.05v.277s.06.155.036.249c-.007.036-.016.068-.027.098s.151.453.988.551 2.103-.087 2.22-.741l-.039-.326-.074-.205.039-.198-.055-.196.018-.13-.096-2.117a.563.563 0 0 0 .083-.322c0-.036-.002-.071-.006-.106s-.015-.073-.024-.133c0-.071.009-.14.026-.206l-1.33.161-1.839.006zm.134.258s.275.341 1.563.316c0 0 1.056.004 1.331-.391 0 0-.253.378-1.566.356 0 0-.884.058-1.329-.28zm0 .436s.19.305 1.371.337l.11.002c.245 0 .484-.025.715-.073.272-.057.611-.167.724-.361 0 0-.267.415-1.756.374 0 0-.621.03-1.165-.279zm3.003 2.684s-.29.469-1.536.46-1.403-.45-1.403-.45.263.426 1.388.412 1.424-.335 1.55-.421zm-3.025-.396s.388.48 1.448.463 1.481-.322 1.529-.438c0 0-.263.349-1.523.409 0 0-1.001.031-1.454-.434zm.055-1.577l.017 1.312-.081-.027-.018-1.286.063-.003.019.003zm2.979-.106l.023 1.297.027.139-.088-.029s-.019-1.564-.021-1.623zm-.441.059l-.026 1.524.236.1.013-.064-.042-1.524s-.005-.127-.116-.096a.237.237 0 0 0-.063.059zm-2.065.103s-.083-.099-.165-.039a.13.13 0 0 0-.052.104v.007l.036 1.483.181-.074v-1.465zm.021.014s.073.061.078.224l.044 1.284-.103.024s-.064-1.473-.026-1.537zm2.044-.117s-.093.064-.09.307.022 1.177.022 1.177l.105-.014-.039-1.471zm-1.204.29s.028-.097.197-.114.248.167.227.255.046 1.409.046 1.409l-.432-.039-.039-1.512zm1.684 1.592s.237.3-.136.532-1.02.397-1.815.326-1.386-.417-1.17-.763c0 0-.004.007.048.052s.05.058.05.058-.007.039.062.131c.074.101.215.297 1.039.374s1.714-.142 1.85-.469a.4.4 0 0 0 .024-.102zm-.017-.398s.181.24-.086.418-.605.449-1.97.36c0 0-1.117-.107-1.046-.641 0 0 .155.422.961.507s1.263.013 1.589-.111.565-.307.516-.431l.039-.102zm.017-.312l-.018.078.018.11-.084-.012-.114.123v.065l-.068.028-.155-.088s-.026-1.095-.034-1.276-.024-.2-.024-.2l-.03.039.013.142-.069.039-.004.086.071-.047.015.552-.065.055v.058l.078-.044v.56l-.074.045v.194s-.005.02-.061.044a.091.091 0 0 1-.04.01.082.082 0 0 1-.051-.017l-.403.098-.022.036-.093-.011s-.042-1.395-.049-1.473a.195.195 0 0 0-.062-.124l.006.169-.34.019-.009-.171-.031.058c-.031.058.013 1.55.013 1.55a.187.187 0 0 1-.105.004.53.53 0 0 1-.109-.032l-.363-.043-.039.022-.042-.007-.061-.042.009-.181-.086-.022-.023-.55.085.011.004-.069-.093-.039-.011-.534.085.014-.005-.071-.085-.039.007-.173-.058-.042.036 1.51-.085.036-.096.039s.012.053-.22-.116-.202-.285-.202-.285-.254.131.312.474 1.589.226 1.589.226c1.192-.16 1.228-.469 1.269-.567s-.024-.219-.024-.219zm-1.659-.698h.341l.011.585-.333.012zm.033 1.231l-.013-.56.349-.013.015.558zm-1.392-1.657s-.039-.491-.069-.504a.081.081 0 0 0-.061 0l.047.504zm.751.31s-.066-.446-.377-.477c0 0-.205-.028-.218.339 0 0 .039.022.045-.011s-.02-.184.096-.224.291.063.329.373zm2.185-.426h.064s-.013-.5-.055-.527-.012.52-.012.52zm-.641.329l.071.029.049-.029s.018-.358.205-.405.165.217.165.217l.02.012.024-.015s-.009-.276-.155-.307l-.022-.001a.249.249 0 0 0-.217.127 1.155 1.155 0 0 0-.138.364zm-1.163.142s.021-.388.4-.391.396.368.396.368h-.039v.016h-.068s.003-.281-.291-.281-.297.31-.297.31l-.067.007-.003-.025zm-1.275-1.589s-.078.078-.024.226.291.379 1.109.439 1.643-.048 1.969-.362c0 0 .194-.21.045-.367l-.036.053a.145.145 0 0 1-.027.133c-.05.074-.213.471-1.623.449s-1.365-.534-1.365-.534zm1.653-4.561l-.02-.039s-.034.004-.029-.041.01-.05.01-.05.078.039.06.063l-.015.023.01.031s.016.01.027-.017.023-.03.06 0l.039.03a.268.268 0 0 1-.039.058c-.011.009-.029-.01-.029-.01l-.004.035a.043.043 0 0 1 .023.014c.011.012-.024.072-.024.072l-.045-.029a.064.064 0 0 1-.006-.028c0-.008.001-.016.004-.023v-.007a.162.162 0 0 0-.022-.082zm-.318.164l-.014-.043s.027-.021-.007-.05-.041-.03-.041-.03-.027.081 0 .088l.027.006.015.029s-.004.018-.031.006-.039-.006-.043.041l-.006.047a.31.31 0 0 0 .065.016c.016 0 .016-.027.016-.027l.027.022a.04.04 0 0 0-.007.025v.001c0 .016.067.036.067.036l.012-.052a.067.067 0 0 0-.033-.039.155.155 0 0 1-.045-.077zm.146-1.636a.07.07 0 0 0-.021.05.07.07 0 0 0 .009.035l.003.025-.043.009-.024-.02-.043.052.036.056.026-.007a.02.02 0 0 1 .012.018v.1a.338.338 0 0 1-.021.054l-.056-.002s-.062-.087-.121-.004c0 0-.022-.007 0 .015s.048.075.12.02l.059-.004s.012-.009.012.017l.003.19-.045-.103.029.109-.082-.081.071.101-.11-.055.09.078-.006.008-.244-.032a.048.048 0 0 0 .01-.028.059.059 0 0 0-.002-.014c-.012-.028-.027-.053-.046-.075s-.05.054-.034.096a.13.13 0 0 0-.035.019.072.072 0 0 0-.022-.004c-.024 0-.046.012-.059.03s.017.072.077.072a.08.08 0 0 0 .049.041.1.1 0 0 0-.003.025c0 .026.011.049.029.065a.094.094 0 0 0 .024-.091c-.002-.007.014-.015.014-.02l.23.028h.01l.002.026-.051.048.057-.029.01.012s-.041.083-.039.089l.058-.07.01.002-.039.092.024-.048v.624a.122.122 0 0 0-.014.104l-.028.012s-.073-.015-.065.053.059.07.082.023l.025-.017v.383l.067.01.05-.025v-.442s.076 0 .086-.036l.067-.033h.003a.037.037 0 0 0 .036-.032c.005-.035-.002-.08-.048-.066 0 0-.02.01-.022.018l-.05.026s-.029-.006-.039.004l-.005-.608.018.061-.02-.091.06.078-.039-.094.089.041-.078-.074.007-.007.217.016c.01.016.023.029.038.038a.164.164 0 0 0-.002.023c0 .033.016.063.041.081s.044-.027.033-.108a.116.116 0 0 0 .085-.065.166.166 0 0 0-.089-.084v-.015c0-.034-.018-.063-.044-.08s-.052.044-.033.09l-.017.02-.226-.028v-.018l.053-.048-.064.023-.013-.012.048-.072-.062.052.022-.091-.035.045v-.143l.017.014c.017.014.029.039.039.039h.01v.007s-.033-.009-.031.004.036.035.042.06-.024-.026.01-.045-.067-.047-.067-.047v-.035s.07.006.083-.006c0 0 .017.03.039.024s.024-.017.042-.035.008-.03-.008-.052-.034-.033-.041-.017-.019-.009-.027-.017-.026-.003-.026-.003l.003-.022s.039.01.036-.024-.039-.046-.044-.068 0 .015-.015.027-.039.055-.014.062l.016.004-.005.024h-.048l-.021-.033.004-.078s.008-.015.032 0l.039-.039-.043-.061-.023.006-.048-.012.005-.025s.028-.036-.02-.085zm1.636 5.765a.75.75 0 0 1-.362.344c-.455.206-1.088.22-1.088.22-.855.037-1.303-.121-1.516-.237a.376.376 0 0 1-.188-.264v-.002c-.074-.384.198-.432.209-.434a1.134 1.134 0 0 1-.193-1.093c.158-.49.597-.751.917-1.006s.391-.512.391-.513l.063-.43a.186.186 0 0 0 .179.038.203.203 0 0 0 .074-.043l.084.413s.074.277.5.516c.355.198.723.489.907.967.218.567-.11 1.027-.113 1.032a.422.422 0 0 1 .176.23c.02.07.009.157-.04.262zm-1.447-3.55a.186.186 0 0 1-.069.145.176.176 0 0 1-.069.036.19.19 0 1 1-.051-.372h.016a.189.189 0 0 1 .173.188v.001zm-1.582 7.033c.022.019.045.038.07.056zm5.494 7.796L14.359 29l.552.248 1.12-.961.324.214.359-.205-.046-.052-.316.185-.32-.279-.72.572-.445.338.027-.881-.587-.347-.106.125zm-2.012-6.789l.198 7.497c.012.445.008.866.07 1.306s.194-.188.512-.757c.1-.179-.164-7.739-.164-7.739l-.096-.073.083-.294.005-.24a.52.52 0 0 1-.2.054 4.42 4.42 0 0 1-.409-.074zM8.105 27.38l-.01 2.935s-.197.328-.855.303v-3.15s.448.072.865-.089zm-2.837-.98l.215 3.711-.698.065-.138-3.937s.618-.088.707-.23-.104.073-.086.391zm2.756-5.408l.023 5.248s-.146-.703-.547-1.119c-.297-.365-.454.331-.401-.581.086-1.479.039-4.722.039-4.722s1.002.536 1.073.674c0-.001-.186.314-.186.501zm-2.542-.103l.098 4.76.082.116.066.012c.153-.162.324-.305.509-.428l-.067-3.968.077-.022-.022-.814zm12.006 6.645l.041-2.515s.016-.45-.291-.439c0 0 .177-.078.257.082a.817.817 0 0 1 .084.318l.053-.011s-.018-.422-.249-.471c0 0 .284-.039.284.426h.107s-.004-.512-.36-.512-.729.654-.672 1.076c0 0 .039-.65.378-.816.155-.071.262.228.24.513s-.058 2.344-.058 2.344l.045.005.071-2.477s.022-.426-.267-.426c0 0 .187-.067.267.12s.049.62.049.62l-.062 2.132zm.091.01l.053-2.389-.076-.031-.031 2.38.053.04zm.151-.014l.035-1.826.34-.25-.323.164v-.356l.319-.245-.319.182v-.098l-.116-.022v2.424l.064.026zm-1.383-1.481v2.38l-.31-.279v-2.227l.318.118zm-.158-.046l.166.089.359-.243-.359.19-.166-.036zm0 .428l.166.089.359-.243-.359.19-.166-.035zm-1.292-5.19l.013 6.939-.605-.347-.071-6.855.663.263zm-1.929-.054s.159-.205.378-.08c.175.099.171.421.161.548a1.5 1.5 0 0 0-.004.134l.043 3.828h-.078l-.012-3.847v-.091c.008-.157.001-.767-.489-.492zm3.501 2.26c.32.159.533.082.76-.031.203-.101.168-.353.121-.484s-.121.022-.275.07a1.374 1.374 0 0 1-.466.053c-.085-.011-.398.22-.139.392zM2.853 21.63s-.078.415.059.546.184.16.516.071.439-.083.225.089-.674.279-.853.119-.148-.386-.119-.528.178-.348.171-.297zM1.251 24.9s-.676-.03-.741-.291.047-.605.279-.884.677-.641.689-.552-.179.32-.333.474-.339.178-.339.415.083.386.255.474.333.403.191.362zm1.958-1.649s-.142.338.22.362.552-.041.872.219.634.332.688.237-.32-.86-.718-1.148-.457-.222-.457-.222-.065-.018-.047.089.012.237-.047.302-.427.22-.51.16zm-.388-.329s-.489.747-.543 1.157-.045.898.31 1.148.747.31 1.255.302 1.103-.071 1.21-.338-.249-.969-.16-1.032.463.81.569 1.237-.208.426-.789.463-2.182.036-2.86-.418-.463-.872-.107-1.395.962-1.024 1.114-1.122zm-1.252-2.707l.555.19.005.074-.559-.271.103 2.857-.299.133-.223-4.246s-.061-.134.119-.1l.179.033.145-.047-.051.394.03.104-.19.14.059.155.036.025.048.052.022.543zm3.324 1.222l.649.293.707-.369-.698.267-.658-.191zm-.036-.677l.65.294.707-.369-.698.267-.658-.191zm-1.014-1.239s-.181-.261-.32-.228-.194.169-.202.264.068.391.261.46a.486.486 0 0 1-.18-.438c.034-.276.257-.303.44-.057zm.16.299s.024.495-.344.374c0 0 .155.11.279-.015s.131-.386.131-.386zm12.344-1.074s.181-.261.32-.228.194.169.202.264-.068.391-.261.46a.485.485 0 0 0 .181-.438c-.037-.276-.259-.303-.442-.057zm-.161.299s-.024.495.344.374c0 0-.155.11-.279-.015s-.131-.386-.131-.386zm-13.455-.718c-.596.16-.636 1.166-.636 1.166l.134.053.049.022v.146l-.189.08-.607-.174.018.007.591.227.212 3.436.082-.067-.205-3.398.062-.022.191 3.403.062-.08s-.186-3.385-.191-3.527a1.385 1.385 0 0 1 .21-.843c.316-.531.868-.39 1.108-.296-.244-.091-.627-.126-.955.199-.388.383-.32.992-.32.992l.203 3.417.049-.071-.187-3.377s-.054-.552.316-.961c.504-.489 1.163.003 1.22.046-.052-.034-.612-.39-1.063-.095-.474.31-.431.983-.431.983l.209 3.345.054-.039s-.218-2.651-.218-3.294.356-.916.356-.916c.93-.549 1.775.7 1.822.771-.613-1.107-1.349-1.294-1.943-1.134zm-.507 1.172l-.062-.024c.122-1.299 1.044-1.157 1.044-1.157-.999.049-.981 1.181-.981 1.181zm17.913.283s-.049-.36-.265-.498c-.198-.126-.314-.062-.353-.107s-.018.06-.16.149-.138.172-.138.172.138-.143.214-.165a.135.135 0 0 0 .093-.079c.01-.002.022-.002.034-.002a.57.57 0 0 1 .237.051c.194.099.265.35.273.445a.039.039 0 0 0 .038.033zm-.934.013s.138-.24.36-.253.338.258.352.431 0 .463 0 .463l-.084 2.34.009.418-.009.067-.033-.007-.052.033-.03-.024-.055.045-.033-.03-.067.059-.09-.101-.095-.006.065-3.143s-.03-.124-.119-.136-.128.007-.12-.154zm-1.529-.903l-.018 4.768.059.048.03-4.787-.071-.029zm.262.071v.729h-.09l-.012 4.107-.089-.069.035-4.047-.012-.65h.077l.09-.071zm-.921 1.297a.318.318 0 0 0-.202.295V22.343l-.088.018s-.03-1.664 0-1.769.107-.352.291-.332zm-.745 2.475v-2.029s.017-.51.243-.433c0 0-.282-.113-.321.391v2.105zm-.504.329l.03-1.81s-.018-.398.178-.446c0 0-.226.004-.261.413s0 1.843 0 1.843zm-1.558-2.762l.026.676.663.263-.009-.752-.681-.205zm1.364.941v1.92l-.078.041v-1.961h.078zm.014-2.326s.56-1.503 1.53-1.388c0 0 .641.071.747 1.148l-.062.098s-.071-1.641-1.281-1.076c0 0 1.054-.581 1.25 1.099l-.093.049s.036-1.45-1.09-1.117c0 0 1.054-.378 1.046 1.392s-.027 4.537-.027 4.537l-.067-.027.039-4.511s.113-1.738-1.145-1.269c0 0 1.115-.451 1.079 1.263s-.024 4.502-.024 4.502l-.071-.024.024-4.798s-.036-1.109-.937-.919c0 .002-.533.239-.919 1.041zm-.622 1.067s.083-.724.296-1.198.119-.368-.148-.332-.148-.174-.078-.365-.415.294-.426.863.327 1.235.356 1.032zm.435-2.711s-.56.498-.916 1.628c0 0-.027.222-.249.267s-1.14.215-1.258.285-.84.472-1.046-.151-.174-.836-.162-1.023-.096-1.067.18-1.255.418-.513.853-.492 1.343.243 1.806.386 1.114.116.794.356zm-6.725 1.014v1.173s-.827-.302-1.169-.753-.119-.397-.071-1.014-.892-.946-1.496-.946-1.924.368-2.054.344.689-.636.962-.751.726-.023.961.194 1.472.2 2.053.864.715.357.715.357.099.295.099.533zM5.32 16.233s-.222-.418.045-.828c.245-.366.484-.682.742-.983.05-.048-.092.53-.288.752s-.24.421-.233.543-.125.623-.267.515zm-2.242-.935l.081 1.459s.071.124.045.233a.667.667 0 0 0 .007.263c.01.048.305.013.527-.094s1.325-.587 1.434-.65.194-.036.133-.409.027-.489.107-.614c.05-.082.092-.176.122-.276s.082-.225-.709-.112-.814.116-.896-.131-.848.332-.848.332zm-.063-.951s.217-.352.567-.565.372-.382.372-.417.113.214.249.202.379-.059.7.107.575.49.629.62a1.955 1.955 0 0 0-1.295-.066 1.75 1.75 0 0 0-.968.688c-.174.258-.228.513-.311.501s-.03-.136-.033-.251c.006-.112.019-.217.041-.319s.079-.155.039-.273-.046-.134.009-.226zm9.961-.301s.069-.312.527-.584.659-.119.802-.185.254-.159.258-.217.053.121.107.205.659.369.876.601.569.694.608.85v.191s-.008.884-.067.771-.876-.991-1.19-1.163-.493-.278-.722-.321c-.273-.052-.552-.152-.734-.152-.207.001-.485.06-.465.004zm-1.213 2.486s1.119-.261 1.267-.492.018-.646.184-.878.534-.065.534-.065.047.012-.071-.184-.629-.86-1.127-1.163l-.178-.131-.024.243s.078.184-.426.433-.634.237-.634.237.404.391.441.676.074.706-.133.984c0 0 .223.101.167.338zm-4.95-2.782s-.461.374-.639.943-.053.836.32.836.552.765 1.263 1.121c0 0 .78.356.814.062s.033-.138.033-.138a.14.14 0 0 1-.007-.047.15.15 0 0 1 .03-.091c.042-.049.09-.092.144-.127s-.204-.318-.199-.553-.03-.436.155-.729l.18-.295s-1.438-.039-1.923-.476c0 .001-.213-.119-.17-.506zm12.019-1.221s-.518.279-1.041.027-.847-.553-1.186-.504-.437.15-.334-.027.367-.447.803-.755c0 0 .129-.098.124.116s-.011.226.113.22.16-.13.277-.285.3-.097.477.011.775.429.898.999-.129.199-.129.199zm-.798-1.214s-.34-.129-.34.043-.124.236-.032.478.448.204.485.376-.226.494.097.494.755-.204.717-.376-.199-.613-.927-1.015zM2.825 13.273s-.526.285-1.058.028-.86-.564-1.205-.515-.444.155-.34-.028.372-.456.817-.771c0 0 .131-.101.126.119s-.011.23.116.225.164-.131.279-.29.305-.099.485.012.786.438.912 1.019-.131.203-.131.203zm-.811-1.238s-.345-.131-.345.044-.126.241-.033.488.455.208.493.384-.23.504.098.504.767-.208.729-.384-.202-.625-.942-1.035zm9.569 3.447s-.569.31-1.145.03-.93-.611-1.305-.557-.481.166-.368-.03.403-.494.884-.834c0 0 .142-.109.136.128s-.012.249.124.243.178-.142.302-.314.329-.107.525.012.853.474.988 1.103-.142.219-.142.219zm-.878-1.341s-.374-.142-.374.047-.136.261-.036.528.492.226.534.415-.249.546.107.546.83-.226.789-.415-.219-.676-1.02-1.121zm5.481-1.856a.432.432 0 0 0 .288.494c.374.141.401.249.794.206s.823.091 1.163-.07.489-.463.511-.479.091.457-.039.614-.236.093-.502.167-.705-.005-.764.113-.188.102-.436 0-.382-.151-.646-.188-.484-.046-.479-.292-.003-.359.109-.564zm-15.991.763a.425.425 0 0 0 .285.49c.372.14.398.247.788.204s.817.091 1.153-.069.486-.459.507-.475.091.454-.039.609-.235.091-.496.165-.698-.005-.758.112-.187.102-.433 0-.379-.15-.641-.187-.481-.046-.475-.29-.004-.356.108-.559zm8.494 2.048a.477.477 0 0 0 .317.545c.413.156.442.272.875.227s.907.101 1.281-.078.54-.51.564-.528.101.504-.041.676-.261.101-.552.184-.775-.006-.842.124-.208.113-.481 0-.421-.166-.712-.208-.534-.051-.528-.322-.005-.395.119-.62zM6.553 7.274s-.059.659.807.788.842.059 1.459.142.452-.119 1.198.059 1.482-.012 1.755-.226.476-.716.517-.832.124.168.124.465-.012 1.174-.474 1.293-.32-.085-.901-.095-.924.059-1.02-.059-.095-.237-.426-.024-.581.166-.866-.012-.426-.391-.83-.249-.439.474-.664.426.095.285-.131.214-.807-.64-.676-1.4.129-.491.129-.491zm2.088-2.403s-.166.237-.676.557-1.091 1.163-1.139 1.234-.131.31.249.178.119.32.522.202.522.083.937.249.415-.486.853-.226 1.447.498 2.064.664.984-.271.783-.736-.759-1.281-1.91-1.91a1.291 1.291 0 0 1-.224-.212c-.102-.126-.346.069-.304.354s-.682.379-.801.012-.272-.462-.355-.367zm1.412.072s.338.445.133.365-.187.124-.133.4.285.124.738.65.655.898 1.076.916.421-.274.204-.591-.757-.981-1.285-1.315-.41-.221-.528-.336-.306-.234-.206-.089zm4.275 15.381l.569.24.48-.262-.489.187-.56-.165zm0 .677l.569.24.48-.263-.489.187-.56-.165zM3.01 14.789a.753.753 0 0 1-.074.162l.024.347v-.337c0-.039.041-.104.049-.172z"/></symbol><symbol id="location" viewBox="0 0 32 32"><title>location</title><path d="M16 27.85l-.45-.55c-.3-.4-7.95-9.35-7.95-14.7 0-4.65 3.8-8.4 8.4-8.4s8.4 3.8 8.4 8.4c0 5.35-7.65 14.35-7.95 14.7l-.45.55zm0-22.5c-4 0-7.2 3.25-7.2 7.2 0 4.2 5.55 11.35 7.2 13.4 1.65-2.05 7.2-9.15 7.2-13.4 0-3.95-3.2-7.2-7.2-7.2z"/><path d="M16 15.8c-1.75 0-3.2-1.45-3.2-3.2s1.45-3.2 3.2-3.2 3.2 1.45 3.2 3.2-1.45 3.2-3.2 3.2zm0-5.2c-1.1 0-2 .9-2 2s.9 2 2 2 2-.9 2-2-.9-2-2-2z"/></symbol><symbol id="papyrus" viewBox="0 0 32 32"><title>papyrus</title><path d="M27.261 0H10.153a4.13 4.13 0 0 0-4.125 4.125v2.809c0 .158.072.307.196.405l.831.657-.831.657a.516.516 0 0 0-.196.405v2.208c0 .158.072.307.196.405l.831.657-.831.657a.516.516 0 0 0-.196.405v11.083H1.13a.516.516 0 0 0-.516.516v2.887a4.13 4.13 0 0 0 4.125 4.125h17.108a4.13 4.13 0 0 0 4.125-4.125v-6.618a.518.518 0 0 0-.21-.416l-.799-.588.813-.642a.516.516 0 0 0 .196-.405V7.53h4.898a.516.516 0 0 0 .516-.516V4.127A4.13 4.13 0 0 0 27.261.002zm3.093 6.497h-4.382V5.93c0-.71.578-1.289 1.289-1.289a.516.516 0 1 0 0-1.032A2.323 2.323 0 0 0 24.94 5.93v13.025l-1.148.907a.517.517 0 0 0 .014.821l1.134.835v6.357a3.096 3.096 0 0 1-3.093 3.093H4.739a3.096 3.096 0 0 1-3.093-3.093v-2.371h17.782v.567a2.323 2.323 0 0 0 2.321 2.321.516.516 0 1 0 0-1.032 1.29 1.29 0 0 1-1.289-1.289v-1.083a.516.516 0 0 0-.516-.516H7.06V13.639l1.148-.907a.516.516 0 0 0 0-.81l-1.148-.907V9.307L8.208 8.4a.516.516 0 0 0 0-.81L7.06 6.683V4.125a3.096 3.096 0 0 1 3.093-3.093h17.108a3.096 3.096 0 0 1 3.093 3.093v2.371z"/></symbol><symbol id="phone-call" viewBox="0 0 32 32"><title>phone-call</title><path d="M25.29 19.823c-.655-.682-1.445-1.047-2.283-1.047-.831 0-1.628.358-2.31 1.04l-2.134 2.127c-.176-.095-.351-.182-.52-.27-.243-.122-.473-.236-.669-.358-1.999-1.27-3.816-2.924-5.558-5.065-.844-1.067-1.412-1.965-1.824-2.877.554-.507 1.067-1.033 1.567-1.54.189-.189.378-.385.567-.574 1.418-1.418 1.418-3.255 0-4.674l-1.844-1.844c-.209-.209-.425-.425-.628-.642a31.411 31.411 0 0 0-1.27-1.256c-.655-.648-1.439-.993-2.263-.993s-1.621.344-2.296.993l-.014.014-2.296 2.317A4.94 4.94 0 0 0 .049 8.315c-.162 1.972.419 3.809.865 5.011 1.094 2.951 2.729 5.687 5.167 8.618 2.958 3.532 6.517 6.322 10.583 8.287 1.553.736 3.627 1.607 5.943 1.756.142.007.29.014.425.014 1.56 0 2.87-.561 3.897-1.675.007-.014.02-.02.027-.034.351-.425.756-.81 1.182-1.222.29-.277.588-.567.878-.871.669-.696 1.02-1.506 1.02-2.337 0-.837-.358-1.641-1.04-2.317l-3.708-3.721zm2.418 7.112c-.007 0-.007.007 0 0-.263.284-.534.54-.824.824-.439.419-.885.858-1.303 1.351-.682.729-1.486 1.074-2.539 1.074-.101 0-.209 0-.311-.007-2.006-.128-3.87-.912-5.268-1.58-3.823-1.851-7.179-4.478-9.969-7.807-2.303-2.776-3.843-5.342-4.863-8.098-.628-1.682-.858-2.992-.756-4.228.068-.79.371-1.445.932-2.006L5.11 4.155c.331-.311.682-.48 1.027-.48.425 0 .77.257.986.473l.02.02c.412.385.804.783 1.216 1.209.209.216.425.432.642.655l1.844 1.844c.716.716.716 1.378 0 2.094-.196.196-.385.392-.581.581a35.386 35.386 0 0 1-1.695 1.648c-.014.014-.027.02-.034.034-.581.581-.473 1.148-.351 1.533l.02.061c.48 1.162 1.155 2.256 2.181 3.559l.007.007c1.864 2.296 3.829 4.086 5.997 5.457.277.176.561.317.831.453.243.122.473.236.669.358.027.014.054.034.081.047.23.115.446.169.669.169.561 0 .912-.351 1.027-.466l2.31-2.31c.23-.23.594-.507 1.02-.507.419 0 .763.263.973.493l.014.014 3.721 3.721c.696.689.696 1.398.007 2.114zM17.294 7.612c1.77.297 3.377 1.135 4.66 2.418s2.114 2.891 2.418 4.66a.905.905 0 0 0 .898.756c.054 0 .101-.007.155-.014a.913.913 0 0 0 .75-1.054c-.365-2.141-1.378-4.093-2.924-5.639s-3.498-2.56-5.639-2.924c-.5-.081-.966.25-1.054.743s.236.973.736 1.054zM31.963 14.116c-.601-3.525-2.263-6.734-4.815-9.287S21.387.615 17.861.014a.909.909 0 0 0-1.047.743c-.081.5.25.966.75 1.054 3.147.534 6.018 2.026 8.3 4.302a15.296 15.296 0 0 1 4.302 8.3.905.905 0 0 0 .898.756c.054 0 .101-.007.155-.014a.895.895 0 0 0 .743-1.04z"/></symbol><symbol id="phone" viewBox="0 0 32 32"><title>phone</title><path d="M25.719 32c-1.331 0-2.939-.334-4.708-1.001-3.877-1.462-8.095-4.35-11.877-8.133-3.783-3.783-6.672-8.002-8.135-11.879C-.33 7.462-.333 4.569.991 3.245c.191-.191.384-.395.584-.606C2.784 1.368 4.15-.063 5.96.002c1.247.052 2.456.827 3.694 2.367 3.657 4.549 2.008 6.169.1 8.049l-.337.334c-.312.312-.902 1.758 4.585 7.245 1.791 1.791 3.318 3.102 4.539 3.895.768.499 2.143 1.255 2.707.691l.339-.342c1.877-1.904 3.498-3.548 8.043.107 1.54 1.238 2.314 2.445 2.366 3.695.074 1.809-1.367 3.178-2.639 4.386-.21.2-.414.394-.605.583-.658.659-1.709.989-3.034.989zM5.832 1.076c-1.286 0-2.448 1.223-3.475 2.304-.207.217-.407.428-.604.625-.987.986-.887 3.577.254 6.602 1.41 3.737 4.212 7.821 7.889 11.498 3.677 3.676 7.758 6.477 11.496 7.886 3.026 1.143 5.616 1.24 6.601.255.197-.197.408-.397.625-.603 1.105-1.05 2.359-2.241 2.304-3.562-.038-.907-.699-1.884-1.964-2.901-3.788-3.046-4.847-1.971-6.603-.189l-.344.348c-.84.841-2.203.654-4.055-.549-1.284-.835-2.871-2.194-4.713-4.037-4.554-4.553-6.01-7.339-4.585-8.768l.343-.339c1.786-1.757 2.863-2.817-.184-6.606-1.019-1.265-1.994-1.926-2.902-1.964l-.084-.001z"/></symbol><symbol id="search" viewBox="0 0 32 32"><title>search</title><path d="M12.957 26.102c3.189 0 6.103-1.172 8.354-3.098l8.678 8.678a1.003 1.003 0 1 0 1.418-1.418l-8.678-8.678a12.802 12.802 0 0 0 3.099-8.354c0-7.097-5.774-12.87-12.87-12.87C5.861.362.087 6.136.087 13.232s5.774 12.87 12.871 12.87zm0-23.734c5.99 0 10.864 4.873 10.864 10.864s-4.875 10.864-10.864 10.864c-5.99 0-10.865-4.874-10.865-10.864S6.967 2.368 12.957 2.368z"/></symbol><symbol id="time-passing" viewBox="0 0 32 32"><title>time-passing</title><path d="M.536 16.536a.533.533 0 0 0 .533-.533c0-8.236 6.7-14.936 14.936-14.936 3.375 0 6.603 1.128 9.229 3.201h-2.828a.533.533 0 1 0 0 1.066h4.222a.507.507 0 0 0 .103 0h.475V.533a.533.533 0 1 0-1.066 0v3.099A15.907 15.907 0 0 0 16.006-.001C7.182-.001.003 7.178.003 16.002c0 .295.239.533.533.533z"/><path d="M16.005 4.267C9.534 4.267 4.27 9.531 4.27 16.002s5.264 11.735 11.735 11.735S27.74 22.473 27.74 16.002 22.476 4.267 16.005 4.267zm0 22.404c-5.883 0-10.668-4.786-10.668-10.668S10.123 5.335 16.005 5.335s10.668 4.786 10.668 10.668-4.786 10.668-10.668 10.668z"/><path d="M16.005 8.001a.533.533 0 0 0 .533-.533V6.401a.533.533 0 1 0-1.066 0v1.067c0 .295.239.533.533.533zM16.005 24.004a.533.533 0 0 0-.533.533v1.067a.533.533 0 1 0 1.066 0v-1.067a.533.533 0 0 0-.533-.533zM24.54 16.536h1.067a.533.533 0 1 0 0-1.066H24.54a.533.533 0 1 0 0 1.066zM7.471 15.469H6.404a.533.533 0 1 0 0 1.066h1.067a.533.533 0 1 0 0-1.066zM16.539 13.411v-2.743a.533.533 0 1 0-1.066 0v2.743a2.13 2.13 0 0 0-1.6 2.058c0 .395.115.76.302 1.077L9.761 20.96a.532.532 0 0 0 .377.91.532.532 0 0 0 .377-.156l4.414-4.414c.317.188.682.302 1.077.302a2.136 2.136 0 0 0 2.134-2.134c0-.992-.683-1.819-1.6-2.058zm-.534 3.125a1.068 1.068 0 0 1 0-2.134 1.067 1.067 0 0 1 0 2.134zM6.345 28.09a.53.53 0 0 0 .427.847.528.528 0 0 0 .432-.213c.171-.234.123-.57-.112-.746s-.57-.128-.747.112zM3.859 24.681a.542.542 0 0 0-.747-.122.537.537 0 0 0 .314.97.537.537 0 0 0 .432-.848zM4.067 25.844a.532.532 0 0 0-.043.752.513.513 0 0 0 .4.182.53.53 0 0 0 .395-.885.532.532 0 0 0-.752-.048zM5.902 26.991a.536.536 0 0 0-.752.033.532.532 0 0 0 .389.896.531.531 0 0 0 .363-.923v-.006zM3.027 23.385h-.005a.526.526 0 0 0-.725-.197.532.532 0 1 0 .528.923.533.533 0 0 0 .203-.725zM31.443 17.134h.021a.534.534 0 1 0-.022 0zM.675 18.131a.535.535 0 1 0-.587-.481c.027.277.261.48.528.48l.059.001zM.974 19.699a.527.527 0 0 0 .411-.629.527.527 0 0 0-.629-.411.528.528 0 0 0-.411.63.524.524 0 0 0 .517.421c.037 0 .075 0 .112-.011zM2.328 22.004a.536.536 0 0 0-.704-.272.536.536 0 0 0 .219 1.025.537.537 0 0 0 .485-.753zM1.778 20.563a.534.534 0 1 0-.507.694.584.584 0 0 0 .165-.021.535.535 0 0 0 .341-.672zM15.717 30.933A.534.534 0 0 0 15.696 32h.011c.293 0 .528-.23.533-.523s-.229-.539-.523-.544zM27.81 25.146a.534.534 0 0 0 .422.859.528.528 0 0 0 .421-.209c.181-.229.139-.565-.096-.746s-.565-.139-.747.096zM24.449 28.314a.53.53 0 0 0-.133.741.525.525 0 0 0 .437.229.533.533 0 0 0 .304-.091.53.53 0 0 0 .133-.741.532.532 0 0 0-.741-.139zM25.676 27.375a.533.533 0 1 0 .691.81.533.533 0 0 0-.691-.81zM29.426 23.705a.534.534 0 1 0-.565.907.534.534 0 0 0 .565-.907zM26.802 26.314a.527.527 0 0 0 .016.752.517.517 0 0 0 .368.149.531.531 0 1 0-.384-.9zM31.394 17.661a.54.54 0 0 0-.603.454.531.531 0 0 0 .528.608.534.534 0 0 0 .075-1.062zM31.144 19.24a.544.544 0 0 0-.651.389.544.544 0 0 0 .517.667.536.536 0 0 0 .133-1.056zM8.377 28.837a.532.532 0 0 0-.731.187.531.531 0 1 0 .912.545.531.531 0 0 0-.181-.731zM30.727 20.787a.531.531 0 0 0-.683.32.53.53 0 0 0 .496.716.525.525 0 0 0 .501-.352.528.528 0 0 0-.315-.683zM30.152 22.281c-.261-.128-.587-.021-.715.245s-.016.587.245.715a.537.537 0 0 0 .715-.245.534.534 0 0 0-.245-.715zM14.176 30.826c-.293-.037-.555.17-.592.464s.171.56.464.592v.006h.064a.53.53 0 0 0 .528-.47.53.53 0 0 0-.464-.592zM11.173 30.138a.533.533 0 0 0-.346 1.008.671.671 0 0 0 .176.027.531.531 0 0 0 .17-1.034zM12.655 30.56a.536.536 0 0 0-.64.4.537.537 0 0 0 .4.64c.043.011.08.011.123.011.24 0 .464-.165.517-.411a.53.53 0 0 0-.4-.64zM9.743 29.562a.534.534 0 0 0-.453.965.548.548 0 0 0 .224.048.528.528 0 0 0 .485-.309.528.528 0 0 0-.256-.704zM18.79 30.677a.538.538 0 0 0-.427.624.537.537 0 0 0 .528.433c.032 0 .064 0 .096-.006a.534.534 0 1 0-.197-1.051zM20.289 30.314a.526.526 0 0 0-.357.661.535.535 0 0 0 1.024-.309.537.537 0 0 0-.667-.352zM21.745 29.792a.532.532 0 1 0 .203 1.024.586.586 0 0 0 .208-.037.538.538 0 0 0 .288-.699.538.538 0 0 0-.699-.288zM17.258 30.885a.534.534 0 1 0 .048 1.067h.043v-.005a.524.524 0 0 0 .485-.571.537.537 0 0 0-.576-.491zM23.137 29.125a.526.526 0 0 0-.213.721.526.526 0 0 0 .469.282.483.483 0 0 0 .251-.069.525.525 0 0 0 .213-.72.525.525 0 0 0-.72-.213z"/></symbol><symbol id="timer" viewBox="0 0 32 32"><title>timer</title><path d="M3.051 17.414c0 7.144 5.805 12.949 12.949 12.949s12.949-5.805 12.949-12.949c0-3.547-1.439-6.797-3.771-9.129l1.017-1.017.471.471c.198.198.447.298.719.298s.521-.099.719-.298a1.018 1.018 0 0 0 0-1.439l-2.357-2.357a1.018 1.018 0 0 0-1.439 1.439l.471.471-1.116 1.116a12.82 12.82 0 0 0-6.623-2.456v-.868h2.257c.571 0 1.017-.446 1.017-1.017s-.447-1.017-1.017-1.017h-6.698c-.571 0-1.017.447-1.017 1.017s.447 1.017 1.017 1.017h2.406v.868c-6.698.521-11.957 6.102-11.957 12.899zM16 6.499c6.028 0 10.94 4.912 10.94 10.94S22.028 28.379 16 28.379 5.06 23.467 5.06 17.439c0-6.053 4.912-10.94 10.94-10.94z"/><path d="M16 18.257h4.341c.571 0 1.017-.447 1.017-1.017s-.447-1.017-1.017-1.017h-3.324v-5.234c0-.571-.447-1.017-1.017-1.017s-1.017.447-1.017 1.017v6.276a1 1 0 0 0 1.017.992z"/></symbol></svg>
